<?xml version="1.0" encoding="UTF-8" standalone="no"?>
<!DOCTYPE svg PUBLIC "-//W3C//DTD SVG 1.1//EN" "http://www.w3.org/Graphics/SVG/1.1/DTD/svg11.dtd">
<svg version="1.1" xmlns="http://www.w3.org/2000/svg" xmlns:xlink="http://www.w3.org/1999/xlink" preserveAspectRatio="xMidYMid meet" viewBox="0 0 1640 1640" width="1640" height="1640"><defs><path d="M1486.25 1327.57C1486.25 1364.32 1242.74 1325.02 1358.36 1227.02C1473.97 1129.03 1268.5 1139.61 1244.01 1139.61C1221.62 1139.61 1463.86 1177.18 1147.24 1223.15C830.61 1269.12 982.63 1352.84 982.63 1313.91C982.63 1251.61 1184.29 913.86 1244.01 913.86C1303.74 913.86 1486.25 1265.27 1486.25 1327.57Z" id="d3bpVby6v"></path><path d="M1257.83 184.96L1260.36 188.41L1262.76 191.97L1265.03 195.62L1267.16 199.37L1269.16 203.21L1271.02 207.13L1272.74 211.14L1274.31 215.23L1275.73 219.4L1276.99 223.64L1278.1 227.95L1279.05 232.32L1279.83 236.76L1280.45 241.26L1280.89 245.81L1281.16 250.41L1281.25 255.06L1281.16 259.71L1280.89 264.31L1280.45 268.86L1279.83 273.36L1279.05 277.8L1278.1 282.17L1276.99 286.48L1275.73 290.72L1274.31 294.89L1272.74 298.98L1271.02 302.99L1269.16 306.91L1267.16 310.75L1265.03 314.5L1262.76 318.15L1260.36 321.7L1257.83 325.15L1255.19 328.5L1252.42 331.74L1249.54 334.86L1246.54 337.86L1243.44 340.75L1240.23 343.51L1236.93 346.14L1233.52 348.65L1230.02 351.01L1226.43 353.24L1222.75 355.33L1218.98 357.27L1215.14 359.06L1211.22 360.69L1207.22 362.18L1203.16 363.49L1199.02 364.65L1194.83 365.64L1190.57 366.46L1186.26 367.1L1181.9 367.56L1177.49 367.84L1173.03 367.93L1170.75 367.91L1168.48 367.84L1166.23 367.71L1163.98 367.54L1161.75 367.33L1159.54 367.06L1157.33 366.75L1155.14 366.4L1152.97 365.99L1150.81 365.55L1148.66 365.06L1146.54 364.52L1144.43 363.94L1142.33 363.32L1140.25 362.66L1138.2 361.95L1136.15 361.2L1134.13 360.41L1132.13 359.58L1130.15 358.71L1128.18 357.8L1126.24 356.85L1124.32 355.87L1122.42 354.84L1120.55 353.78L1118.69 352.67L1116.86 351.54L1115.05 350.36L1113.27 349.15L1111.51 347.91L1109.77 346.63L1108.06 345.31L1106.38 343.97L1104.72 342.59L1103.09 341.17L1101.49 339.72L1099.91 338.25L1098.36 336.74L1096.85 335.19L1095.36 333.62L1093.95 332.08L1092.57 330.52L1091.23 328.93L1089.91 327.31L1088.62 325.66L1087.35 323.99L1086.12 322.3L1084.92 320.58L1083.75 318.83L1082.61 317.06L1081.5 315.27L1080.42 313.46L1079.38 311.62L1078.36 309.76L1077.38 307.88L1076.44 305.98L1075.52 304.06L1074.65 302.11L1073.8 300.15L1072.99 298.17L1072.22 296.16L1071.48 294.14L1070.78 292.1L1070.12 290.05L1069.49 287.97L1068.9 285.88L1068.35 283.77L1067.83 281.65L1067.36 279.51L1066.92 277.35L1066.53 275.18L1066.17 273L1065.86 270.8L1065.58 268.59L1065.35 266.37L1065.15 264.13L1065 261.88L1064.9 259.62L1064.83 257.34L1064.81 255.06L1064.88 251.22L1064.94 251.16L1067.95 248.88L1071.13 246.99L1074.47 245.49L1077.99 244.37L1081.68 243.63L1085.54 243.28L1089.56 243.32L1093.76 243.75L1098.13 244.56L1102.67 245.76L1107.38 247.34L1112.25 249.32L1117.3 251.67L1122.52 254.42L1127.91 257.55L1133.47 261.07L1139.2 264.97L1145.1 269.26L1151.17 273.94L1157.41 279L1163.82 284.45L1166.18 286.54L1170.57 286.7L1173.41 284.07L1179.99 278.24L1186.4 272.79L1192.64 267.73L1198.71 263.05L1204.61 258.76L1210.34 254.86L1215.9 251.34L1221.29 248.21L1226.51 245.46L1231.56 243.11L1236.43 241.13L1241.14 239.55L1245.68 238.35L1250.05 237.54L1254.25 237.11L1258.27 237.07L1262.13 237.42L1265.82 238.15L1269.34 239.27L1272.68 240.78L1275.86 242.67L1278.87 244.95L1279.24 245.31L1254.31 180.59L1255.19 181.62L1257.83 184.96ZM1065.17 245.81L1065.61 241.26L1066.23 236.76L1067.01 232.32L1067.96 227.95L1069.07 223.64L1070.33 219.4L1071.75 215.23L1073.32 211.14L1075.04 207.13L1076.9 203.21L1078.9 199.37L1081.03 195.62L1083.3 191.97L1085.7 188.41L1088.23 184.96L1090.87 181.62L1092.79 179.38L1065.09 247.08L1065.17 245.81Z" id="j39zjk3EbC"></path><path d="M1470.72 74.42L1473.24 77.87L1475.64 81.42L1477.91 85.07L1480.05 88.82L1482.05 92.66L1483.91 96.58L1485.62 100.59L1487.19 104.68L1488.61 108.85L1489.88 113.09L1490.99 117.4L1491.93 121.78L1492.72 126.21L1493.33 130.71L1493.78 135.26L1494.04 139.86L1494.13 144.51L1494.04 149.16L1493.78 153.76L1493.33 158.32L1492.72 162.81L1491.93 167.25L1490.99 171.62L1489.88 175.93L1488.61 180.17L1487.19 184.34L1485.62 188.43L1483.91 192.44L1482.05 196.37L1480.05 200.2L1477.91 203.95L1475.64 207.6L1473.24 211.16L1470.72 214.61L1468.07 217.95L1465.3 221.19L1462.42 224.31L1459.43 227.32L1456.33 230.2L1453.12 232.96L1449.81 235.6L1446.4 238.1L1442.9 240.47L1439.31 242.69L1435.63 244.78L1431.87 246.72L1428.02 248.51L1426.06 249.33L1426.92 250.24L1434.04 258.43L1441.4 267.46L1448.96 277.27L1456.7 287.79L1464.58 298.97L1472.57 310.75L1480.66 323.07L1488.81 335.86L1496.98 349.07L1505.16 362.64L1513.32 376.5L1521.41 390.6L1529.43 404.88L1537.33 419.27L1545.1 433.73L1552.69 448.17L1560.08 462.56L1567.25 476.82L1574.17 490.9L1580.8 504.73L1587.12 518.26L1593.09 531.43L1598.7 544.17L1603.91 556.43L1608.69 568.15L1613.02 579.26L1616.86 589.71L1620.19 599.43L1622.98 608.37L1625.2 616.47L1626.82 623.66L1627.81 629.89L1628.15 635.1L1627.7 637.71L1626.4 640.04L1624.29 642.09L1621.45 643.86L1617.91 645.35L1613.75 646.56L1609.01 647.5L1603.75 648.16L1598.03 648.55L1591.91 648.67L1585.44 648.52L1578.67 648.11L1571.68 647.43L1564.5 646.48L1557.2 645.27L1549.83 643.81L1542.46 642.08L1535.13 640.09L1527.91 637.85L1520.85 635.36L1514 632.61L1507.43 629.61L1501.19 626.36L1495.33 622.86L1489.92 619.12L1485 615.13L1480.64 610.9L1476.9 606.43L1473.82 601.72L1471.47 596.77L1469.89 591.59L1469.16 586.17L1469.32 580.51L1470.44 574.63L1472.56 568.51L1475.74 562.17L1480.05 555.6L1485.53 548.81L1492.25 541.79L1500.26 534.55L1508.33 527.4L1515.25 520.65L1521.06 514.28L1525.81 508.29L1529.54 502.66L1532.3 497.38L1534.15 492.44L1535.11 487.83L1535.25 483.54L1534.61 479.55L1533.23 475.86L1531.17 472.45L1528.47 469.32L1525.18 466.45L1521.34 463.83L1517.01 461.45L1512.22 459.29L1507.03 457.36L1501.48 455.63L1495.62 454.1L1489.5 452.74L1483.17 451.57L1476.66 450.55L1470.04 449.68L1463.34 448.96L1456.61 448.36L1449.9 447.87L1443.26 447.5L1436.74 447.21L1430.37 447.01L1424.21 446.89L1418.31 446.82L1412.71 446.8L1407.46 446.82L1402.6 446.87L1398.19 446.94L1394.27 447.01L1390.88 447.07L1388.08 447.12L1385.91 447.14L1384.72 447.21L1384.44 447.41L1384.99 447.76L1386.31 448.23L1388.31 448.84L1390.92 449.57L1394.06 450.43L1397.64 451.41L1401.61 452.51L1405.87 453.73L1410.35 455.05L1414.97 456.49L1419.66 458.04L1424.34 459.69L1428.93 461.45L1433.36 463.3L1437.54 465.26L1441.4 467.3L1444.87 469.44L1447.86 471.67L1450.3 473.98L1452.11 476.38L1453.21 478.86L1453.53 481.41L1452.99 484.04L1451.51 486.75L1449.02 489.52L1445.44 492.36L1440.68 495.27L1434.68 498.23L1427.36 501.26L1418.63 504.34L1408.43 507.47L1396.67 510.66L1383.28 513.89L1368.18 517.17L1351.29 520.49L1332.54 523.85L1311.85 527.25L1289.13 530.68L1266.26 534.19L1245.08 537.84L1225.54 541.59L1207.59 545.44L1191.16 549.37L1176.19 553.37L1162.64 557.42L1150.43 561.51L1142.14 564.63L1141.22 566.71L1136.99 576.88L1133.32 586.36L1130.24 595.1L1127.79 603.03L1126 610.1L1124.91 616.26L1124.53 621.44L1124.26 624.13L1123.47 626.38L1122.23 628.19L1120.59 629.6L1118.62 630.6L1116.37 631.22L1113.89 631.47L1111.26 631.36L1108.52 630.92L1105.73 630.15L1102.95 629.07L1100.25 627.69L1097.67 626.04L1095.28 624.12L1093.13 621.95L1091.29 619.55L1089.8 616.93L1088.74 614.1L1088.15 611.09L1088.1 607.9L1088.64 604.55L1089.84 601.05L1091.74 597.43L1094.41 593.7L1097.91 589.86L1102.3 585.94L1107.62 581.95L1113.95 577.91L1121.34 573.83L1129.84 569.73L1139.52 565.61L1142.14 564.63L1145.98 555.91L1151.25 544.54L1156.98 532.65L1163.14 520.3L1169.7 507.55L1176.64 494.46L1183.91 481.09L1191.49 467.48L1199.34 453.71L1207.43 439.82L1215.73 425.87L1224.21 411.93L1232.83 398.05L1241.56 384.28L1250.37 370.69L1259.23 357.33L1268.11 344.26L1276.96 331.54L1285.77 319.22L1294.5 307.36L1303.12 296.02L1311.58 285.26L1319.88 275.13L1327.96 265.7L1335.8 257.01L1343.36 249.13L1343.95 248.57L1343.03 248.16L1341.07 247.25L1339.13 246.31L1337.21 245.32L1335.31 244.29L1333.43 243.23L1331.58 242.13L1329.74 240.99L1327.94 239.82L1326.15 238.61L1324.39 237.36L1322.66 236.08L1320.95 234.77L1319.26 233.42L1317.61 232.04L1315.98 230.62L1314.37 229.18L1312.8 227.7L1311.25 226.19L1309.73 224.65L1308.24 223.08L1306.84 221.54L1305.46 219.97L1304.11 218.38L1302.79 216.76L1301.5 215.12L1300.24 213.45L1299.01 211.75L1297.8 210.03L1296.63 208.29L1295.49 206.52L1294.38 204.73L1293.31 202.91L1292.26 201.07L1291.25 199.22L1290.27 197.33L1289.32 195.43L1288.41 193.51L1287.53 191.57L1286.69 189.6L1285.88 187.62L1285.11 185.62L1284.37 183.6L1283.67 181.56L1283 179.5L1282.37 177.43L1281.78 175.33L1281.23 173.23L1280.72 171.1L1280.24 168.96L1279.81 166.81L1279.41 164.64L1279.06 162.45L1278.74 160.26L1278.47 158.04L1278.23 155.82L1278.04 153.58L1277.89 151.33L1277.78 149.07L1277.72 146.8L1277.69 144.51L1277.77 140.67L1277.83 140.62L1280.83 138.34L1284.01 136.45L1287.36 134.94L1290.87 133.82L1294.56 133.08L1298.42 132.74L1302.45 132.78L1306.65 133.2L1311.01 134.01L1315.55 135.21L1320.26 136.8L1325.14 138.77L1330.19 141.13L1335.41 143.87L1340.79 147L1346.35 150.52L1352.08 154.42L1357.98 158.71L1364.05 163.39L1370.29 168.45L1376.7 173.9L1379.06 176L1383.46 176.15L1386.3 173.53L1392.88 167.69L1399.29 162.24L1405.53 157.18L1411.6 152.5L1417.5 148.21L1423.23 144.31L1428.78 140.79L1434.17 137.66L1439.39 134.92L1444.44 132.56L1449.32 130.59L1454.03 129L1458.56 127.8L1462.93 126.99L1467.13 126.57L1471.16 126.53L1475.02 126.87L1478.7 127.61L1482.22 128.73L1485.57 130.23L1488.75 132.13L1491.75 134.41L1492.13 134.76L1467.19 70.04L1468.07 71.07L1470.72 74.42ZM1375.93 223.84L1370.23 226.83L1364.08 230.91L1357.53 236.02L1350.62 242.12L1343.95 248.57L1345.01 249.03L1347.02 249.86L1349.04 250.65L1351.08 251.4L1353.14 252.11L1355.22 252.77L1357.31 253.4L1359.42 253.97L1361.55 254.51L1363.69 255L1365.85 255.45L1368.03 255.85L1370.22 256.21L1372.42 256.52L1374.64 256.78L1376.87 257L1379.11 257.17L1381.37 257.29L1383.64 257.36L1385.91 257.39L1390.37 257.29L1394.78 257.01L1399.15 256.55L1403.46 255.91L1407.71 255.09L1411.91 254.1L1416.04 252.95L1420.1 251.63L1424.1 250.15L1426.06 249.33L1420.05 242.95L1413.47 236.61L1407.21 231.29L1401.3 227.05L1395.76 223.94L1390.62 222.04L1385.91 221.39L1381.17 222.01L1375.93 223.84ZM1278.05 135.26L1278.5 130.71L1279.11 126.21L1279.89 121.78L1280.84 117.4L1281.95 113.09L1283.22 108.85L1284.63 104.68L1286.2 100.59L1287.92 96.58L1289.78 92.66L1291.78 88.82L1293.92 85.07L1296.19 81.42L1298.59 77.87L1301.11 74.42L1303.76 71.07L1305.68 68.83L1277.98 136.54L1278.05 135.26Z" id="a6QPR7DIdb"></path><path d="M1189.5 222.81L1195.04 225.91L1200.96 230.15L1207.22 235.47L1213.8 241.81L1219.81 248.19L1217.85 249.01L1213.85 250.49L1209.79 251.81L1205.66 252.97L1201.46 253.96L1197.21 254.77L1192.9 255.41L1188.53 255.88L1184.12 256.16L1179.66 256.25L1177.38 256.23L1175.12 256.15L1172.86 256.03L1170.62 255.86L1168.39 255.64L1166.17 255.38L1163.96 255.07L1161.78 254.71L1159.6 254.31L1157.44 253.86L1155.3 253.37L1153.17 252.84L1151.06 252.26L1148.96 251.64L1146.89 250.97L1144.83 250.27L1142.79 249.52L1140.76 248.73L1138.76 247.9L1137.69 247.43L1144.36 240.98L1151.28 234.89L1157.83 229.77L1163.97 225.69L1169.68 222.71L1174.92 220.87L1179.66 220.25L1184.37 220.9L1189.5 222.81Z" id="b9ttFoFS2I"></path><path d="M1231.38 1028.93C1063.13 1347.73 1088.78 1293.77 1088.78 1333.33C1088.78 1370.09 1332.28 1330.78 1216.67 1232.79C1101.06 1134.79 1306.52 1145.37 1331.01 1145.37C1353.41 1145.37 1111.17 1182.95 1427.79 1228.91C1744.41 1274.88 1592.39 1358.61 1592.39 1319.67C1592.39 1281.67 1424.47 1108.66 1445.27 1037.36C1466.08 966.07 1354.31 919.62 1331.01 919.62C1309.21 919.62 1399.63 710.12 1231.38 1028.93Z" id="a7IIjWMJ"></path><path d="M1522.55 671.97L1523.81 672.12L1525.04 672.34L1526.25 672.6L1527.44 672.93L1528.6 673.31L1529.73 673.74L1530.83 674.22L1531.91 674.75L1532.95 675.32L1533.97 675.95L1534.95 676.61L1535.89 677.32L1536.8 678.07L1537.68 678.86L1537.76 678.95L1535.9 680.6L1533.82 682.64L1531.7 684.89L1529.54 687.36L1527.33 690.05L1525.08 692.97L1522.78 696.1L1527.78 759.14L1503.07 838.04L1541.34 930.19L1543.97 963.37L1303.78 963.37L1308.25 906.96L1345 833.74L1319.15 769.42L1324.44 702.8L1322.14 699.67L1319.89 696.75L1317.68 694.06L1315.51 691.59L1313.39 689.33L1311.31 687.3L1309.28 685.49L1307.29 683.9L1305.58 682.7L1306.32 681.91L1307.49 680.78L1308.72 679.71L1309.99 678.7L1311.32 677.74L1312.69 676.85L1314.12 676.02L1315.58 675.26L1317.1 674.57L1318.65 673.95L1320.24 673.41L1321.88 672.94L1323.55 672.55L1325.25 672.25L1326.99 672.03L1328.77 671.89L1330.57 671.85L1519.98 671.85L1521.27 671.88L1522.55 671.97Z" id="auriNDEVJ"></path><path d="M1077.11 674.36L1081.4 677.9L1085.56 681.37L1089.59 684.78L1093.49 688.13L1097.27 691.43L1100.92 694.66L1104.44 697.83L1107.83 700.94L1111.1 703.99L1114.24 706.98L1117.25 709.91L1120.13 712.78L1122.89 715.59L1125.52 718.34L1128.02 721.03L1130.39 723.65L1132.63 726.22L1134.75 728.73L1135.94 730.19L1138.27 776.12L1137.06 776.54L1135.09 777.11L1133 777.63L1130.78 778.09L1128.42 778.48L1125.95 778.82L1123.34 779.09L1120.61 779.31L1117.74 779.46L1114.75 779.56L1111.64 779.59L1108.39 779.57L1105.02 779.48L1101.52 779.33L1097.89 779.12L1094.14 778.86L1090.26 778.53L1086.24 778.14L1082.11 777.69L1077.84 777.18L1073.45 776.61L1068.93 775.98L1064.28 775.29L1059.5 774.54L1054.6 773.73L1049.56 772.86L1044.4 771.93L1039.12 770.94L1033.7 769.88L1028.16 768.77L1022.49 767.6L1016.69 766.37L1010.47 767.37L1004.38 768.33L998.43 769.22L992.61 770.07L986.93 770.85L981.38 771.59L975.98 772.27L970.7 772.89L965.57 773.46L960.57 773.97L955.71 774.43L950.98 774.84L946.39 775.19L941.93 775.48L937.61 775.72L933.43 775.91L929.38 776.04L925.47 776.11L921.7 776.13L918.06 776.1L914.56 776.01L911.2 775.87L907.97 775.67L904.87 775.42L901.92 775.11L899.1 774.75L896.88 774.4L902.26 711.28L903.58 710.06L906.62 707.34L909.79 704.57L913.09 701.74L916.54 698.86L920.12 695.92L923.83 692.93L927.68 689.88L931.67 686.78L935.79 683.63L940.05 680.41L944.45 677.15L948.98 673.83L915.68 553.83L922.58 472.79L1019.36 582.32L1122.48 465.6L1125.35 522.06L1077.11 674.36Z" id="g1vXj9lqKp"></path><path d="M1348.65 863.29L1372.86 958.37L1367.96 1034.35L1370.21 1038.13L1372.42 1041.64L1374.59 1044.89L1376.71 1047.86L1378.79 1050.58L1380.83 1053.03L1382.82 1055.21L1383.75 1056.13L1383.13 1056.71L1382.24 1057.49L1381.3 1058.22L1380.34 1058.92L1379.34 1059.57L1378.3 1060.19L1377.24 1060.75L1376.15 1061.27L1375.03 1061.74L1373.89 1062.16L1372.72 1062.53L1371.52 1062.85L1370.3 1063.11L1369.06 1063.31L1367.8 1063.46L1366.52 1063.55L1365.22 1063.59L1179.57 1063.59L1177.75 1063.54L1175.96 1063.41L1174.2 1063.19L1172.46 1062.89L1170.77 1062.51L1169.1 1062.05L1167.48 1061.52L1165.89 1060.91L1164.34 1060.23L1162.84 1059.49L1161.37 1058.67L1159.96 1057.79L1158.59 1056.85L1157.26 1055.85L1155.99 1054.8L1154.77 1053.68L1153.61 1052.52L1153.13 1051.99L1154.84 1050.71L1156.75 1049.06L1158.71 1047.14L1160.7 1044.96L1162.74 1042.51L1164.82 1039.79L1166.94 1036.81L1169.1 1033.57L1171.31 1030.06L1173.56 1026.28L1168.39 945.98L1193.72 868.47L1157.7 780.22L1153.32 712.23L1388.73 712.23L1386.15 752.23L1348.65 863.29Z" id="a1CBu7ee0"></path><path d="M419.9 260.78L424.19 264.32L428.35 267.79L432.38 271.2L436.29 274.55L440.06 277.84L443.71 281.08L447.23 284.25L450.63 287.36L453.89 290.41L457.03 293.4L460.04 296.33L462.93 299.2L465.68 302.01L468.31 304.76L470.81 307.44L473.18 310.07L475.43 312.64L477.54 315.15L478.73 316.61L481.07 362.54L479.86 362.96L477.89 363.53L477.64 363.59L477.03 374.01L441.66 475.37L465.99 561.61L461.92 630.75L464.14 634.17L466.31 637.34L468.44 640.27L470.52 642.96L472.56 645.41L474.56 647.62L476.51 649.58L477.1 650.11L476.67 650.53L475.81 651.29L474.93 652.01L474.01 652.7L473.06 653.34L472.07 653.94L471.48 654.27L472.27 655.39L478.17 663.7L484.01 671.88L489.75 679.91L495.37 687.77L500.82 695.43L506.08 702.88L507.03 704.24L515.89 707.21L526.8 711.32L536.48 715.43L544.99 719.53L552.37 723.61L558.7 727.66L564.03 731.64L568.41 735.56L571.91 739.4L574.58 743.13L576.48 746.76L577.68 750.25L578.22 753.6L578.17 756.79L577.58 759.8L576.52 762.63L575.04 765.25L573.19 767.65L571.04 769.82L568.65 771.74L566.08 773.39L563.37 774.77L560.59 775.85L557.81 776.62L555.07 777.06L552.43 777.17L549.95 776.92L547.7 776.3L545.73 775.3L544.09 773.9L542.85 772.08L542.06 769.83L541.79 767.14L541.48 764.04L540.57 760.46L539.1 756.41L537.11 751.92L534.61 747.02L531.66 741.72L528.27 736.05L524.49 730.03L520.35 723.68L515.87 717.02L511.11 710.08L507.03 704.24L503.68 703.12L490.13 699.07L475.17 695.07L458.74 691.14L440.78 687.29L421.24 683.54L400.07 679.9L377.19 676.38L354.48 672.95L333.78 669.55L315.03 666.19L298.14 662.87L283.04 659.59L281.09 659.12L279.54 659.14L277.79 659.11L276.07 659L274.37 658.81L272.71 658.53L271.08 658.18L269.48 657.75L267.91 657.25L266.39 656.67L264.9 656.03L263.45 655.32L262.04 654.55L261.32 654.1L257.89 653.17L247.69 650.04L238.96 646.96L231.64 643.93L225.64 640.97L220.89 638.06L217.3 635.22L214.81 632.45L213.33 629.75L212.79 627.12L213.11 624.56L214.21 622.08L216.02 619.68L218.46 617.37L221.45 615.14L224.92 613.01L228.78 610.96L232.96 609.01L237.39 607.15L241.98 605.4L246.66 603.74L251.35 602.2L255.97 600.76L260.45 599.43L264.71 598.21L268.68 597.11L271.12 596.45L270.82 592.69L268.13 592.64L263.72 592.58L258.87 592.53L253.61 592.51L248.01 592.52L242.11 592.59L235.95 592.72L229.59 592.92L223.06 593.2L216.42 593.58L209.71 594.06L202.98 594.66L196.28 595.39L189.66 596.25L183.15 597.27L176.82 598.45L170.7 599.8L164.84 601.33L159.29 603.06L154.1 605L149.32 607.15L144.98 609.53L141.14 612.15L137.85 615.02L135.15 618.16L133.09 621.56L131.71 625.25L131.07 629.24L131.21 633.53L132.18 638.14L134.02 643.08L136.78 648.36L140.51 653.99L145.26 659.99L151.07 666.35L157.99 673.11L166.07 680.25L174.07 687.49L180.79 694.51L186.27 701.3L190.58 707.87L193.76 714.22L195.88 720.33L197 726.22L197.16 731.87L196.43 737.29L194.86 742.47L192.5 747.42L189.43 752.13L185.68 756.61L181.32 760.84L176.41 764.82L170.99 768.57L165.14 772.06L158.89 775.31L152.32 778.31L145.47 781.06L138.41 783.55L131.19 785.79L123.86 787.78L116.49 789.51L109.12 790.98L101.82 792.18L94.65 793.13L87.65 793.81L80.89 794.23L74.41 794.38L68.29 794.25L62.57 793.86L57.32 793.2L52.58 792.26L48.41 791.05L44.88 789.56L42.03 787.79L39.92 785.74L38.62 783.41L38.17 780.8L38.13 778L38.01 775.51L37.83 773.28L37.62 771.27L37.4 769.44L37.18 767.74L36.99 766.12L36.85 764.56L36.78 762.99L36.79 761.38L36.92 759.68L37.18 757.86L37.58 755.86L38.16 753.64L38.93 751.16L39.91 748.38L41.13 745.24L42.6 741.72L44.34 737.76L46.38 733.31L48.74 728.35L51.43 722.82L54.47 716.67L57.9 709.88L61.72 702.38L65.96 694.14L70.64 685.12L75.78 675.26L81.4 664.54L87.52 652.89L94.16 640.29L101.34 626.68L109.09 612.02L117.41 596.27L126.35 579.38L135.9 561.32L146.1 542.03L156.97 521.48L168.52 499.61L180.78 476.39L192.92 453.46L204.12 432.44L214.43 413.27L223.86 395.86L232.47 380.16L240.28 366.1L242.99 361.31L241.89 361.17L239.67 360.82L245.05 297.7L246.38 296.48L249.41 293.76L252.58 290.99L255.89 288.16L259.33 285.28L262.91 282.34L266.63 279.35L270.48 276.3L274.47 273.2L278.59 270.04L282.85 266.83L287.25 263.57L291.78 260.25L258.47 140.25L265.38 59.2L362.16 168.73L465.28 52.02L468.15 108.48L419.9 260.78Z" id="d25QhxPXtV"></path><path d="M1231.38 903.19C1063.13 1222 1088.78 1168.04 1088.78 1207.6C1088.78 1244.36 1332.28 1205.05 1216.67 1107.06C1101.06 1009.06 1306.52 1019.64 1331.01 1019.64C1353.41 1019.64 1111.17 1057.21 1427.79 1103.18C1744.41 1149.15 1592.39 1232.88 1592.39 1193.94C1592.39 1155.94 1424.47 982.93 1445.27 911.63C1466.08 840.34 1354.31 793.89 1331.01 793.89C1309.21 793.89 1399.63 584.39 1231.38 903.19Z" id="b1wz8I56FJ"></path><path d="M756.18 156.35L759.05 156.54L761.82 156.81L764.47 157.17L767.02 157.62L769.45 158.15L771.78 158.78L774 159.48L776.12 160.28L778.12 161.16L780.01 162.13L781.27 162.87L777.93 219.64L776.36 221.8L774.2 224.79L772 227.87L769.78 231.03L767.56 234.3L765.34 237.67L763.15 241.15L761 244.75L758.9 248.47L756.87 252.32L754.92 256.3L753.07 260.43L751.34 264.7L749.72 269.13L748.25 273.72L746.94 278.48L745.8 283.41L744.84 288.52L744.08 293.81L743.54 299.3L743.23 304.98L743.16 310.87L743.22 314.3L743.32 317.75L743.48 321.23L743.68 324.73L743.93 328.26L744.23 331.81L744.58 335.39L744.98 339L745.43 342.63L745.92 346.28L746.46 349.96L747.05 353.66L747.69 357.39L748.38 361.15L749.12 364.93L749.9 368.73L750.73 372.56L751.62 376.42L752.55 380.3L753.53 384.2L754.55 388.14L755.63 392.09L756.75 396.07L757.92 400.08L759.14 404.11L760.41 408.16L761.73 412.25L763.1 416.35L764.51 420.48L765.88 424.38L763.86 458.76L697.75 385.66L666.55 264.09L640.93 387.51L574.34 453.86L571.46 417.24L572.84 413.77L574.28 410.03L575.68 406.31L577.01 402.61L578.3 398.94L579.53 395.28L580.7 391.65L581.82 388.03L582.89 384.44L583.91 380.87L584.87 377.32L585.78 373.8L586.63 370.29L587.43 366.8L588.18 363.34L588.87 359.89L589.51 356.47L590.1 353.07L590.63 349.69L591.11 346.33L591.53 343L591.91 339.68L592.22 336.39L592.49 333.11L592.7 329.86L592.85 326.63L592.96 323.42L593.01 320.23L593 317.06L592.8 311.17L592.31 305.47L591.55 299.97L590.55 294.65L589.32 289.51L587.87 284.54L586.22 279.74L584.39 275.1L582.39 270.61L580.24 266.27L577.97 262.08L575.58 258.02L573.09 254.09L570.51 250.29L567.88 246.61L565.19 243.03L562.48 239.57L559.74 236.2L557.02 232.94L556.96 232.87L551.23 160.01L552.07 159.78L554.66 159.18L557.37 158.66L560.2 158.23L563.16 157.89L566.24 157.64L569.45 157.48L572.78 157.4L576.23 157.41L579.81 157.51L583.51 157.69L587.34 157.97L591.29 158.33L595.37 158.77L599.57 159.31L603.9 159.93L608.34 160.64L612.92 161.44L617.62 162.33L622.44 163.3L627.38 164.36L632.46 165.51L637.65 166.75L642.97 168.07L648.41 169.49L653.98 170.99L659.67 172.57L665.49 174.25L670.75 172.52L675.91 170.88L680.96 169.33L685.89 167.86L690.72 166.49L695.44 165.19L700.05 163.99L704.55 162.87L708.95 161.84L713.23 160.9L717.41 160.04L721.48 159.27L725.44 158.59L729.29 157.99L733.03 157.48L736.66 157.06L740.19 156.73L743.6 156.48L746.91 156.32L750.11 156.24L753.2 156.25L756.18 156.35Z" id="a1kRTXHGbf"></path><path d="M1046.39 166.4L1044.97 170.53L1043.61 174.64L1042.29 178.72L1041.02 182.78L1039.8 186.81L1038.63 190.81L1037.5 194.79L1036.43 198.75L1035.4 202.68L1034.42 206.58L1033.49 210.46L1032.61 214.32L1031.78 218.15L1030.99 221.95L1030.26 225.73L1029.57 229.49L1028.93 233.22L1028.34 236.92L1027.79 240.6L1027.3 244.26L1026.86 247.89L1026.46 251.49L1026.11 255.07L1025.81 258.62L1025.56 262.15L1025.35 265.66L1025.2 269.14L1025.09 272.59L1025.04 276.02L1025.1 281.9L1025.42 287.59L1025.96 293.07L1026.72 298.37L1027.67 303.47L1028.82 308.4L1030.13 313.16L1031.6 317.75L1033.21 322.18L1034.95 326.45L1036.8 330.58L1038.75 334.57L1040.78 338.42L1042.88 342.14L1045.03 345.73L1047.22 349.22L1049.43 352.59L1051.66 355.85L1053.87 359.02L1056.07 362.09L1058.23 365.08L1059.8 367.25L1063.14 424.01L1061.89 424.76L1059.99 425.72L1057.99 426.61L1055.88 427.4L1053.66 428.11L1051.33 428.73L1048.89 429.26L1046.34 429.71L1043.69 430.07L1040.93 430.34L1038.05 430.53L1035.07 430.63L1031.98 430.64L1028.78 430.57L1025.48 430.41L1022.06 430.16L1018.54 429.82L1014.9 429.4L1011.16 428.89L1007.31 428.3L1003.35 427.61L999.28 426.84L995.11 425.99L990.82 425.04L986.43 424.01L981.93 422.89L977.32 421.69L972.6 420.4L967.77 419.02L962.83 417.55L957.78 416L952.63 414.36L947.37 412.64L941.55 414.31L935.86 415.9L930.29 417.4L924.85 418.81L919.53 420.13L914.33 421.37L909.26 422.52L904.31 423.58L899.49 424.55L894.79 425.44L890.22 426.24L885.77 426.95L881.45 427.57L877.24 428.11L873.17 428.56L869.22 428.92L865.39 429.19L861.69 429.38L858.11 429.48L854.65 429.49L851.32 429.41L848.11 429.24L845.03 428.99L842.08 428.65L839.24 428.22L836.53 427.71L833.95 427.11L833.11 426.87L838.84 354.01L838.89 353.95L841.62 350.68L844.35 347.31L847.07 343.85L849.75 340.28L852.39 336.59L854.96 332.79L857.45 328.86L859.84 324.8L862.12 320.61L864.26 316.27L866.26 311.78L868.09 307.14L869.74 302.34L871.19 297.37L872.43 292.23L873.43 286.91L874.18 281.41L874.67 275.72L874.88 269.82L874.88 266.66L874.83 263.47L874.73 260.26L874.57 257.03L874.36 253.77L874.1 250.5L873.78 247.2L873.41 243.89L872.98 240.55L872.5 237.19L871.97 233.81L871.39 230.41L870.75 226.99L870.05 223.55L869.31 220.08L868.51 216.6L867.65 213.09L866.74 209.56L865.78 206.01L864.77 202.44L863.7 198.85L862.58 195.24L861.4 191.6L860.17 187.95L858.89 184.27L857.55 180.57L856.16 176.86L854.71 173.12L853.33 169.64L856.21 133.02L922.8 199.37L948.43 322.8L979.62 201.23L1045.74 128.13L1047.76 162.51L1046.39 166.4Z" id="a2eebCjmV"></path><path d="M936.93 589.59L939.26 589.87L941.56 590.24L943.81 590.72L946.03 591.29L948.2 591.96L950.32 592.73L952.4 593.58L954.43 594.52L956.4 595.55L958.32 596.66L960.19 597.85L961.99 599.12L963.74 600.46L965.42 601.88L967.04 603.36L968.59 604.91L970.07 606.53L971.48 608.21L972.28 609.25L970.34 610.4L968.09 612.3L965.79 614.78L963.43 617.85L961.01 621.51L958.55 625.76L956.02 630.59L953.45 636.01L950.82 642.01L948.14 648.61L945.4 655.79L942.61 663.55L939.76 671.91L945.08 816.22L899.22 1025.06L960.88 1245.26L965.36 1366.7L667.72 1366.7L670.72 1285.44L724.58 1025.06L688.5 802.66L693.98 654.05L691.13 645.69L688.34 637.93L685.6 630.75L682.92 624.15L680.29 618.15L677.72 612.73L675.19 607.9L672.73 603.65L670.79 600.71L671.36 600.12L672.49 599.04L673.66 598.01L674.88 597.03L676.15 596.1L677.45 595.22L678.79 594.4L680.17 593.63L681.59 592.92L683.04 592.27L684.53 591.68L686.05 591.16L687.6 590.69L689.18 590.3L690.78 589.97L692.41 589.71L694.07 589.53L695.75 589.41L697.45 589.38L932.16 589.38L934.56 589.43L936.93 589.59Z" id="e1I80SbdZn"></path><path d="M530.33 851.35L534 848.42L537.88 845.98L541.97 844.05L546.26 842.6L550.76 841.66L555.47 841.21L560.39 841.26L565.51 841.81L570.84 842.86L576.38 844.4L582.13 846.44L588.08 848.97L594.25 852.01L600.62 855.54L607.2 859.57L613.98 864.09L620.97 869.11L628.18 874.63L635.58 880.65L643.2 887.16L651.03 894.17L653.91 896.87L659.27 897.06L662.74 893.69L670.77 886.18L678.6 879.17L686.21 872.66L693.62 866.64L700.82 861.12L707.82 856.1L714.6 851.58L721.18 847.55L727.55 844.02L733.71 840.98L739.67 838.45L745.42 836.41L750.96 834.87L756.29 833.82L761.41 833.27L766.33 833.22L771.04 833.67L775.54 834.61L779.83 836.06L783.92 837.99L787.8 840.43L791.47 843.36L791.93 843.82L754.68 741.94L759.12 745.1L763.86 748.72L768.48 752.5L772.96 756.43L777.29 760.5L781.46 764.72L785.48 769.07L789.32 773.56L792.98 778.17L796.44 782.91L799.71 787.77L802.77 792.75L805.61 797.84L808.22 803.04L810.6 808.34L812.73 813.74L814.6 819.24L816.21 824.82L817.55 830.49L818.61 836.25L819.38 842.08L819.84 847.99L820 853.97L819.94 857.41L819.75 861.06L819.44 864.89L819.01 868.91L818.47 873.09L817.82 877.43L817.06 881.9L816.2 886.51L815.25 891.23L814.19 896.06L813.05 900.97L811.82 905.97L810.5 911.03L809.11 916.15L807.64 921.31L806.1 926.49L804.48 931.69L802.81 936.9L801.07 942.1L799.27 947.28L797.42 952.42L795.52 957.52L793.57 962.56L791.59 967.53L789.56 972.41L787.5 977.2L785.4 981.88L783.28 986.44L781.13 990.87L778.97 995.15L776.79 999.28L774.59 1003.23L772.39 1007L770.18 1010.57L767.97 1013.94L765.76 1017.08L763.56 1019.99L761.36 1022.66L759.18 1025.07L757.02 1027.21L755.27 1028.68L753.45 1029.91L751.58 1030.91L749.66 1031.68L747.68 1032.24L745.65 1032.6L743.57 1032.76L741.45 1032.75L739.28 1032.56L737.08 1032.22L734.83 1031.72L732.54 1031.09L730.22 1030.34L727.87 1029.47L725.49 1028.49L723.08 1027.42L720.64 1026.26L718.18 1025.04L715.69 1023.75L713.19 1022.41L710.67 1021.03L708.13 1019.62L705.58 1018.19L703.02 1016.76L700.44 1015.32L697.87 1013.91L695.28 1012.51L692.7 1011.16L690.11 1009.84L687.53 1008.59L684.95 1007.41L682.38 1006.3L679.81 1005.28L677.26 1004.36L674.72 1003.56L672.19 1002.88L669.68 1002.33L667.19 1001.92L664.72 1001.67L662.27 1001.58L659.48 1001.68L656.7 1001.96L653.91 1002.42L651.13 1003.03L648.35 1003.8L645.58 1004.7L642.81 1005.72L640.05 1006.86L637.31 1008.09L634.57 1009.41L631.84 1010.81L629.13 1012.26L626.44 1013.76L623.75 1015.3L621.09 1016.87L618.45 1018.44L615.82 1020.01L613.22 1021.57L610.63 1023.11L608.07 1024.6L605.54 1026.05L603.03 1027.43L600.55 1028.73L598.1 1029.95L595.67 1031.06L593.28 1032.06L590.92 1032.94L588.59 1033.68L586.3 1034.26L584.05 1034.69L581.83 1034.93L579.65 1034.99L577.51 1034.85L575.41 1034.5L573.35 1033.92L571.34 1033.1L569.37 1032.04L567.45 1030.71L565.58 1029.1L563.75 1027.21L561.99 1025.08L560.19 1022.65L558.35 1019.91L556.47 1016.89L554.55 1013.6L552.61 1010.06L550.64 1006.28L548.66 1002.28L546.66 998.07L544.66 993.67L542.64 989.09L540.63 984.35L538.63 979.47L536.64 974.45L534.66 969.31L532.7 964.08L530.76 958.76L528.85 953.37L526.98 947.93L525.14 942.44L523.35 936.93L521.61 931.41L519.92 925.9L518.29 920.41L516.72 914.95L515.21 909.55L513.78 904.21L512.42 898.95L511.15 893.8L509.96 888.75L508.86 883.83L507.86 879.06L506.96 874.44L506.16 870L505.47 865.74L504.9 861.69L504.45 857.86L504.12 854.26L503.91 850.92L503.85 847.83L504 841.87L504.47 835.99L505.25 830.21L506.31 824.53L507.66 818.95L509.29 813.47L511.18 808.1L513.32 802.84L515.72 797.69L518.35 792.66L521.21 787.75L524.29 782.96L527.58 778.3L531.07 773.76L534.75 769.36L538.61 765.09L542.65 760.96L546.86 756.97L551.21 753.13L555.72 749.43L560.36 745.89L565.13 742.49L570.01 739.25L572.61 737.66L527.32 854.33L530.33 851.35Z" id="bw8DaE9ej"></path><path d="M1217.76 480.25L1221.44 480.66L1225.21 481.24L1229.08 481.98L1233.05 482.88L1237.11 483.95L1241.27 485.18L1245.53 486.57L1249.88 488.13L1254.33 489.85L1258.88 491.73L1263.53 493.77L1268.27 495.98L1273.11 498.35L1277.25 498.69L1281.32 499.09L1285.31 499.54L1289.22 500.05L1293.05 500.62L1296.81 501.25L1300.49 501.94L1304.09 502.68L1307.61 503.48L1311.06 504.34L1314.42 505.26L1317.71 506.23L1320.93 507.27L1324.06 508.36L1327.12 509.51L1330.1 510.72L1333 511.98L1335.82 513.3L1338.57 514.68L1341.24 516.12L1343.83 517.62L1346.34 519.18L1348.78 520.79L1351.14 522.46L1353.42 524.19L1355.62 525.98L1357.74 527.82L1359.79 529.72L1361.76 531.68L1363.65 533.7L1365.46 535.78L1367.2 537.91L1368.86 540.11L1370.44 542.36L1371.94 544.67L1373.37 547.03L1374.72 549.46L1375.99 551.94L1377.18 554.48L1378.29 557.08L1379.34 559.8L1380.32 562.71L1381.24 565.81L1382.1 569.09L1382.89 572.57L1383.62 576.23L1384.29 580.08L1384.9 584.12L1385.44 588.35L1385.92 592.76L1386.34 597.37L1386.69 602.16L1386.98 607.14L1387.21 612.31L1387.38 617.66L1387.48 623.21L1387.52 628.94L1387.5 634.86L1387.42 640.97L1387.27 647.27L1387.06 653.75L1386.79 660.43L1386.45 667.29L1386.05 674.34L1385.59 681.58L1385.07 689L1384.48 696.62L1383.83 704.42L1383.12 712.41L1382.35 720.59L1381.51 728.96L1380.61 737.51L1379.65 746.26L1378.62 755.19L1377.53 764.31L1376.38 773.62L1375.17 783.12L1373.89 792.8L1372.55 802.67L1371.15 812.73L1355.38 928.41L1395.04 1127.61L1390.44 1265.26L1392.9 1273.22L1395.32 1280.63L1397.68 1287.48L1400.01 1293.77L1402.28 1299.5L1404.51 1304.67L1406.69 1309.28L1408.82 1313.32L1410.91 1316.81L1412.95 1319.74L1414.94 1322.11L1416.89 1323.92L1418.79 1325.17L1419.9 1325.59L1419.47 1326.19L1418.28 1327.7L1417.04 1329.15L1415.73 1330.55L1414.37 1331.89L1412.95 1333.18L1411.47 1334.4L1409.94 1335.56L1408.35 1336.66L1406.72 1337.69L1405.04 1338.65L1403.31 1339.54L1401.53 1340.35L1399.72 1341.09L1397.86 1341.75L1395.96 1342.33L1394.03 1342.82L1392.06 1343.23L1390.06 1343.55L1388.03 1343.79L1385.96 1343.93L1383.87 1343.98L1180.88 1343.98L1179.4 1343.94L1177.94 1343.85L1176.5 1343.69L1175.08 1343.46L1173.68 1343.18L1172.31 1342.84L1170.96 1342.44L1169.64 1341.99L1168.34 1341.48L1167.08 1340.92L1165.84 1340.3L1164.64 1339.64L1163.46 1338.93L1162.32 1338.17L1161.22 1337.37L1160.15 1336.52L1159.12 1335.63L1158.13 1334.7L1157.37 1333.92L1157.41 1333.85L1159.5 1330.36L1161.64 1326.31L1163.82 1321.7L1166.04 1316.53L1168.32 1310.8L1170.64 1304.52L1173.01 1297.67L1175.42 1290.26L1177.88 1282.29L1173.15 1140.55L1204.34 928.41L1200.93 912.75L1197.63 897.38L1194.44 882.3L1191.37 867.52L1188.4 853.03L1185.55 838.83L1182.81 824.93L1180.18 811.32L1177.67 798.01L1175.26 784.98L1172.97 772.26L1170.79 759.82L1168.72 747.68L1166.77 735.83L1164.92 724.27L1163.19 713.01L1161.57 702.04L1160.06 691.37L1158.66 680.99L1157.49 671.78L1153.13 541.17L1153.38 539.49L1154.22 534.97L1155.18 530.75L1156.23 526.76L1157.39 522.93L1158.64 519.27L1159.99 515.77L1161.43 512.43L1162.98 509.25L1164.61 506.24L1166.35 503.39L1168.18 500.7L1170.11 498.18L1172.14 495.82L1174.27 493.62L1176.49 491.59L1178.8 489.72L1181.22 488.01L1183.73 486.47L1186.34 485.09L1189.05 483.87L1191.85 482.81L1194.75 481.92L1197.75 481.19L1200.84 480.63L1204.03 480.23L1207.32 479.99L1210.7 479.91L1214.18 480L1217.76 480.25Z" id="bJbhuSrwQ"></path><path d="M259.11 457.02L262.79 457.43L266.56 458.01L270.43 458.75L274.39 459.65L278.46 460.71L282.62 461.94L286.88 463.34L291.23 464.89L295.68 466.61L300.23 468.49L304.87 470.54L309.62 472.75L314.46 475.12L318.6 475.46L322.67 475.85L326.66 476.31L330.57 476.82L334.4 477.39L338.16 478.02L341.84 478.7L345.44 479.45L348.96 480.25L352.41 481.11L355.77 482.02L359.06 483L362.28 484.03L365.41 485.12L368.47 486.27L371.45 487.48L374.35 488.75L377.17 490.07L379.92 491.45L382.59 492.89L385.18 494.39L387.69 495.94L390.13 497.56L392.48 499.23L394.76 500.96L396.97 502.74L399.09 504.59L401.14 506.49L403.11 508.45L405 510.47L406.81 512.55L408.55 514.68L410.21 516.87L411.79 519.12L413.29 521.43L414.72 523.8L416.07 526.22L417.34 528.71L418.53 531.25L419.64 533.85L420.69 536.57L421.67 539.48L422.59 542.57L423.44 545.86L424.24 549.33L424.97 553L425.64 556.85L426.24 560.89L426.79 565.11L427.27 569.53L427.68 574.13L428.04 578.92L428.33 583.9L428.56 589.07L428.73 594.43L428.83 599.97L428.87 605.71L428.85 611.63L428.76 617.74L428.62 624.03L428.41 630.52L428.13 637.19L427.8 644.05L427.4 651.1L426.94 658.34L426.42 665.77L425.83 673.38L425.18 681.19L424.47 689.18L423.69 697.36L422.86 705.72L421.96 714.28L420.99 723.02L419.97 731.96L418.88 741.08L417.73 750.38L416.52 759.88L415.24 769.57L413.9 779.44L412.5 789.5L396.73 905.17L436.39 1104.37L431.79 1242.02L434.25 1249.99L436.67 1257.4L439.03 1264.25L441.35 1270.54L443.63 1276.26L445.85 1281.43L448.04 1286.04L450.17 1290.09L452.26 1293.58L454.3 1296.51L456.29 1298.88L458.24 1300.69L460.14 1301.94L461.25 1302.35L460.81 1302.96L459.63 1304.47L458.39 1305.92L457.08 1307.32L455.72 1308.66L454.29 1309.94L452.82 1311.17L451.28 1312.33L449.7 1313.43L448.07 1314.46L446.38 1315.41L444.65 1316.3L442.88 1317.12L441.07 1317.85L439.21 1318.51L437.31 1319.09L435.38 1319.59L433.41 1320L431.41 1320.32L429.37 1320.55L427.31 1320.7L425.22 1320.74L222.23 1320.74L220.75 1320.71L219.29 1320.61L217.85 1320.45L216.43 1320.23L215.03 1319.95L213.66 1319.61L212.31 1319.21L210.99 1318.75L209.69 1318.25L208.43 1317.68L207.19 1317.07L205.98 1316.41L204.81 1315.7L203.67 1314.94L202.57 1314.13L201.5 1313.29L200.47 1312.39L199.48 1311.46L198.72 1310.68L198.76 1310.62L200.85 1307.13L202.98 1303.08L205.16 1298.47L207.39 1293.3L209.67 1287.57L211.99 1281.28L214.35 1274.43L216.77 1267.03L219.23 1259.06L214.49 1117.31L245.69 905.17L242.28 889.51L238.98 874.14L235.79 859.07L232.72 844.28L229.75 829.8L226.9 815.6L224.16 801.7L221.53 788.09L219.02 774.77L216.61 761.75L214.32 749.02L212.14 736.59L210.07 724.44L208.11 712.6L206.27 701.04L204.54 689.78L202.91 678.81L201.41 668.14L200.01 657.75L198.84 648.55L194.47 517.94L194.73 516.25L195.57 511.74L196.52 507.52L197.58 503.53L198.74 499.7L199.99 496.04L201.34 492.53L202.78 489.19L204.32 486.02L205.96 483.01L207.7 480.16L209.53 477.47L211.46 474.95L213.49 472.59L215.61 470.39L217.83 468.36L220.15 466.49L222.57 464.78L225.08 463.23L227.69 461.85L230.39 460.63L233.2 459.58L236.1 458.69L239.09 457.96L242.19 457.39L245.38 456.99L248.67 456.75L252.05 456.68L255.53 456.76L259.11 457.02ZM201.07 272.02L203.93 269.52L206.96 267.43L210.15 265.78L213.5 264.54L217.01 263.74L220.69 263.36L224.52 263.4L228.52 263.87L232.68 264.76L237.01 266.08L241.49 267.82L246.14 269.99L250.95 272.59L255.92 275.6L261.06 279.05L266.35 282.92L271.81 287.21L277.43 291.93L283.21 297.08L289.16 302.65L295.27 308.64L297.51 310.95L301.7 311.11L304.41 308.23L310.68 301.81L316.79 295.81L322.73 290.24L328.51 285.1L334.13 280.38L339.59 276.09L344.89 272.22L350.02 268.77L354.99 265.75L359.8 263.16L364.45 260.99L368.94 259.25L373.26 257.93L377.42 257.03L381.42 256.57L385.26 256.52L388.93 256.9L392.45 257.71L395.8 258.94L398.99 260.6L402.01 262.68L404.88 265.19L405.24 265.58L376.17 178.46L379.63 181.17L383.33 184.26L386.94 187.49L390.43 190.85L393.81 194.34L397.07 197.94L400.2 201.66L403.2 205.5L406.06 209.45L408.76 213.5L411.31 217.66L413.7 221.91L415.92 226.27L417.95 230.71L419.81 235.24L421.47 239.86L422.93 244.56L424.19 249.34L425.24 254.19L426.06 259.11L426.66 264.1L427.03 269.15L427.15 274.26L427.1 277.21L426.95 280.32L426.71 283.61L426.38 287.04L425.95 290.62L425.45 294.32L424.86 298.15L424.19 302.09L423.44 306.13L422.62 310.25L421.72 314.46L420.76 318.73L419.74 323.06L418.65 327.43L417.5 331.84L416.3 336.28L415.04 340.73L413.73 345.18L412.37 349.63L410.97 354.05L409.53 358.45L408.04 362.81L406.52 367.12L404.97 371.37L403.39 375.55L401.78 379.64L400.14 383.65L398.49 387.55L396.81 391.33L395.12 394.99L393.42 398.52L391.71 401.9L389.99 405.12L388.26 408.18L386.54 411.06L384.81 413.75L383.09 416.24L381.38 418.52L379.68 420.57L378 422.4L376.63 423.67L375.21 424.72L373.75 425.57L372.25 426.23L370.7 426.71L369.12 427.01L367.5 427.15L365.84 427.14L364.15 426.98L362.43 426.69L360.67 426.27L358.89 425.73L357.08 425.08L355.24 424.33L353.38 423.5L351.5 422.58L349.6 421.6L347.68 420.55L345.74 419.44L343.78 418.3L341.81 417.12L339.83 415.91L337.84 414.69L335.84 413.47L333.84 412.24L331.82 411.03L329.81 409.84L327.79 408.68L325.77 407.56L323.76 406.48L321.74 405.47L319.74 404.52L317.73 403.65L315.74 402.87L313.76 402.18L311.78 401.6L309.82 401.13L307.88 400.78L305.95 400.56L304.04 400.49L301.87 400.57L299.69 400.82L297.52 401.21L295.34 401.73L293.18 402.39L291.01 403.16L288.85 404.03L286.7 405L284.56 406.06L282.42 407.19L280.3 408.38L278.18 409.62L276.07 410.91L273.98 412.22L271.9 413.56L269.84 414.91L267.79 416.25L265.76 417.59L263.74 418.9L261.74 420.17L259.76 421.41L257.81 422.59L255.87 423.7L253.96 424.74L252.06 425.7L250.2 426.55L248.36 427.3L246.54 427.93L244.75 428.44L242.99 428.8L241.26 429.01L239.56 429.06L237.89 428.94L236.25 428.64L234.64 428.14L233.07 427.45L231.54 426.53L230.04 425.4L228.57 424.02L227.15 422.4L225.78 420.59L224.37 418.5L222.93 416.16L221.46 413.58L219.97 410.77L218.45 407.74L216.92 404.51L215.37 401.09L213.81 397.49L212.25 393.72L210.68 389.81L209.11 385.76L207.54 381.58L205.99 377.29L204.44 372.9L202.91 368.42L201.4 363.87L199.91 359.26L198.45 354.61L197.02 349.92L195.62 345.21L194.26 340.49L192.94 335.77L191.67 331.08L190.44 326.41L189.27 321.79L188.15 317.22L187.09 312.73L186.09 308.32L185.17 304L184.31 299.8L183.53 295.72L182.82 291.77L182.2 287.97L181.66 284.33L181.22 280.87L180.86 277.59L180.6 274.51L180.45 271.65L180.39 269.01L180.52 263.91L180.89 258.89L181.49 253.95L182.32 249.09L183.37 244.31L184.64 239.63L186.12 235.04L187.79 230.54L189.66 226.14L191.71 221.84L193.94 217.64L196.35 213.54L198.91 209.55L201.64 205.68L204.51 201.91L207.53 198.26L210.68 194.73L213.96 191.32L217.36 188.03L220.88 184.87L224.5 181.84L228.22 178.93L232.04 176.17L234.06 174.8L198.72 274.57L201.07 272.02Z" id="e3GbDw2cRy"></path></defs><g><g><g><use xlink:href="#d3bpVby6v" opacity="1" fill="#5b7a57" fill-opacity="1"></use></g><g><use xlink:href="#j39zjk3EbC" opacity="1" fill="#aabaa8" fill-opacity="1"></use></g><g><use xlink:href="#a6QPR7DIdb" opacity="1" fill="#aabaa8" fill-opacity="1"></use></g><g><use xlink:href="#b9ttFoFS2I" opacity="1" fill="#aabaa8" fill-opacity="1"></use></g><g><use xlink:href="#a7IIjWMJ" opacity="1" fill="#a8a8ba" fill-opacity="1"></use></g><g><use xlink:href="#auriNDEVJ" opacity="1" fill="#aabaa8" fill-opacity="1"></use></g><g><use xlink:href="#g1vXj9lqKp" opacity="1" fill="#aabaa8" fill-opacity="1"></use></g><g><use xlink:href="#a1CBu7ee0" opacity="1" fill="#35752d" fill-opacity="1"></use></g><g><use xlink:href="#d25QhxPXtV" opacity="1" fill="#aabaa8" fill-opacity="1"></use></g><g><use xlink:href="#b1wz8I56FJ" opacity="1" fill="#aabaa8" fill-opacity="1"></use></g><g><use xlink:href="#a1kRTXHGbf" opacity="1" fill="#aabaa8" fill-opacity="1"></use></g><g><use xlink:href="#a2eebCjmV" opacity="1" fill="#aabaa8" fill-opacity="1"></use></g><g><use xlink:href="#e1I80SbdZn" opacity="1" fill="#aabaa8" fill-opacity="1"></use></g><g><use xlink:href="#bw8DaE9ej" opacity="1" fill="#aabaa8" fill-opacity="1"></use></g><g><use xlink:href="#bJbhuSrwQ" opacity="1" fill="#aabaa8" fill-opacity="1"></use></g><g><use xlink:href="#e3GbDw2cRy" opacity="1" fill="#aabaa8" fill-opacity="1"></use></g></g></g></svg>