<?xml version="1.0" encoding="UTF-8" standalone="no"?>
<!DOCTYPE svg PUBLIC "-//W3C//DTD SVG 1.1//EN" "http://www.w3.org/Graphics/SVG/1.1/DTD/svg11.dtd">
<svg version="1.1" xmlns="http://www.w3.org/2000/svg" xmlns:xlink="http://www.w3.org/1999/xlink" preserveAspectRatio="xMidYMid meet" viewBox="0 0 1640 1640" width="1640" height="1640"><defs><path d="M338.27 897.28L342.63 897.78L346.94 898.48L351.19 899.36L355.39 900.43L359.52 901.68L363.59 903.11L367.58 904.71L371.5 906.49L375.35 908.42L379.11 910.53L382.79 912.78L386.38 915.2L389.88 917.76L393.29 920.47L396.6 923.32L399.81 926.31L402.91 929.43L405.9 932.69L408.79 936.07L410.67 938.46L418.51 960.48L419.16 961.92L423.23 971.09L427.79 981.63L432.88 993.6L438.51 1007.07L444.72 1022.11L451.53 1038.78L458.97 1057.16L467.05 1077.29L475.81 1099.26L484.66 1121.5L492.99 1142.45L500.84 1162.14L508.2 1180.62L515.09 1197.93L521.54 1214.1L527.55 1229.19L533.13 1243.23L538.32 1256.27L543.11 1268.35L547.52 1279.5L551.58 1289.78L555.29 1299.22L558.66 1307.86L561.72 1315.76L564.48 1322.94L566.95 1329.45L569.15 1335.34L571.09 1340.64L572.79 1345.39L574.26 1349.65L575.52 1353.44L576.58 1356.82L577.46 1359.82L578.17 1362.49L578.72 1364.86L579.14 1366.99L579.43 1368.9L579.62 1370.65L579.71 1372.28L579.72 1373.82L579.67 1375.32L579.57 1376.82L579.43 1378.37L579.27 1380L579.11 1381.75L578.96 1383.68L578.83 1385.81L578.75 1388.2L578.71 1390.88L578.39 1393.39L577.45 1395.62L575.93 1397.58L573.88 1399.28L571.33 1400.7L568.32 1401.87L564.9 1402.76L561.11 1403.4L556.98 1403.77L552.56 1403.89L547.89 1403.75L543.01 1403.35L537.96 1402.7L532.79 1401.79L527.52 1400.63L522.2 1399.23L516.88 1397.57L511.6 1395.67L506.38 1393.52L501.29 1391.13L496.35 1388.5L491.61 1385.62L487.1 1382.51L482.88 1379.16L478.97 1375.58L475.42 1371.76L472.28 1367.71L469.57 1363.42L467.35 1358.91L465.66 1354.17L464.52 1349.2L463.99 1344.01L464.11 1338.59L464.91 1332.95L466.44 1327.1L468.74 1321.02L471.85 1314.73L475.81 1308.22L480.65 1301.5L486.43 1294.56L492.26 1287.71L497.25 1281.24L501.44 1275.14L504.87 1269.4L507.56 1264.01L509.56 1258.95L510.88 1254.22L511.58 1249.8L511.68 1245.69L511.22 1241.87L510.23 1238.33L508.74 1235.07L506.79 1232.07L504.41 1229.32L501.64 1226.81L498.52 1224.53L495.06 1222.46L491.32 1220.61L487.31 1218.95L483.09 1217.48L478.67 1216.19L474.1 1215.06L469.41 1214.09L464.63 1213.26L459.79 1212.56L454.94 1211.99L450.1 1211.52L445.31 1211.16L440.6 1210.89L436 1210.7L431.56 1210.58L427.3 1210.51L423.26 1210.5L419.47 1210.52L415.96 1210.56L412.78 1210.63L409.95 1210.69L407.51 1210.75L405.49 1210.8L403.92 1210.82L403.06 1210.88L402.86 1211.08L403.26 1211.41L404.21 1211.87L405.65 1212.45L407.54 1213.15L409.8 1213.97L412.39 1214.91L415.25 1215.96L418.32 1217.13L421.56 1218.4L424.89 1219.78L428.28 1221.26L431.65 1222.85L434.97 1224.53L438.16 1226.31L441.18 1228.18L443.96 1230.14L446.46 1232.18L448.62 1234.32L450.38 1236.54L451.69 1238.83L452.48 1241.21L452.71 1243.65L452.33 1246.17L451.26 1248.76L449.46 1251.42L446.87 1254.14L443.44 1256.92L439.11 1259.77L433.83 1262.66L427.53 1265.62L420.17 1268.62L411.69 1271.67L402.02 1274.77L391.13 1277.91L378.94 1281.09L365.41 1284.31L350.48 1287.56L334.09 1290.85L317.58 1294.22L302.3 1297.71L288.2 1301.3L275.25 1304.99L263.39 1308.76L252.59 1312.59L242.81 1316.47L240.4 1317.54L237.46 1323.13L234.02 1329.78L230.79 1336.16L227.8 1342.25L225.07 1348.02L222.63 1353.45L220.5 1358.52L218.7 1363.22L217.26 1367.52L216.2 1371.39L215.54 1374.83L215.32 1377.8L215.12 1380.38L214.55 1382.53L213.66 1384.27L212.48 1385.62L211.05 1386.58L209.43 1387.17L207.64 1387.41L205.74 1387.31L203.76 1386.88L201.75 1386.14L199.75 1385.11L197.79 1383.79L195.93 1382.2L194.21 1380.37L192.66 1378.29L191.33 1375.99L190.26 1373.48L189.49 1370.77L189.07 1367.88L189.03 1364.82L189.42 1361.62L190.28 1358.27L191.66 1354.8L193.59 1351.22L196.11 1347.55L199.27 1343.79L203.12 1339.97L207.68 1336.1L213.01 1332.19L219.15 1328.26L226.13 1324.32L234.01 1320.38L240.4 1317.54L241.09 1316.23L244.88 1309.1L248.82 1301.76L252.87 1294.23L257.01 1286.54L261.22 1278.7L265.48 1270.74L269.76 1262.68L274.03 1254.53L278.27 1246.33L282.46 1238.08L286.58 1229.82L290.59 1221.57L294.49 1213.33L298.23 1205.15L301.8 1197.03L305.17 1189L308.32 1181.08L311.22 1173.3L313.86 1165.66L316.2 1158.2L318.23 1150.94L319.91 1143.89L321.23 1137.08L322.15 1130.53L322.66 1124.26L322.74 1118.29L322.35 1112.65L321.48 1107.34L320.53 1102.27L319.92 1097.28L319.65 1092.39L319.68 1087.59L320.02 1082.89L320.64 1078.29L321.53 1073.78L322.67 1069.39L324.05 1065.09L325.66 1060.91L327.48 1056.83L329.49 1052.86L331.68 1049L332.18 1048.21L329.78 1050.51L326.94 1053.35L322.54 1053.19L320.18 1050.92L313.77 1045.02L307.53 1039.54L301.46 1034.47L295.56 1029.83L289.84 1025.6L284.28 1021.79L278.89 1018.4L273.67 1015.43L268.62 1012.88L263.74 1010.74L259.03 1009.03L254.5 1007.73L250.13 1006.85L245.93 1006.39L241.9 1006.35L238.04 1006.72L234.36 1007.52L230.84 1008.73L227.49 1010.36L224.31 1012.41L221.31 1014.88L221.25 1014.94L221.27 1014.06L221.46 1010.46L249.16 937.15L250.01 936.07L252.89 932.69L255.88 929.43L258.98 926.31L262.19 923.32L265.5 920.47L268.91 917.76L272.41 915.2L276 912.78L279.68 910.53L283.44 908.42L287.29 906.49L291.21 904.71L295.21 903.11L299.27 901.68L303.4 900.43L307.6 899.36L311.85 898.48L316.16 897.78L320.53 897.28L324.94 896.98L329.4 896.88L333.85 896.98L338.27 897.28Z" id="h5RVJqG4DQ"></path><path d="M663.38 355.13L698.39 479.96L697.37 515.08L541.16 362.65L541.13 362.62L541.1 362.59L541.06 362.57L541.03 362.55L540.99 362.53L540.96 362.51L540.92 362.5L540.88 362.49L540.85 362.48L540.81 362.48L540.77 362.47L540.74 362.47L540.7 362.47L540.66 362.48L540.63 362.48L540.59 362.49L540.56 362.5L540.52 362.52L540.49 362.53L540.46 362.55L540.43 362.56L540.4 362.58L540.37 362.6L540.34 362.63L540.31 362.65L540.29 362.68L540.26 362.71L540.24 362.74L540.22 362.77L540.2 362.8L540.19 362.83L540.17 362.87L540.16 362.9L540.15 362.94L540.14 362.98L540.14 363.02L540.14 363.06L540.14 363.1L540.14 363.14L540.15 363.18L599.65 697.27L595.54 698.54L591.29 699.91L587.16 701.31L583.15 702.74L579.26 704.19L575.49 705.67L571.84 707.17L568.31 708.7L564.9 710.26L561.62 711.84L558.45 713.45L555.4 715.08L552.48 716.74L549.67 718.43L546.99 720.14L544.42 721.88L541.98 723.64L539.65 725.43L537.45 727.24L535.37 729.08L533.41 730.95L531.56 732.84L529.84 734.76L527.86 737.45L526.86 739.74L526.8 741.61L527.63 743.09L529.31 744.17L531.77 744.85L534.99 745.15L538.9 745.07L543.46 744.6L548.62 743.76L554.33 742.55L560.55 740.97L567.23 739.03L574.31 736.73L581.76 734.08L589.52 731.07L597.54 727.72L604.51 724.6L609.7 753.74L517.79 753.74L516.55 753.71L515.32 753.63L514.11 753.5L512.91 753.32L511.74 753.08L510.58 752.8L509.45 752.47L508.33 752.09L507.24 751.66L506.17 751.2L505.13 750.69L504.11 750.13L503.12 749.54L502.16 748.91L501.23 748.24L500.32 747.53L499.45 746.79L498.61 746.01L497.8 745.2L497.62 745L498.21 744.03L499.95 740.68L501.73 736.8L503.55 732.37L505.41 727.42L507.3 721.92L509.24 715.89L511.22 709.32L513.23 702.22L515.28 694.57L511.33 558.61L537.36 355.13L498.5 116.91L496.34 42.56L711.1 42.56L707.87 153.67L663.38 355.13Z" id="a1gqID0295"></path><path d="M411.38 482.86L424.35 531.1L425.47 533.75L429.5 543.47L434 554.51L438.98 566.94L444.47 580.81L450.48 596.18L457.05 613.13L464.2 631.7L471.94 651.96L479.75 672.47L487.12 691.79L494.05 709.95L500.55 726.99L506.64 742.95L512.34 757.87L517.65 771.79L522.59 784.74L527.17 796.76L531.4 807.9L535.3 818.19L538.88 827.67L542.16 836.37L545.14 844.35L547.85 851.63L550.28 858.25L552.47 864.26L554.41 869.68L556.13 874.57L557.63 878.96L558.93 882.88L560.04 886.38L560.98 889.5L561.75 892.27L562.38 894.73L562.87 896.92L563.24 898.88L563.5 900.64L563.66 902.26L563.74 903.76L563.75 905.18L563.7 906.56L563.61 907.95L563.49 909.37L563.35 910.88L563.21 912.49L563.08 914.27L562.97 916.24L562.89 918.44L562.86 920.91L562.58 923.22L561.74 925.28L560.4 927.09L558.59 928.66L556.33 929.97L553.68 931.04L550.66 931.87L547.3 932.46L543.66 932.8L539.75 932.91L535.63 932.78L531.32 932.41L526.85 931.81L522.28 930.97L517.62 929.91L512.93 928.61L508.23 927.08L503.55 925.33L498.95 923.35L494.45 921.14L490.08 918.71L485.89 916.06L481.91 913.19L478.18 910.1L474.72 906.8L471.59 903.28L468.81 899.54L466.42 895.59L464.46 891.43L462.96 887.05L461.96 882.47L461.49 877.68L461.56 874.39L363.96 850.49L282.74 850.49L281.64 850.47L280.55 850.4L279.48 850.28L278.42 850.12L277.38 849.91L276.36 849.66L275.35 849.37L274.36 849.03L274.13 848.94L266.05 852.28L263.92 853.27L261.32 858.43L258.28 864.56L255.43 870.45L252.79 876.06L250.38 881.38L248.22 886.39L246.33 891.07L244.74 895.4L243.47 899.37L242.53 902.94L241.96 906.11L241.76 908.84L241.58 911.22L241.08 913.21L240.29 914.82L239.25 916.06L237.99 916.94L236.55 917.49L234.97 917.71L233.29 917.61L231.55 917.22L229.77 916.54L228 915.59L226.27 914.37L224.63 912.91L223.1 911.21L221.74 909.3L220.56 907.18L219.61 904.86L218.94 902.36L218.56 899.7L218.53 896.88L218.87 893.92L219.64 890.84L220.85 887.64L222.55 884.34L224.79 880.95L227.58 877.48L230.98 873.96L235.01 870.39L239.72 866.78L245.14 863.16L251.31 859.52L258.27 855.89L263.92 853.27L264.53 852.07L267.88 845.49L267.26 845.01L266.49 844.36L265.74 843.67L265.03 842.95L264.77 842.68L265.43 841.53L266.97 838.45L268.55 834.87L270.15 830.79L271.8 826.22L273.47 821.15L275.18 815.58L276.93 809.53L278.71 802.97L280.52 795.92L277.03 670.53L300.03 482.86L265.69 263.16L263.78 194.59L453.55 194.59L450.7 297.06L411.38 482.86ZM332.12 831.76L318.62 834.98L306.16 838.3L294.71 841.7L293.93 841.96L295.1 842.3L297.93 842.57L301.39 842.49L305.42 842.06L309.98 841.29L315.03 840.17L320.52 838.72L326.42 836.93L332.68 834.8L339.26 832.36L346.12 829.59L349.69 828.03L346.71 828.66L332.12 831.76ZM503.54 790.8L503.63 787L503.22 783.48L502.34 780.22L501.03 777.21L499.31 774.44L497.21 771.91L495.88 770.65L503.19 793.13L503.54 790.8ZM438.2 768.86L441.04 766.01L447.29 759.13L450.22 755.6L449.21 755.49L444.98 755.16L440.82 754.91L437.96 754.79L437.58 768.5L438.2 768.86Z" id="c5aw61wxLW"></path><path d="M253.56 691.63L256.79 807.97L42.02 807.97L44.18 730.12L83.04 480.68L79.67 453.01L79.9 452.57L82.32 451.49L92.1 447.61L102.89 443.78L114.75 440.02L127.71 436.33L141.8 432.73L157.08 429.24L173.59 425.87L189.98 422.59L204.91 419.33L218.44 416.11L219.8 415.76L209.06 480.68L253.56 691.63ZM236.34 63.44L238.06 63.63L239.76 63.9L241.43 64.24L243.06 64.65L244.67 65.14L246.25 65.68L247.79 66.3L249.3 66.97L250.77 67.71L252.2 68.51L253.59 69.37L254.95 70.28L256.26 71.25L257.52 72.27L258.74 73.34L259.91 74.46L261.04 75.63L262.11 76.84L263.14 78.1L264.1 79.4L265.02 80.74L265.48 81.48L265.03 81.34L263.52 81.48L261.97 82.17L260.39 83.43L258.76 85.24L257.1 87.62L255.6 90.21L255.08 89.07L251.94 82.44L249.22 76.98L246.9 72.62L244.96 69.29L243.37 66.94L242.09 65.48L241.12 64.87L240.42 65.03L239.97 65.89L239.74 67.4L239.71 69.47L239.86 72.05L240.15 75.07L240.56 78.47L241.07 82.17L241.66 86.12L242.29 90.24L242.95 94.47L243.6 98.74L244.22 102.98L244.79 107.14L245.29 111.14L245.68 114.92L245.73 115.56L244.36 120.03L242.38 126.91L241.62 129.72L240.45 129.9L238.63 130.31L236.63 130.89L234.44 131.62L232.09 132.51L229.59 133.55L226.96 134.75L224.2 136.09L221.34 137.59L218.39 139.24L215.37 141.03L212.28 142.96L209.15 145.04L205.99 147.25L202.82 149.61L199.64 152.09L196.48 154.72L193.35 157.47L190.27 160.36L187.24 163.37L184.29 166.51L181.43 169.77L178.67 173.16L176.04 176.66L173.53 180.29L171.18 184.03L168.99 187.88L166.98 191.85L165.16 195.93L163.56 200.12L162.17 204.41L161.03 208.81L160.14 213.31L159.52 217.91L159.18 222.61L159.15 227.41L159.42 232.3L160.03 237.29L160.98 242.37L161.85 247.67L162.24 253.32L162.17 259.29L161.65 265.56L160.73 272.11L159.41 278.92L157.73 285.96L155.7 293.23L153.36 300.69L150.73 308.32L147.82 316.11L144.67 324.03L141.3 332.05L137.73 340.17L133.99 348.36L130.1 356.59L126.08 364.85L121.97 373.11L117.77 381.35L113.53 389.56L109.26 397.7L104.98 405.77L100.73 413.73L96.51 421.57L92.37 429.26L88.32 436.79L84.38 444.13L80.59 451.26L79.9 452.57L79.63 452.69L57.02 267.61L60.97 125.24L58.91 117.24L56.9 109.8L54.92 102.92L52.99 96.6L51.09 90.85L49.23 85.66L47.41 81.03L45.63 76.96L43.89 73.46L43.13 72.14L43.42 71.82L44.24 71.01L45.08 70.23L45.96 69.49L46.86 68.78L47.8 68.11L48.77 67.48L49.76 66.89L50.78 66.34L51.83 65.83L52.9 65.36L53.99 64.94L55.11 64.56L56.25 64.23L57.41 63.94L58.59 63.71L59.78 63.53L61 63.39L62.23 63.31L63.47 63.28L232.83 63.28L234.6 63.32L236.34 63.44Z" id="c1ForF7LIt"></path><path d="M944.62 63.44L946.34 63.63L948.04 63.9L949.7 64.24L951.34 64.65L952.95 65.14L954.52 65.68L956.07 66.3L957.57 66.97L959.04 67.71L960.48 68.51L961.87 69.37L963.22 70.28L964.53 71.25L965.8 72.27L967.02 73.34L968.19 74.46L969.32 75.63L970.39 76.84L971.41 78.1L972.38 79.4L973.3 80.74L973.75 81.48L973.3 81.34L971.8 81.48L970.25 82.17L968.66 83.43L967.04 85.24L965.37 87.62L963.88 90.21L966.94 96.94L971.01 106.11L975.57 116.65L980.66 128.62L986.29 142.1L992.5 157.14L999.31 173.81L1006.75 192.18L1014.83 212.32L1023.59 234.29L1032.44 256.53L1040.77 277.48L1048.62 297.17L1055.98 315.64L1062.87 332.95L1069.32 349.13L1075.33 364.21L1080.91 378.26L1086.1 391.29L1090.89 403.37L1095.3 414.53L1099.36 424.8L1103.07 434.24L1106.44 442.89L1109.5 450.78L1112.26 457.96L1114.73 464.48L1116.93 470.36L1118.87 475.66L1120.57 480.42L1122.04 484.67L1123.3 488.47L1124.36 491.84L1125.24 494.85L1125.95 497.51L1126.5 499.89L1126.92 502.01L1127.21 503.93L1127.4 505.68L1127.49 507.3L1127.5 508.84L1127.45 510.35L1127.35 511.85L1127.21 513.39L1127.05 515.02L1126.89 516.78L1126.74 518.7L1126.61 520.84L1126.53 523.23L1126.49 525.91L1126.17 528.41L1125.23 530.64L1123.71 532.61L1121.66 534.3L1119.11 535.73L1116.1 536.89L1112.68 537.79L1108.89 538.42L1104.76 538.8L1100.34 538.91L1095.67 538.77L1090.79 538.37L1085.74 537.72L1080.57 536.81L1075.3 535.66L1069.98 534.25L1064.66 532.59L1059.38 530.69L1054.16 528.55L1049.07 526.15L1044.13 523.52L1039.39 520.65L1034.88 517.54L1030.66 514.19L1026.75 510.6L1023.2 506.78L1020.06 502.73L1017.35 498.45L1015.13 493.93L1013.44 489.19L1012.3 484.22L1011.77 479.03L1011.89 473.62L1012.69 467.98L1014.22 462.12L1016.52 456.05L1019.63 449.75L1023.59 443.24L1028.43 436.52L1034.21 429.58L1040.04 422.74L1045.03 416.27L1049.22 410.17L1052.65 404.43L1055.34 399.03L1057.33 393.97L1058.66 389.24L1059.36 384.83L1059.46 380.71L1059 376.89L1058.01 373.36L1056.52 370.09L1054.57 367.09L1052.19 364.34L1049.42 361.83L1046.3 359.55L1042.84 357.49L1039.1 355.63L1035.09 353.98L1030.87 352.51L1026.45 351.21L1021.88 350.08L1017.19 349.11L1012.41 348.28L1007.57 347.58L1002.72 347.01L997.88 346.55L993.08 346.19L988.38 345.91L983.78 345.72L979.34 345.6L975.08 345.54L971.04 345.52L967.25 345.54L963.74 345.59L960.56 345.65L957.73 345.72L955.29 345.78L953.27 345.82L951.7 345.84L950.84 345.91L950.64 346.11L951.04 346.44L951.99 346.89L953.43 347.47L955.32 348.18L957.58 349L960.17 349.94L963.03 350.99L966.1 352.15L969.34 353.43L972.67 354.8L976.06 356.29L979.43 357.87L982.75 359.55L985.94 361.33L988.96 363.2L991.74 365.16L994.24 367.21L996.4 369.34L998.16 371.56L999.47 373.86L1000.26 376.23L1000.49 378.68L1000.1 381.2L999.04 383.79L997.24 386.44L994.65 389.17L991.22 391.95L986.89 394.79L981.61 397.69L975.31 400.64L967.95 403.64L959.47 406.69L949.8 409.79L938.91 412.93L928.08 415.76L917.34 480.68L961.84 691.63L965.06 807.97L750.3 807.97L752.46 730.12L791.32 480.68L787.94 453.01L785.24 458.16L781.8 464.81L778.57 471.19L775.58 477.27L772.85 483.04L770.41 488.47L768.28 493.55L766.48 498.25L765.04 502.54L763.98 506.42L763.32 509.85L763.1 512.82L762.9 515.4L762.33 517.55L761.44 519.3L760.26 520.64L758.83 521.6L757.21 522.19L755.42 522.43L753.52 522.33L751.54 521.9L749.53 521.16L747.53 520.13L745.57 518.81L743.71 517.23L741.99 515.39L740.44 513.31L739.11 511.01L738.04 508.5L737.27 505.79L736.85 502.9L736.81 499.85L737.2 496.64L738.06 493.29L739.44 489.82L741.37 486.25L743.89 482.57L747.05 478.82L750.9 475L755.46 471.12L760.79 467.22L766.93 463.28L773.91 459.34L781.79 455.41L787.9 452.69L765.29 267.61L769.24 125.24L767.19 117.24L765.18 109.8L763.2 102.92L761.27 96.6L759.37 90.85L757.51 85.66L755.69 81.03L753.91 76.96L752.17 73.46L751.41 72.14L751.7 71.82L752.51 71.01L753.36 70.23L754.23 69.49L755.14 68.78L756.08 68.11L757.05 67.48L758.04 66.89L759.06 66.34L760.11 65.83L761.18 65.36L762.27 64.94L763.39 64.56L764.53 64.23L765.69 63.94L766.86 63.71L768.06 63.53L769.27 63.39L770.5 63.31L771.75 63.28L941.11 63.28L942.88 63.32L944.62 63.44ZM950.66 126.91L949.9 129.72L950.33 129.66L951.7 129.57L952.74 129.21L953.49 128.16L953.99 126.48L954.26 124.26L954.33 121.54L954.22 118.41L954.01 115.56L952.64 120.03L950.66 126.91Z" id="b2NdjvltD9"></path><path d="M1405.64 291.35L1406.33 292.66L1410.12 299.79L1414.06 307.13L1418.11 314.65L1422.25 322.35L1426.46 330.19L1430.72 338.15L1435 346.21L1439.27 354.36L1443.51 362.56L1447.71 370.81L1451.82 379.07L1455.84 387.32L1459.73 395.56L1463.47 403.74L1467.04 411.86L1470.41 419.89L1473.56 427.81L1476.46 435.59L1479.1 443.23L1481.44 450.69L1483.47 457.95L1485.15 465L1486.47 471.81L1487.39 478.36L1487.91 484.63L1487.98 490.6L1487.59 496.24L1486.72 501.54L1485.77 506.62L1485.16 511.61L1484.89 516.5L1484.92 521.3L1485.26 526L1485.88 530.6L1486.77 535.1L1487.91 539.5L1489.3 543.8L1490.9 547.98L1492.72 552.06L1494.73 556.03L1496.92 559.88L1499.27 563.63L1501.77 567.25L1504.41 570.76L1507.17 574.14L1510.03 577.4L1512.98 580.54L1516.01 583.56L1519.09 586.44L1522.22 589.2L1525.38 591.82L1528.56 594.31L1531.73 596.66L1534.89 598.88L1538.02 600.95L1541.11 602.89L1544.13 604.68L1547.08 606.32L1549.94 607.82L1552.69 609.17L1555.33 610.36L1557.83 611.41L1560.18 612.3L1562.37 613.03L1564.37 613.6L1566.18 614.01L1567.79 614.26L1569.16 614.34L1570.2 614.71L1570.95 615.76L1571.45 617.43L1571.72 619.66L1571.79 622.37L1571.68 625.5L1571.42 628.99L1571.03 632.77L1570.53 636.77L1569.96 640.93L1569.34 645.18L1568.68 649.45L1568.03 653.68L1567.4 657.8L1566.81 661.74L1566.3 665.44L1565.89 668.84L1565.6 671.86L1565.45 674.44L1565.48 676.52L1565.71 678.02L1566.16 678.88L1566.86 679.04L1567.83 678.43L1569.1 676.98L1570.7 674.62L1572.64 671.3L1574.96 666.94L1577.68 661.47L1580.82 654.84L1581.53 653.28L1583.88 667.52L1580.05 805.77L1582.1 813.78L1584.11 821.22L1586.09 828.1L1588.02 834.41L1589.92 840.17L1591.78 845.36L1593.6 849.99L1595.38 854.05L1597.12 857.56L1598.82 860.5L1600.49 862.88L1602.11 864.7L1603.7 865.96L1605.25 866.65L1606.75 866.78L1607.2 866.65L1606.75 867.38L1605.83 868.72L1604.86 870.02L1603.84 871.28L1602.77 872.5L1601.64 873.66L1600.47 874.79L1599.25 875.86L1597.98 876.88L1596.67 877.85L1595.32 878.76L1593.93 879.62L1592.49 880.41L1591.02 881.15L1589.52 881.83L1587.97 882.44L1586.4 882.99L1584.79 883.47L1583.15 883.88L1581.49 884.22L1579.79 884.49L1578.07 884.68L1576.33 884.8L1574.56 884.84L1405.2 884.84L1403.95 884.81L1402.72 884.73L1401.51 884.6L1400.31 884.42L1399.14 884.18L1397.98 883.9L1396.84 883.57L1395.72 883.19L1394.63 882.77L1393.56 882.3L1392.51 881.79L1391.49 881.24L1390.5 880.65L1389.53 880.01L1388.59 879.34L1387.69 878.64L1386.81 877.89L1385.96 877.12L1385.15 876.31L1384.86 875.99L1385.62 874.67L1387.36 871.16L1389.14 867.1L1390.96 862.47L1392.82 857.28L1394.72 851.52L1396.65 845.21L1398.63 838.33L1400.64 830.89L1402.69 822.89L1398.74 680.52L1424.77 467.45L1396.7 287.23L1399.25 288.51L1405.64 291.35ZM1578.17 337.67L1576.93 337.22L1567.26 334.12L1556.37 330.98L1544.18 327.8L1530.65 324.58L1515.72 321.33L1499.33 318.04L1482.82 314.67L1467.54 311.18L1453.44 307.59L1440.49 303.9L1428.63 300.13L1417.84 296.3L1408.05 292.42L1405.64 291.35L1402.7 285.75L1399.26 279.1L1396.03 272.73L1393.7 267.97L1385.91 218L1383.75 140.16L1598.51 140.16L1595.29 256.5L1578.17 337.67Z" id="f1zfOr1fVV"></path><path d="M1340.43 90.68L1342.95 94.14L1345.35 97.69L1347.62 101.34L1349.76 105.09L1351.76 108.93L1353.62 112.85L1355.34 116.86L1356.9 120.95L1358.32 125.12L1359.59 129.36L1360.7 133.67L1361.64 138.04L1362.43 142.48L1363.04 146.98L1363.49 151.53L1363.75 156.13L1363.85 160.78L1363.75 165.43L1363.49 170.03L1363.04 174.58L1362.43 179.08L1361.64 183.52L1360.7 187.89L1359.59 192.2L1358.32 196.44L1356.9 200.61L1355.34 204.7L1353.62 208.71L1351.76 212.63L1349.76 216.47L1347.62 220.22L1345.35 223.87L1342.95 227.42L1340.43 230.87L1337.78 234.22L1335.02 237.46L1332.13 240.58L1329.14 243.58L1326.04 246.47L1322.83 249.23L1319.52 251.86L1316.11 254.37L1312.61 256.73L1309.02 258.96L1305.34 261.05L1301.58 262.99L1297.73 264.78L1293.81 266.42L1289.82 267.9L1285.75 269.22L1281.62 270.37L1277.42 271.36L1273.17 272.18L1268.86 272.82L1264.5 273.28L1260.08 273.56L1255.63 273.65L1251.17 273.56L1246.75 273.28L1242.39 272.82L1238.08 272.18L1233.83 271.36L1229.63 270.37L1225.5 269.22L1221.43 267.9L1217.44 266.42L1213.52 264.78L1209.67 262.99L1205.91 261.05L1202.23 258.96L1198.64 256.73L1195.14 254.37L1191.73 251.86L1188.42 249.23L1185.21 246.47L1182.11 243.58L1179.12 240.58L1176.23 237.46L1173.47 234.22L1170.82 230.87L1168.3 227.42L1165.9 223.87L1163.63 220.22L1161.49 216.47L1159.49 212.63L1157.63 208.71L1155.91 204.7L1154.35 200.61L1152.93 196.44L1151.66 192.2L1150.55 187.89L1149.61 183.52L1148.82 179.08L1148.21 174.58L1147.76 170.03L1147.5 165.43L1147.4 160.78L1147.48 156.94L1147.54 156.88L1150.54 154.61L1153.72 152.71L1157.07 151.21L1160.59 150.09L1164.27 149.35L1168.13 149L1172.16 149.04L1176.36 149.47L1180.72 150.28L1185.26 151.48L1189.97 153.07L1194.85 155.04L1199.9 157.39L1205.12 160.14L1210.51 163.27L1216.06 166.79L1221.79 170.69L1227.69 174.98L1233.76 179.66L1240 184.72L1246.41 190.17L1248.77 192.26L1253.17 192.42L1256.01 189.79L1262.59 183.96L1269 178.51L1275.24 173.45L1281.31 168.77L1287.21 164.48L1292.94 160.58L1298.49 157.06L1303.88 153.93L1309.1 151.18L1314.15 148.83L1319.03 146.85L1323.74 145.27L1328.28 144.07L1332.64 143.26L1336.84 142.83L1340.87 142.79L1344.73 143.14L1348.41 143.88L1351.93 145L1355.28 146.5L1358.46 148.39L1361.46 150.67L1361.84 151.03L1336.9 86.31L1337.78 87.34L1340.43 90.68ZM1147.76 151.53L1148.21 146.98L1148.82 142.48L1149.61 138.04L1150.55 133.67L1151.66 129.36L1152.93 125.12L1154.35 120.95L1155.91 116.86L1157.63 112.85L1159.49 108.93L1161.49 105.09L1163.63 101.34L1165.9 97.69L1168.3 94.14L1170.82 90.68L1173.47 87.34L1175.39 85.1L1147.69 152.8L1147.76 151.53Z" id="c1aWwqN9i5"></path><path d="M1388.69 740C1510.1 1045.42 1491.59 993.72 1491.59 1031.62C1491.59 1066.83 1315.89 1029.18 1399.31 935.3C1482.73 841.42 1334.47 851.55 1316.8 851.55C1300.64 851.55 1475.44 887.55 1246.97 931.59C1018.5 975.62 1128.2 1055.83 1128.2 1018.53C1128.2 982.13 1249.37 816.38 1234.36 748.08C1219.34 679.78 1300 635.28 1316.8 635.28C1332.53 635.28 1267.29 434.58 1388.69 740Z" id="cNjn8JzGa"></path><path d="M1252.31 316.69L1256.68 317.29L1260.99 318.13L1265.24 319.19L1269.44 320.47L1273.57 321.97L1277.63 323.68L1281.63 325.6L1285.55 327.73L1289.39 330.05L1293.16 332.57L1296.84 335.28L1300.43 338.17L1303.93 341.24L1307.34 344.49L1310.65 347.91L1313.85 351.5L1316.96 355.24L1319.95 359.14L1322.83 363.2L1324.72 366.06L1349.66 450.07L1349.28 449.61L1346.27 446.65L1343.1 444.19L1339.75 442.24L1336.23 440.78L1332.54 439.83L1328.69 439.38L1324.66 439.43L1320.46 439.98L1316.09 441.04L1311.55 442.59L1306.85 444.65L1301.97 447.21L1296.92 450.27L1291.7 453.83L1286.31 457.9L1280.75 462.46L1275.02 467.53L1269.12 473.1L1263.06 479.17L1256.82 485.74L1250.41 492.81L1243.83 500.39L1240.98 503.79L1236.59 503.59L1234.23 500.88L1227.82 493.8L1221.58 487.23L1215.51 481.16L1209.61 475.59L1203.88 470.52L1198.32 465.96L1192.93 461.9L1187.72 458.33L1182.67 455.27L1177.79 452.71L1173.08 450.66L1168.54 449.1L1164.17 448.05L1159.98 447.49L1155.95 447.44L1152.09 447.89L1148.4 448.85L1144.89 450.3L1141.54 452.26L1138.36 454.71L1135.35 457.67L1135.3 457.74L1135.31 456.69L1135.51 452.38L1163.2 364.48L1164.05 363.2L1166.93 359.14L1169.93 355.24L1173.03 351.5L1176.24 347.91L1179.55 344.49L1182.95 341.24L1186.45 338.17L1190.05 335.28L1193.73 332.57L1197.49 330.05L1201.33 327.73L1205.26 325.6L1209.25 323.68L1213.32 321.97L1217.45 320.47L1221.64 319.19L1225.9 318.13L1230.21 317.29L1234.57 316.69L1238.98 316.33L1243.44 316.21L1247.9 316.33L1252.31 316.69Z" id="a29gpWXC4M"></path><path d="M157 950.89L163.41 957.97L169.65 964.54L175.72 970.61L181.62 976.18L187.35 981.24L192.91 985.81L198.29 989.87L203.51 993.44L208.56 996.5L213.44 999.06L218.15 1001.11L222.69 1002.67L227.05 1003.72L231.25 1004.28L235.28 1004.33L239.14 1003.88L242.83 1002.92L246.34 1001.47L249.69 999.51L252.87 997.06L255.87 994.1L256.25 993.64L231.31 1077.65L229.43 1080.51L226.54 1084.56L223.55 1088.47L220.45 1092.21L217.24 1095.8L213.93 1099.21L210.53 1102.46L207.02 1105.53L203.43 1108.43L199.75 1111.14L195.99 1113.65L192.14 1115.98L188.22 1118.1L184.23 1120.03L180.16 1121.74L176.03 1123.24L171.83 1124.52L167.58 1125.58L163.27 1126.41L158.91 1127.01L154.49 1127.38L150.04 1127.5L145.58 1127.38L141.17 1127.01L136.8 1126.41L132.49 1125.58L128.24 1124.52L124.04 1123.24L119.91 1121.74L115.85 1120.03L111.85 1118.1L107.93 1115.98L104.08 1113.65L100.32 1111.14L96.64 1108.43L93.05 1105.53L89.55 1102.46L86.14 1099.21L82.83 1095.8L79.62 1092.21L76.52 1088.47L73.53 1084.56L70.65 1080.51L69.8 1079.22L42.1 991.33L41.91 987.02L41.89 985.97L41.95 986.04L44.96 988.99L48.13 991.45L51.48 993.41L55 994.86L58.68 995.81L62.54 996.26L66.57 996.21L70.77 995.66L75.14 994.61L79.67 993.05L84.38 990.99L89.26 988.43L94.31 985.37L99.53 981.81L104.92 977.75L110.48 973.18L116.2 968.11L122.1 962.55L128.17 956.48L134.41 949.9L140.82 942.83L143.18 940.11L147.58 939.91L150.42 943.32L157 950.89Z" id="e3PzQM6RWb"></path><path d="M147.64 1035.98L154.05 1043.05L160.29 1049.62L166.36 1055.69L172.26 1061.26L177.99 1066.33L183.55 1070.9L188.94 1074.96L194.15 1078.52L199.2 1081.58L204.08 1084.14L208.79 1086.2L213.33 1087.75L217.7 1088.81L221.89 1089.36L225.92 1089.41L229.78 1088.96L233.47 1088.01L236.98 1086.55L240.33 1084.6L243.51 1082.14L246.52 1079.18L246.89 1078.73L221.95 1162.73L220.07 1165.6L217.19 1169.65L214.19 1173.55L211.09 1177.3L207.88 1180.88L204.57 1184.3L201.17 1187.55L197.67 1190.62L194.07 1193.51L190.39 1196.22L186.63 1198.74L182.78 1201.06L178.86 1203.19L174.87 1205.11L170.8 1206.82L166.67 1208.32L162.48 1209.61L158.22 1210.67L153.91 1211.5L149.55 1212.1L145.14 1212.46L140.68 1212.59L136.22 1212.46L131.81 1212.1L127.44 1211.5L123.13 1210.67L118.88 1209.61L114.68 1208.32L110.55 1206.82L106.49 1205.11L102.49 1203.19L98.57 1201.06L94.73 1198.74L90.96 1196.22L87.28 1193.51L83.69 1190.62L80.19 1187.55L76.78 1184.3L73.47 1180.88L70.27 1177.3L67.16 1173.55L64.17 1169.65L61.29 1165.6L60.44 1164.31L32.74 1076.42L32.55 1072.1L32.53 1071.05L32.59 1071.12L35.6 1074.08L38.77 1076.54L42.12 1078.49L45.64 1079.95L49.33 1080.9L53.18 1081.35L57.21 1081.3L61.41 1080.75L65.78 1079.69L70.32 1078.14L75.02 1076.08L79.9 1073.52L84.95 1070.46L90.17 1066.9L95.56 1062.83L101.12 1058.27L106.85 1053.2L112.75 1047.63L118.81 1041.56L125.05 1034.99L131.46 1027.92L133.82 1025.2L138.22 1025L141.06 1028.4L147.64 1035.98Z" id="b6iysxaRBf"></path><path d="M122.02 1121.56L128.43 1128.63L134.67 1135.21L140.73 1141.28L146.63 1146.84L152.36 1151.91L157.92 1156.48L163.31 1160.54L168.53 1164.1L173.58 1167.16L178.46 1169.72L183.16 1171.78L187.7 1173.34L192.07 1174.39L196.27 1174.94L200.3 1174.99L204.15 1174.54L207.84 1173.59L211.36 1172.14L214.71 1170.18L217.88 1167.72L220.89 1164.77L221.27 1164.31L196.33 1248.31L194.44 1251.18L191.56 1255.23L188.57 1259.13L185.46 1262.88L182.26 1266.46L178.95 1269.88L175.54 1273.13L172.04 1276.2L168.45 1279.1L164.77 1281.8L161 1284.32L157.16 1286.65L153.24 1288.77L149.24 1290.69L145.18 1292.41L141.05 1293.91L136.85 1295.19L132.6 1296.25L128.29 1297.08L123.92 1297.68L119.51 1298.05L115.05 1298.17L110.59 1298.05L106.18 1297.68L101.82 1297.08L97.51 1296.25L93.25 1295.19L89.06 1293.91L84.93 1292.41L80.86 1290.69L76.87 1288.77L72.94 1286.65L69.1 1284.32L65.34 1281.8L61.66 1279.1L58.06 1276.2L54.56 1273.13L51.16 1269.88L47.85 1266.46L44.64 1262.88L41.54 1259.13L38.54 1255.23L35.66 1251.18L34.81 1249.89L7.12 1162L6.92 1157.68L6.91 1156.63L6.96 1156.7L9.97 1159.66L13.15 1162.12L16.5 1164.07L20.01 1165.53L23.7 1166.48L27.56 1166.93L31.59 1166.88L35.78 1166.33L40.15 1165.27L44.69 1163.72L49.4 1161.66L54.28 1159.1L59.33 1156.04L64.54 1152.48L69.93 1148.42L75.49 1143.85L81.22 1138.78L87.12 1133.21L93.19 1127.14L99.43 1120.57L105.84 1113.5L108.2 1110.78L112.59 1110.58L115.44 1113.98L122.02 1121.56Z" id="f5YblXTa80"></path><path d="M105.75 1189.73L112.16 1196.8L118.4 1203.37L124.47 1209.44L130.37 1215.01L136.1 1220.08L141.66 1224.65L147.04 1228.71L152.26 1232.27L157.31 1235.33L162.19 1237.89L166.9 1239.95L171.44 1241.5L175.8 1242.56L180 1243.11L184.03 1243.16L187.89 1242.71L191.58 1241.76L195.09 1240.3L198.44 1238.35L201.62 1235.89L204.62 1232.93L205 1232.48L180.06 1316.48L178.18 1319.35L175.29 1323.4L172.3 1327.3L169.2 1331.05L165.99 1334.63L162.68 1338.05L159.28 1341.3L155.77 1344.37L152.18 1347.26L148.5 1349.97L144.74 1352.49L140.89 1354.81L136.97 1356.94L132.98 1358.86L128.91 1360.57L124.78 1362.07L120.58 1363.36L116.33 1364.42L112.02 1365.25L107.66 1365.85L103.24 1366.21L98.79 1366.34L94.33 1366.21L89.92 1365.85L85.55 1365.25L81.24 1364.42L76.99 1363.36L72.79 1362.07L68.66 1360.57L64.6 1358.86L60.6 1356.94L56.68 1354.81L52.83 1352.49L49.07 1349.97L45.39 1347.26L41.8 1344.37L38.3 1341.3L34.89 1338.05L31.58 1334.63L28.37 1331.05L25.27 1327.3L22.28 1323.4L19.4 1319.35L18.55 1318.06L-9.15 1230.17L-9.34 1225.85L-9.36 1224.8L-9.3 1224.87L-6.29 1227.83L-3.12 1230.29L0.23 1232.24L3.75 1233.7L7.43 1234.65L11.29 1235.1L15.32 1235.05L19.52 1234.5L23.89 1233.44L28.42 1231.89L33.13 1229.83L38.01 1227.27L43.06 1224.21L48.28 1220.65L53.67 1216.58L59.23 1212.02L64.95 1206.95L70.85 1201.38L76.92 1195.31L83.16 1188.74L89.57 1181.67L91.93 1178.95L96.33 1178.75L99.17 1182.15L105.75 1189.73Z" id="a9xkVMQt6o"></path><path d="M1321.37 851.52L1325.74 852.02L1330.05 852.71L1334.3 853.6L1338.5 854.67L1342.63 855.92L1346.7 857.35L1350.69 858.95L1354.61 860.72L1358.46 862.66L1362.22 864.76L1365.9 867.02L1369.49 869.43L1372.99 872L1376.4 874.71L1379.71 877.56L1382.92 880.55L1386.02 883.67L1389.01 886.93L1391.89 890.31L1393.78 892.7L1401.62 914.72L1402.27 916.16L1406.34 925.33L1410.9 935.86L1415.99 947.84L1421.62 961.31L1427.83 976.35L1434.64 993.02L1442.08 1011.39L1450.16 1031.53L1458.92 1053.5L1467.77 1075.74L1476.1 1096.69L1483.94 1116.38L1491.31 1134.86L1498.2 1152.16L1504.65 1168.34L1510.65 1183.43L1516.24 1197.47L1521.43 1210.51L1526.22 1222.58L1530.63 1233.74L1534.69 1244.01L1538.4 1253.45L1541.77 1262.1L1544.83 1269.99L1547.59 1277.17L1550.06 1283.69L1552.26 1289.57L1554.2 1294.87L1555.9 1299.63L1557.37 1303.88L1558.63 1307.68L1559.69 1311.06L1560.57 1314.06L1561.28 1316.72L1561.83 1319.1L1562.25 1321.22L1562.54 1323.14L1562.73 1324.89L1562.82 1326.51L1562.83 1328.06L1562.78 1329.56L1562.67 1331.06L1562.54 1332.6L1562.38 1334.23L1562.22 1335.99L1562.07 1337.92L1561.94 1340.05L1561.86 1342.44L1561.82 1345.12L1561.5 1347.62L1560.56 1349.86L1559.04 1351.82L1556.99 1353.51L1554.44 1354.94L1551.43 1356.1L1548.01 1357L1544.22 1357.63L1540.09 1358.01L1535.67 1358.13L1531 1357.98L1526.12 1357.58L1521.07 1356.93L1515.89 1356.03L1510.63 1354.87L1505.31 1353.46L1499.99 1351.81L1494.71 1349.9L1489.49 1347.76L1484.4 1345.37L1479.46 1342.73L1474.72 1339.86L1470.21 1336.75L1465.98 1333.4L1462.08 1329.81L1458.53 1325.99L1455.39 1321.94L1452.68 1317.66L1450.46 1313.15L1448.76 1308.4L1447.63 1303.44L1447.1 1298.24L1447.22 1292.83L1448.02 1287.19L1449.55 1281.33L1451.85 1275.26L1454.96 1268.96L1458.92 1262.45L1463.76 1255.73L1469.54 1248.8L1475.37 1241.95L1480.36 1235.48L1484.55 1229.38L1487.98 1223.64L1490.67 1218.24L1492.66 1213.19L1493.99 1208.45L1494.69 1204.04L1494.79 1199.92L1494.33 1196.11L1493.33 1192.57L1491.85 1189.31L1489.9 1186.3L1487.52 1183.55L1484.75 1181.04L1481.63 1178.76L1478.17 1176.7L1474.43 1174.85L1470.42 1173.19L1466.2 1171.72L1461.78 1170.43L1457.21 1169.3L1452.52 1168.32L1447.73 1167.49L1442.9 1166.8L1438.05 1166.22L1433.21 1165.76L1428.41 1165.4L1423.7 1165.13L1419.11 1164.94L1414.67 1164.81L1410.41 1164.75L1406.37 1164.73L1402.58 1164.75L1399.07 1164.8L1395.89 1164.86L1393.06 1164.93L1390.62 1164.99L1388.6 1165.04L1387.03 1165.05L1386.17 1165.12L1385.97 1165.32L1386.37 1165.65L1387.32 1166.1L1388.76 1166.68L1390.64 1167.39L1392.91 1168.21L1395.5 1169.15L1398.36 1170.2L1401.43 1171.36L1404.66 1172.64L1408 1174.02L1411.39 1175.5L1414.76 1177.08L1418.08 1178.76L1421.27 1180.54L1424.29 1182.41L1427.07 1184.37L1429.57 1186.42L1431.73 1188.55L1433.49 1190.77L1434.8 1193.07L1435.59 1195.44L1435.82 1197.89L1435.43 1200.41L1434.37 1203L1432.57 1205.66L1429.98 1208.38L1426.55 1211.16L1422.22 1214L1416.94 1216.9L1410.64 1219.85L1403.28 1222.85L1394.79 1225.91L1385.13 1229L1374.24 1232.14L1362.05 1235.32L1348.52 1238.54L1333.59 1241.8L1317.2 1245.09L1300.69 1248.45L1285.41 1251.94L1271.31 1255.54L1265.66 1257.15L1263.42 1258.96L1259.74 1261.66L1255.97 1264.18L1252.13 1266.51L1248.21 1268.63L1244.21 1270.55L1240.15 1272.27L1236.01 1273.77L1231.82 1275.05L1227.56 1276.11L1223.25 1276.94L1220.6 1277.31L1220.57 1277.37L1217.13 1284.02L1213.9 1290.4L1210.91 1296.48L1208.18 1302.25L1205.74 1307.69L1203.61 1312.76L1201.81 1317.46L1200.36 1321.75L1199.3 1325.63L1198.65 1329.06L1198.43 1332.03L1198.23 1334.61L1197.66 1336.77L1196.77 1338.51L1195.59 1339.85L1194.16 1340.81L1192.54 1341.4L1190.75 1341.64L1188.85 1341.54L1186.87 1341.11L1184.86 1340.38L1182.86 1339.34L1180.9 1338.02L1179.04 1336.44L1177.32 1334.6L1175.77 1332.53L1174.44 1330.22L1173.37 1327.71L1172.6 1325.01L1172.18 1322.12L1172.14 1319.06L1172.53 1315.85L1173.39 1312.51L1174.77 1309.04L1176.69 1305.46L1179.22 1301.78L1182.38 1298.03L1186.23 1294.21L1190.79 1290.34L1196.12 1286.43L1202.26 1282.49L1209.24 1278.55L1210.31 1278.02L1210.02 1278.03L1205.56 1277.91L1201.15 1277.54L1196.79 1276.94L1192.48 1276.11L1188.22 1275.05L1184.03 1273.77L1179.89 1272.27L1175.83 1270.55L1171.83 1268.63L1167.91 1266.51L1164.07 1264.18L1160.3 1261.66L1156.62 1258.96L1153.03 1256.06L1149.53 1252.99L1146.12 1249.74L1142.82 1246.32L1139.61 1242.74L1136.51 1239L1133.51 1235.09L1130.63 1231.04L1129.78 1229.75L1102.08 1141.86L1101.89 1137.54L1101.88 1136.49L1101.93 1136.56L1104.94 1139.52L1108.12 1141.98L1111.46 1143.94L1114.98 1145.39L1118.67 1146.34L1122.53 1146.79L1126.55 1146.74L1130.75 1146.19L1135.12 1145.14L1139.66 1143.58L1144.37 1141.52L1149.24 1138.96L1153.04 1136.66L1127.71 1056.28L1127.52 1051.96L1127.5 1050.91L1127.56 1050.98L1130.56 1053.94L1133.74 1056.4L1137.09 1058.35L1140.61 1059.81L1144.29 1060.76L1148.15 1061.21L1152.18 1061.16L1156.38 1060.61L1160.74 1059.55L1164.51 1058.26L1137.07 971.19L1136.87 966.88L1136.86 965.83L1136.92 965.9L1139.92 968.86L1143.1 971.31L1146.45 973.27L1149.96 974.72L1153.65 975.67L1157.51 976.12L1161.54 976.07L1165.74 975.52L1170.1 974.47L1174.64 972.91L1179.35 970.85L1184.23 968.3L1189.28 965.23L1194.5 961.67L1199.88 957.61L1205.44 953.04L1210.74 948.36L1232.27 891.38L1233.11 890.31L1236 886.93L1238.99 883.67L1242.09 880.55L1245.3 877.56L1248.61 874.71L1252.02 872L1255.52 869.43L1259.11 867.02L1262.79 864.76L1266.55 862.66L1270.4 860.72L1274.32 858.95L1278.31 857.35L1282.38 855.92L1286.51 854.67L1290.71 853.6L1294.96 852.71L1299.27 852.02L1303.63 851.52L1308.05 851.21L1312.5 851.11L1316.96 851.21L1321.37 851.52Z" id="hdbvWBC8Y"></path><path d="M734.58 903.48L742.16 904.62L749.65 906.22L757.04 908.24L764.32 910.7L771.5 913.57L778.56 916.84L785.5 920.52L792.31 924.58L798.99 929.03L805.53 933.84L811.92 939.02L818.16 944.55L824.24 950.43L830.15 956.64L835.9 963.18L841.47 970.03L846.86 977.2L852.06 984.66L857.06 992.41L860.34 997.89L903.65 1158.55L903 1157.67L897.78 1152.01L892.26 1147.32L886.45 1143.58L880.34 1140.79L873.93 1138.97L867.23 1138.11L860.24 1138.21L852.95 1139.27L845.36 1141.28L837.48 1144.26L829.3 1148.19L820.83 1153.09L812.06 1158.94L802.99 1165.75L793.64 1173.52L783.98 1182.25L774.03 1191.95L763.78 1202.6L753.24 1214.2L742.41 1226.77L731.27 1240.3L719.85 1254.79L714.91 1261.3L707.27 1260.92L703.18 1255.72L692.04 1242.19L681.21 1229.62L670.66 1218.01L660.42 1207.36L650.47 1197.67L640.81 1188.94L631.45 1181.17L622.39 1174.36L613.62 1168.5L605.15 1163.61L596.97 1159.67L589.09 1156.7L581.5 1154.68L574.21 1153.63L567.22 1153.53L560.52 1154.39L554.11 1156.21L548 1158.99L542.19 1162.73L536.67 1167.43L531.45 1173.09L531.35 1173.23L531.37 1171.22L531.71 1162.96L579.82 994.87L581.29 992.41L586.3 984.66L591.5 977.2L596.88 970.03L602.45 963.18L608.2 956.64L614.12 950.43L620.2 944.55L626.44 939.02L632.83 933.84L639.37 929.03L646.04 924.58L652.86 920.52L659.79 916.84L666.86 913.57L674.03 910.7L681.32 908.24L688.71 906.22L696.19 904.62L703.77 903.48L711.44 902.78L719.18 902.55L726.92 902.78L734.58 903.48Z" id="beZIrmp6"></path><path d="M1034.84 1051.11L1039.2 1051.71L1043.51 1052.54L1047.76 1053.6L1051.96 1054.89L1056.09 1056.39L1060.16 1058.1L1064.15 1060.02L1068.07 1062.15L1071.92 1064.47L1075.68 1066.99L1079.36 1069.7L1082.95 1072.59L1086.46 1075.66L1089.86 1078.91L1093.17 1082.33L1096.38 1085.91L1099.48 1089.66L1102.47 1093.56L1105.36 1097.61L1107.24 1100.48L1132.18 1184.49L1131.8 1184.03L1128.8 1181.07L1125.62 1178.61L1122.27 1176.66L1118.76 1175.2L1115.07 1174.25L1111.21 1173.8L1107.18 1173.85L1102.98 1174.4L1098.62 1175.46L1094.08 1177.01L1089.37 1179.07L1084.49 1181.63L1079.44 1184.69L1074.22 1188.25L1068.84 1192.32L1063.28 1196.88L1057.55 1201.95L1051.65 1207.52L1045.58 1213.59L1039.34 1220.16L1032.93 1227.23L1026.35 1234.81L1023.51 1238.21L1019.11 1238.01L1016.75 1235.29L1010.34 1228.22L1004.1 1221.65L998.03 1215.58L992.13 1210.01L986.41 1204.94L980.85 1200.38L975.46 1196.31L970.24 1192.75L965.19 1189.69L960.31 1187.13L955.6 1185.07L951.07 1183.52L946.7 1182.46L942.5 1181.91L938.47 1181.86L934.61 1182.31L930.93 1183.26L927.41 1184.72L924.06 1186.67L920.88 1189.13L917.88 1192.09L917.82 1192.16L917.84 1191.11L918.03 1186.79L945.73 1098.9L946.58 1097.61L949.46 1093.56L952.45 1089.66L955.55 1085.91L958.76 1082.33L962.07 1078.91L965.48 1075.66L968.98 1072.59L972.57 1069.7L976.25 1066.99L980.01 1064.47L983.86 1062.15L987.78 1060.02L991.78 1058.1L995.84 1056.39L999.97 1054.89L1004.17 1053.6L1008.42 1052.54L1012.73 1051.71L1017.1 1051.11L1021.51 1050.75L1025.97 1050.63L1030.42 1050.75L1034.84 1051.11Z" id="di137egZ"></path><path d="M736.5 943.22L742.28 944.14L747.99 945.41L753.62 947.04L759.17 949L764.64 951.3L770.02 953.93L775.31 956.88L780.5 960.13L785.59 963.7L790.57 967.56L795.44 971.71L800.2 976.14L804.83 980.85L809.34 985.83L813.72 991.07L817.97 996.56L822.08 1002.3L826.04 1008.28L829.85 1014.5L832.35 1018.89L865.36 1147.65L864.87 1146.95L860.89 1142.41L856.68 1138.65L852.25 1135.65L847.59 1133.42L842.71 1131.96L837.6 1131.27L832.27 1131.35L826.72 1132.2L820.93 1133.81L814.93 1136.2L808.69 1139.35L802.24 1143.27L795.55 1147.96L788.64 1153.42L781.51 1159.65L774.15 1166.65L766.57 1174.42L758.76 1182.95L750.72 1192.26L742.47 1202.33L733.98 1213.17L725.27 1224.78L721.51 1230L715.69 1229.69L712.56 1225.53L704.08 1214.69L695.82 1204.61L687.79 1195.31L679.98 1186.77L672.39 1179.01L665.03 1172.01L657.9 1165.78L650.99 1160.32L644.31 1155.63L637.85 1151.71L631.62 1148.55L625.61 1146.17L619.83 1144.55L614.27 1143.71L608.94 1143.63L603.83 1144.32L598.95 1145.78L594.3 1148.01L589.87 1151L585.66 1154.77L581.68 1159.31L581.6 1159.41L581.62 1157.8L581.88 1151.19L618.55 1016.47L619.67 1014.5L623.48 1008.28L627.45 1002.3L631.55 996.56L635.8 991.07L640.18 985.83L644.69 980.85L649.32 976.14L654.08 971.71L658.95 967.56L663.93 963.7L669.02 960.13L674.21 956.88L679.5 953.93L684.88 951.3L690.35 949L695.91 947.04L701.54 945.41L707.24 944.14L713.02 943.22L718.86 942.66L724.76 942.47L730.66 942.66L736.5 943.22Z" id="a2OPdqDX6"></path><path d="M727.34 889.15L731.7 889.75L736.01 890.58L740.26 891.64L744.46 892.93L748.59 894.43L752.66 896.14L756.65 898.06L760.57 900.19L764.42 902.51L768.18 905.03L771.86 907.74L775.45 910.63L778.96 913.7L782.36 916.95L785.67 920.37L788.88 923.95L791.98 927.7L794.97 931.6L797.86 935.65L799.74 938.52L824.68 1022.52L824.3 1022.07L821.3 1019.11L818.12 1016.65L814.77 1014.7L811.26 1013.24L807.57 1012.29L803.71 1011.84L799.68 1011.89L795.48 1012.44L791.12 1013.5L786.58 1015.05L781.87 1017.11L776.99 1019.67L771.94 1022.73L766.72 1026.29L761.34 1030.35L755.78 1034.92L750.05 1039.99L744.15 1045.56L738.08 1051.63L731.84 1058.2L725.43 1065.27L718.85 1072.85L716.01 1076.25L711.61 1076.05L709.25 1073.33L702.84 1066.26L696.6 1059.69L690.53 1053.62L684.63 1048.05L678.91 1042.98L673.35 1038.42L667.96 1034.35L662.74 1030.79L657.69 1027.73L652.81 1025.17L648.1 1023.11L643.57 1021.56L639.2 1020.5L635 1019.95L630.97 1019.9L627.11 1020.35L623.43 1021.3L619.91 1022.76L616.56 1024.71L613.38 1027.17L610.38 1030.13L610.32 1030.2L610.34 1029.15L610.53 1024.83L638.23 936.94L639.08 935.65L641.96 931.6L644.95 927.7L648.05 923.95L651.26 920.37L654.57 916.95L657.98 913.7L661.48 910.63L665.07 907.74L668.75 905.03L672.51 902.51L676.36 900.19L680.28 898.06L684.28 896.14L688.34 894.43L692.47 892.93L696.67 891.64L700.92 890.58L705.23 889.75L709.6 889.15L714.01 888.79L718.47 888.66L722.92 888.79L727.34 889.15Z" id="d3Hdk09fdP"></path><path d="M762.13 968.84L767.9 969.76L773.61 971.04L779.24 972.66L784.8 974.63L790.27 976.93L795.65 979.56L800.94 982.5L806.13 985.76L811.22 989.32L816.2 993.18L821.07 997.33L825.83 1001.77L830.46 1006.48L834.97 1011.45L839.35 1016.69L843.6 1022.19L847.7 1027.93L851.67 1033.91L855.48 1040.12L857.98 1044.51L890.99 1173.28L890.49 1172.57L886.51 1168.04L882.3 1164.27L877.87 1161.27L873.22 1159.05L868.34 1157.59L863.23 1156.9L857.9 1156.97L852.34 1157.82L846.56 1159.44L840.55 1161.82L834.32 1164.97L827.86 1168.9L821.18 1173.59L814.27 1179.05L807.14 1185.28L799.78 1192.27L792.19 1200.04L784.38 1208.58L776.35 1217.88L768.09 1227.95L759.61 1238.8L750.9 1250.41L747.13 1255.62L741.31 1255.32L738.19 1251.15L729.71 1240.31L721.45 1230.24L713.41 1220.93L705.6 1212.4L698.02 1204.63L690.66 1197.63L683.53 1191.41L676.62 1185.95L669.93 1181.25L663.48 1177.33L657.24 1174.18L651.24 1171.79L645.45 1170.18L639.9 1169.33L634.57 1169.25L629.46 1169.94L624.58 1171.4L619.92 1173.63L615.49 1176.63L611.28 1180.4L607.3 1184.93L607.23 1185.04L607.25 1183.43L607.51 1176.81L644.17 1042.09L645.29 1040.12L649.11 1033.91L653.07 1027.93L657.18 1022.19L661.42 1016.69L665.8 1011.45L670.31 1006.48L674.95 1001.77L679.7 997.33L684.58 993.18L689.56 989.32L694.65 985.76L699.84 982.5L705.13 979.56L710.51 976.93L715.98 974.63L721.53 972.66L727.16 971.04L732.87 969.76L738.64 968.84L744.49 968.29L750.39 968.1L756.29 968.29L762.13 968.84Z" id="bLpGRnmWu"></path><path d="M752.96 914.78L757.32 915.38L761.63 916.21L765.89 917.27L770.08 918.55L774.22 920.05L778.28 921.76L782.28 923.69L786.2 925.81L790.04 928.14L793.81 930.65L797.49 933.36L801.08 936.25L804.58 939.33L807.99 942.57L811.3 945.99L814.5 949.58L817.61 953.32L820.6 957.22L823.48 961.28L825.37 964.14L850.31 1048.15L849.93 1047.69L846.92 1044.73L843.75 1042.28L840.4 1040.32L836.88 1038.87L833.19 1037.91L829.34 1037.46L825.31 1037.51L821.11 1038.07L816.74 1039.12L812.2 1040.68L807.49 1042.73L802.62 1045.29L797.57 1048.35L792.35 1051.92L786.96 1055.98L781.4 1060.55L775.67 1065.61L769.77 1071.18L763.7 1077.25L757.46 1083.82L751.05 1090.9L744.48 1098.47L741.63 1101.88L737.24 1101.68L734.88 1098.96L728.47 1091.89L722.23 1085.31L716.16 1079.24L710.26 1073.67L704.53 1068.61L698.97 1064.04L693.58 1059.98L688.36 1056.42L683.32 1053.35L678.44 1050.8L673.73 1048.74L669.19 1047.18L664.82 1046.13L660.62 1045.58L656.6 1045.52L652.74 1045.98L649.05 1046.93L645.53 1048.38L642.19 1050.34L639.01 1052.79L636 1055.75L635.95 1055.82L635.96 1054.77L636.16 1050.46L663.85 962.57L664.7 961.28L667.58 957.22L670.58 953.32L673.68 949.58L676.89 945.99L680.19 942.57L683.6 939.33L687.1 936.25L690.7 933.36L694.37 930.65L698.14 928.14L701.98 925.81L705.9 923.69L709.9 921.76L713.97 920.05L718.1 918.55L722.29 917.27L726.55 916.21L730.86 915.38L735.22 914.78L739.63 914.41L744.09 914.29L748.55 914.41L752.96 914.78Z" id="bzvM4enSz"></path><path d="M873.22 1159.05L877.87 1161.27L882.3 1164.27L882.38 1164.34L878.57 1164.89L870.98 1166.91L863.1 1169.88L854.92 1173.82L846.45 1178.71L837.68 1184.56L828.62 1191.38L819.26 1199.15L809.61 1207.88L799.65 1217.57L789.41 1228.22L778.87 1239.83L768.03 1252.4L756.9 1265.93L745.47 1280.41L740.53 1286.92L732.9 1286.54L728.8 1281.34L717.67 1267.82L706.83 1255.25L696.29 1243.64L686.04 1232.99L676.09 1223.3L666.44 1214.57L657.08 1206.79L648.01 1199.98L639.25 1194.13L630.77 1189.23L622.6 1185.3L614.71 1182.32L610.56 1181.22L611.28 1180.4L615.49 1176.63L619.92 1173.63L624.58 1171.4L629.46 1169.94L634.57 1169.25L639.9 1169.33L645.45 1170.18L651.24 1171.79L657.24 1174.18L663.48 1177.33L669.93 1181.25L676.62 1185.95L683.53 1191.41L690.66 1197.63L698.02 1204.63L705.6 1212.4L713.41 1220.93L721.45 1230.24L729.71 1240.31L738.19 1251.15L741.31 1255.32L747.13 1255.62L750.9 1250.41L759.61 1238.8L768.09 1227.95L776.35 1217.88L784.38 1208.58L792.19 1200.04L799.78 1192.27L807.14 1185.28L814.27 1179.05L821.18 1173.59L827.86 1168.9L834.32 1164.97L840.55 1161.82L846.56 1159.44L852.34 1157.82L857.9 1156.97L863.23 1156.9L868.34 1157.59L873.22 1159.05ZM670.58 953.32L667.58 957.22L664.7 961.28L663.85 962.57L636.16 1050.46L635.96 1054.77L635.95 1055.82L636 1055.75L639.01 1052.79L641.86 1050.59L607.51 1176.81L607.37 1180.37L607.13 1180.31L599.84 1179.25L592.84 1179.15L586.14 1180.02L579.74 1181.84L573.63 1184.62L567.81 1188.36L562.3 1193.06L557.07 1198.72L556.97 1198.85L557 1196.84L557.34 1188.58L605.44 1020.5L606.92 1018.03L611.92 1010.28L617.12 1002.82L622.51 995.66L628.08 988.8L633.83 982.27L639.74 976.05L645.82 970.18L652.06 964.65L658.46 959.47L664.99 954.65L671.67 950.21L674.77 948.36L673.68 949.58L670.58 953.32ZM824.61 954.65L831.15 959.47L837.54 964.65L843.78 970.18L849.86 976.05L855.78 982.27L861.53 988.8L867.1 995.66L872.48 1002.82L877.68 1010.28L882.69 1018.03L885.97 1023.52L929.28 1184.17L928.63 1183.3L923.4 1177.64L917.89 1172.94L912.07 1169.2L905.96 1166.42L899.56 1164.6L892.86 1163.74L888.56 1163.8L857.98 1044.51L855.48 1040.12L851.67 1033.91L847.7 1027.93L843.6 1022.19L841.98 1020.09L825.37 964.14L823.48 961.28L820.6 957.22L817.61 953.32L814.5 949.58L811.78 946.53L817.94 950.21L824.61 954.65Z" id="c4SFcHJBNt"></path></defs><g><g><g><use xlink:href="#h5RVJqG4DQ" opacity="1" fill="#aabaa8" fill-opacity="1"></use></g><g><use xlink:href="#a1gqID0295" opacity="1" fill="#aabaa8" fill-opacity="1"></use></g><g><use xlink:href="#c5aw61wxLW" opacity="1" fill="#aabaa8" fill-opacity="1"></use></g><g><use xlink:href="#c1ForF7LIt" opacity="1" fill="#aabaa8" fill-opacity="1"></use></g><g><use xlink:href="#b2NdjvltD9" opacity="1" fill="#aabaa8" fill-opacity="1"></use></g><g><use xlink:href="#f1zfOr1fVV" opacity="1" fill="#aabaa8" fill-opacity="1"></use></g><g><use xlink:href="#c1aWwqN9i5" opacity="1" fill="#aabaa8" fill-opacity="1"></use></g><g><use xlink:href="#cNjn8JzGa" opacity="1" fill="#aabaa8" fill-opacity="1"></use><g><use xlink:href="#cNjn8JzGa" opacity="1" fill-opacity="0" stroke="#68be50" stroke-width="10" stroke-opacity="1"></use></g></g><g><use xlink:href="#a29gpWXC4M" opacity="1" fill="#aabaa8" fill-opacity="1"></use></g><g><use xlink:href="#e3PzQM6RWb" opacity="1" fill="#aabaa8" fill-opacity="1"></use></g><g><use xlink:href="#b6iysxaRBf" opacity="1" fill="#aabaa8" fill-opacity="1"></use></g><g><use xlink:href="#f5YblXTa80" opacity="1" fill="#aabaa8" fill-opacity="1"></use></g><g><use xlink:href="#a9xkVMQt6o" opacity="1" fill="#aabaa8" fill-opacity="1"></use></g><g><use xlink:href="#hdbvWBC8Y" opacity="1" fill="#aabaa8" fill-opacity="1"></use></g><g><use xlink:href="#beZIrmp6" opacity="1" fill="#aabaa8" fill-opacity="1"></use></g><g><use xlink:href="#di137egZ" opacity="1" fill="#aabaa8" fill-opacity="1"></use></g><g><use xlink:href="#a2OPdqDX6" opacity="1" fill="#aabaa8" fill-opacity="1"></use></g><g><use xlink:href="#d3Hdk09fdP" opacity="1" fill="#aabaa8" fill-opacity="1"></use></g><g><use xlink:href="#bLpGRnmWu" opacity="1" fill="#aabaa8" fill-opacity="1"></use></g><g><use xlink:href="#bzvM4enSz" opacity="1" fill="#aabaa8" fill-opacity="1"></use></g><g><use xlink:href="#c4SFcHJBNt" opacity="1" fill="#aabaa8" fill-opacity="1"></use></g></g></g></svg>