<?xml version="1.0" encoding="UTF-8" standalone="no"?>
<!DOCTYPE svg PUBLIC "-//W3C//DTD SVG 1.1//EN" "http://www.w3.org/Graphics/SVG/1.1/DTD/svg11.dtd">
<svg version="1.1" xmlns="http://www.w3.org/2000/svg" xmlns:xlink="http://www.w3.org/1999/xlink" preserveAspectRatio="xMidYMid meet" viewBox="0 0 1640 1640" width="1640" height="1640"><defs><path d="M437.01 512.06C306.19 544.81 286.11 473.04 376.77 296.73C276.56 177.99 221.72 174.53 212.25 286.33C207.5 342.52 310.97 360.07 191.6 505.4C72.22 650.73 170.19 827.11 214.65 785.53C259.22 743.86 313.26 743.86 376.77 785.53C547.75 570.47 567.84 479.31 437.01 512.06Z" id="a8lwEYQ0M"></path><path d="M29.77 27.34L137.74 27.34L137.74 335.04L29.77 335.04L29.77 27.34Z" id="bzNWOn1kP"></path><path d="M188.13 220.34L234.79 238.21L116.04 525.37L62.74 504.95L188.13 220.34Z" id="dJvXIjnON"></path><path d="M21.46 1025L129.44 1025L129.44 717.3L21.46 717.3L21.46 1025Z" id="d1ZOWMpDwP"></path><path d="M189.4 829.35L236.05 811.48L117.31 524.31L64 544.73L189.4 829.35Z" id="b4K8BOouBx"></path><path d="M533.98 25.63L426.01 25.63L426.01 333.32L533.98 333.32L533.98 25.63Z" id="a38hwrxkZB"></path><path d="M375.62 218.62L328.96 236.49L447.71 523.66L501.01 503.24L375.62 218.62Z" id="a2sEF8axCn"></path><path d="M542.29 1023.28L434.31 1023.28L434.31 715.58L542.29 715.58L542.29 1023.28Z" id="aDC6W9HB"></path><path d="M393.49 827.63L346.84 809.76L465.59 522.59L518.89 543.01L393.49 827.63Z" id="a3LBMdhv1"></path><path d="M1148.08 755.94L1148.08 554.75L1237.2 554.75L1237.2 755.94L1148.08 755.94ZM1482.11 303.69L1543.9 414.79L1537.06 416.86L1540.92 417.43L1545.04 418.4L1548.71 419.68L1551.9 421.27L1554.63 423.15L1556.89 425.35L1558.68 427.84L1560.01 430.64L1560.86 433.74L1561.26 437.15L1561.18 440.86L1560.64 444.88L1559.63 449.19L1558.15 453.82L1556.21 458.74L1553.8 463.97L1550.92 469.51L1547.58 475.34L1543.76 481.48L1539.48 487.93L1534.74 494.68L1529.52 501.73L1523.84 509.09L1517.7 516.75L1513.81 521.43L1495.9 553.63L1577.97 553.63L1577.97 754.81L1488.85 754.81L1488.85 566.31L1455.16 626.89L1416.65 615.2L1428.22 593.04L1425.86 592.01L1422.06 590.42L1418.29 588.94L1414.55 587.56L1410.84 586.28L1407.15 585.11L1403.5 584.04L1399.88 583.07L1396.28 582.2L1392.72 581.43L1389.18 580.77L1385.67 580.2L1382.2 579.74L1378.75 579.39L1375.33 579.13L1371.94 578.98L1368.58 578.93L1365.25 578.98L1361.95 579.13L1358.68 579.39L1355.43 579.74L1352.22 580.2L1349.04 580.77L1345.88 581.43L1342.76 582.2L1339.66 583.07L1336.59 584.04L1333.55 585.11L1330.55 586.28L1327.57 587.56L1324.62 588.94L1321.7 590.42L1318.81 592.01L1315.95 593.69L1314.02 594.91L1325.21 616.33L1286.7 628.01L1257 574.62L1256.61 574L1253.98 569.3L1253.49 568.31L1183.2 441.91L1225.53 429.07L1182.15 415.91L1243.94 304.81L1154.94 304.81L1154.94 103.62L1244.06 103.62L1244.06 304.59L1285.65 229.81L1314.53 238.58L1314.74 238.14L1316.52 235.06L1318.44 232.27L1320.51 229.75L1322.71 227.52L1325.05 225.57L1327.53 223.9L1330.15 222.52L1332.92 221.42L1335.82 220.6L1338.86 220.06L1342.05 219.81L1345.37 219.83L1348.84 220.15L1352.44 220.74L1356.19 221.62L1360.07 222.78L1364.1 224.22L1368.27 225.94L1372.57 227.95L1377.02 230.24L1381.61 232.81L1386.34 235.67L1391.21 238.8L1396.22 242.22L1401.37 245.93L1406.66 249.91L1407.02 250.2L1401.89 240.37L1440.4 228.69L1481.99 303.47L1481.99 102.5L1571.11 102.5L1571.11 303.69L1482.11 303.69ZM1227.19 428.56L1249.99 472.23L1252.07 467.08L1255.53 459.78L1259.53 452.47L1264.11 445.15L1269.27 437.85L1275.05 430.58L1281.45 423.36L1288.51 416.2L1295.56 409.23L1301.95 402.56L1307.69 396.18L1312.83 390.09L1317.37 384.27L1321.36 378.71L1324.81 373.4L1327.74 368.34L1330.2 363.51L1332.19 358.89L1333.75 354.49L1334.9 350.3L1335.67 346.29L1336.09 342.46L1336.17 338.8L1335.95 335.31L1335.44 331.96L1334.69 328.76L1333.7 325.68L1332.51 322.72L1331.15 319.87L1329.63 317.13L1327.98 314.47L1326.24 311.88L1324.42 309.37L1322.55 306.92L1320.66 304.51L1318.77 302.14L1316.91 299.8L1315.1 297.48L1313.36 295.16L1311.74 292.84L1310.24 290.51L1308.9 288.16L1307.74 285.77L1306.79 283.33L1306.07 280.85L1305.61 278.3L1305.53 277.18L1226.38 428.81L1227.19 428.56ZM1426.06 304.55L1421.64 312.3L1417.57 319.79L1413.85 327.02L1410.46 334L1407.42 340.73L1404.72 347.19L1402.36 353.4L1400.35 359.36L1398.68 365.06L1397.35 370.5L1396.37 375.69L1395.73 380.61L1395.43 385.29L1395.47 389.7L1395.86 393.86L1396.59 397.77L1397.66 401.42L1399.07 404.81L1400.83 407.94L1402.93 410.82L1405.37 413.45L1408.16 415.81L1411.29 417.92L1414.76 419.78L1418.57 421.37L1422.73 422.71L1427.23 423.8L1432.07 424.63L1437.25 425.2L1442.78 425.52L1448.65 425.58L1454.87 425.38L1461.42 424.93L1468.32 424.22L1475.56 423.25L1483.15 422.03L1491.07 420.55L1495.52 419.73L1431.03 296.19L1430.81 296.54L1426.06 304.55Z" id="awLFT54hI"></path><path d="M128.38 1311.11C220.66 1333.27 282.18 1333.27 312.94 1311.11C359.08 1277.86 211.75 1311.87 165.61 1278.62C119.47 1245.37 95.55 1046.74 49.41 1079.99C18.65 1102.15 44.97 1179.19 128.38 1311.11Z" id="a1Nk91HJhO"></path><path d="M332.87 1131.73C240.59 1153.9 179.07 1153.9 148.31 1131.73C102.17 1098.48 249.5 1132.49 295.64 1099.24C341.78 1065.99 365.7 867.36 411.84 900.61C442.6 922.78 416.28 999.82 332.87 1131.73Z" id="g2JpMxJi8W"></path><path d="M756.93 1184.66C732.3 1123.37 716.91 1085.07 710.75 1069.74C701.72 1047.26 718.27 1022.77 742.5 1022.77C754.05 1022.77 782.92 1022.77 829.11 1022.77C883.94 1022.77 918.2 1022.77 931.91 1022.77C949.33 1022.77 961.75 1039.68 956.54 1056.3C951 1073.99 937.16 1118.21 915 1188.96L967.04 1314.29L834.69 1314.29L691.88 1314.29L756.93 1184.66Z" id="b1HnBoOmFF"></path><path d="M788.18 1263.89C880.46 1286.05 941.98 1286.05 972.74 1263.89C1018.88 1230.64 871.55 1264.65 825.41 1231.4C779.27 1198.15 755.35 999.52 709.21 1032.77C678.45 1054.94 704.78 1131.98 788.18 1263.89Z" id="d47qUwN4nC"></path><path d="M968.69 1239.18C969.49 1293.22 985.26 1309.15 1016.02 1286.99C1062.16 1253.74 1062.16 1252.45 1016.02 1219.2C1005.18 1211.39 997.52 1266.89 991.54 1239.66C972.08 1150.99 970.49 996.99 935.19 1022.42C904.43 1044.59 915.6 1116.84 968.69 1239.18Z" id="fvAprP5em"></path><path d="M735.58 211.09L740.66 219.85L745.96 228.81L751.46 237.99L757.18 247.37L763.12 256.95L769.27 266.74L776.13 268.36L782.88 269.9L789.51 271.36L796.03 272.73L802.43 274.02L808.71 275.22L814.89 276.34L820.94 277.38L826.88 278.34L832.71 279.21L838.42 280L844.01 280.71L849.49 281.33L854.85 281.87L860.1 282.33L865.23 282.7L870.25 282.99L875.15 283.2L879.94 283.33L884.61 283.37L889.17 283.33L893.61 283.2L897.94 282.99L902.15 282.7L906.24 282.33L910.22 281.87L914.08 281.33L917.83 280.71L921.47 280L924.98 279.21L928.39 278.34L931.62 277.4L948.13 317.15L672.96 317.15L730.59 202.3L730.72 202.53L735.58 211.09ZM915.56 25.75L915.66 25.76L914.04 27.03L911.97 28.98L910.06 31.11L908.3 33.43L906.7 35.94L905.26 38.63L903.98 41.52L902.85 44.59L901.88 47.85L901.06 51.29L900.41 54.93L899.91 58.75L899.57 62.76L899.38 66.96L899.36 71.34L899.49 75.92L899.77 80.68L900.22 85.63L900.82 90.77L901.58 96.09L902.5 101.6L903.57 107.3L904.8 113.19L906.19 119.27L907.73 125.53L909.43 131.99L911.29 138.63L912 141L896.08 191.82L920.44 250.47L920.2 250.47L914.76 250.5L909.16 250.52L903.4 250.54L897.53 250.53L891.57 250.48L885.55 250.38L879.49 250.21L873.43 249.98L867.39 249.65L861.39 249.22L855.47 248.68L849.65 248.01L843.96 247.21L838.44 246.25L833.09 245.13L827.97 243.83L823.08 242.34L818.46 240.66L814.14 238.75L810.14 236.62L806.5 234.25L803.08 231.46L799.74 228.07L796.47 224.15L793.28 219.71L790.15 214.81L787.08 209.47L784.08 203.73L781.12 197.64L778.22 191.22L775.36 184.51L772.55 177.56L769.77 170.4L767.02 163.07L764.31 155.6L761.62 148.03L758.95 140.4L756.29 132.74L753.65 125.1L751.02 117.51L748.39 110L745.77 102.62L743.13 95.4L740.49 88.38L737.84 81.6L735.17 75.09L732.48 68.89L729.76 63.04L727.02 57.58L724.24 52.54L721.43 47.96L718.57 43.87L715.67 40.32L712.71 37.34L709.71 34.97L706.64 33.25L703.51 32.21L703.39 32.2L704.33 31.52L705.71 30.63L707.13 29.8L708.6 29.04L710.11 28.35L711.66 27.73L713.26 27.19L714.89 26.72L716.56 26.33L718.27 26.03L720.01 25.81L721.78 25.67L723.58 25.63L912.99 25.63L914.29 25.66L915.56 25.75Z" id="d58ixsQSOT"></path><path d="M706.17 368.75L704.89 369.76L703.67 370.83L702.5 371.96L701.38 373.13L700.33 374.36L699.33 375.64L698.39 376.95L697.52 378.31L696.71 379.71L695.96 381.15L695.29 382.62L694.68 384.13L694.14 385.66L693.68 387.22L693.29 388.81L692.97 390.42L692.74 392.05L692.58 393.69L692.5 395.35L692.5 397.03L692.59 398.71L692.77 400.4L693.03 402.09L693.38 403.79L693.83 405.49L694.36 407.18L694.99 408.87L741.17 523.79L733.75 538.57L733.88 538.8L738.75 547.36L743.82 556.12L749.12 565.09L754.62 574.26L760.34 583.64L766.28 593.22L772.43 603.01L779.29 604.64L786.04 606.17L792.67 607.63L799.19 609L805.59 610.29L811.87 611.49L818.05 612.62L824.1 613.65L830.04 614.61L835.87 615.48L841.58 616.27L847.17 616.98L852.65 617.6L858.01 618.14L863.26 618.6L868.4 618.97L873.41 619.27L878.31 619.47L883.1 619.6L887.77 619.64L892.33 619.6L896.77 619.47L901.1 619.27L905.31 618.97L909.4 618.6L913.38 618.14L917.24 617.6L920.99 616.98L924.63 616.27L928.15 615.48L931.55 614.61L934.78 613.67L923.6 586.74L928.59 586.73L933.59 586.74L938.34 586.79L942.81 586.89L946.96 587.05L950.78 587.29L953.24 587.53L953.37 589.82L953.62 593.38L953.94 596.79L954.3 600.05L954.73 603.18L954.93 604.42L954.62 604.64L952.14 606.17L949.54 607.63L946.83 609L944.01 610.29L941.06 611.49L938.01 612.62L934.84 613.65L934.78 613.67L951.29 653.42L676.12 653.42L733.75 538.57L729.23 530.45L724.8 522.31L720.57 514.37L716.57 506.64L712.77 499.11L709.19 491.79L705.83 484.67L702.67 477.76L699.74 471.06L697.01 464.56L694.5 458.27L692.21 452.18L690.13 446.3L688.26 440.63L686.61 435.16L685.17 429.89L683.94 424.84L682.93 419.98L682.13 415.34L681.55 410.9L681.18 406.66L681.03 402.63L681.09 398.81L681.36 395.19L681.85 391.78L682.55 388.58L683.46 385.58L684.59 382.78L685.94 380.19L687.5 377.81L689.27 375.63L691.25 373.66L693.45 371.9L696.87 369.83L700.21 368.6L703.48 368.16L706.56 368.47L706.17 368.75ZM931.19 359.94L933.22 361.39L935.14 363.37L936.98 365.86L938.73 368.84L940.39 372.29L941.98 376.18L943.49 380.49L944.94 385.2L946.32 390.29L947.64 395.72L948.91 401.49L950.13 407.56L951.31 413.91L952.45 420.53L953.55 427.38L954.62 434.44L955.67 441.69L956.69 449.12L957.71 456.68L958.71 464.37L959.71 472.16L960.7 480.03L961.7 487.95L962.71 495.9L963.73 503.85L964.77 511.8L965.84 519.7L966.93 527.54L968.06 535.3L969.22 542.95L970.43 550.47L971.68 557.83L972.99 565.02L974.35 572.01L975.78 578.78L976.23 580.67L976.69 582.27L977.16 583.58L977.63 584.62L978.1 585.4L978.59 585.95L979.08 586.26L979.58 586.36L980.09 586.26L980.6 585.98L981.13 585.52L981.66 584.9L982.19 584.13L982.74 583.24L983.3 582.22L983.86 581.1L984.43 579.89L985.01 578.6L985.6 577.24L986.2 575.84L986.8 574.4L987.42 572.94L988.05 571.46L988.68 570L989.33 568.55L989.98 567.13L990.65 565.76L991.32 564.45L992.01 563.21L992.7 562.06L993.41 561.01L994.13 560.07L994.86 559.26L995.59 558.59L996.34 558.08L997.1 557.74L997.88 557.58L998.66 557.61L999.46 557.86L1000.26 558.33L1003.64 560.76L1006.84 563.08L1009.87 565.3L1012.72 567.41L1015.4 569.42L1017.91 571.35L1020.25 573.19L1022.41 574.95L1024.4 576.65L1026.22 578.27L1027.86 579.84L1029.33 581.35L1030.63 582.81L1031.75 584.23L1032.7 585.62L1033.48 586.98L1034.09 588.31L1034.52 589.62L1034.78 590.92L1034.87 592.22L1034.78 593.52L1034.52 594.82L1034.09 596.13L1033.48 597.46L1032.7 598.82L1031.75 600.21L1030.63 601.63L1029.33 603.09L1027.86 604.6L1026.22 606.17L1024.4 607.79L1022.41 609.49L1020.25 611.25L1017.91 613.09L1015.4 615.02L1012.72 617.03L1009.87 619.14L1006.84 621.36L1003.64 623.68L1000.26 626.11L997.98 627.7L995.76 629.15L993.6 630.46L991.49 631.62L989.43 632.64L987.43 633.51L985.49 634.25L983.61 634.84L981.78 635.29L980 635.59L978.29 635.76L976.63 635.77L975.02 635.65L973.47 635.38L971.98 634.98L970.54 634.42L969.16 633.73L967.84 632.89L966.57 631.91L965.36 630.79L964.21 629.52L963.11 628.11L962.07 626.56L961.08 624.86L960.15 623.02L959.27 621.04L958.46 618.92L957.7 616.65L956.99 614.24L956.34 611.69L955.75 609L955.21 606.16L954.93 604.42L956.98 603.01L960.08 600.64L962.49 598.51L964.22 596.61L965.31 594.92L965.79 593.44L965.68 592.14L965.01 591.02L963.81 590.06L962.1 589.25L959.92 588.59L957.28 588.05L954.23 587.62L953.24 587.53L953.17 586.13L953.02 582.29L952.94 578.31L949.03 569.23L945.29 560.33L941.7 551.63L938.27 543.11L934.99 534.78L931.87 526.64L928.91 518.68L926.11 510.91L923.47 503.34L920.98 495.94L918.65 488.74L916.47 481.73L915.16 477.27L940.79 395.43L941.14 394.18L941.44 392.93L941.67 391.69L941.83 390.45L941.94 389.21L941.98 387.99L941.97 386.77L941.9 385.56L941.77 384.36L941.58 383.17L941.34 382.01L941.05 380.85L940.71 379.72L940.32 378.6L939.87 377.51L939.38 376.44L938.84 375.4L938.26 374.38L937.63 373.39L936.95 372.43L936.24 371.5L935.48 370.6L934.68 369.74L933.85 368.91L932.97 368.12L932.06 367.37L931.12 366.66L930.14 366L929.13 365.38L928.08 364.8L927.01 364.27L925.9 363.79L924.77 363.36L923.61 362.98L922.42 362.66L921.21 362.39L919.98 362.18L918.82 362.03L919.43 361.55L922.02 359.97L924.48 359.05L926.83 358.75L929.06 359.06L931.19 359.94ZM918.72 362.02L918.82 362.03L917.21 363.3L915.13 365.25L913.22 367.38L911.46 369.7L909.86 372.21L908.42 374.9L907.14 377.79L906.01 380.86L905.04 384.12L904.23 387.56L903.57 391.2L903.07 395.02L902.73 399.03L902.54 403.23L902.52 407.62L902.65 412.19L902.93 416.95L903.38 421.9L903.98 427.04L904.74 432.36L905.66 437.88L906.73 443.58L907.96 449.47L909.35 455.54L910.89 461.81L912.6 468.26L914.46 474.9L915.16 477.27L899.24 528.09L923.6 586.74L923.36 586.74L917.92 586.77L912.32 586.8L906.56 586.81L900.69 586.8L894.73 586.75L888.71 586.65L882.66 586.49L876.59 586.25L870.55 585.92L864.55 585.49L858.63 584.95L852.81 584.29L847.12 583.48L841.6 582.52L836.25 581.4L831.13 580.1L826.24 578.62L821.62 576.93L817.3 575.03L813.3 572.9L809.66 570.53L806.24 567.73L802.9 564.35L799.63 560.42L796.44 555.99L793.31 551.08L790.24 545.74L787.24 540L784.28 533.91L781.38 527.49L778.52 520.79L775.71 513.84L772.93 506.67L770.18 499.34L767.47 491.87L764.78 484.3L762.11 476.67L759.46 469.01L756.81 461.37L754.18 453.78L751.55 446.27L748.93 438.89L746.29 431.68L743.65 424.66L741 417.87L738.33 411.36L735.64 405.17L732.92 399.32L730.18 393.85L727.4 388.81L724.59 384.23L721.73 380.14L718.83 376.59L715.87 373.61L712.87 371.24L709.8 369.52L706.67 368.48L706.56 368.47L707.49 367.79L708.87 366.9L710.29 366.08L711.76 365.32L713.27 364.62L714.82 364.01L716.42 363.46L718.05 362.99L719.72 362.61L721.43 362.3L723.17 362.08L724.94 361.94L726.74 361.9L916.15 361.9L917.45 361.93L918.72 362.02Z" id="b2tt9q8rat"></path><path d="M938.45 693.07L940.47 694.51L942.4 696.49L944.24 698.99L945.98 701.97L947.65 705.42L949.24 709.31L950.75 713.62L952.19 718.33L953.58 723.41L954.9 728.85L956.17 734.61L957.39 740.68L958.56 747.04L959.7 753.65L960.8 760.5L961.88 767.56L962.92 774.82L963.95 782.24L964.96 789.81L965.97 797.5L966.96 805.29L967.96 813.15L968.96 821.07L969.97 829.02L970.99 836.98L972.03 844.92L973.09 852.82L974.19 860.66L975.31 868.42L976.48 876.07L977.68 883.59L978.94 890.96L980.25 898.15L981.61 905.14L983.04 911.91L983.49 913.8L983.95 915.39L984.41 916.7L984.88 917.74L985.36 918.53L985.85 919.07L986.34 919.39L986.84 919.49L987.34 919.39L987.86 919.1L988.38 918.64L988.91 918.02L989.45 917.26L990 916.36L990.55 915.35L991.11 914.22L991.69 913.01L992.27 911.72L992.86 910.37L993.45 908.96L994.06 907.52L994.68 906.06L995.3 904.59L995.94 903.12L996.58 901.67L997.24 900.26L997.9 898.89L998.58 897.57L999.26 896.33L999.96 895.18L1000.67 894.13L1001.38 893.19L1002.11 892.39L1002.85 891.72L1003.6 891.21L1004.36 890.86L1005.13 890.7L1005.92 890.74L1006.71 890.98L1007.52 891.45L1010.89 893.89L1014.09 896.21L1017.12 898.42L1019.98 900.53L1022.66 902.55L1025.17 904.47L1027.5 906.32L1029.67 908.08L1031.66 909.77L1033.47 911.4L1035.12 912.96L1036.59 914.47L1037.88 915.94L1039.01 917.36L1039.96 918.75L1040.74 920.1L1041.35 921.43L1041.78 922.75L1042.04 924.05L1042.12 925.34L1042.04 926.64L1041.78 927.94L1041.35 929.26L1040.74 930.59L1039.96 931.94L1039.01 933.33L1037.88 934.75L1036.59 936.22L1035.12 937.73L1033.47 939.29L1031.66 940.92L1029.67 942.61L1027.5 944.37L1025.17 946.22L1022.66 948.14L1019.98 950.16L1017.12 952.27L1014.09 954.48L1010.89 956.8L1007.52 959.24L1005.24 960.83L1003.02 962.28L1000.85 963.58L998.74 964.74L996.69 965.76L994.69 966.64L992.75 967.37L990.86 967.96L989.03 968.41L987.26 968.72L985.54 968.88L983.88 968.9L982.28 968.78L980.73 968.51L979.24 968.1L977.8 967.55L976.42 966.85L975.1 966.02L973.83 965.03L972.62 963.91L971.46 962.64L970.36 961.23L969.32 959.68L968.34 957.99L967.41 956.15L966.53 954.17L965.71 952.04L964.95 949.78L964.25 947.37L963.6 944.82L963 942.12L962.47 939.28L962.19 937.55L961.87 937.76L959.39 939.3L956.8 940.75L954.09 942.12L951.26 943.41L948.32 944.62L945.26 945.74L942.09 946.78L942.04 946.8L958.54 986.55L683.37 986.55L741.01 871.69L736.49 863.58L732.05 855.43L727.83 847.49L723.82 839.76L720.03 832.23L716.45 824.91L713.08 817.8L709.93 810.89L706.99 804.18L704.27 797.69L701.76 791.39L699.46 785.31L697.38 779.43L695.52 773.75L693.86 768.28L692.42 763.02L691.2 757.96L690.19 753.11L689.39 748.46L688.81 744.02L688.44 739.79L688.28 735.76L688.34 731.93L688.62 728.32L689.1 724.91L689.8 721.7L690.72 718.7L691.85 715.91L693.19 713.32L694.75 710.93L696.52 708.76L698.51 706.79L700.71 705.02L704.13 702.96L707.47 701.72L710.73 701.29L713.81 701.59L714.75 700.92L716.12 700.03L717.54 699.2L719.01 698.44L720.52 697.75L722.08 697.13L723.67 696.59L725.31 696.12L726.98 695.73L728.68 695.42L730.42 695.2L732.2 695.07L734 695.02L923.41 695.02L924.7 695.05L925.98 695.15L926.07 695.16L926.69 694.67L929.27 693.1L931.74 692.17L934.08 691.87L936.32 692.18L938.45 693.07ZM930.86 919.87L935.85 919.85L940.85 919.87L945.6 919.92L950.06 920.02L954.22 920.18L958.03 920.42L960.5 920.65L960.42 919.25L960.28 915.41L960.19 911.43L956.29 902.35L952.54 893.46L948.95 884.75L945.52 876.23L942.25 867.9L939.13 859.76L936.17 851.81L933.37 844.04L930.72 836.46L928.23 829.07L925.9 821.87L923.73 814.85L922.41 810.4L906.5 861.21L930.86 919.87Z" id="c3H8heI1KL"></path></defs><g><g><g><use xlink:href="#a8lwEYQ0M" opacity="1" fill="#4dd07e" fill-opacity="1"></use></g><g><use xlink:href="#bzNWOn1kP" opacity="1" fill="#4dd07e" fill-opacity="1"></use></g><g><use xlink:href="#dJvXIjnON" opacity="1" fill="#4dd07e" fill-opacity="1"></use></g><g><use xlink:href="#d1ZOWMpDwP" opacity="1" fill="#4dd07e" fill-opacity="1"></use></g><g><use xlink:href="#b4K8BOouBx" opacity="1" fill="#4dd07e" fill-opacity="1"></use></g><g><use xlink:href="#a38hwrxkZB" opacity="1" fill="#4dd07e" fill-opacity="1"></use></g><g><use xlink:href="#a2sEF8axCn" opacity="1" fill="#4dd07e" fill-opacity="1"></use></g><g><use xlink:href="#aDC6W9HB" opacity="1" fill="#4dd07e" fill-opacity="1"></use></g><g><use xlink:href="#a3LBMdhv1" opacity="1" fill="#4dd07e" fill-opacity="1"></use></g><g><use xlink:href="#awLFT54hI" opacity="1" fill="#4dd07e" fill-opacity="1"></use></g><g><use xlink:href="#a1Nk91HJhO" opacity="1" fill="#4dd07e" fill-opacity="1"></use></g><g><use xlink:href="#g2JpMxJi8W" opacity="1" fill="#4dd07e" fill-opacity="1"></use></g><g><g><g><use xlink:href="#b1HnBoOmFF" opacity="1" fill="#52b91c" fill-opacity="1"></use></g><g><use xlink:href="#d47qUwN4nC" opacity="1" fill="#4dd07e" fill-opacity="1"></use></g><g><use xlink:href="#fvAprP5em" opacity="1" fill="#4dd07e" fill-opacity="1"></use></g></g><g><use xlink:href="#d58ixsQSOT" opacity="1" fill="#52b91c" fill-opacity="1"></use></g><g><use xlink:href="#b2tt9q8rat" opacity="1" fill="#52b91c" fill-opacity="1"></use></g><g><use xlink:href="#c3H8heI1KL" opacity="1" fill="#52b91c" fill-opacity="1"></use></g></g></g></g></svg>