<?xml version="1.0" encoding="UTF-8" standalone="no"?>
<!DOCTYPE svg PUBLIC "-//W3C//DTD SVG 1.1//EN" "http://www.w3.org/Graphics/SVG/1.1/DTD/svg11.dtd">
<svg version="1.1" xmlns="http://www.w3.org/2000/svg" xmlns:xlink="http://www.w3.org/1999/xlink" preserveAspectRatio="xMidYMid meet" viewBox="0 0 1640 1640" width="1640" height="1640"><defs><path d="M1235.1 366.52L1237.85 367.9L1240.51 369.34L1243.11 370.84L1245.62 372.39L1248.05 374.01L1250.41 375.68L1252.69 377.41L1254.89 379.19L1257.02 381.04L1259.07 382.94L1261.04 384.9L1262.93 386.92L1264.74 389L1266.48 391.13L1268.14 393.33L1269.72 395.58L1271.22 397.88L1272.65 400.25L1273.99 402.68L1275.26 405.16L1276.46 407.7L1277.57 410.3L1278.62 413.02L1279.6 415.93L1280.52 419.03L1281.37 422.31L1282.17 425.79L1282.9 429.45L1283.57 433.3L1284.17 437.34L1284.71 441.57L1285.19 445.98L1285.61 450.58L1285.97 455.38L1286.26 460.36L1286.49 465.52L1286.65 470.88L1286.76 476.42L1286.8 482.16L1286.78 488.08L1286.69 494.19L1286.54 500.48L1286.33 506.97L1286.06 513.64L1285.73 520.51L1285.33 527.56L1284.87 534.79L1284.34 542.22L1283.76 549.84L1283.11 557.64L1282.4 565.63L1281.62 573.81L1280.78 582.18L1279.88 590.73L1278.92 599.48L1277.9 608.41L1276.81 617.53L1275.66 626.84L1274.44 636.33L1273.17 646.02L1271.83 655.89L1270.43 665.95L1254.65 781.63L1294.32 980.83L1289.72 1118.48L1292.18 1126.44L1294.59 1133.85L1296.96 1140.7L1299.28 1146.99L1301.56 1152.72L1303.78 1157.88L1305.96 1162.49L1308.1 1166.54L1310.19 1170.03L1312.23 1172.96L1314.22 1175.33L1316.17 1177.14L1318.07 1178.39L1319.18 1178.81L1318.74 1179.41L1317.56 1180.92L1316.31 1182.37L1315.01 1183.77L1313.64 1185.11L1312.22 1186.4L1310.74 1187.62L1309.21 1188.78L1307.63 1189.88L1305.99 1190.91L1304.31 1191.87L1302.58 1192.75L1300.81 1193.57L1298.99 1194.31L1297.14 1194.96L1295.24 1195.54L1293.31 1196.04L1291.34 1196.45L1289.34 1196.77L1287.3 1197.01L1285.24 1197.15L1283.15 1197.2L1080.16 1197.2L1078.68 1197.16L1077.22 1197.07L1075.78 1196.91L1074.36 1196.68L1072.96 1196.4L1071.59 1196.06L1070.24 1195.66L1068.92 1195.21L1067.62 1194.7L1066.35 1194.14L1065.12 1193.52L1063.91 1192.86L1062.74 1192.15L1061.6 1191.39L1060.5 1190.59L1059.43 1189.74L1058.4 1188.85L1057.41 1187.91L1056.64 1187.13L1056.69 1187.07L1058.78 1183.58L1060.91 1179.53L1063.09 1174.92L1065.32 1169.75L1067.59 1164.02L1069.91 1157.73L1072.28 1150.89L1074.7 1143.48L1077.16 1135.51L1072.42 993.76L1103.62 781.63L1100.21 765.96L1096.91 750.59L1093.72 735.52L1090.64 720.74L1087.68 706.25L1084.83 692.05L1082.09 678.15L1079.46 664.54L1076.94 651.22L1074.54 638.2L1072.25 625.47L1070.07 613.04L1068 600.9L1066.04 589.05L1064.2 577.49L1062.46 566.23L1060.84 555.26L1059.33 544.59L1057.94 534.21L1056.76 525L1056.22 508.7L1056.42 510.3L1056.68 512.28L1056.94 514.22L1057.2 516.14L1057.46 518.02L1057.72 519.86L1057.99 521.66L1058.26 523.41L1058.54 525.11L1058.82 526.75L1059.1 528.34L1059.39 529.87L1059.69 531.33L1060 532.72L1060.31 534.04L1060.63 535.29L1060.96 536.45L1061.29 537.54L1061.64 538.53L1062 539.44L1062.36 540.25L1062.74 540.96L1063.13 541.57L1063.53 542.08L1063.95 542.48L1065.42 543.44L1066.94 543.96L1068.5 544.07L1070.11 543.79L1071.77 543.14L1073.48 542.14L1075.23 540.8L1077.03 539.16L1078.88 537.23L1080.78 535.03L1082.73 532.58L1084.73 529.9L1086.77 527.01L1088.86 523.94L1091.01 520.71L1093.2 517.33L1095.44 513.82L1097.74 510.21L1100.08 506.52L1102.48 502.76L1104.92 498.96L1107.42 495.14L1109.96 491.32L1112.56 487.52L1115.21 483.76L1117.91 480.06L1120.66 476.44L1123.47 472.92L1126.33 469.53L1129.24 466.28L1132.2 463.19L1135.22 460.28L1138.28 457.58L1141.41 455.11L1144.58 452.88L1147.81 450.92L1151.1 449.25L1154.44 447.88L1157.83 446.84L1161.28 446.16L1167.68 444.95L1173.7 443.28L1179.34 441.16L1184.61 438.63L1189.53 435.7L1194.12 432.41L1198.38 428.78L1202.34 424.83L1206 420.58L1209.37 416.07L1212.48 411.31L1215.34 406.34L1217.96 401.17L1220.35 395.83L1222.53 390.34L1224.5 384.74L1226.3 379.04L1227.92 373.27L1229.39 367.45L1230.11 364.26L1232.28 365.2L1235.1 366.52ZM1117.04 333.47L1120.71 333.88L1124.49 334.46L1125.89 334.73L1124.49 336.59L1122.05 339.72L1119.59 342.79L1117.11 345.82L1114.65 348.79L1112.22 351.72L1109.82 354.61L1107.48 357.47L1105.22 360.29L1103.04 363.09L1100.97 365.88L1099.02 368.64L1097.21 371.4L1095.55 374.14L1094.06 376.89L1092.75 379.64L1091.65 382.4L1090.77 385.17L1090.11 387.95L1089.71 390.76L1089.57 393.6L1089.47 395.79L1089.17 397.67L1088.68 399.24L1088.02 400.54L1087.2 401.59L1086.24 402.42L1085.13 403.05L1083.9 403.51L1082.56 403.82L1081.12 404.01L1079.59 404.1L1077.99 404.12L1076.32 404.09L1074.6 404.04L1072.85 404L1071.06 403.98L1069.27 404.02L1067.47 404.14L1065.68 404.36L1063.91 404.71L1062.18 405.22L1060.49 405.91L1058.86 406.8L1057.31 407.92L1055.84 409.3L1054.46 410.96L1053.19 412.92L1053.03 413.24L1052.4 394.39L1052.66 392.71L1053.5 388.19L1054.45 383.97L1055.51 379.98L1056.66 376.15L1057.91 372.49L1059.26 368.98L1060.71 365.65L1062.25 362.47L1063.89 359.46L1065.63 356.61L1067.46 353.92L1069.39 351.4L1071.42 349.04L1073.54 346.84L1075.76 344.81L1078.08 342.94L1080.5 341.23L1083.01 339.69L1085.62 338.3L1088.32 337.09L1091.13 336.03L1094.03 335.14L1097.02 334.41L1100.12 333.85L1103.31 333.44L1106.59 333.2L1109.98 333.13L1113.46 333.22L1117.04 333.47ZM1058.99 148.48L1061.86 145.97L1064.89 143.89L1068.07 142.23L1071.43 141L1074.94 140.19L1078.61 139.81L1082.45 139.85L1086.45 140.32L1090.61 141.21L1094.94 142.53L1099.42 144.27L1104.07 146.44L1108.88 149.04L1113.85 152.06L1118.99 155.5L1124.28 159.37L1129.74 163.66L1135.36 168.38L1141.14 173.53L1147.09 179.1L1153.19 185.09L1155.44 187.4L1159.63 187.57L1162.34 184.68L1168.61 178.26L1174.71 172.27L1180.66 166.7L1186.44 161.55L1192.06 156.83L1197.52 152.54L1202.82 148.67L1207.95 145.22L1212.92 142.2L1217.73 139.61L1222.38 137.44L1226.86 135.7L1231.19 134.38L1235.35 133.49L1239.35 133.02L1243.19 132.97L1246.86 133.36L1250.38 134.16L1253.73 135.4L1256.63 136.9L1255.56 136.95L1253.35 137.21L1250.85 137.64L1248.09 138.24L1245.08 139L1241.84 139.93L1238.4 141.02L1234.77 142.27L1230.98 143.67L1227.04 145.24L1222.98 146.95L1218.81 148.82L1214.56 150.84L1210.25 153.01L1205.9 155.32L1201.53 157.78L1197.16 160.38L1192.8 163.11L1188.49 165.99L1184.24 169L1180.08 172.15L1176.01 175.42L1172.07 178.83L1168.27 182.36L1164.64 186.02L1161.19 189.8L1157.95 193.71L1154.94 197.73L1152.17 201.87L1149.67 206.13L1147.45 210.5L1145.55 214.98L1143.98 219.58L1142.75 224.27L1141.9 229.08L1141.43 233.98L1141.38 238.99L1141.76 244.1L1142.6 249.31L1143.9 254.61L1145.28 259.88L1146.31 264.99L1147.01 269.97L1147.41 274.8L1147.51 279.49L1147.48 280.2L1146.78 280.48L1144.63 281.46L1142.49 282.51L1140.35 283.64L1138.22 284.83L1136.11 286.07L1134 287.36L1131.91 288.68L1129.83 290.01L1127.77 291.36L1125.72 292.7L1123.68 294.04L1121.67 295.35L1119.67 296.63L1117.69 297.86L1115.73 299.04L1113.8 300.16L1111.88 301.2L1109.99 302.15L1108.12 303.01L1106.28 303.76L1104.47 304.39L1102.68 304.89L1100.92 305.25L1099.19 305.46L1097.49 305.51L1095.82 305.39L1094.18 305.09L1092.57 304.6L1091 303.9L1089.47 302.98L1087.97 301.85L1086.5 300.47L1085.08 298.85L1083.71 297.04L1082.3 294.95L1080.86 292.62L1079.39 290.03L1077.9 287.22L1076.38 284.19L1074.85 280.96L1073.3 277.54L1071.74 273.94L1070.17 270.18L1068.6 266.26L1067.04 262.21L1065.47 258.03L1063.91 253.74L1062.37 249.35L1060.84 244.87L1059.33 240.32L1057.84 235.72L1056.38 231.06L1054.95 226.37L1053.55 221.66L1052.19 216.94L1050.87 212.22L1049.59 207.53L1048.37 202.86L1047.19 198.24L1046.08 193.68L1045.02 189.18L1044.02 184.77L1043.09 180.46L1042.24 176.25L1041.46 172.17L1040.75 168.22L1040.13 164.42L1039.59 160.78L1039.14 157.32L1038.79 154.04L1038.53 150.97L1038.38 148.1L1038.32 145.47L1038.45 140.36L1038.81 135.34L1039.42 130.4L1040.25 125.54L1041.3 120.77L1042.57 116.08L1044.04 111.49L1045.72 106.99L1047.59 102.59L1049.64 98.29L1051.87 94.09L1054.28 89.99L1056.84 86.01L1059.57 82.13L1062.44 78.36L1065.46 74.71L1068.61 71.18L1071.89 67.77L1075.29 64.48L1078.81 61.32L1082.43 58.29L1086.15 55.39L1089.97 52.62L1091.99 51.25L1056.65 151.02L1058.99 148.48ZM1248.74 280.05L1247.98 281.45L1247.23 282.82L1246.47 284.15L1245.71 285.45L1244.95 286.72L1244.19 287.95L1243.43 289.14L1242.67 290.3L1241.94 291.38L1242.73 288.34L1243.64 285.53L1244.63 283.12L1245.74 281.14L1246.96 279.6L1248.31 278.54L1249.96 277.71L1249.5 278.61L1248.74 280.05ZM1237.88 57.89L1237.95 58.11L1239.54 62.7L1241.22 67.53L1242.98 72.55L1244.78 77.7L1246.6 82.94L1248.4 88.22L1250.17 93.47L1251.88 98.66L1253.5 103.73L1254.99 108.62L1256.34 113.3L1257.52 117.7L1258.5 121.77L1259.25 125.47L1259.75 128.74L1259.96 131.53L1259.93 132.32L1234.09 54.91L1237.56 57.62L1237.88 57.89ZM1266.69 89.95L1269.24 94.11L1271.63 98.37L1273.84 102.72L1275.88 107.16L1276.45 108.56L1275.89 107.6L1274.28 104.84L1272.77 102.23L1271.38 99.8L1270.1 97.55L1268.95 95.48L1262.84 84.52L1262.32 83.59L1263.98 85.9L1266.69 89.95Z" id="b1T3EBi1C"></path><path d="M898.7 45.23L900.43 47.51L902.61 50.69L905.26 54.83L908.43 59.98L912.13 66.19L916.39 73.52L921.24 82L926.18 90.77L927.85 93.08L930.55 97.13L933.1 101.29L935.49 105.54L937.71 109.9L939.74 114.34L940.32 115.74L941.47 117.7L943.28 120.77L945.17 123.98L947.16 127.32L949.22 130.79L951.35 134.37L953.55 138.06L955.81 141.84L958.13 145.73L960.51 149.69L962.92 153.74L965.38 157.85L967.87 162.02L970.39 166.25L972.94 170.52L975.5 174.83L978.07 179.17L980.66 183.53L983.24 187.9L985.82 192.28L988.39 196.66L990.95 201.03L993.48 205.38L995.99 209.7L998.47 213.99L1000.91 218.24L1003.31 222.45L1005.66 226.59L1007.96 230.67L1010.2 234.68L1012.38 238.6L1014.48 242.44L1016.51 246.18L1018.46 249.82L1020.33 253.35L1032.51 276.57L1043.99 298.43L1054.79 318.99L1064.92 338.27L1074.42 356.34L1083.3 373.22L1091.57 388.97L1099.27 403.63L1106.41 417.24L1113.01 429.84L1119.09 441.49L1124.67 452.22L1129.78 462.07L1134.43 471.1L1138.64 479.33L1142.44 486.83L1145.84 493.63L1148.87 499.77L1151.55 505.3L1153.89 510.27L1155.91 514.71L1157.64 518.67L1159.11 522.2L1160.31 525.33L1161.29 528.11L1162.06 530.59L1162.63 532.81L1163.03 534.81L1163.29 536.64L1163.41 538.33L1163.43 539.94L1163.36 541.51L1163.22 543.08L1163.03 544.69L1162.81 546.39L1162.59 548.22L1162.38 550.23L1162.21 552.46L1162.09 554.95L1162.04 557.75L1161.6 560.37L1160.3 562.7L1158.21 564.75L1155.38 566.51L1151.87 568L1147.73 569.22L1143.02 570.15L1137.8 570.82L1132.11 571.21L1126.03 571.33L1119.6 571.18L1112.88 570.77L1105.92 570.08L1098.79 569.14L1091.54 567.93L1084.22 566.46L1076.89 564.73L1069.61 562.75L1062.43 560.51L1055.41 558.01L1048.61 555.26L1042.08 552.26L1035.87 549.02L1030.05 545.52L1024.67 541.78L1019.79 537.79L1015.46 533.56L1011.73 529.09L1008.67 524.38L1006.34 519.43L1004.77 514.24L1004.05 508.82L1004.21 503.17L1005.31 497.29L1007.42 491.17L1010.59 484.83L1014.87 478.26L1020.32 471.46L1026.99 464.45L1034.95 457.21L1043.15 450.1L1050.54 443.45L1057.16 437.25L1063.02 431.48L1068.16 426.14L1072.61 421.2L1076.39 416.65L1079.54 412.48L1082.08 408.67L1084.04 405.2L1085.46 402.06L1086.35 399.25L1086.75 396.73L1086.69 394.5L1086.19 392.54L1085.29 390.84L1084.01 389.39L1082.38 388.16L1080.44 387.14L1078.21 386.32L1075.71 385.69L1072.98 385.23L1070.05 384.92L1066.95 384.75L1063.7 384.7L1060.33 384.76L1056.87 384.92L1053.36 385.16L1049.81 385.47L1046.26 385.82L1042.74 386.22L1039.28 386.63L1035.9 387.05L1032.63 387.46L1029.51 387.85L1026.56 388.2L1023.81 388.5L1021.28 388.73L1019.02 388.88L1017.04 388.94L1015.79 388.7L1014.46 387.99L1013.04 386.84L1011.53 385.29L1009.94 383.35L1008.26 381.06L1006.5 378.43L1004.67 375.51L1002.75 372.31L1000.76 368.86L998.69 365.2L996.55 361.34L994.33 357.31L992.05 353.15L989.69 348.88L987.26 344.52L984.77 340.11L982.21 335.66L979.59 331.22L976.9 326.8L974.15 322.44L971.35 318.15L968.48 313.97L965.56 309.92L962.58 306.04L959.55 302.35L956.46 298.87L953.32 295.63L950.13 292.67L946.9 290L943.61 287.66L940.28 285.67L936.91 284.06L933.49 282.86L930.03 282.09L926.54 281.78L923 281.97L919.43 282.66L915.82 283.9L913.82 284.89L913.36 285.79L912.6 287.23L911.85 288.63L911.09 290L910.33 291.33L909.57 292.63L908.81 293.9L908.05 295.13L907.29 296.32L906.54 297.48L905.81 298.56L905.77 298.71L905 302.24L904.29 306.1L903.61 310.26L902.95 314.7L902.31 319.39L901.65 324.3L900.98 329.42L900.27 334.71L899.52 340.15L898.71 345.72L897.82 351.4L896.85 357.15L895.77 362.96L894.58 368.79L893.98 371.44L896.14 372.38L898.96 373.7L901.71 375.08L904.38 376.52L906.97 378.02L909.48 379.57L911.92 381.19L914.27 382.86L916.55 384.59L918.76 386.37L920.88 388.22L922.93 390.12L924.9 392.08L926.79 394.1L928.6 396.18L930.34 398.31L932 400.5L933.58 402.76L935.08 405.06L936.51 407.43L937.86 409.85L939.13 412.34L940.32 414.88L941.43 417.48L942.48 420.2L943.46 423.11L944.38 426.2L945.24 429.49L946.03 432.97L946.76 436.63L947.43 440.48L948.03 444.52L948.58 448.74L949.06 453.16L949.47 457.76L949.83 462.55L950.12 467.53L950.35 472.7L950.52 478.06L950.62 483.6L950.66 489.34L950.64 495.26L950.55 501.37L950.41 507.66L950.2 514.15L949.92 520.82L949.59 527.68L949.19 534.73L948.73 541.97L948.21 549.4L947.62 557.01L946.97 564.82L946.26 572.81L945.48 580.99L944.65 589.35L943.75 597.91L942.78 606.65L941.76 615.59L940.67 624.71L939.52 634.02L938.31 643.51L937.03 653.2L935.69 663.07L934.29 673.13L918.52 788.81L958.18 988L953.58 1125.65L956.04 1133.62L958.46 1141.03L960.82 1147.88L963.14 1154.17L965.42 1159.89L967.65 1165.06L969.83 1169.67L971.96 1173.72L974.05 1177.21L976.09 1180.14L978.08 1182.51L980.03 1184.32L981.93 1185.57L983.04 1185.98L982.6 1186.59L981.42 1188.1L980.18 1189.55L978.87 1190.95L977.51 1192.29L976.08 1193.58L974.61 1194.8L973.07 1195.96L971.49 1197.06L969.86 1198.09L968.17 1199.05L966.45 1199.93L964.67 1200.75L962.86 1201.48L961 1202.14L959.1 1202.72L957.17 1203.22L955.2 1203.63L953.2 1203.95L951.16 1204.19L949.1 1204.33L947.01 1204.38L744.02 1204.38L742.54 1204.34L741.08 1204.24L739.64 1204.08L738.22 1203.86L736.82 1203.58L735.45 1203.24L734.1 1202.84L732.78 1202.39L731.48 1201.88L730.22 1201.32L728.98 1200.7L727.77 1200.04L726.6 1199.33L725.46 1198.57L724.36 1197.76L723.29 1196.92L722.26 1196.03L721.27 1195.09L720.51 1194.31L720.55 1194.25L722.64 1190.76L724.77 1186.71L726.96 1182.1L729.18 1176.93L731.46 1171.2L733.78 1164.91L736.14 1158.07L738.56 1150.66L741.02 1142.69L736.28 1000.94L767.48 788.81L764.07 773.14L760.77 757.77L757.58 742.7L754.51 727.92L751.54 713.43L748.69 699.23L745.95 685.33L743.32 671.72L740.81 658.4L738.4 645.38L736.11 632.65L733.93 620.22L731.86 608.08L729.9 596.23L728.06 584.67L726.33 573.41L724.71 562.44L723.2 551.77L721.8 541.39L720.63 532.18L720.08 515.88L720.03 515.48L719.78 513.45L719.52 511.41L719.26 509.36L719 507.29L718.74 505.22L718.48 503.14L718.22 501.07L717.95 499L717.67 496.93L717.4 494.88L717.12 492.84L716.83 490.83L716.53 488.83L716.23 486.86L715.93 484.92L714.68 476.69L713.7 469.09L712.98 462.1L712.5 455.69L712.25 449.84L712.22 444.52L712.39 439.71L712.75 435.39L713.3 431.52L714.01 428.08L714.89 425.04L715.9 422.39L716.89 420.42L716.26 401.57L716.52 399.88L717.36 395.37L718.31 391.15L719.37 387.16L720.53 383.33L721.78 379.67L723.13 376.16L724.57 372.82L726.11 369.65L727.75 366.64L729.49 363.79L731.32 361.1L733.25 358.58L735.28 356.22L737.4 354.02L739.63 351.99L741.94 350.12L744.36 348.41L746.87 346.86L749.48 345.48L752.19 344.27L754.99 343.21L757.89 342.32L760.89 341.59L763.98 341.02L767.17 340.62L770.46 340.38L773.84 340.31L777.32 340.4L780.9 340.65L784.58 341.06L788.35 341.64L789.76 341.91L788.35 343.77L785.91 346.9L783.45 349.97L780.98 353L778.51 355.97L776.08 358.9L773.68 361.79L771.34 364.64L769.08 367.47L766.9 370.27L764.83 373.05L762.88 375.82L761.07 378.57L759.41 381.32L757.92 384.07L756.62 386.82L755.51 389.58L754.63 392.35L753.98 395.13L753.57 397.94L753.43 400.78L753.33 402.97L753.03 404.84L752.55 406.42L751.89 407.72L751.07 408.77L750.1 409.6L748.99 410.23L747.77 410.69L746.42 411L744.98 411.19L743.45 411.28L741.85 411.3L740.18 411.27L738.47 411.22L736.71 411.18L734.93 411.16L733.13 411.2L731.33 411.32L729.54 411.54L727.77 411.89L726.04 412.4L724.35 413.09L722.73 413.98L721.17 415.1L719.7 416.48L718.32 418.14L717.05 420.1L716.89 420.42L720.08 515.88L720.29 517.48L720.54 519.46L720.8 521.4L721.06 523.32L721.32 525.2L721.59 527.04L721.85 528.84L722.12 530.59L722.4 532.29L722.68 533.93L722.97 535.52L723.26 537.05L723.56 538.51L723.86 539.9L724.17 541.22L724.49 542.47L724.82 543.63L725.16 544.72L725.5 545.71L725.86 546.62L726.23 547.43L726.61 548.14L726.99 548.75L727.4 549.26L727.81 549.66L729.28 550.62L730.8 551.14L732.36 551.25L733.97 550.97L735.63 550.32L737.34 549.32L739.09 547.98L740.9 546.34L742.75 544.41L744.64 542.2L746.59 539.75L748.59 537.08L750.63 534.19L752.73 531.12L754.87 527.89L757.06 524.51L759.31 521L761.6 517.39L763.94 513.7L766.34 509.94L768.78 506.14L771.28 502.32L773.82 498.5L776.42 494.7L779.07 490.94L781.77 487.24L784.53 483.62L787.33 480.1L790.19 476.71L793.1 473.46L796.06 470.37L799.08 467.46L802.15 464.76L805.27 462.29L808.45 460.06L811.68 458.1L814.96 456.43L818.3 455.06L821.69 454.02L825.14 453.33L831.55 452.13L837.56 450.45L843.2 448.34L848.47 445.81L853.4 442.88L857.98 439.59L862.25 435.96L866.2 432.01L869.86 427.76L873.24 423.25L876.35 418.49L879.2 413.51L881.82 408.34L884.21 403L886.39 397.52L888.37 391.91L890.16 386.21L891.79 380.44L893.25 374.63L893.98 371.44L893.24 371.11L890.26 369.9L887.2 368.76L884.07 367.66L880.85 366.63L877.56 365.66L874.2 364.74L870.75 363.88L867.23 363.08L863.63 362.33L859.95 361.65L856.19 361.02L852.36 360.45L848.45 359.94L844.46 359.48L840.39 359.09L836.25 358.75L831.41 356.38L826.67 354.17L822.02 352.12L817.47 350.24L813.02 348.52L808.67 346.97L804.41 345.58L800.25 344.35L796.19 343.28L792.22 342.38L789.76 341.91L790.76 340.57L793.11 337.31L795.38 333.98L797.57 330.57L799.66 327.07L801.63 323.5L803.47 319.83L805.15 316.07L806.67 312.2L808 308.24L809.14 304.16L810.06 299.97L810.75 295.66L811.19 291.23L811.34 287.38L812.8 286.79L814.97 286.02L817.14 285.36L819.31 284.84L821.48 284.45L823.66 284.2L825.83 284.12L827.74 284.2L829.67 284.41L831.62 284.76L833.57 285.23L835.55 285.81L837.53 286.5L839.52 287.28L841.53 288.15L843.53 289.1L845.55 290.11L847.56 291.19L849.58 292.31L851.6 293.47L853.62 294.66L855.63 295.87L857.63 297.1L859.63 298.32L861.62 299.54L863.61 300.75L865.57 301.93L867.53 303.07L869.47 304.18L871.39 305.23L873.29 306.21L875.17 307.13L877.03 307.97L878.87 308.71L880.68 309.36L882.46 309.9L884.22 310.32L885.94 310.61L887.63 310.77L889.29 310.78L890.91 310.64L892.49 310.34L894.04 309.86L895.54 309.2L897 308.35L898.42 307.3L899.79 306.03L900.53 305.26L901.27 304.44L902.02 303.57L902.77 302.66L903.52 301.71L904.27 300.71L905.02 299.67L905.78 298.6L905.81 298.56L906.59 295.52L907.5 292.71L908.5 290.3L909.6 288.32L910.82 286.78L912.17 285.71L913.82 284.89L914.11 284.33L914.87 282.84L915.62 281.32L916.37 279.77L917.12 278.19L917.86 276.59L918.6 274.96L919.34 273.31L920.08 271.64L920.81 269.94L921.54 268.22L922.26 266.48L922.98 264.73L923.7 262.95L924.41 261.15L925.12 259.34L925.82 257.52L926.51 255.67L927.2 253.82L927.88 251.95L928.56 250.07L929.23 248.17L930.07 245.75L930.9 243.31L931.72 240.85L932.53 238.39L933.33 235.92L934.11 233.43L934.87 230.95L935.63 228.45L936.36 225.96L937.08 223.47L937.79 220.98L938.48 218.49L939.15 216.01L939.8 213.53L940.44 211.06L941.06 208.61L941.65 206.17L942.23 203.74L942.79 201.33L943.33 198.94L943.84 196.57L944.34 194.22L944.81 191.89L945.26 189.59L945.69 187.32L946.09 185.08L946.47 182.87L946.82 180.7L947.15 178.56L947.45 176.46L947.73 174.39L947.98 172.37L948.2 170.39L948.39 168.46L948.56 166.57L948.69 164.73L948.8 162.94L948.88 161.2L948.92 159.52L948.94 157.89L948.82 152.78L948.45 147.73L947.85 142.74L947.03 137.82L945.98 132.97L944.73 128.19L943.26 123.49L941.6 118.87L940.32 115.74L939.76 114.78L938.14 112.02L936.64 109.41L935.24 106.98L933.96 104.73L932.81 102.66L926.7 91.7L926.18 90.77L924.99 89.13L921.99 85.29L918.86 81.57L915.6 77.97L912.22 74.48L908.73 71.13L905.12 67.9L901.74 65.07L900.36 60.98L899.05 57.02L897.93 53.46L897.01 50.33L896.33 47.71L895.91 45.63L895.78 44.15L895.97 43.31L896.5 43.18L897.4 43.8L898.7 45.23ZM722.86 155.66L725.72 153.15L728.75 151.07L731.94 149.41L735.29 148.18L738.8 147.37L742.48 146.99L746.31 147.03L750.31 147.5L754.48 148.39L758.8 149.71L763.28 151.45L767.93 153.62L772.74 156.22L777.71 159.24L782.85 162.68L788.14 166.55L793.6 170.84L799.22 175.56L805.01 180.71L810.95 186.28L817.06 192.27L819.31 194.58L823.49 194.75L826.2 191.86L832.47 185.44L838.58 179.45L844.52 173.88L850.3 168.73L855.92 164.01L861.38 159.72L866.68 155.85L871.81 152.4L876.78 149.38L881.59 146.79L886.24 144.62L890.73 142.88L895.05 141.56L899.21 140.66L903.21 140.2L907.05 140.15L910.72 140.54L914.24 141.34L917.59 142.57L920.49 144.08L919.42 144.13L917.21 144.39L914.72 144.82L911.95 145.42L908.94 146.18L905.71 147.11L902.26 148.2L898.63 149.44L894.84 150.85L890.9 152.42L886.84 154.13L882.67 156L878.43 158.02L874.12 160.19L869.76 162.5L865.39 164.96L861.02 167.55L856.67 170.29L852.36 173.17L848.11 176.18L843.94 179.32L839.87 182.6L835.93 186.01L832.14 189.54L828.5 193.2L825.06 196.98L821.81 200.89L818.8 204.91L816.03 209.05L813.53 213.31L811.32 217.68L809.41 222.16L807.84 226.75L806.61 231.45L805.76 236.26L805.3 241.16L805.24 246.17L805.63 251.28L806.46 256.49L807.77 261.79L809.14 267.06L810.17 272.17L810.88 277.15L811.27 281.98L811.37 286.67L811.34 287.38L810.64 287.66L808.49 288.63L806.35 289.69L804.21 290.82L802.09 292.01L799.97 293.25L797.86 294.54L795.77 295.86L793.69 297.19L791.63 298.54L789.58 299.88L787.55 301.22L785.53 302.53L783.53 303.81L781.56 305.04L779.6 306.22L777.66 307.34L775.75 308.38L773.85 309.33L771.99 310.19L770.15 310.93L768.33 311.57L766.54 312.07L764.78 312.43L763.05 312.64L761.35 312.69L759.68 312.57L758.04 312.27L756.44 311.77L754.86 311.08L753.33 310.16L751.83 309.03L750.36 307.65L748.94 306.03L747.57 304.22L746.16 302.13L744.72 299.79L743.25 297.21L741.76 294.4L740.24 291.37L738.71 288.14L737.16 284.72L735.6 281.12L734.04 277.36L732.47 273.44L730.9 269.39L729.33 265.21L727.78 260.92L726.23 256.53L724.7 252.05L723.19 247.5L721.7 242.89L720.24 238.24L718.81 233.55L717.41 228.84L716.05 224.12L714.73 219.4L713.46 214.71L712.23 210.04L711.06 205.42L709.94 200.86L708.88 196.36L707.89 191.95L706.96 187.64L706.1 183.43L705.32 179.35L704.61 175.4L703.99 171.6L703.46 167.96L703.01 164.5L702.65 161.22L702.4 158.14L702.24 155.28L702.18 152.65L702.31 147.54L702.68 142.52L703.28 137.58L704.11 132.72L705.16 127.95L706.43 123.26L707.91 118.67L709.58 114.17L711.45 109.77L713.5 105.47L715.73 101.27L718.14 97.17L720.71 93.19L723.43 89.31L726.3 85.54L729.32 81.89L732.47 78.36L735.75 74.95L739.16 71.66L742.67 68.5L746.29 65.47L750.01 62.57L753.83 59.8L755.85 58.43L720.51 158.2L722.86 155.66ZM901.74 65.07L901.82 65.29L903.4 69.88L905.09 74.71L906.84 79.73L908.64 84.88L910.46 90.12L912.27 95.4L914.04 100.65L915.74 105.84L917.36 110.91L918.86 115.8L920.21 120.48L921.38 124.87L922.36 128.95L923.11 132.65L923.61 135.91L923.82 138.7L923.79 139.5L927.03 149.21L926.67 148.82L923.81 146.31L920.78 144.23L920.49 144.08L921.32 144.04L922.5 143.68L923.3 142.64L923.73 140.96L923.79 139.5L897.96 62.09L901.42 64.8L901.74 65.07Z" id="e5vKOS4Ya"></path><path d="M580.9 45.23L582.62 47.51L584.8 50.69L587.46 54.83L590.62 59.98L594.32 66.19L598.58 73.52L603.43 82L608.38 90.77L610.04 93.08L612.75 97.13L615.3 101.29L617.69 105.54L619.9 109.9L621.94 114.34L622.51 115.74L623.66 117.7L625.47 120.77L627.37 123.98L629.35 127.32L631.41 130.79L633.55 134.37L635.75 138.06L638.01 141.84L640.33 145.73L642.7 149.69L645.12 153.74L647.57 157.85L650.07 162.02L652.59 166.25L655.13 170.52L657.69 174.83L660.27 179.17L662.85 183.53L665.44 187.9L668.02 192.28L670.59 196.66L673.14 201.03L675.68 205.38L678.19 209.7L680.67 213.99L683.11 218.24L685.51 222.45L687.86 226.59L690.16 230.67L692.4 234.68L694.57 238.6L696.68 242.44L698.71 246.18L700.66 249.82L702.52 253.35L714.7 276.57L726.18 298.43L736.98 318.99L747.12 338.27L756.62 356.34L765.49 373.22L773.77 388.97L781.47 403.63L788.6 417.24L795.2 429.84L801.28 441.49L806.87 452.22L811.98 462.07L816.63 471.1L820.84 479.33L824.64 486.83L828.04 493.63L831.07 499.77L833.74 505.3L836.08 510.27L838.11 514.71L839.84 518.67L841.3 522.2L842.51 525.33L843.49 528.11L844.25 530.59L844.83 532.81L845.23 534.81L845.48 536.64L845.61 538.33L845.62 539.94L845.55 541.51L845.41 543.08L845.22 544.69L845.01 546.39L844.79 548.22L844.58 550.23L844.4 552.46L844.28 554.95L844.24 557.75L843.8 560.37L842.5 562.7L840.41 564.75L837.58 566.51L834.07 568L829.93 569.22L825.22 570.15L819.99 570.82L814.31 571.21L808.22 571.33L801.79 571.18L795.07 570.77L788.12 570.08L780.99 569.14L773.73 567.93L766.41 566.46L759.08 564.73L751.8 562.75L744.63 560.51L737.61 558.01L730.8 555.26L724.27 552.26L718.07 549.02L712.25 545.52L706.87 541.78L701.98 537.79L697.65 533.56L693.93 529.09L690.87 524.38L688.53 519.43L686.97 514.24L686.24 508.82L686.4 503.17L687.51 497.29L689.62 491.17L692.78 484.83L697.06 478.26L702.51 471.46L709.19 464.45L717.14 457.21L725.35 450.1L732.74 443.45L739.35 437.25L745.22 431.48L750.36 426.14L754.81 421.2L758.59 416.65L761.74 412.48L764.28 408.67L766.24 405.2L767.65 402.06L768.54 399.25L768.94 396.73L768.88 394.5L768.38 392.54L767.48 390.84L766.21 389.39L764.58 388.16L762.64 387.14L760.4 386.32L757.91 385.69L755.18 385.23L752.25 384.92L749.14 384.75L745.89 384.7L742.52 384.76L739.07 384.92L735.55 385.16L732.01 385.47L728.46 385.82L724.94 386.22L721.47 386.63L718.1 387.05L714.83 387.46L711.71 387.85L708.75 388.2L706 388.5L703.48 388.73L701.22 388.88L699.24 388.94L697.99 388.7L696.66 387.99L695.23 386.84L693.72 385.29L692.13 383.35L690.46 381.06L688.7 378.43L686.86 375.51L684.95 372.31L682.95 368.86L680.89 365.2L678.74 361.34L676.53 357.31L674.24 353.15L671.88 348.88L669.46 344.52L666.97 340.11L664.41 335.66L661.78 331.22L659.1 326.8L656.35 322.44L653.54 318.15L650.68 313.97L647.75 309.92L644.77 306.04L641.74 302.35L638.65 298.87L635.52 295.63L632.33 292.67L629.09 290L625.81 287.66L622.48 285.67L619.11 284.06L615.69 282.86L612.23 282.09L608.73 281.78L605.2 281.97L601.62 282.66L598.01 283.9L596.02 284.89L595.56 285.79L594.8 287.23L594.04 288.63L593.28 290L592.52 291.33L591.77 292.63L591.01 293.9L590.25 295.13L589.49 296.32L588.73 297.48L588 298.56L587.96 298.71L587.2 302.24L586.48 306.1L585.81 310.26L585.15 314.7L584.5 319.39L583.85 324.3L583.18 329.42L582.47 334.71L581.72 340.15L580.9 345.72L580.02 351.4L579.04 357.15L577.96 362.96L576.77 368.79L576.17 371.44L578.33 372.38L581.16 373.7L583.9 375.08L586.57 376.52L589.16 378.02L591.68 379.57L594.11 381.19L596.47 382.86L598.75 384.59L600.95 386.37L603.08 388.22L605.12 390.12L607.09 392.08L608.99 394.1L610.8 396.18L612.54 398.31L614.19 400.5L615.78 402.76L617.28 405.06L618.7 407.43L620.05 409.85L621.32 412.34L622.51 414.88L623.63 417.48L624.67 420.2L625.66 423.11L626.57 426.2L627.43 429.49L628.23 432.97L628.96 436.63L629.62 440.48L630.23 444.52L630.77 448.74L631.25 453.16L631.67 457.76L632.02 462.55L632.32 467.53L632.55 472.7L632.71 478.06L632.82 483.6L632.86 489.34L632.83 495.26L632.75 501.37L632.6 507.66L632.39 514.15L632.12 520.82L631.78 527.68L631.39 534.73L630.93 541.97L630.4 549.4L629.82 557.01L629.17 564.82L628.45 572.81L627.68 580.99L626.84 589.35L625.94 597.91L624.98 606.65L623.95 615.59L622.87 624.71L621.72 634.02L620.5 643.51L619.23 653.2L617.89 663.07L616.48 673.13L600.71 788.81L640.38 988L635.78 1125.65L638.24 1133.62L640.65 1141.03L643.02 1147.88L645.34 1154.17L647.61 1159.89L649.84 1165.06L652.02 1169.67L654.16 1173.72L656.24 1177.21L658.28 1180.14L660.28 1182.51L662.23 1184.32L664.13 1185.57L665.24 1185.98L664.8 1186.59L663.62 1188.1L662.37 1189.55L661.07 1190.95L659.7 1192.29L658.28 1193.58L656.8 1194.8L655.27 1195.96L653.69 1197.06L652.05 1198.09L650.37 1199.05L648.64 1199.93L646.87 1200.75L645.05 1201.48L643.2 1202.14L641.3 1202.72L639.37 1203.22L637.4 1203.63L635.39 1203.95L633.36 1204.19L631.3 1204.33L629.2 1204.38L426.22 1204.38L424.74 1204.34L423.28 1204.24L421.84 1204.08L420.42 1203.86L419.02 1203.58L417.65 1203.24L416.3 1202.84L414.97 1202.39L413.68 1201.88L412.41 1201.32L411.18 1200.7L409.97 1200.04L408.8 1199.33L407.66 1198.57L406.55 1197.76L405.49 1196.92L404.46 1196.03L403.47 1195.09L402.7 1194.31L402.75 1194.25L404.84 1190.76L406.97 1186.71L409.15 1182.1L411.38 1176.93L413.65 1171.2L415.97 1164.91L418.34 1158.07L420.75 1150.66L423.21 1142.69L418.48 1000.94L449.68 788.81L446.27 773.14L442.97 757.77L439.78 742.7L436.7 727.92L433.74 713.43L430.89 699.23L428.15 685.33L425.52 671.72L423 658.4L420.6 645.38L418.31 632.65L416.13 620.22L414.06 608.08L412.1 596.23L410.26 584.67L408.52 573.41L406.9 562.44L405.39 551.77L404 541.39L402.82 532.18L402.28 515.89L402.23 515.48L401.97 513.45L401.71 511.41L401.46 509.36L401.2 507.29L400.94 505.22L400.68 503.14L400.41 501.07L400.14 499L399.87 496.93L399.59 494.88L399.31 492.84L399.02 490.83L398.73 488.83L398.43 486.86L398.12 484.92L396.88 476.69L395.9 469.09L395.18 462.1L394.7 455.69L394.44 449.84L394.41 444.52L394.58 439.71L394.95 435.39L395.5 431.52L396.21 428.08L397.08 425.04L398.1 422.39L399.09 420.42L398.46 401.57L398.72 399.88L399.56 395.37L400.51 391.15L401.57 387.16L402.72 383.33L403.97 379.67L405.32 376.16L406.77 372.82L408.31 369.65L409.95 366.64L411.69 363.79L413.52 361.1L415.45 358.58L417.48 356.22L419.6 354.02L421.82 351.99L424.14 350.12L426.55 348.41L429.07 346.86L431.68 345.48L434.38 344.27L437.18 343.21L440.08 342.32L443.08 341.59L446.17 341.02L449.37 340.62L452.65 340.38L456.04 340.31L459.52 340.4L463.1 340.65L466.77 341.06L470.55 341.64L471.95 341.91L472.95 340.57L475.3 337.31L477.58 333.98L479.77 330.57L481.86 327.07L483.83 323.5L485.66 319.83L487.35 316.07L488.86 312.2L490.2 308.24L491.33 304.16L492.25 299.97L492.94 295.66L493.38 291.23L493.54 287.38L492.84 287.66L490.69 288.63L488.54 289.69L486.41 290.82L484.28 292.01L482.17 293.25L480.06 294.54L477.97 295.86L475.89 297.19L473.82 298.54L471.78 299.88L469.74 301.22L467.73 302.53L465.73 303.81L463.75 305.04L461.79 306.22L459.86 307.34L457.94 308.38L456.05 309.33L454.18 310.19L452.34 310.93L450.53 311.57L448.74 312.07L446.98 312.43L445.25 312.64L443.54 312.69L441.87 312.57L440.24 312.27L438.63 311.77L437.06 311.08L435.52 310.16L434.02 309.03L432.56 307.65L431.14 306.03L429.77 304.22L428.36 302.13L426.92 299.79L425.45 297.21L423.96 294.4L422.44 291.37L420.91 288.14L419.36 284.72L417.8 281.12L416.23 277.36L414.66 273.44L413.09 269.39L411.53 265.21L409.97 260.92L408.43 256.53L406.9 252.05L405.39 247.5L403.9 242.89L402.44 238.24L401 233.55L399.61 228.84L398.25 224.12L396.93 219.4L395.65 214.71L394.43 210.04L393.25 205.42L392.13 200.86L391.08 196.36L390.08 191.95L389.15 187.64L388.3 183.43L387.51 179.35L386.81 175.4L386.19 171.6L385.65 167.96L385.2 164.5L384.85 161.22L384.59 158.14L384.43 155.28L384.38 152.65L384.5 147.54L384.87 142.52L385.47 137.58L386.31 132.72L387.36 127.95L388.63 123.26L390.1 118.67L391.78 114.17L393.65 109.77L395.7 105.47L397.93 101.27L400.33 97.17L402.9 93.19L405.63 89.31L408.5 85.54L411.52 81.89L414.67 78.36L417.95 74.95L421.35 71.66L424.87 68.5L428.49 65.47L432.21 62.57L436.02 59.8L438.05 58.43L402.7 158.2L405.05 155.66L407.92 153.15L410.94 151.07L414.13 149.41L417.48 148.18L421 147.37L424.67 146.99L428.51 147.03L432.51 147.5L436.67 148.39L440.99 149.71L445.48 151.45L450.13 153.62L454.94 156.22L459.91 159.24L465.04 162.68L470.34 166.55L475.8 170.84L481.42 175.56L487.2 180.71L493.15 186.28L499.25 192.27L501.5 194.58L505.69 194.75L508.4 191.86L514.67 185.44L520.77 179.45L526.72 173.88L532.5 168.73L538.12 164.01L543.58 159.72L548.87 155.85L554.01 152.4L558.98 149.38L563.79 146.79L568.44 144.62L572.92 142.88L577.25 141.56L581.41 140.66L585.41 140.2L589.25 140.15L592.92 140.54L596.43 141.34L599.78 142.57L602.68 144.08L603.51 144.04L604.7 143.68L605.49 142.64L605.92 140.96L605.98 139.51L580.15 62.09L583.62 64.8L583.94 65.07L582.56 60.98L581.25 57.02L580.13 53.46L579.21 50.33L578.53 47.71L578.11 45.63L577.98 44.15L578.17 43.31L578.7 43.18L579.6 43.8L580.9 45.23Z" id="bxBCqkyWR"></path><path d="M136.93 340.65L140.6 341.06L144.38 341.64L148.25 342.38L152.21 343.28L156.28 344.35L160.44 345.58L164.69 346.97L169.05 348.52L173.5 350.24L178.05 352.12L182.69 354.17L187.43 356.38L192.27 358.75L196.42 359.09L200.48 359.48L204.47 359.94L208.38 360.45L212.22 361.02L215.97 361.65L219.65 362.33L223.25 363.08L226.78 363.88L230.22 364.74L233.59 365.66L236.88 366.63L240.09 367.66L243.23 368.76L246.28 369.9L249.26 371.11L252.16 372.38L254.99 373.7L257.73 375.08L260.4 376.52L262.99 378.02L265.51 379.57L267.94 381.19L270.3 382.86L272.58 384.59L274.78 386.37L276.91 388.22L278.95 390.12L280.92 392.08L282.82 394.1L284.63 396.18L286.37 398.31L288.02 400.5L289.61 402.76L291.11 405.06L292.53 407.43L293.88 409.85L295.15 412.34L296.35 414.88L297.46 417.48L298.5 420.2L299.49 423.11L300.41 426.2L301.26 429.49L302.06 432.97L302.79 436.63L303.45 440.48L304.06 444.52L304.6 448.74L305.08 453.16L305.5 457.76L305.85 462.55L306.15 467.53L306.38 472.7L306.54 478.06L306.65 483.6L306.69 489.34L306.67 495.26L306.58 501.37L306.43 507.66L306.22 514.15L305.95 520.82L305.62 527.68L305.22 534.73L304.76 541.97L304.23 549.4L303.65 557.01L303 564.82L302.29 572.81L301.51 580.99L300.67 589.35L299.77 597.91L298.81 606.65L297.79 615.59L296.7 624.71L295.55 634.02L294.33 643.51L293.06 653.2L291.72 663.07L290.32 673.13L274.54 788.81L314.21 988L309.61 1125.65L312.07 1133.62L314.48 1141.03L316.85 1147.88L319.17 1154.17L321.44 1159.89L323.67 1165.06L325.85 1169.67L327.99 1173.72L330.07 1177.21L332.12 1180.14L334.11 1182.51L336.06 1184.32L337.96 1185.57L339.07 1185.98L338.63 1186.59L337.45 1188.1L336.2 1189.55L334.9 1190.95L333.53 1192.29L332.11 1193.58L330.63 1194.8L329.1 1195.96L327.52 1197.06L325.88 1198.09L324.2 1199.05L322.47 1199.93L320.7 1200.75L318.88 1201.48L317.03 1202.14L315.13 1202.72L313.2 1203.22L311.23 1203.63L309.23 1203.95L307.19 1204.19L305.13 1204.33L303.03 1204.38L100.05 1204.38L98.57 1204.34L97.11 1204.24L95.67 1204.08L94.25 1203.86L92.85 1203.58L91.48 1203.24L90.13 1202.84L88.8 1202.39L87.51 1201.88L86.24 1201.32L85.01 1200.7L83.8 1200.04L82.63 1199.33L81.49 1198.57L80.39 1197.76L79.32 1196.92L78.29 1196.03L77.3 1195.09L76.53 1194.31L76.58 1194.25L78.67 1190.76L80.8 1186.71L82.98 1182.1L85.21 1176.93L87.48 1171.2L89.8 1164.91L92.17 1158.07L94.58 1150.66L97.05 1142.69L92.31 1000.94L123.51 788.81L120.1 773.14L116.8 757.77L113.61 742.7L110.53 727.92L107.57 713.43L104.72 699.23L101.98 685.33L99.35 671.72L96.83 658.4L94.43 645.38L92.14 632.65L89.96 620.22L87.89 608.08L85.93 596.23L84.09 584.67L82.35 573.41L80.73 562.44L79.22 551.77L77.83 541.39L76.65 532.18L72.29 401.57L72.55 399.88L73.39 395.37L74.34 391.15L75.4 387.16L76.55 383.33L77.8 379.67L79.15 376.16L80.6 372.82L82.14 369.65L83.78 366.64L85.52 363.79L87.35 361.1L89.28 358.58L91.31 356.22L93.43 354.02L95.65 351.99L97.97 350.12L100.39 348.41L102.9 346.86L105.51 345.48L108.21 344.27L111.01 343.21L113.91 342.32L116.91 341.59L120.01 341.02L123.2 340.62L126.48 340.38L129.87 340.31L133.35 340.4L136.93 340.65ZM78.88 155.66L81.75 153.15L84.77 151.07L87.96 149.41L91.31 148.18L94.83 147.37L98.5 146.99L102.34 147.03L106.34 147.5L110.5 148.39L114.83 149.71L119.31 151.45L123.96 153.62L128.77 156.22L133.74 159.24L138.87 162.68L144.17 166.55L149.63 170.84L155.25 175.56L161.03 180.71L166.98 186.28L173.08 192.27L175.33 194.58L179.52 194.75L182.23 191.86L188.5 185.44L194.6 179.45L200.55 173.88L206.33 168.73L211.95 164.01L217.41 159.72L222.7 155.85L227.84 152.4L232.81 149.38L237.62 146.79L242.27 144.62L246.75 142.88L251.08 141.56L255.24 140.66L259.24 140.2L263.08 140.15L266.75 140.54L270.26 141.34L273.62 142.57L276.8 144.23L279.83 146.31L282.7 148.82L283.05 149.21L253.98 62.09L257.45 64.8L261.15 67.9L264.75 71.13L268.25 74.48L271.63 77.97L274.89 81.57L278.02 85.29L281.02 89.13L283.87 93.08L286.58 97.13L289.13 101.29L291.52 105.54L293.73 109.9L295.77 114.34L297.63 118.87L299.29 123.49L300.75 128.19L302.01 132.97L303.05 137.82L303.88 142.74L304.48 147.73L304.84 152.78L304.97 157.89L304.95 159.52L304.9 161.2L304.83 162.94L304.72 164.73L304.58 166.57L304.42 168.46L304.22 170.39L304 172.37L303.75 174.39L303.48 176.46L303.18 178.56L302.85 180.7L302.49 182.87L302.12 185.08L301.71 187.32L301.29 189.59L300.84 191.89L300.37 194.22L299.87 196.57L299.35 198.94L298.82 201.33L298.26 203.74L297.68 206.17L297.08 208.61L296.47 211.06L295.83 213.53L295.18 216.01L294.5 218.49L293.82 220.98L293.11 223.47L292.39 225.96L291.65 228.45L290.9 230.95L290.13 233.43L289.35 235.92L288.56 238.39L287.75 240.85L286.93 243.31L286.1 245.75L285.26 248.17L284.59 250.07L283.91 251.95L283.23 253.82L282.54 255.67L281.84 257.52L281.14 259.34L280.44 261.15L279.73 262.95L279.01 264.73L278.29 266.48L277.57 268.22L276.84 269.94L276.1 271.64L275.37 273.31L274.63 274.96L273.89 276.59L273.14 278.19L272.4 279.77L271.65 281.32L270.89 282.84L270.14 284.33L269.39 285.79L268.63 287.23L267.87 288.63L267.11 290L266.36 291.33L265.6 292.63L264.84 293.9L264.08 295.13L263.32 296.32L262.56 297.48L261.8 298.6L261.05 299.67L260.29 300.71L259.54 301.71L258.79 302.66L258.04 303.57L257.3 304.44L256.55 305.26L255.81 306.03L254.44 307.3L253.03 308.35L251.57 309.2L250.06 309.86L248.52 310.34L246.94 310.64L245.31 310.78L243.66 310.77L241.97 310.61L240.24 310.32L238.49 309.9L236.71 309.36L234.9 308.71L233.06 307.97L231.2 307.13L229.32 306.21L227.42 305.23L225.49 304.18L223.55 303.07L221.6 301.93L219.63 300.75L217.65 299.54L215.66 298.32L213.66 297.1L211.65 295.87L209.64 294.66L207.63 293.47L205.61 292.31L203.59 291.19L201.57 290.11L199.56 289.1L197.55 288.15L195.55 287.28L193.56 286.5L191.57 285.81L189.6 285.23L187.64 284.76L185.7 284.41L183.77 284.2L181.86 284.12L179.68 284.2L177.51 284.45L175.33 284.84L173.16 285.36L170.99 286.02L168.83 286.79L166.67 287.66L164.52 288.63L162.37 289.69L160.24 290.82L158.11 292.01L156 293.25L153.89 294.54L151.8 295.86L149.72 297.19L147.65 298.54L145.61 299.88L143.57 301.22L141.56 302.53L139.56 303.81L137.58 305.04L135.62 306.22L133.69 307.34L131.77 308.38L129.88 309.33L128.01 310.19L126.17 310.93L124.36 311.57L122.57 312.07L120.81 312.43L119.08 312.64L117.37 312.69L115.7 312.57L114.07 312.27L112.46 311.77L110.89 311.08L109.35 310.16L107.85 309.03L106.39 307.65L104.97 306.03L103.6 304.22L102.19 302.13L100.75 299.79L99.28 297.21L97.79 294.4L96.27 291.37L94.74 288.14L93.19 284.72L91.63 281.12L90.06 277.36L88.49 273.44L86.92 269.39L85.36 265.21L83.8 260.92L82.26 256.53L80.73 252.05L79.22 247.5L77.73 242.89L76.27 238.24L74.83 233.55L73.44 228.84L72.08 224.12L70.76 219.4L69.48 214.71L68.26 210.04L67.08 205.42L65.96 200.86L64.91 196.36L63.91 191.95L62.98 187.64L62.13 183.43L61.34 179.35L60.64 175.4L60.02 171.6L59.48 167.96L59.03 164.5L58.68 161.22L58.42 158.14L58.26 155.28L58.21 152.65L58.33 147.54L58.7 142.52L59.31 137.58L60.14 132.72L61.19 127.95L62.46 123.26L63.93 118.67L65.61 114.17L67.48 109.77L69.53 105.47L71.76 101.27L74.16 97.17L76.73 93.19L79.46 89.31L82.33 85.54L85.35 81.89L88.5 78.36L91.78 74.95L95.18 71.66L98.7 68.5L102.32 65.47L106.04 62.57L109.85 59.8L111.88 58.43L76.54 158.2L78.88 155.66Z" id="e4IFal3evM"></path><path d="M288.84 102.66C303.39 128.92 352.11 207.12 376.35 253.35C543.55 572.16 518.07 518.19 518.07 557.75C518.07 594.51 276.08 555.2 390.97 457.21C505.87 359.21 397.4 388.94 373.07 388.94C357.04 388.94 317.01 257.65 268.2 285.71C249.21 296.63 269.27 440.46 181.17 453.33C134.83 460.1 103.14 565.41 83.84 549.66C78.23 545.09 76.1 510.59 71.95 484.92C53.53 370.84 109.46 432.32 109.46 400.78C109.46 362.78 184.47 333.08 163.79 261.79C143.12 190.49 254.19 144.04 277.34 144.04C295.87 144.04 202.99 -52.19 288.84 102.66Z" id="b2rjEylVjf"></path><path d="M1569.08 678.56L1569.95 678.66L1570.81 678.8L1571.66 678.98L1572.49 679.19L1573.3 679.44L1574.1 679.73L1574.88 680.04L1575.64 680.39L1576.39 680.78L1577.11 681.19L1577.81 681.63L1578.49 682.11L1579.15 682.61L1579.78 683.13L1580.39 683.69L1580.98 684.26L1581.54 684.87L1582.07 685.49L1582.58 686.14L1582.69 686.29L1582.33 686.42L1581.51 686.94L1580.67 687.71L1579.81 688.71L1578.93 689.94L1578.04 691.42L1577.12 693.12L1576.18 695.07L1575.22 697.25L1574.24 699.67L1573.24 702.32L1572.22 705.21L1571.18 708.34L1570.12 711.7L1572.1 769.79L1555.02 853.85L1577.99 942.48L1579.65 991.36L1468.8 991.36L1469.92 958.65L1489.98 853.85L1476.54 764.33L1478.58 704.51L1477.52 701.15L1476.48 698.02L1475.46 695.13L1474.46 692.48L1473.48 690.06L1472.53 687.88L1471.59 685.94L1470.67 684.23L1469.79 682.79L1470.09 682.48L1470.52 682.08L1470.96 681.69L1471.42 681.33L1471.89 680.98L1472.38 680.66L1472.89 680.35L1473.41 680.06L1473.94 679.8L1474.48 679.56L1475.04 679.34L1475.61 679.14L1476.19 678.97L1476.78 678.82L1477.38 678.7L1477.99 678.61L1478.61 678.54L1479.24 678.49L1479.88 678.48L1567.29 678.48L1568.19 678.5L1569.08 678.56Z" id="g2hSyFifJ"></path><path d="M1465.73 767.47L1467.1 767.64L1468.5 767.87L1469.95 768.17L1471.42 768.53L1472.94 768.96L1474.49 769.46L1476.07 770.02L1477.69 770.64L1479.35 771.34L1481.04 772.09L1482.77 772.92L1484.54 773.81L1486.34 774.76L1487.89 774.9L1489.4 775.06L1490.89 775.24L1492.34 775.44L1493.77 775.67L1495.17 775.93L1496.54 776.2L1497.88 776.5L1499.19 776.82L1500.48 777.17L1501.73 777.54L1502.96 777.93L1504.15 778.35L1505.32 778.79L1506.46 779.25L1507.57 779.74L1508.65 780.25L1509.7 780.78L1510.72 781.33L1511.72 781.91L1512.68 782.52L1513.62 783.14L1514.52 783.79L1515.4 784.46L1516.25 785.16L1517.07 785.88L1517.86 786.62L1518.63 787.39L1519.36 788.18L1520.06 788.99L1520.74 789.83L1521.39 790.68L1522 791.57L1522.59 792.47L1523.15 793.4L1523.68 794.35L1524.19 795.33L1524.66 796.33L1525.1 797.35L1525.52 798.4L1525.91 799.49L1526.27 800.66L1526.61 801.91L1526.93 803.23L1527.23 804.63L1527.5 806.11L1527.75 807.66L1527.98 809.28L1528.18 810.98L1528.36 812.76L1528.51 814.61L1528.64 816.54L1528.75 818.55L1528.84 820.63L1528.9 822.78L1528.94 825.02L1528.95 827.32L1528.95 829.71L1528.91 832.16L1528.86 834.7L1528.78 837.31L1528.68 840L1528.56 842.76L1528.41 845.6L1528.24 848.51L1528.04 851.5L1527.82 854.56L1527.58 857.7L1527.31 860.92L1527.03 864.21L1526.71 867.58L1526.38 871.02L1526.02 874.54L1525.64 878.14L1525.23 881.81L1524.81 885.56L1524.35 889.38L1523.88 893.28L1523.38 897.25L1522.86 901.3L1516.98 947.86L1531.76 1028.04L1530.04 1083.44L1530.96 1086.65L1531.86 1089.63L1532.74 1092.39L1533.6 1094.92L1534.45 1097.23L1535.28 1099.31L1536.09 1101.16L1536.89 1102.79L1537.66 1104.2L1538.42 1105.38L1539.17 1106.33L1539.89 1107.06L1540.6 1107.56L1541.29 1107.84L1541.45 1107.85L1541.39 1107.93L1540.97 1108.51L1540.52 1109.07L1540.05 1109.61L1539.56 1110.13L1539.04 1110.63L1538.51 1111.11L1537.95 1111.57L1537.37 1112L1536.78 1112.41L1536.16 1112.79L1535.53 1113.15L1534.88 1113.48L1534.22 1113.78L1533.53 1114.06L1532.84 1114.3L1532.13 1114.52L1531.4 1114.7L1530.66 1114.85L1529.91 1114.97L1529.15 1115.06L1528.38 1115.11L1527.59 1115.13L1451.99 1115.13L1451.44 1115.12L1450.9 1115.08L1450.36 1115.02L1449.83 1114.94L1449.3 1114.83L1448.79 1114.71L1448.28 1114.56L1447.79 1114.39L1447.3 1114.2L1446.83 1113.99L1446.37 1113.76L1445.91 1113.52L1445.47 1113.25L1445.05 1112.97L1444.63 1112.67L1444.23 1112.36L1443.84 1112.02L1443.47 1111.68L1443.11 1111.32L1443.1 1111.3L1443.25 1111.05L1444.03 1109.65L1444.83 1108.02L1445.64 1106.16L1446.47 1104.08L1447.32 1101.78L1448.18 1099.25L1449.06 1096.49L1449.96 1093.51L1450.88 1090.3L1449.11 1033.25L1460.73 947.86L1459.46 941.56L1458.23 935.37L1457.05 929.3L1455.9 923.35L1454.8 917.52L1453.73 911.81L1452.71 906.21L1451.73 900.73L1450.8 895.37L1449.9 890.13L1449.05 885.01L1448.24 880L1447.47 875.12L1446.74 870.35L1446.05 865.7L1445.4 861.16L1444.8 856.75L1444.24 852.45L1443.72 848.27L1443.28 844.57L1441.66 792L1441.75 791.32L1442.07 789.5L1442.42 787.8L1442.81 786.2L1443.24 784.65L1443.71 783.18L1444.21 781.77L1444.75 780.43L1445.33 779.15L1445.94 777.94L1446.58 776.79L1447.27 775.71L1447.98 774.69L1448.74 773.74L1449.53 772.86L1450.36 772.04L1451.22 771.29L1452.12 770.6L1453.06 769.98L1454.03 769.42L1455.04 768.93L1456.08 768.51L1457.16 768.15L1458.28 767.85L1459.43 767.63L1460.62 767.46L1461.84 767.37L1463.1 767.34L1464.4 767.37L1465.73 767.47ZM1444.11 693.01L1445.18 692L1446.31 691.17L1447.49 690.5L1448.74 690L1450.05 689.68L1451.42 689.52L1452.85 689.54L1454.34 689.73L1455.89 690.09L1457.5 690.62L1459.17 691.32L1460.9 692.2L1462.69 693.24L1464.54 694.45L1466.46 695.84L1468.43 697.4L1470.46 699.13L1472.55 701.03L1474.71 703.1L1476.92 705.34L1479.2 707.75L1480.03 708.68L1481.59 708.75L1482.6 707.59L1484.94 705L1487.21 702.59L1489.42 700.35L1491.58 698.28L1493.67 696.38L1495.7 694.65L1497.68 693.09L1499.59 691.7L1501.44 690.49L1503.23 689.45L1504.96 688.57L1506.63 687.87L1508.24 687.34L1509.79 686.98L1511.28 686.79L1512.71 686.77L1514.08 686.93L1515.39 687.25L1516.64 687.75L1517.83 688.42L1518.95 689.25L1520.02 690.26L1520.15 690.42L1509.33 655.35L1510.62 656.44L1512 657.69L1513.34 658.99L1514.64 660.34L1515.9 661.74L1517.11 663.2L1518.28 664.69L1519.39 666.24L1520.46 667.83L1521.47 669.46L1522.42 671.13L1523.3 672.84L1524.13 674.6L1524.89 676.38L1525.58 678.21L1526.2 680.07L1526.74 681.96L1527.21 683.88L1527.6 685.83L1527.91 687.82L1528.13 689.82L1528.27 691.86L1528.31 693.92L1528.29 695.1L1528.24 696.35L1528.15 697.68L1528.03 699.06L1527.87 700.5L1527.68 701.99L1527.46 703.53L1527.21 705.12L1526.93 706.74L1526.63 708.4L1526.29 710.09L1525.94 711.81L1525.55 713.56L1525.15 715.32L1524.72 717.09L1524.27 718.88L1523.8 720.67L1523.32 722.46L1522.81 724.25L1522.29 726.03L1521.75 727.8L1521.2 729.56L1520.63 731.29L1520.05 733L1519.46 734.68L1518.86 736.33L1518.26 737.94L1517.64 739.51L1517.02 741.04L1516.39 742.51L1515.75 743.93L1515.11 745.29L1514.47 746.59L1513.83 747.82L1513.19 748.97L1512.55 750.06L1511.91 751.06L1511.27 751.98L1510.64 752.81L1510.01 753.54L1509.5 754.05L1508.97 754.47L1508.43 754.82L1507.87 755.08L1507.29 755.27L1506.7 755.4L1506.1 755.45L1505.48 755.45L1504.85 755.39L1504.21 755.27L1503.56 755.1L1502.89 754.88L1502.22 754.62L1501.53 754.32L1500.84 753.98L1500.14 753.61L1499.43 753.22L1498.71 752.79L1497.99 752.35L1497.26 751.89L1496.53 751.42L1495.79 750.93L1495.05 750.44L1494.31 749.94L1493.56 749.45L1492.81 748.96L1492.06 748.48L1491.31 748.02L1490.56 747.57L1489.81 747.13L1489.06 746.73L1488.31 746.35L1487.56 746L1486.82 745.68L1486.08 745.4L1485.35 745.17L1484.62 744.98L1483.89 744.84L1483.18 744.75L1482.46 744.72L1481.65 744.76L1480.84 744.85L1480.03 745.01L1479.22 745.22L1478.42 745.49L1477.61 745.8L1476.81 746.15L1476.01 746.54L1475.21 746.96L1474.41 747.42L1473.62 747.9L1472.83 748.4L1472.05 748.92L1471.27 749.45L1470.49 749.98L1469.73 750.52L1468.96 751.07L1468.2 751.6L1467.45 752.13L1466.71 752.65L1465.97 753.14L1465.24 753.62L1464.52 754.07L1463.81 754.48L1463.11 754.87L1462.41 755.21L1461.72 755.51L1461.05 755.77L1460.38 755.97L1459.73 756.12L1459.08 756.2L1458.45 756.22L1457.83 756.17L1457.22 756.05L1456.62 755.85L1456.03 755.57L1455.46 755.2L1454.9 754.75L1454.36 754.19L1453.83 753.54L1453.32 752.81L1452.79 751.97L1452.26 751.03L1451.71 749.99L1451.15 748.86L1450.59 747.64L1450.02 746.34L1449.44 744.96L1448.86 743.51L1448.28 742L1447.69 740.42L1447.11 738.79L1446.52 737.11L1445.94 735.38L1445.37 733.62L1444.8 731.81L1444.24 729.98L1443.68 728.13L1443.14 726.25L1442.6 724.37L1442.08 722.47L1441.58 720.57L1441.09 718.67L1440.61 716.78L1440.15 714.9L1439.72 713.04L1439.3 711.21L1438.91 709.4L1438.54 707.62L1438.19 705.89L1437.87 704.19L1437.58 702.55L1437.32 700.96L1437.09 699.43L1436.89 697.97L1436.72 696.57L1436.59 695.25L1436.49 694.02L1436.43 692.86L1436.41 691.8L1436.46 689.75L1436.6 687.73L1436.82 685.74L1437.13 683.78L1437.52 681.86L1437.99 679.98L1438.54 678.13L1439.17 676.32L1439.86 674.54L1440.63 672.81L1441.46 671.12L1442.35 669.47L1443.31 667.87L1444.33 666.31L1445.4 664.79L1446.52 663.32L1447.69 661.9L1448.92 660.53L1450.18 659.21L1451.49 657.93L1452.84 656.71L1454.23 655.54L1455.65 654.43L1456.4 653.88L1443.24 694.04L1444.11 693.01Z" id="lwl3MyX75"></path><path d="M1499.5 815.99L1516.58 900.05L1514.6 958.14L1515.66 961.5L1516.7 964.63L1517.72 967.52L1518.72 970.17L1519.7 972.59L1520.66 974.77L1521.6 976.72L1522.52 978.42L1523.41 979.9L1524.29 981.13L1525.15 982.13L1525.99 982.9L1526.81 983.42L1527.17 983.55L1527.06 983.7L1526.55 984.35L1526.02 984.97L1525.46 985.58L1524.87 986.15L1524.26 986.71L1523.63 987.23L1522.97 987.73L1522.29 988.21L1521.59 988.65L1520.87 989.06L1520.12 989.45L1519.36 989.8L1518.58 990.11L1517.78 990.4L1516.97 990.65L1516.14 990.86L1515.29 991.04L1514.43 991.18L1513.56 991.28L1512.67 991.34L1511.77 991.36L1424.36 991.36L1423.72 991.35L1423.09 991.3L1422.47 991.23L1421.86 991.14L1421.26 991.02L1420.67 990.87L1420.09 990.7L1419.52 990.5L1418.96 990.28L1418.42 990.04L1417.89 989.78L1417.37 989.49L1416.86 989.18L1416.37 988.86L1415.9 988.51L1415.44 988.15L1415 987.76L1414.57 987.36L1414.27 987.05L1415.15 985.61L1416.07 983.9L1417.01 981.96L1417.96 979.78L1418.94 977.36L1419.94 974.71L1420.96 971.82L1422 968.69L1423.06 965.33L1421.02 905.51L1434.46 815.99L1414.4 711.19L1413.28 678.48L1524.13 678.48L1522.47 727.36L1499.5 815.99Z" id="b201imk8Mk"></path><path d="M1492.53 754.27L1493.9 754.43L1495.31 754.67L1496.75 754.96L1498.23 755.33L1499.74 755.76L1501.29 756.25L1502.88 756.81L1504.5 757.44L1506.15 758.13L1507.85 758.89L1509.58 759.71L1511.34 760.6L1513.15 761.56L1514.69 761.69L1516.21 761.85L1517.69 762.03L1519.15 762.24L1520.58 762.47L1521.97 762.72L1523.34 763L1524.69 763.3L1526 763.62L1527.28 763.97L1528.54 764.33L1529.76 764.73L1530.96 765.14L1532.12 765.58L1533.26 766.05L1534.37 766.53L1535.45 767.04L1536.5 767.57L1537.53 768.13L1538.52 768.71L1539.49 769.31L1540.42 769.94L1541.33 770.59L1542.21 771.26L1543.06 771.95L1543.88 772.67L1544.67 773.42L1545.43 774.18L1546.16 774.97L1546.87 775.78L1547.54 776.62L1548.19 777.48L1548.81 778.36L1549.4 779.27L1549.96 780.2L1550.49 781.15L1550.99 782.13L1551.46 783.12L1551.91 784.15L1552.32 785.19L1552.71 786.29L1553.08 787.46L1553.42 788.71L1553.74 790.03L1554.03 791.43L1554.31 792.9L1554.56 794.45L1554.78 796.08L1554.98 797.78L1555.16 799.56L1555.32 801.41L1555.45 803.34L1555.56 805.34L1555.64 807.42L1555.71 809.58L1555.74 811.81L1555.76 814.12L1555.75 816.5L1555.72 818.96L1555.66 821.49L1555.59 824.1L1555.48 826.79L1555.36 829.55L1555.21 832.39L1555.04 835.3L1554.84 838.29L1554.63 841.36L1554.38 844.5L1554.12 847.72L1553.83 851.01L1553.52 854.38L1553.18 857.82L1552.83 861.34L1552.44 864.93L1552.04 868.6L1551.61 872.35L1551.16 876.17L1550.68 880.07L1550.18 884.05L1549.66 888.1L1543.79 934.66L1558.56 1014.83L1556.85 1070.24L1557.76 1073.45L1558.66 1076.43L1559.54 1079.18L1560.41 1081.72L1561.26 1084.02L1562.08 1086.1L1562.9 1087.96L1563.69 1089.59L1564.47 1090.99L1565.23 1092.17L1565.97 1093.12L1566.7 1093.85L1567.41 1094.36L1568.1 1094.63L1568.25 1094.65L1568.2 1094.73L1567.77 1095.3L1567.33 1095.87L1566.86 1096.41L1566.36 1096.93L1565.85 1097.43L1565.31 1097.91L1564.76 1098.36L1564.18 1098.8L1563.58 1099.2L1562.97 1099.59L1562.34 1099.94L1561.69 1100.27L1561.02 1100.58L1560.34 1100.85L1559.64 1101.1L1558.93 1101.31L1558.21 1101.49L1557.47 1101.65L1556.72 1101.77L1555.96 1101.85L1555.18 1101.91L1554.4 1101.92L1478.8 1101.92L1478.25 1101.91L1477.7 1101.88L1477.16 1101.82L1476.63 1101.73L1476.11 1101.63L1475.59 1101.5L1475.09 1101.35L1474.59 1101.19L1474.11 1101L1473.63 1100.79L1473.17 1100.56L1472.72 1100.31L1472.28 1100.05L1471.85 1099.77L1471.44 1099.47L1471.04 1099.15L1470.65 1098.82L1470.28 1098.47L1469.92 1098.11L1469.9 1098.09L1470.06 1097.85L1470.84 1096.44L1471.63 1094.81L1472.44 1092.96L1473.27 1090.88L1474.12 1088.57L1474.98 1086.04L1475.87 1083.28L1476.76 1080.3L1477.68 1077.1L1475.92 1020.04L1487.54 934.66L1486.27 928.35L1485.04 922.16L1483.85 916.1L1482.7 910.15L1481.6 904.31L1480.54 898.6L1479.52 893.01L1478.54 887.53L1477.6 882.17L1476.71 876.93L1475.85 871.8L1475.04 866.8L1474.27 861.91L1473.54 857.14L1472.85 852.49L1472.21 847.96L1471.61 843.54L1471.04 839.25L1470.52 835.07L1470.09 831.36L1468.46 778.79L1468.56 778.11L1468.87 776.3L1469.22 774.6L1469.62 772.99L1470.05 771.45L1470.51 769.97L1471.02 768.56L1471.56 767.22L1472.13 765.94L1472.74 764.73L1473.39 763.58L1474.07 762.5L1474.79 761.49L1475.54 760.54L1476.33 759.65L1477.16 758.83L1478.03 758.08L1478.92 757.39L1479.86 756.77L1480.83 756.22L1481.84 755.73L1482.88 755.3L1483.96 754.94L1485.08 754.65L1486.23 754.42L1487.42 754.26L1488.64 754.16L1489.91 754.13L1491.2 754.17L1492.53 754.27Z" id="bwLz5Kn2E"></path><path d="M1548.22 815.01C1610.88 943.33 1601.33 921.61 1601.33 937.54C1601.33 952.33 1510.64 936.51 1553.7 897.07C1596.75 857.62 1520.23 861.88 1511.11 861.88C1502.77 861.88 1592.99 877 1475.07 895.51C1357.15 914.01 1413.76 947.71 1413.76 932.04C1413.76 916.74 1476.31 847.1 1468.56 818.41C1460.81 789.71 1502.44 771.01 1511.11 771.01C1519.23 771.01 1485.55 686.69 1548.22 815.01Z" id="av6ki9ymF"></path><path d="M1411.79 355.09L1415.85 356.16L1420.01 357.39L1424.27 358.78L1428.63 360.33L1433.08 362.05L1437.63 363.93L1442.27 365.98L1447.01 368.19L1451.85 370.56L1456 370.9L1460.06 371.29L1464.05 371.75L1467.96 372.26L1471.8 372.83L1475.55 373.46L1479.23 374.14L1482.83 374.89L1486.36 375.69L1489.8 376.55L1493.17 377.47L1496.46 378.44L1499.67 379.47L1502.81 380.57L1505.86 381.72L1508.84 382.92L1509.58 383.25L1508.86 386.44L1507.39 392.25L1505.77 398.02L1503.97 403.73L1501.99 409.33L1499.82 414.81L1497.43 420.15L1494.81 425.32L1491.95 430.3L1488.84 435.06L1485.46 439.57L1481.81 443.82L1477.85 447.77L1473.59 451.4L1469 454.69L1464.08 457.62L1458.81 460.15L1453.17 462.26L1447.15 463.94L1440.74 465.14L1437.3 465.83L1433.9 466.87L1430.57 468.24L1427.28 469.91L1424.05 471.87L1420.88 474.1L1417.75 476.57L1414.68 479.27L1411.67 482.18L1408.7 485.27L1405.79 488.52L1402.94 491.91L1400.13 495.43L1397.38 499.05L1394.68 502.75L1392.03 506.51L1389.43 510.31L1386.88 514.13L1384.39 517.95L1381.94 521.75L1379.55 525.51L1377.21 529.2L1374.91 532.81L1372.67 536.32L1370.48 539.7L1368.33 542.93L1366.24 546L1364.19 548.89L1362.2 551.56L1360.25 554.01L1358.35 556.22L1356.5 558.15L1354.7 559.79L1352.95 561.13L1351.24 562.13L1349.58 562.78L1347.97 563.06L1346.4 562.95L1344.89 562.43L1343.42 561.47L1343 561.07L1342.6 560.56L1342.21 559.95L1341.83 559.24L1341.47 558.43L1341.11 557.52L1340.76 556.53L1340.43 555.44L1340.1 554.28L1339.78 553.03L1339.47 551.71L1339.16 550.32L1338.86 548.86L1338.57 547.33L1338.29 545.74L1338.01 544.1L1337.73 542.4L1337.46 540.65L1337.19 538.85L1336.93 537.01L1336.67 535.13L1336.41 533.21L1336.15 531.27L1335.89 529.29L1335.69 527.7L1332.5 432.23L1332.66 431.91L1333.93 429.95L1335.3 428.29L1336.78 426.91L1338.33 425.79L1339.96 424.9L1341.64 424.21L1343.38 423.7L1345.14 423.35L1346.93 423.13L1348.73 423.01L1350.53 422.97L1352.31 422.99L1354.07 423.03L1355.79 423.08L1357.46 423.11L1359.06 423.09L1360.59 423L1362.03 422.81L1363.37 422.5L1364.6 422.04L1365.7 421.41L1366.67 420.58L1367.49 419.53L1368.15 418.23L1368.64 416.65L1368.94 414.78L1369.04 412.59L1369.18 409.75L1369.58 406.94L1370.23 404.16L1371.12 401.39L1372.22 398.63L1373.53 395.88L1375.02 393.13L1376.68 390.38L1378.49 387.63L1380.44 384.86L1382.51 382.08L1384.68 379.28L1386.95 376.46L1389.29 373.6L1391.68 370.71L1394.12 367.78L1396.58 364.81L1399.05 361.78L1401.52 358.71L1403.96 355.58L1405.36 353.72L1407.82 354.19L1411.79 355.09ZM1524.33 82.94L1527.83 86.29L1531.21 89.78L1534.47 93.38L1537.6 97.1L1540.6 100.94L1541.79 102.58L1542.31 103.51L1548.42 114.47L1549.57 116.54L1550.85 118.79L1552.24 121.22L1553.75 123.83L1555.36 126.59L1555.92 127.55L1557.2 130.68L1558.87 135.3L1560.33 140L1561.59 144.78L1562.63 149.63L1563.46 154.55L1564.06 159.54L1564.42 164.59L1564.54 169.7L1564.53 171.33L1564.48 173.01L1564.41 174.75L1564.3 176.54L1564.16 178.38L1564 180.27L1563.8 182.2L1563.58 184.18L1563.33 186.2L1563.06 188.27L1562.75 190.37L1562.43 192.51L1562.07 194.68L1561.7 196.89L1561.29 199.13L1560.87 201.4L1560.42 203.7L1559.94 206.03L1559.45 208.38L1558.93 210.75L1558.4 213.14L1557.84 215.55L1557.26 217.98L1556.66 220.42L1556.05 222.87L1555.41 225.34L1554.76 227.82L1554.08 230.3L1553.39 232.79L1552.69 235.28L1551.97 237.77L1551.23 240.26L1550.48 242.76L1549.71 245.24L1548.93 247.73L1548.14 250.2L1547.33 252.66L1546.51 255.12L1545.68 257.56L1544.84 259.98L1544.17 261.88L1543.49 263.76L1542.81 265.63L1542.12 267.48L1541.42 269.33L1540.72 271.15L1540.02 272.96L1539.3 274.76L1538.59 276.54L1537.87 278.29L1537.14 280.03L1536.42 281.75L1535.68 283.45L1534.95 285.12L1534.21 286.77L1533.47 288.4L1532.72 290L1531.98 291.58L1531.23 293.13L1530.47 294.65L1529.72 296.14L1529.43 296.7L1527.78 297.52L1526.42 298.59L1525.2 300.13L1524.1 302.11L1523.11 304.52L1522.2 307.33L1521.41 310.37L1521.38 310.41L1520.63 311.48L1519.87 312.52L1519.12 313.52L1518.37 314.47L1517.62 315.38L1516.88 316.25L1516.13 317.07L1515.39 317.84L1514.02 319.11L1512.61 320.16L1511.15 321.01L1509.64 321.67L1508.1 322.15L1506.51 322.45L1504.89 322.59L1503.24 322.58L1501.55 322.42L1499.82 322.13L1498.07 321.71L1496.29 321.17L1494.48 320.52L1492.64 319.78L1490.78 318.94L1488.9 318.02L1486.99 317.04L1485.07 315.99L1483.13 314.88L1481.18 313.74L1479.21 312.56L1477.23 311.35L1475.24 310.13L1473.24 308.91L1471.23 307.68L1469.22 306.47L1467.21 305.28L1465.19 304.12L1463.17 303L1461.15 301.92L1459.14 300.91L1457.13 299.96L1455.13 299.09L1453.14 298.31L1451.15 297.62L1449.18 297.04L1447.22 296.57L1445.28 296.22L1443.35 296.01L1441.44 295.93L1439.26 296.01L1437.09 296.26L1434.91 296.65L1432.74 297.17L1430.57 297.83L1428.41 298.6L1426.95 299.19L1426.97 298.48L1426.88 293.79L1426.48 288.96L1425.78 283.98L1424.75 278.87L1423.37 273.6L1422.07 268.3L1421.23 263.09L1420.85 257.98L1420.9 252.97L1421.37 248.07L1422.22 243.26L1423.44 238.56L1425.02 233.97L1426.92 229.49L1429.14 225.12L1431.64 220.86L1434.41 216.72L1437.42 212.7L1440.66 208.79L1444.11 205.01L1447.74 201.35L1451.54 197.82L1455.48 194.41L1459.54 191.13L1463.71 187.99L1467.96 184.98L1472.27 182.1L1476.62 179.36L1481 176.77L1485.37 174.31L1489.72 172L1494.03 169.83L1498.28 167.81L1502.44 165.94L1506.51 164.23L1510.44 162.66L1514.24 161.25L1517.87 160.01L1521.31 158.92L1524.55 157.99L1527.56 157.23L1530.32 156.63L1532.82 156.2L1535.02 155.94L1536.09 155.89L1536.38 156.04L1539.41 158.13L1542.28 160.63L1542.63 161.02L1539.39 151.31L1539.43 150.51L1539.21 147.72L1538.72 144.46L1537.97 140.76L1536.99 136.69L1535.81 132.29L1534.46 127.61L1532.96 122.72L1531.35 117.65L1529.64 112.46L1527.87 107.21L1526.06 101.93L1524.25 96.69L1522.45 91.54L1520.69 86.52L1519.01 81.69L1517.42 77.1L1517.35 76.88L1520.73 79.71L1524.33 82.94Z" id="bjKOQDiSl"></path></defs><g><g><g><use xlink:href="#b1T3EBi1C" opacity="1" fill="#aabaa8" fill-opacity="1"></use><g><use xlink:href="#b1T3EBi1C" opacity="1" fill-opacity="0" stroke="#68be50" stroke-width="13" stroke-opacity="1"></use></g></g><g><use xlink:href="#e5vKOS4Ya" opacity="1" fill="#aabaa8" fill-opacity="1"></use><g><use xlink:href="#e5vKOS4Ya" opacity="1" fill-opacity="0" stroke="#68be50" stroke-width="13" stroke-opacity="1"></use></g></g><g><use xlink:href="#bxBCqkyWR" opacity="1" fill="#aabaa8" fill-opacity="1"></use><g><use xlink:href="#bxBCqkyWR" opacity="1" fill-opacity="0" stroke="#68be50" stroke-width="13" stroke-opacity="1"></use></g></g><g><g><use xlink:href="#e4IFal3evM" opacity="1" fill="#aabaa8" fill-opacity="1"></use><g><use xlink:href="#e4IFal3evM" opacity="1" fill-opacity="0" stroke="#68be50" stroke-width="13" stroke-opacity="1"></use></g></g><g><use xlink:href="#b2rjEylVjf" opacity="1" fill="#aabaa8" fill-opacity="1"></use><g><use xlink:href="#b2rjEylVjf" opacity="1" fill-opacity="0" stroke="#68be50" stroke-width="10" stroke-opacity="1"></use></g></g></g><g><g><use xlink:href="#g2hSyFifJ" opacity="1" fill="#aabaa8" fill-opacity="1"></use></g><g><use xlink:href="#lwl3MyX75" opacity="1" fill="#aabaa8" fill-opacity="1"></use></g><g><use xlink:href="#b201imk8Mk" opacity="1" fill="#aabaa8" fill-opacity="1"></use></g><g><use xlink:href="#bwLz5Kn2E" opacity="1" fill="#aabaa8" fill-opacity="1"></use></g><g><use xlink:href="#av6ki9ymF" opacity="1" fill="#aabaa8" fill-opacity="1"></use><g><use xlink:href="#av6ki9ymF" opacity="1" fill-opacity="0" stroke="#68be50" stroke-width="10" stroke-opacity="1"></use></g></g></g><g><use xlink:href="#bjKOQDiSl" opacity="1" fill="#aabaa8" fill-opacity="1"></use><g><use xlink:href="#bjKOQDiSl" opacity="1" fill-opacity="0" stroke="#68be50" stroke-width="13" stroke-opacity="1"></use></g></g></g></g></svg>