<?xml version="1.0" encoding="UTF-8" standalone="no"?>
<!DOCTYPE svg PUBLIC "-//W3C//DTD SVG 1.1//EN" "http://www.w3.org/Graphics/SVG/1.1/DTD/svg11.dtd">
<svg version="1.1" xmlns="http://www.w3.org/2000/svg" xmlns:xlink="http://www.w3.org/1999/xlink" preserveAspectRatio="xMidYMid meet" viewBox="0 0 1640 1640" width="1640" height="1640"><defs><path d="M544.01 1453.96C544.01 1490.71 300.51 1451.41 416.12 1353.41C531.74 1255.42 326.27 1266 301.78 1266C279.38 1266 521.62 1303.57 205 1349.54C-111.62 1395.51 40.4 1479.24 40.4 1440.3C40.4 1378 242.05 1040.25 301.78 1040.25C361.51 1040.25 544.01 1391.66 544.01 1453.96Z" id="dYFphnQ9S"></path><path d="M360.96 680.06L363.48 683.51L365.88 687.06L368.15 690.72L370.29 694.46L372.29 698.3L374.15 702.23L375.86 706.24L377.43 710.33L378.85 714.49L380.12 718.73L381.23 723.04L382.17 727.42L382.96 731.86L383.57 736.35L384.02 740.9L384.28 745.51L384.38 750.16L384.28 754.8L384.02 759.41L383.57 763.96L382.96 768.45L382.17 772.89L381.23 777.27L380.12 781.58L378.85 785.82L377.43 789.98L375.86 794.07L374.15 798.08L372.29 802.01L370.29 805.85L368.15 809.59L365.88 813.25L363.48 816.8L360.96 820.25L358.31 823.6L355.54 826.83L352.66 829.95L349.67 832.96L346.57 835.84L343.36 838.61L340.05 841.24L336.64 843.74L333.14 846.11L329.55 848.34L325.87 850.42L322.11 852.36L318.26 854.15L314.34 855.79L310.35 857.27L306.28 858.59L302.15 859.75L297.95 860.73L293.7 861.55L289.39 862.19L285.03 862.66L280.61 862.94L276.15 863.03L273.88 863L271.61 862.93L269.35 862.81L267.11 862.64L264.88 862.42L262.66 862.16L260.46 861.85L258.27 861.49L256.09 861.09L253.93 860.64L251.79 860.15L249.66 859.62L247.55 859.04L245.46 858.42L243.38 857.75L241.32 857.04L239.28 856.3L237.26 855.51L235.26 854.68L233.27 853.81L231.31 852.9L229.37 851.95L227.45 850.96L225.55 849.94L223.67 848.87L221.82 847.77L219.99 846.63L218.18 845.46L216.39 844.25L214.63 843L212.9 841.72L211.19 840.41L209.51 839.06L207.85 837.68L206.22 836.27L204.61 834.82L203.04 833.34L201.49 831.83L199.97 830.29L198.48 828.72L197.08 827.18L195.7 825.61L194.35 824.02L193.03 822.4L191.74 820.76L190.48 819.09L189.25 817.39L188.04 815.67L186.87 813.93L185.73 812.16L184.62 810.37L183.55 808.55L182.5 806.72L181.49 804.86L180.51 802.98L179.56 801.07L178.65 799.15L177.77 797.21L176.93 795.24L176.12 793.26L175.35 791.26L174.61 789.24L173.91 787.2L173.24 785.14L172.62 783.07L172.03 780.98L171.47 778.87L170.96 776.74L170.48 774.61L170.05 772.45L169.65 770.28L169.3 768.1L168.98 765.9L168.71 763.69L168.47 761.46L168.28 759.22L168.13 756.97L168.02 754.71L167.96 752.44L167.93 750.16L168.01 746.31L168.07 746.26L171.07 743.98L174.25 742.09L177.6 740.58L181.12 739.46L184.8 738.73L188.66 738.38L192.69 738.42L196.89 738.85L201.25 739.66L205.79 740.86L210.5 742.44L215.38 744.41L220.43 746.77L225.65 749.51L231.04 752.64L236.59 756.16L242.32 760.07L248.22 764.36L254.29 769.03L260.53 774.09L266.94 779.54L269.3 781.64L273.7 781.79L276.54 779.17L283.12 773.33L289.53 767.88L295.77 762.82L301.84 758.14L307.74 753.85L313.47 749.95L319.02 746.43L324.41 743.3L329.63 740.56L334.68 738.2L339.56 736.23L344.27 734.65L348.81 733.45L353.17 732.63L357.37 732.21L361.4 732.17L365.26 732.52L368.94 733.25L372.46 734.37L375.81 735.88L378.99 737.77L381.99 740.05L382.37 740.4L357.43 675.69L358.31 676.71L360.96 680.06ZM168.29 740.9L168.74 736.35L169.35 731.86L170.13 727.42L171.08 723.04L172.19 718.73L173.46 714.49L174.87 710.33L176.44 706.24L178.16 702.23L180.02 698.3L182.02 694.46L184.16 690.72L186.43 687.06L188.83 683.51L191.35 680.06L194 676.71L195.92 674.47L168.22 742.18L168.29 740.9Z" id="c6Y2tY2hEl"></path><path d="M860.14 155.05L862.16 155.84L864.2 156.59L866.26 157.29L868.34 157.96L870.44 158.58L872.55 159.16L874.67 159.69L876.82 160.19L878.98 160.63L881.15 161.03L883.34 161.39L885.55 161.7L887.76 161.96L889.99 162.18L892.24 162.35L894.49 162.47L896.76 162.55L899.04 162.57L903.5 162.48L907.91 162.2L912.27 161.73L916.58 161.09L920.84 160.28L925.03 159.29L929.16 158.13L933.23 156.81L937.22 155.33L939.18 154.52L940.04 155.42L947.17 163.62L954.53 172.65L962.09 182.45L969.82 192.98L977.7 204.16L985.7 215.94L993.79 228.25L1001.93 241.05L1010.11 254.26L1018.29 267.82L1026.44 281.69L1034.54 295.79L1042.55 310.06L1050.46 324.46L1058.22 338.91L1065.81 353.36L1073.21 367.74L1080.38 382L1087.29 396.08L1093.92 409.92L1100.24 423.45L1106.22 436.61L1111.82 449.36L1117.03 461.62L1121.82 473.33L1126.14 484.44L1129.99 494.89L1133.32 504.62L1136.1 513.56L1138.32 521.65L1139.94 528.85L1140.94 535.08L1141.27 540.28L1140.83 542.89L1139.52 545.23L1137.42 547.27L1134.57 549.04L1131.04 550.53L1126.87 551.74L1122.13 552.68L1116.87 553.35L1111.16 553.74L1105.03 553.86L1098.56 553.71L1091.8 553.29L1084.8 552.61L1077.62 551.67L1070.32 550.46L1062.96 548.99L1055.59 547.26L1048.26 545.28L1041.04 543.04L1033.97 540.54L1027.13 537.79L1020.55 534.79L1014.31 531.54L1008.46 528.05L1003.04 524.3L998.13 520.32L993.77 516.09L990.02 511.62L986.94 506.91L984.59 501.96L983.02 496.77L982.29 491.35L982.45 485.7L983.56 479.81L985.68 473.7L988.87 467.36L993.17 460.79L998.66 453.99L1005.37 446.98L1013.38 439.74L1021.46 432.59L1028.38 425.84L1034.19 419.47L1038.94 413.48L1042.67 407.84L1045.43 402.56L1047.27 397.62L1048.24 393.01L1048.38 388.72L1047.73 384.74L1046.36 381.04L1044.3 377.64L1041.6 374.5L1038.3 371.63L1034.47 369.01L1030.13 366.63L1025.34 364.48L1020.15 362.54L1014.61 360.81L1008.75 359.28L1002.63 357.93L996.29 356.75L989.79 355.73L983.16 354.87L976.46 354.14L969.74 353.54L963.03 353.06L956.39 352.68L949.86 352.4L943.49 352.2L937.34 352.07L931.43 352L925.83 351.99L920.58 352.01L915.73 352.06L911.31 352.12L907.39 352.19L904.01 352.26L901.21 352.3L899.04 352.32L897.84 352.39L897.56 352.6L898.12 352.94L899.44 353.42L901.44 354.02L904.04 354.76L907.18 355.62L910.77 356.6L914.73 357.69L918.99 358.91L923.47 360.24L928.1 361.68L932.79 363.23L937.47 364.88L942.06 366.63L946.48 368.49L950.67 370.44L954.53 372.49L957.99 374.63L960.98 376.85L963.42 379.17L965.23 381.56L966.34 384.04L966.66 386.6L966.12 389.23L964.64 391.93L962.15 394.7L958.56 397.55L953.81 400.45L947.81 403.42L940.48 406.44L931.76 409.52L921.55 412.66L909.8 415.84L896.4 419.07L881.3 422.35L864.42 425.67L845.66 429.03L824.97 432.43L802.26 435.86L779.38 439.38L758.2 443.02L738.67 446.77L720.71 450.62L704.28 454.56L689.32 458.55L675.76 462.6L663.56 466.69L655.26 469.81L654.34 471.89L650.11 482.06L646.44 491.55L643.37 500.28L640.92 508.21L639.13 515.29L638.03 521.44L637.66 526.62L637.38 529.31L636.6 531.56L635.36 533.38L633.72 534.78L631.75 535.79L629.49 536.4L627.02 536.65L624.38 536.55L621.64 536.1L618.85 535.33L616.08 534.25L613.37 532.88L610.79 531.22L608.4 529.3L606.26 527.14L604.41 524.73L602.93 522.11L601.86 519.29L601.28 516.27L601.23 513.08L601.77 509.73L602.96 506.24L604.87 502.62L607.54 498.88L611.04 495.05L615.42 491.13L620.75 487.14L627.08 483.1L634.46 479.02L642.97 474.91L652.64 470.8L655.26 469.81L659.11 461.09L664.37 449.72L670.1 437.83L676.26 425.48L682.83 412.74L689.76 399.65L697.04 386.27L704.61 372.67L712.46 358.89L720.55 345L728.85 331.06L737.33 317.12L745.95 303.23L754.68 289.47L763.5 275.88L772.36 262.52L781.23 249.45L790.09 236.72L798.9 224.4L807.63 212.55L816.24 201.21L824.71 190.45L833 180.32L841.08 170.88L848.92 162.2L856.48 154.32L857.07 153.75L858.14 154.22L860.14 155.05Z" id="aykBjGueF"></path><path d="M1470.72 74.42L1473.24 77.87L1475.64 81.42L1477.91 85.07L1480.05 88.82L1482.05 92.66L1483.91 96.58L1485.62 100.59L1487.19 104.68L1488.61 108.85L1489.88 113.09L1490.99 117.4L1491.93 121.78L1492.72 126.21L1493.33 130.71L1493.78 135.26L1494.04 139.86L1494.13 144.51L1494.04 149.16L1493.78 153.76L1493.33 158.32L1492.72 162.81L1491.93 167.25L1490.99 171.62L1489.88 175.93L1488.61 180.17L1487.19 184.34L1485.62 188.43L1483.91 192.44L1482.05 196.37L1480.05 200.2L1477.91 203.95L1475.64 207.6L1473.24 211.16L1470.72 214.61L1468.07 217.95L1465.3 221.19L1462.42 224.31L1459.43 227.32L1456.33 230.2L1453.12 232.96L1449.81 235.6L1446.4 238.1L1442.9 240.47L1439.31 242.69L1435.63 244.78L1431.87 246.72L1428.02 248.51L1426.06 249.33L1426.92 250.24L1434.04 258.43L1441.4 267.46L1448.96 277.27L1456.7 287.79L1464.58 298.97L1472.57 310.75L1480.66 323.07L1488.81 335.86L1496.98 349.07L1505.16 362.64L1513.32 376.5L1521.41 390.6L1529.43 404.88L1537.33 419.27L1545.1 433.73L1552.69 448.17L1560.08 462.56L1567.25 476.82L1574.17 490.9L1580.8 504.73L1587.12 518.26L1593.09 531.43L1598.7 544.17L1603.91 556.43L1608.69 568.15L1613.02 579.26L1616.86 589.71L1620.19 599.43L1622.98 608.37L1625.2 616.47L1626.82 623.66L1627.81 629.89L1628.15 635.1L1627.7 637.71L1626.4 640.04L1624.29 642.09L1621.45 643.86L1617.91 645.35L1613.75 646.56L1609.01 647.5L1603.75 648.16L1598.03 648.55L1591.91 648.67L1585.44 648.52L1578.67 648.11L1571.68 647.43L1564.5 646.48L1557.2 645.27L1549.83 643.81L1542.46 642.08L1535.13 640.09L1527.91 637.85L1520.85 635.36L1514 632.61L1507.43 629.61L1501.19 626.36L1495.33 622.86L1489.92 619.12L1485 615.13L1480.64 610.9L1476.9 606.43L1473.82 601.72L1471.47 596.77L1469.89 591.59L1469.16 586.17L1469.32 580.51L1470.44 574.63L1472.56 568.51L1475.74 562.17L1480.05 555.6L1485.53 548.81L1492.25 541.79L1500.26 534.55L1508.33 527.4L1515.25 520.65L1521.06 514.28L1525.81 508.29L1529.54 502.66L1532.3 497.38L1534.15 492.44L1535.11 487.83L1535.25 483.54L1534.61 479.55L1533.23 475.86L1531.17 472.45L1528.47 469.32L1525.18 466.45L1521.34 463.83L1517.01 461.45L1512.22 459.29L1507.03 457.36L1501.48 455.63L1495.62 454.1L1489.5 452.74L1483.17 451.57L1476.66 450.55L1470.04 449.68L1463.34 448.96L1456.61 448.36L1449.9 447.87L1443.26 447.5L1436.74 447.21L1430.37 447.01L1424.21 446.89L1418.31 446.82L1412.71 446.8L1407.46 446.82L1402.6 446.87L1398.19 446.94L1394.27 447.01L1390.88 447.07L1388.08 447.12L1385.91 447.14L1384.72 447.21L1384.44 447.41L1384.99 447.76L1386.31 448.23L1388.31 448.84L1390.92 449.57L1394.06 450.43L1397.64 451.41L1401.61 452.51L1405.87 453.73L1410.35 455.05L1414.97 456.49L1419.66 458.04L1424.34 459.69L1428.93 461.45L1433.36 463.3L1437.54 465.26L1441.4 467.3L1444.87 469.44L1447.86 471.67L1450.3 473.98L1452.11 476.38L1453.21 478.86L1453.53 481.41L1452.99 484.04L1451.51 486.75L1449.02 489.52L1445.44 492.36L1440.68 495.27L1434.68 498.23L1427.36 501.26L1418.63 504.34L1408.43 507.47L1396.67 510.66L1383.28 513.89L1368.18 517.17L1351.29 520.49L1332.54 523.85L1311.85 527.25L1289.13 530.68L1266.26 534.19L1245.08 537.84L1225.54 541.59L1207.59 545.44L1191.16 549.37L1176.19 553.37L1162.64 557.42L1150.43 561.51L1142.14 564.63L1141.22 566.71L1136.99 576.88L1133.32 586.36L1130.24 595.1L1127.79 603.03L1126 610.1L1124.91 616.26L1124.53 621.44L1124.26 624.13L1123.47 626.38L1122.23 628.19L1120.59 629.6L1118.62 630.6L1116.37 631.22L1113.89 631.47L1111.26 631.36L1108.52 630.92L1105.73 630.15L1102.95 629.07L1100.25 627.69L1097.67 626.04L1095.28 624.12L1093.13 621.95L1091.29 619.55L1089.8 616.93L1088.74 614.1L1088.15 611.09L1088.1 607.9L1088.64 604.55L1089.84 601.05L1091.74 597.43L1094.41 593.7L1097.91 589.86L1102.3 585.94L1107.62 581.95L1113.95 577.91L1121.34 573.83L1129.84 569.73L1139.52 565.61L1142.14 564.63L1145.98 555.91L1151.25 544.54L1156.98 532.65L1163.14 520.3L1169.7 507.55L1176.64 494.46L1183.91 481.09L1191.49 467.48L1199.34 453.71L1207.43 439.82L1215.73 425.87L1224.21 411.93L1232.83 398.05L1241.56 384.28L1250.37 370.69L1259.23 357.33L1268.11 344.26L1276.96 331.54L1285.77 319.22L1294.5 307.36L1303.12 296.02L1311.58 285.26L1319.88 275.13L1327.96 265.7L1335.8 257.01L1343.36 249.13L1343.95 248.57L1343.03 248.16L1341.07 247.25L1339.13 246.31L1337.21 245.32L1335.31 244.29L1333.43 243.23L1331.58 242.13L1329.74 240.99L1327.94 239.82L1326.15 238.61L1324.39 237.36L1322.66 236.08L1320.95 234.77L1319.26 233.42L1317.61 232.04L1315.98 230.62L1314.37 229.18L1312.8 227.7L1311.25 226.19L1309.73 224.65L1308.24 223.08L1306.84 221.54L1305.46 219.97L1304.11 218.38L1302.79 216.76L1301.5 215.12L1300.24 213.45L1299.01 211.75L1297.8 210.03L1296.63 208.29L1295.49 206.52L1294.38 204.73L1293.31 202.91L1292.26 201.07L1291.25 199.22L1290.27 197.33L1289.32 195.43L1288.41 193.51L1287.53 191.57L1286.69 189.6L1285.88 187.62L1285.11 185.62L1284.37 183.6L1283.67 181.56L1283 179.5L1282.37 177.43L1281.78 175.33L1281.23 173.23L1280.72 171.1L1280.24 168.96L1279.81 166.81L1279.41 164.64L1279.06 162.45L1278.74 160.26L1278.47 158.04L1278.23 155.82L1278.04 153.58L1277.89 151.33L1277.78 149.07L1277.72 146.8L1277.69 144.51L1277.77 140.67L1277.83 140.62L1280.83 138.34L1284.01 136.45L1287.36 134.94L1290.87 133.82L1294.56 133.08L1298.42 132.74L1302.45 132.78L1306.65 133.2L1311.01 134.01L1315.55 135.21L1320.26 136.8L1325.14 138.77L1330.19 141.13L1335.41 143.87L1340.79 147L1346.35 150.52L1352.08 154.42L1357.98 158.71L1364.05 163.39L1370.29 168.45L1376.7 173.9L1379.06 176L1383.46 176.15L1386.3 173.53L1392.88 167.69L1399.29 162.24L1405.53 157.18L1411.6 152.5L1417.5 148.21L1423.23 144.31L1428.78 140.79L1434.17 137.66L1439.39 134.92L1444.44 132.56L1449.32 130.59L1454.03 129L1458.56 127.8L1462.93 126.99L1467.13 126.57L1471.16 126.53L1475.02 126.87L1478.7 127.61L1482.22 128.73L1485.57 130.23L1488.75 132.13L1491.75 134.41L1492.13 134.76L1467.19 70.04L1468.07 71.07L1470.72 74.42ZM1375.93 223.84L1370.23 226.83L1364.08 230.91L1357.53 236.02L1350.62 242.12L1343.95 248.57L1345.01 249.03L1347.02 249.86L1349.04 250.65L1351.08 251.4L1353.14 252.11L1355.22 252.77L1357.31 253.4L1359.42 253.97L1361.55 254.51L1363.69 255L1365.85 255.45L1368.03 255.85L1370.22 256.21L1372.42 256.52L1374.64 256.78L1376.87 257L1379.11 257.17L1381.37 257.29L1383.64 257.36L1385.91 257.39L1390.37 257.29L1394.78 257.01L1399.15 256.55L1403.46 255.91L1407.71 255.09L1411.91 254.1L1416.04 252.95L1420.1 251.63L1424.1 250.15L1426.06 249.33L1420.05 242.95L1413.47 236.61L1407.21 231.29L1401.3 227.05L1395.76 223.94L1390.62 222.04L1385.91 221.39L1381.17 222.01L1375.93 223.84ZM1278.05 135.26L1278.5 130.71L1279.11 126.21L1279.89 121.78L1280.84 117.4L1281.95 113.09L1283.22 108.85L1284.63 104.68L1286.2 100.59L1287.92 96.58L1289.78 92.66L1291.78 88.82L1293.92 85.07L1296.19 81.42L1298.59 77.87L1301.11 74.42L1303.76 71.07L1305.68 68.83L1277.98 136.54L1278.05 135.26Z" id="ajpSnbEbH"></path><path d="M382.62 56.84L385.14 60.29L387.54 63.84L389.81 67.5L391.95 71.24L393.95 75.08L395.81 79.01L397.52 83.02L399.09 87.11L400.51 91.27L401.78 95.51L402.89 99.82L403.83 104.2L404.62 108.64L405.23 113.13L405.67 117.68L405.94 122.29L406.03 126.93L405.94 131.58L405.67 136.19L405.23 140.74L404.62 145.23L403.83 149.67L402.89 154.05L401.78 158.36L400.51 162.6L399.09 166.76L397.52 170.85L395.81 174.86L393.95 178.79L391.95 182.63L389.81 186.37L387.54 190.03L385.14 193.58L382.62 197.03L379.97 200.38L377.2 203.61L374.32 206.73L371.33 209.74L368.23 212.62L365.02 215.39L361.71 218.02L358.3 220.52L354.8 222.89L351.21 225.12L347.53 227.2L343.77 229.14L339.92 230.93L337.96 231.75L338.81 232.66L345.94 240.85L353.3 249.88L360.86 259.69L368.6 270.22L376.48 281.4L384.47 293.18L392.56 305.49L400.71 318.28L408.88 331.49L417.06 345.06L425.22 358.92L433.31 373.03L441.33 387.3L449.23 401.7L456.99 416.15L464.59 430.6L471.98 444.98L479.15 459.24L486.07 473.32L492.7 487.15L499.01 500.68L504.99 513.85L510.6 526.59L515.81 538.85L520.59 550.57L524.92 561.68L528.76 572.13L532.09 581.86L534.88 590.8L537.1 598.89L538.72 606.09L539.71 612.31L540.05 617.52L539.6 620.13L538.3 622.46L536.19 624.51L533.35 626.28L529.81 627.77L525.65 628.98L520.91 629.92L515.65 630.58L509.93 630.97L503.81 631.1L497.34 630.95L490.57 630.53L483.57 629.85L476.4 628.9L469.1 627.7L461.73 626.23L454.36 624.5L447.03 622.51L439.81 620.27L432.75 617.78L425.9 615.03L419.33 612.03L413.09 608.78L407.23 605.29L401.82 601.54L396.9 597.56L392.54 593.33L388.8 588.85L385.72 584.14L383.36 579.19L381.79 574.01L381.06 568.59L381.22 562.94L382.34 557.05L384.46 550.94L387.64 544.59L391.95 538.02L397.43 531.23L404.15 524.21L412.16 516.97L420.23 509.83L427.15 503.07L432.96 496.71L437.71 490.71L441.44 485.08L444.2 479.8L446.04 474.86L447.01 470.25L447.15 465.96L446.51 461.97L445.13 458.28L443.07 454.88L440.37 451.74L437.08 448.87L433.24 446.25L428.9 443.87L424.12 441.72L418.93 439.78L413.38 438.05L407.52 436.52L401.4 435.17L395.07 433.99L388.56 432.97L381.94 432.11L375.24 431.38L368.51 430.78L361.8 430.3L355.16 429.92L348.63 429.64L342.27 429.44L336.11 429.31L330.21 429.24L324.61 429.23L319.35 429.25L314.5 429.3L310.09 429.36L306.17 429.43L302.78 429.49L299.98 429.54L297.81 429.56L296.62 429.63L296.34 429.84L296.89 430.18L298.21 430.66L300.21 431.26L302.82 432L305.95 432.85L309.54 433.83L313.51 434.93L317.77 436.15L322.25 437.48L326.87 438.92L331.56 440.46L336.24 442.12L340.83 443.87L345.26 445.73L349.44 447.68L353.3 449.73L356.77 451.86L359.76 454.09L362.2 456.4L364.01 458.8L365.11 461.28L365.43 463.84L364.89 466.47L363.41 469.17L360.92 471.94L357.34 474.78L352.58 477.69L346.58 480.65L339.26 483.68L330.53 486.76L320.33 489.89L308.57 493.08L295.18 496.31L280.08 499.59L263.19 502.91L244.44 506.27L223.75 509.67L201.03 513.1L178.16 516.62L156.98 520.26L137.44 524.01L119.49 527.86L103.06 531.79L88.09 535.79L74.54 539.84L62.33 543.93L54.04 547.05L53.12 549.13L48.89 559.3L45.21 568.78L42.14 577.52L39.69 585.45L37.9 592.53L36.81 598.68L36.43 603.86L36.16 606.55L35.37 608.8L34.13 610.62L32.49 612.02L30.52 613.02L28.27 613.64L25.79 613.89L23.16 613.78L20.41 613.34L17.63 612.57L14.85 611.49L12.15 610.11L9.57 608.46L7.18 606.54L5.03 604.37L3.19 601.97L1.7 599.35L0.64 596.52L0.05 593.51L0 590.32L0.54 586.97L1.74 583.48L3.64 579.85L6.31 576.12L9.81 572.28L14.2 568.36L19.52 564.38L25.85 560.33L33.24 556.25L41.74 552.15L51.42 548.04L54.04 547.05L57.88 538.33L63.15 526.96L68.87 515.07L75.04 502.72L81.6 489.98L88.54 476.88L95.81 463.51L103.39 449.9L111.24 436.13L119.33 422.24L127.63 408.3L136.1 394.36L144.73 380.47L153.46 366.71L162.27 353.12L171.13 339.76L180.01 326.69L188.86 313.96L197.67 301.64L206.4 289.78L215.02 278.45L223.48 267.68L231.77 257.56L239.86 248.12L247.69 239.43L255.26 231.55L255.84 230.99L254.93 230.59L252.97 229.68L251.03 228.73L249.11 227.74L247.21 226.72L245.33 225.65L243.48 224.55L241.64 223.41L239.84 222.24L238.05 221.03L236.29 219.78L234.56 218.5L232.85 217.19L231.16 215.84L229.51 214.46L227.88 213.05L226.27 211.6L224.7 210.12L223.15 208.61L221.63 207.07L220.14 205.5L218.73 203.96L217.36 202.39L216.01 200.8L214.69 199.18L213.4 197.54L212.14 195.87L210.91 194.17L209.7 192.45L208.53 190.71L207.39 188.94L206.28 187.15L205.2 185.33L204.16 183.5L203.15 181.64L202.17 179.76L201.22 177.85L200.31 175.93L199.43 173.99L198.59 172.02L197.78 170.04L197 168.04L196.27 166.02L195.57 163.98L194.9 161.92L194.27 159.85L193.68 157.76L193.13 155.65L192.62 153.52L192.14 151.38L191.71 149.23L191.31 147.06L190.96 144.88L190.64 142.68L190.36 140.47L190.13 138.24L189.94 136L189.79 133.75L189.68 131.49L189.62 129.22L189.59 126.93L189.67 123.09L189.73 123.04L192.73 120.76L195.91 118.87L199.26 117.36L202.77 116.24L206.46 115.51L210.32 115.16L214.35 115.2L218.55 115.62L222.91 116.44L227.45 117.64L232.16 119.22L237.04 121.19L242.09 123.55L247.31 126.29L252.69 129.42L258.25 132.94L263.98 136.85L269.88 141.14L275.95 145.81L282.19 150.87L288.6 156.32L290.96 158.42L295.35 158.57L298.2 155.95L304.78 150.11L311.19 144.66L317.43 139.6L323.5 134.92L329.4 130.63L335.12 126.73L340.68 123.21L346.07 120.08L351.29 117.34L356.34 114.98L361.22 113.01L365.93 111.42L370.46 110.23L374.83 109.41L379.03 108.99L383.06 108.95L386.92 109.3L390.6 110.03L394.12 111.15L397.47 112.66L400.65 114.55L403.65 116.83L404.03 117.18L379.09 52.47L379.97 53.49L382.62 56.84ZM189.95 117.68L190.4 113.13L191.01 108.64L191.79 104.2L192.74 99.82L193.85 95.51L195.11 91.27L196.53 87.11L198.1 83.02L199.82 79.01L201.68 75.08L203.68 71.24L205.82 67.5L208.09 63.84L210.49 60.29L213.01 56.84L215.66 53.49L217.58 51.25L189.88 118.96L189.95 117.68Z" id="d2ECh0h0UF"></path><path d="M1189.5 222.81L1195.04 225.91L1200.96 230.15L1207.22 235.47L1213.8 241.81L1219.81 248.19L1217.85 249.01L1213.85 250.49L1209.79 251.81L1205.66 252.97L1201.46 253.96L1197.21 254.77L1192.9 255.41L1188.53 255.88L1184.12 256.16L1179.66 256.25L1177.38 256.23L1175.12 256.15L1172.86 256.03L1170.62 255.86L1168.39 255.64L1166.17 255.38L1163.96 255.07L1161.78 254.71L1159.6 254.31L1157.44 253.86L1155.3 253.37L1153.17 252.84L1151.06 252.26L1148.96 251.64L1146.89 250.97L1144.83 250.27L1142.79 249.52L1140.76 248.73L1138.76 247.9L1137.69 247.43L1144.36 240.98L1151.28 234.89L1157.83 229.77L1163.97 225.69L1169.68 222.71L1174.92 220.87L1179.66 220.25L1184.37 220.9L1189.5 222.81Z" id="gjNTlJZe"></path><path d="M1231.38 1028.93C1063.13 1347.73 1088.78 1293.77 1088.78 1333.33C1088.78 1370.09 1332.28 1330.78 1216.67 1232.79C1101.06 1134.79 1306.52 1145.37 1331.01 1145.37C1353.41 1145.37 1111.17 1182.95 1427.79 1228.91C1744.41 1274.88 1592.39 1358.61 1592.39 1319.67C1592.39 1281.67 1424.47 1108.66 1445.27 1037.36C1466.08 966.07 1354.31 919.62 1331.01 919.62C1309.21 919.62 1399.63 710.12 1231.38 1028.93Z" id="a3uAN904O9"></path><path d="M696.09 16.1L697.34 16.26L698.58 16.47L699.79 16.74L700.97 17.06L702.13 17.44L703.26 17.87L704.37 18.35L705.44 18.88L706.49 19.46L707.5 20.08L708.48 20.74L709.43 21.45L710.34 22.2L711.21 22.99L711.3 23.08L709.44 24.74L707.36 26.77L705.24 29.02L703.07 31.49L700.86 34.19L698.61 37.1L696.31 40.23L701.31 103.28L676.61 182.17L714.87 274.32L717.5 307.5L477.32 307.5L481.79 251.09L518.53 177.87L492.69 113.56L497.97 46.93L495.67 43.8L493.42 40.88L491.21 38.19L489.05 35.72L486.93 33.47L484.85 31.43L482.81 29.62L480.82 28.03L479.11 26.83L479.86 26.04L481.03 24.91L482.25 23.84L483.53 22.83L484.85 21.87L486.23 20.98L487.65 20.16L489.12 19.4L490.63 18.7L492.18 18.09L493.78 17.54L495.41 17.07L497.08 16.69L498.79 16.38L500.53 16.16L502.3 16.02L504.1 15.98L693.51 15.98L694.81 16.01L696.09 16.1Z" id="c29WYO7ctf"></path><path d="M1522.55 671.97L1523.81 672.12L1525.04 672.34L1526.25 672.6L1527.44 672.93L1528.6 673.31L1529.73 673.74L1530.83 674.22L1531.91 674.75L1532.95 675.32L1533.97 675.95L1534.95 676.61L1535.89 677.32L1536.8 678.07L1537.68 678.86L1537.76 678.95L1535.9 680.6L1533.82 682.64L1531.7 684.89L1529.54 687.36L1527.33 690.05L1525.08 692.97L1522.78 696.1L1527.78 759.14L1503.07 838.04L1541.34 930.19L1543.97 963.37L1303.78 963.37L1308.25 906.96L1345 833.74L1319.15 769.42L1324.44 702.8L1322.14 699.67L1319.89 696.75L1317.68 694.06L1315.51 691.59L1313.39 689.33L1311.31 687.3L1309.28 685.49L1307.29 683.9L1305.58 682.7L1306.32 681.91L1307.49 680.78L1308.72 679.71L1309.99 678.7L1311.32 677.74L1312.69 676.85L1314.12 676.02L1315.58 675.26L1317.1 674.57L1318.65 673.95L1320.24 673.41L1321.88 672.94L1323.55 672.55L1325.25 672.25L1326.99 672.03L1328.77 671.89L1330.57 671.85L1519.98 671.85L1521.27 671.88L1522.55 671.97Z" id="e41CZVxW5u"></path><path d="M653.14 920C484.89 1238.8 510.53 1184.84 510.53 1224.4C510.53 1261.16 754.03 1221.85 638.42 1123.86C522.81 1025.86 728.28 1036.44 752.76 1036.44C775.16 1036.44 532.92 1074.02 849.54 1119.98C1166.17 1165.95 1014.14 1249.68 1014.14 1210.74C1014.14 1172.74 846.22 999.73 867.03 928.43C887.83 857.14 776.06 810.69 752.76 810.69C730.96 810.69 821.38 601.19 653.14 920Z" id="a5RbDfm9U"></path><path d="M914.02 918.97L938.35 1005.21L934.28 1074.36L936.49 1077.77L938.67 1080.94L940.79 1083.87L942.88 1086.56L944.92 1089.01L946.92 1091.22L948.87 1093.19L949.45 1093.71L949.02 1094.13L948.17 1094.89L947.28 1095.62L946.37 1096.3L945.41 1096.94L944.43 1097.54L943.42 1098.1L942.38 1098.62L941.31 1099.08L940.21 1099.5L939.09 1099.87L937.94 1100.19L936.77 1100.46L935.58 1100.67L934.36 1100.83L933.13 1100.93L931.88 1100.97L751.9 1102.74L750.15 1102.71L748.43 1102.6L746.73 1102.41L745.06 1102.14L743.43 1101.78L741.83 1101.35L740.27 1100.85L738.74 1100.28L737.25 1099.63L735.8 1098.92L734.4 1098.15L733.04 1097.31L731.72 1096.41L730.45 1095.46L729.22 1094.45L728.05 1093.38L726.93 1092.27L726.73 1092.04L727.81 1091.27L729.65 1089.75L731.52 1087.98L733.44 1085.98L735.39 1083.73L737.38 1081.24L739.41 1078.51L741.48 1075.54L743.59 1072.33L745.74 1068.87L740 995.9L763.86 925.16L728.16 845.25L723.3 783.47L951.53 781.22L949.38 817.61L914.02 918.97Z" id="aE5S76vxM"></path><path d="M892.26 704.39L896.55 707.92L900.71 711.39L904.74 714.8L908.64 718.16L912.42 721.45L916.07 724.68L919.59 727.85L922.98 730.96L926.25 734.01L929.39 737L932.4 739.93L935.28 742.8L938.04 745.61L940.67 748.36L943.17 751.05L945.54 753.68L947.78 756.24L949.9 758.75L951.09 760.21L953.43 806.14L952.21 806.56L950.25 807.14L948.15 807.65L945.93 808.11L943.58 808.51L941.1 808.84L938.49 809.12L935.76 809.33L932.9 809.49L929.91 809.58L926.79 809.61L923.54 809.59L920.17 809.5L916.67 809.35L913.04 809.15L909.29 808.88L905.41 808.55L901.4 808.16L897.26 807.71L892.99 807.2L888.6 806.63L884.08 806L879.43 805.31L874.65 804.56L869.75 803.75L864.72 802.88L859.56 801.95L854.27 800.96L848.85 799.91L843.31 798.79L837.64 797.62L831.84 796.39L825.62 797.4L819.53 798.35L813.58 799.25L807.76 800.09L802.08 800.88L796.54 801.61L791.13 802.29L785.86 802.91L780.72 803.48L775.72 803.99L770.86 804.45L766.13 804.86L761.54 805.21L757.08 805.5L752.77 805.74L748.58 805.93L744.54 806.06L740.63 806.14L736.85 806.16L733.21 806.12L729.71 806.03L726.35 805.89L723.12 805.69L720.02 805.44L717.07 805.13L714.25 804.77L712.03 804.43L717.41 741.3L718.73 740.08L721.77 737.36L724.94 734.59L728.25 731.76L731.69 728.88L735.27 725.94L738.98 722.95L742.83 719.91L746.82 716.8L750.95 713.65L755.21 710.44L759.6 707.17L764.14 703.85L730.83 583.85L737.74 502.81L834.51 612.34L937.63 495.62L940.51 552.08L892.26 704.39Z" id="faVHwFdwb"></path><path d="M1348.65 863.29L1372.86 958.37L1367.96 1034.35L1370.21 1038.13L1372.42 1041.64L1374.59 1044.89L1376.71 1047.86L1378.79 1050.58L1380.83 1053.03L1382.82 1055.21L1383.75 1056.13L1383.13 1056.71L1382.24 1057.49L1381.3 1058.22L1380.34 1058.92L1379.34 1059.57L1378.3 1060.19L1377.24 1060.75L1376.15 1061.27L1375.03 1061.74L1373.89 1062.16L1372.72 1062.53L1371.52 1062.85L1370.3 1063.11L1369.06 1063.31L1367.8 1063.46L1366.52 1063.55L1365.22 1063.59L1179.57 1063.59L1177.75 1063.54L1175.96 1063.41L1174.2 1063.19L1172.46 1062.89L1170.77 1062.51L1169.1 1062.05L1167.48 1061.52L1165.89 1060.91L1164.34 1060.23L1162.84 1059.49L1161.37 1058.67L1159.96 1057.79L1158.59 1056.85L1157.26 1055.85L1155.99 1054.8L1154.77 1053.68L1153.61 1052.52L1153.13 1051.99L1154.84 1050.71L1156.75 1049.06L1158.71 1047.14L1160.7 1044.96L1162.74 1042.51L1164.82 1039.79L1166.94 1036.81L1169.1 1033.57L1171.31 1030.06L1173.56 1026.28L1168.39 945.98L1193.72 868.47L1157.7 780.22L1153.32 712.23L1388.73 712.23L1386.15 752.23L1348.65 863.29Z" id="d1jpk95dCJ"></path><path d="M599.28 760.09L603.57 763.62L607.73 767.09L611.76 770.5L615.66 773.86L619.44 777.15L623.09 780.38L626.61 783.55L630 786.66L633.27 789.71L636.41 792.7L639.42 795.63L642.3 798.5L645.06 801.31L647.69 804.06L650.19 806.75L652.56 809.38L654.8 811.94L656.92 814.45L658.11 815.91L660.44 861.84L659.23 862.26L657.26 862.84L657.02 862.9L656.4 873.31L621.04 974.67L645.37 1060.91L641.3 1130.06L643.51 1133.47L645.68 1136.64L647.81 1139.57L649.9 1142.26L651.94 1144.71L653.93 1146.92L655.89 1148.89L656.47 1149.41L656.04 1149.83L655.19 1150.59L654.3 1151.32L653.38 1152L652.43 1152.64L651.45 1153.24L650.86 1153.57L651.65 1154.69L657.55 1163L663.38 1171.19L669.13 1179.22L674.74 1187.07L680.19 1194.74L685.45 1202.18L686.41 1203.55L695.26 1206.51L706.18 1210.62L715.86 1214.73L724.36 1218.84L731.75 1222.92L738.07 1226.96L743.4 1230.95L747.78 1234.87L751.28 1238.7L753.96 1242.44L755.86 1246.06L757.05 1249.55L757.6 1252.9L757.54 1256.09L756.96 1259.11L755.89 1261.93L754.41 1264.55L752.57 1266.96L750.42 1269.12L748.03 1271.04L745.45 1272.7L742.74 1274.07L739.97 1275.15L737.18 1275.92L734.44 1276.37L731.8 1276.47L729.33 1276.22L727.08 1275.61L725.1 1274.6L723.47 1273.2L722.23 1271.38L721.44 1269.13L721.16 1266.44L720.85 1263.34L719.95 1259.76L718.48 1255.71L716.48 1251.23L713.99 1246.33L711.03 1241.03L707.65 1235.36L703.86 1229.33L699.72 1222.98L695.25 1216.33L690.48 1209.38L686.41 1203.55L683.06 1202.43L669.5 1198.38L654.54 1194.38L638.11 1190.45L620.16 1186.6L600.62 1182.84L579.44 1179.2L556.56 1175.68L533.85 1172.25L513.16 1168.85L494.41 1165.49L477.52 1162.17L462.42 1158.9L460.47 1158.43L458.92 1158.44L457.17 1158.41L455.44 1158.3L453.75 1158.11L452.08 1157.84L450.45 1157.48L448.85 1157.05L447.29 1156.55L445.76 1155.98L444.27 1155.33L442.82 1154.62L441.42 1153.85L440.7 1153.41L437.27 1152.48L427.06 1149.34L418.34 1146.26L411.02 1143.24L405.01 1140.27L400.26 1137.37L396.68 1134.53L394.18 1131.75L392.71 1129.05L392.17 1126.42L392.49 1123.86L393.59 1121.38L395.4 1118.99L397.84 1116.67L400.83 1114.45L404.29 1112.31L408.16 1110.26L412.34 1108.31L416.76 1106.45L421.35 1104.7L426.03 1103.05L430.72 1101.5L435.35 1100.06L439.83 1098.73L444.09 1097.52L448.05 1096.42L450.49 1095.75L450.2 1091.99L447.51 1091.94L443.1 1091.88L438.24 1091.83L432.99 1091.81L427.39 1091.83L421.49 1091.89L415.33 1092.02L408.96 1092.22L402.43 1092.5L395.79 1092.88L389.09 1093.36L382.36 1093.96L375.66 1094.69L369.03 1095.56L362.53 1096.57L356.19 1097.75L350.07 1099.1L344.22 1100.64L338.67 1102.36L333.48 1104.3L328.69 1106.45L324.36 1108.83L320.52 1111.45L317.23 1114.33L314.52 1117.46L312.46 1120.87L311.09 1124.56L310.45 1128.54L310.59 1132.84L311.55 1137.45L313.39 1142.39L316.16 1147.67L319.89 1153.3L324.63 1159.29L330.44 1165.66L337.36 1172.41L345.44 1179.56L353.45 1186.8L360.16 1193.81L365.65 1200.61L369.95 1207.18L373.14 1213.52L375.26 1219.63L376.37 1225.52L376.53 1231.17L375.8 1236.59L374.23 1241.78L371.88 1246.73L368.8 1251.44L365.05 1255.91L360.7 1260.14L355.78 1264.13L350.37 1267.87L344.51 1271.36L338.27 1274.61L331.69 1277.61L324.85 1280.36L317.79 1282.86L310.56 1285.1L303.24 1287.08L295.86 1288.81L288.5 1290.28L281.2 1291.49L274.02 1292.43L267.02 1293.11L260.26 1293.53L253.79 1293.68L247.67 1293.56L241.95 1293.17L236.69 1292.5L231.95 1291.57L227.79 1290.35L224.25 1288.86L221.4 1287.1L219.3 1285.05L217.99 1282.72L217.55 1280.1L217.5 1277.3L217.38 1274.81L217.21 1272.58L217 1270.57L216.77 1268.74L216.56 1267.04L216.37 1265.43L216.23 1263.86L216.15 1262.29L216.17 1260.68L216.3 1258.99L216.55 1257.16L216.96 1255.16L217.54 1252.94L218.31 1250.46L219.29 1247.68L220.51 1244.55L221.97 1241.02L223.72 1237.06L225.76 1232.62L228.11 1227.65L230.8 1222.12L233.85 1215.98L237.27 1209.18L241.09 1201.68L245.33 1193.44L250.01 1184.42L255.15 1174.57L260.77 1163.84L266.89 1152.19L273.53 1139.59L280.72 1125.98L288.46 1111.32L296.79 1095.57L305.72 1078.69L315.28 1060.62L325.48 1041.33L336.34 1020.78L347.9 998.92L360.15 975.7L372.29 952.76L383.5 931.75L393.8 912.57L403.24 895.17L411.85 879.47L419.66 865.4L422.36 860.61L421.27 860.47L419.05 860.13L424.43 797L425.75 795.78L428.79 793.06L431.96 790.29L435.26 787.46L438.71 784.58L442.29 781.64L446 778.65L449.85 775.6L453.84 772.5L457.97 769.35L462.23 766.14L466.62 762.87L471.15 759.55L437.85 639.55L444.75 558.51L541.53 668.04L644.65 551.32L647.52 607.78L599.28 760.09Z" id="fhqx0TAxR"></path></defs><g><g><g><use xlink:href="#dYFphnQ9S" opacity="1" fill="#aabaa8" fill-opacity="1"></use></g><g><use xlink:href="#c6Y2tY2hEl" opacity="1" fill="#aabaa8" fill-opacity="1"></use></g><g><use xlink:href="#aykBjGueF" opacity="1" fill="#aabaa8" fill-opacity="1"></use></g><g><use xlink:href="#ajpSnbEbH" opacity="1" fill="#aabaa8" fill-opacity="1"></use></g><g><use xlink:href="#d2ECh0h0UF" opacity="1" fill="#aabaa8" fill-opacity="1"></use></g><g><use xlink:href="#gjNTlJZe" opacity="1" fill="#aabaa8" fill-opacity="1"></use></g><g><use xlink:href="#a3uAN904O9" opacity="1" fill="#aabaa8" fill-opacity="1"></use></g><g><use xlink:href="#c29WYO7ctf" opacity="1" fill="#aabaa8" fill-opacity="1"></use></g><g><use xlink:href="#e41CZVxW5u" opacity="1" fill="#aabaa8" fill-opacity="1"></use></g><g><use xlink:href="#a5RbDfm9U" opacity="1" fill="#aabaa8" fill-opacity="1"></use></g><g><use xlink:href="#aE5S76vxM" opacity="1" fill="#aabaa8" fill-opacity="1"></use></g><g><use xlink:href="#faVHwFdwb" opacity="1" fill="#aabaa8" fill-opacity="1"></use></g><g><use xlink:href="#d1jpk95dCJ" opacity="1" fill="#aabaa8" fill-opacity="1"></use></g><g><use xlink:href="#fhqx0TAxR" opacity="1" fill="#aabaa8" fill-opacity="1"></use></g></g></g></svg>