<?xml version="1.0" standalone="no"?>
<!DOCTYPE svg PUBLIC "-//W3C//DTD SVG 20010904//EN"
 "http://www.w3.org/TR/2001/REC-SVG-20010904/DTD/svg10.dtd">
<svg version="1.0" xmlns="http://www.w3.org/2000/svg"
 width="1200.000000pt" height="300.000000pt" viewBox="0 0 1200.000000 300.000000"
 preserveAspectRatio="xMidYMid meet">
<metadata>
Created by potrace 1.16, written by Peter Selinger 2001-2019
</metadata>
<g transform="translate(0.000000,300.000000) scale(0.100000,-0.100000)"
fill="#000000" stroke="none">
<path d="M3332 2415 c-193 -54 -294 -203 -294 -435 0 -154 38 -255 128 -342
131 -125 382 -143 546 -39 l47 30 -26 59 -25 59 -54 -32 c-70 -42 -140 -59
-218 -53 -138 12 -218 96 -235 251 -16 146 17 268 90 331 47 40 97 56 175 56
76 0 117 -12 186 -54 l56 -33 25 59 26 59 -38 25 c-100 66 -272 92 -389 59z"/>
<path d="M4064 2149 c-69 -20 -127 -71 -164 -143 -31 -62 -35 -76 -34 -150 0
-99 14 -152 57 -208 68 -89 189 -132 307 -110 109 20 176 68 221 158 20 42 24
64 24 149 0 84 -4 108 -24 153 -29 64 -95 125 -158 146 -51 17 -178 20 -229 5z
m195 -126 c50 -38 66 -80 66 -173 0 -98 -17 -139 -76 -178 -28 -20 -43 -23
-87 -20 -98 8 -144 69 -145 191 0 101 27 160 85 188 52 24 118 20 157 -8z"/>
<path d="M5600 2147 c-19 -6 -54 -30 -77 -54 l-43 -42 0 49 0 50 -70 0 -70 0
0 -305 0 -305 75 0 75 0 0 179 c0 186 5 219 43 260 28 30 58 41 135 51 35 5
65 10 66 12 1 1 0 29 -2 61 l-4 57 -46 -1 c-26 -1 -63 -6 -82 -12z"/>
<path d="M5915 2136 c-86 -40 -126 -107 -112 -192 13 -78 69 -118 212 -149 44
-9 92 -23 106 -31 54 -27 39 -90 -26 -112 -52 -18 -156 -2 -225 33 l-49 25
-21 -46 c-11 -26 -20 -50 -20 -55 0 -15 106 -58 174 -70 127 -21 240 5 301 70
28 30 30 38 30 106 0 71 -2 75 -34 109 -36 37 -78 54 -196 81 -89 20 -115 37
-115 75 0 74 126 96 236 40 32 -16 61 -26 65 -22 3 4 13 26 22 49 17 42 16 43
-7 59 -91 59 -249 73 -341 30z"/>
<path d="M6577 2146 c-125 -45 -197 -177 -184 -336 7 -82 27 -130 78 -185 93
-101 276 -122 422 -49 26 14 47 30 47 37 0 6 -9 31 -20 54 l-19 42 -48 -27
c-41 -23 -59 -27 -130 -27 -96 0 -125 15 -160 85 -43 83 -51 80 187 80 l210 0
0 23 c0 50 -22 152 -40 187 -25 48 -93 107 -139 120 -50 14 -159 12 -204 -4z
m168 -100 c41 -18 75 -69 75 -113 l0 -33 -141 0 -141 0 6 23 c3 12 6 27 6 34
0 20 52 75 85 89 39 17 68 17 110 0z"/>
<path d="M7350 2147 c-19 -6 -54 -30 -77 -54 l-43 -42 0 49 0 50 -70 0 -70 0
0 -305 0 -305 75 0 75 0 0 179 c0 186 5 219 43 260 28 30 58 41 135 51 35 5
65 10 66 12 1 1 0 29 -2 61 l-4 57 -46 -1 c-26 -1 -63 -6 -82 -12z"/>
<path d="M7710 2149 c-57 -16 -140 -51 -140 -59 0 -12 38 -100 43 -100 3 0 31
12 63 27 46 21 75 27 132 27 69 1 75 -1 98 -27 18 -21 24 -40 24 -73 l0 -44
-62 0 c-94 0 -198 -18 -247 -42 -82 -40 -104 -152 -47 -239 70 -105 277 -114
337 -15 l19 31 0 -47 0 -48 76 0 76 0 -4 233 c-3 215 -5 235 -25 272 -46 86
-104 115 -225 114 -46 0 -99 -5 -118 -10z m220 -366 c0 -71 -68 -143 -135
-143 -48 0 -93 33 -101 75 -13 71 36 102 169 104 l67 1 0 -37z"/>
<path d="M4610 1950 c0 -213 9 -280 43 -332 68 -101 234 -116 328 -30 l39 34
0 -41 0 -41 75 0 75 0 0 305 0 305 -74 0 -75 0 -3 -203 -3 -204 -28 -36 c-36
-47 -90 -65 -147 -48 -70 21 -75 36 -78 278 l-4 213 -74 0 -74 0 0 -200z"/>
<path d="M2039 1144 c-60 -18 -136 -86 -174 -156 -27 -48 -30 -61 -30 -148 0
-106 15 -147 81 -220 133 -147 380 -119 486 55 24 41 23 45 -14 45 -27 0 -37
-7 -55 -35 -13 -19 -47 -48 -75 -65 -92 -52 -211 -39 -287 33 -129 123 -97
335 64 420 87 46 229 13 291 -68 21 -28 33 -35 61 -35 l35 0 -25 43 c-67 116
-223 173 -358 131z"/>
<path d="M6510 840 l0 -310 30 0 30 0 0 310 0 310 -30 0 -30 0 0 -310z"/>
<path d="M5620 1010 l0 -80 -50 0 c-46 0 -50 -2 -50 -24 0 -23 5 -25 48 -28
l47 -3 3 -172 2 -173 30 0 30 0 0 175 0 175 50 0 c47 0 50 2 50 25 0 23 -3 25
-50 25 l-50 0 0 80 0 80 -30 0 -30 0 0 -80z"/>
<path d="M7590 1010 l0 -80 -50 0 c-47 0 -50 -2 -50 -25 0 -23 3 -25 50 -25
l50 0 0 -175 0 -175 30 0 30 0 2 173 3 172 48 3 c42 3 47 6 47 27 0 21 -5 24
-47 27 l-48 3 -3 78 -3 77 -29 0 -30 0 0 -80z"/>
<path d="M9120 1010 l0 -80 -50 0 c-47 0 -50 -2 -50 -25 0 -23 3 -25 50 -25
l50 0 0 -175 0 -175 30 0 30 0 2 173 3 172 48 3 c42 3 47 6 47 27 0 21 -5 24
-47 27 l-48 3 -3 78 -3 77 -29 0 -30 0 0 -80z"/>
<path d="M2615 921 c-80 -36 -120 -111 -113 -212 3 -47 10 -66 35 -96 45 -57
97 -83 166 -83 131 0 216 94 205 226 -12 140 -163 225 -293 165z m163 -61 c52
-32 74 -76 69 -138 -3 -45 -9 -59 -40 -90 -32 -31 -43 -36 -97 -40 -60 -4 -60
-4 -105 40 -41 41 -45 50 -45 94 0 87 63 154 145 154 22 0 54 -9 73 -20z"/>
<path d="M3154 930 c-12 -4 -31 -21 -43 -36 l-21 -27 0 32 c0 28 -3 31 -30 31
l-30 0 0 -200 0 -200 30 0 30 0 0 118 c0 128 16 184 61 216 31 22 81 20 110
-3 23 -18 24 -25 27 -175 l3 -156 30 0 29 0 0 141 0 141 34 34 c24 24 43 34
64 34 80 0 92 -28 92 -210 l0 -140 30 0 30 0 0 148 c0 123 -4 154 -19 189 -23
50 -62 73 -125 73 -39 0 -52 -6 -85 -36 -38 -34 -40 -34 -51 -15 -22 43 -109
64 -166 41z"/>
<path d="M3825 909 l-35 -31 0 26 c0 22 -4 26 -30 26 l-30 0 0 -201 0 -200 28
3 27 3 5 130 c3 76 10 139 17 152 20 34 63 63 94 63 76 0 89 -30 89 -210 l0
-140 30 0 30 0 0 141 0 141 34 34 c43 43 91 46 127 8 23 -24 24 -33 27 -175
l4 -149 29 0 29 0 0 138 c0 163 -9 200 -56 241 -29 26 -43 31 -84 31 -43 0
-55 -5 -89 -36 -38 -34 -40 -34 -51 -15 -16 30 -63 51 -114 51 -36 0 -52 -6
-81 -31z"/>
<path d="M5023 926 c-18 -8 -38 -24 -45 -35 -18 -29 -28 -26 -28 9 0 27 -3 30
-30 30 l-30 0 0 -200 0 -200 30 0 30 0 0 90 c0 164 34 240 115 256 87 16 105
-19 105 -206 l0 -140 30 0 30 0 0 150 c0 163 -9 198 -57 234 -33 25 -109 31
-150 12z"/>
<path d="M6845 928 c-11 -6 -32 -22 -47 -36 l-28 -26 0 32 c0 29 -3 32 -30 32
l-30 0 0 -200 0 -200 29 0 29 0 3 128 c4 142 13 167 72 202 61 38 118 18 137
-48 5 -20 10 -92 10 -159 l0 -123 31 0 31 0 -4 153 c-3 131 -6 157 -23 187
-34 59 -126 88 -180 58z"/>
<path d="M7213 925 c-61 -26 -86 -104 -50 -158 12 -19 39 -33 99 -52 95 -30
118 -47 118 -86 0 -79 -156 -77 -182 2 -2 6 -18 9 -36 7 l-32 -3 17 -34 c26
-50 64 -74 126 -79 110 -9 189 57 172 144 -8 44 -43 70 -129 95 -80 24 -106
42 -106 75 0 53 92 73 136 29 15 -15 36 -25 54 -25 34 0 35 1 15 39 -28 55
-129 78 -202 46z"/>
<path d="M7945 907 l-35 -35 0 29 c0 26 -4 29 -30 29 l-30 0 0 -200 0 -200 30
0 30 0 0 125 c0 132 7 161 49 199 15 14 30 17 56 13 l36 -6 -3 37 c-3 34 -6
37 -36 40 -26 3 -39 -3 -67 -31z"/>
<path d="M8684 915 c-131 -66 -153 -240 -44 -339 69 -62 152 -69 237 -20 35
20 83 77 83 98 0 13 -71 6 -76 -9 -11 -27 -69 -55 -117 -55 -35 0 -53 6 -78
27 -59 50 -74 119 -38 182 49 89 166 102 226 26 22 -27 35 -35 61 -35 l33 0
-23 42 c-33 59 -91 98 -159 104 -45 5 -63 1 -105 -21z"/>
<path d="M9475 926 c-40 -17 -95 -72 -111 -113 -29 -68 -11 -168 39 -221 55
-60 169 -81 243 -46 160 76 155 310 -8 379 -45 18 -122 19 -163 1z m155 -68
c52 -36 72 -69 72 -121 0 -86 -60 -147 -144 -147 -111 0 -180 111 -130 210 38
76 135 103 202 58z"/>
<path d="M9974 905 l-34 -36 0 30 c0 28 -3 31 -30 31 l-30 0 0 -200 0 -200 30
0 30 0 0 118 c1 167 35 234 112 218 29 -6 29 -5 26 32 -3 34 -6 37 -36 40 -27
3 -39 -3 -68 -33z"/>
<path d="M10203 925 c-61 -26 -86 -104 -50 -158 12 -19 39 -33 99 -52 95 -30
118 -47 118 -86 0 -79 -156 -77 -182 2 -2 6 -18 9 -36 7 l-32 -3 17 -34 c26
-50 64 -74 126 -79 110 -9 189 57 172 144 -8 44 -43 70 -129 95 -80 24 -106
42 -106 75 0 53 92 73 136 29 15 -15 36 -25 54 -25 34 0 35 1 15 39 -28 55
-129 78 -202 46z"/>
<path d="M4430 779 c0 -119 3 -158 16 -185 37 -78 158 -93 225 -28 l29 28 0
-32 c0 -29 3 -32 30 -32 l30 0 0 200 0 200 -30 0 -30 0 0 -115 c0 -174 -29
-225 -127 -227 -76 -1 -83 14 -83 193 l0 149 -30 0 -30 0 0 -151z"/>
<path d="M5360 730 l0 -200 30 0 30 0 0 200 0 200 -30 0 -30 0 0 -200z"/>
<path d="M5820 926 c0 -3 36 -79 79 -170 l79 -165 -64 -137 c-35 -75 -64 -141
-64 -146 0 -4 15 -8 33 -8 27 0 36 6 47 28 41 90 260 591 260 597 0 3 -14 5
-32 3 -31 -3 -34 -7 -87 -130 -30 -71 -57 -128 -60 -128 -3 1 -34 59 -68 130
-59 125 -63 130 -92 130 -17 0 -31 -2 -31 -4z"/>
<path d="M8130 792 c0 -75 4 -152 10 -171 28 -100 152 -129 240 -55 l30 26 0
-31 c0 -28 3 -31 30 -31 l30 0 0 200 0 200 -29 0 -29 0 -4 -122 c-4 -133 -17
-173 -62 -203 -38 -25 -102 -23 -129 3 -20 21 -22 33 -25 172 l-3 150 -30 0
-29 0 0 -138z"/>
</g>
</svg>
