<?xml version="1.0" standalone="no"?>
<!DOCTYPE svg PUBLIC "-//W3C//DTD SVG 20010904//EN"
 "http://www.w3.org/TR/2001/REC-SVG-20010904/DTD/svg10.dtd">
<svg version="1.0" xmlns="http://www.w3.org/2000/svg"
 width="1200.000000pt" height="300.000000pt" viewBox="0 0 1200.000000 300.000000"
 preserveAspectRatio="xMidYMid meet">

<g transform="translate(0.000000,300.000000) scale(0.100000,-0.100000)"
fill="#000000" stroke="none">
<path d="M1235 2320 c-163 -26 -308 -105 -408 -222 -202 -237 -233 -616 -72
-890 125 -214 325 -327 580 -328 190 0 373 74 505 205 l59 58 -19 26 c-10 14
-44 57 -76 95 l-57 69 -26 -30 c-42 -49 -141 -124 -201 -152 -48 -23 -68 -26
-161 -26 -101 0 -108 1 -180 37 -82 41 -165 118 -212 198 -74 127 -77 330 -6
477 32 67 141 173 214 209 55 27 69 29 171 29 l111 0 88 -44 c58 -30 107 -64
147 -104 33 -32 63 -55 68 -50 4 4 37 45 73 89 l67 81 -35 46 c-71 93 -209
177 -345 210 -81 20 -219 28 -285 17z"/>
<path d="M2625 2319 c-132 -20 -284 -92 -376 -176 -228 -211 -293 -577 -155
-868 117 -247 354 -395 633 -395 125 0 221 22 328 74 256 126 396 378 382 686
-9 204 -69 342 -207 481 -130 131 -266 191 -456 202 -49 3 -116 1 -149 -4z
m219 -254 c140 -37 246 -138 297 -287 30 -85 32 -257 5 -338 -58 -174 -182
-284 -352 -313 -210 -36 -422 108 -480 327 -19 69 -18 228 2 301 60 232 296
370 528 310z"/>
<path d="M5876 2320 c-116 -21 -271 -134 -327 -240 l-24 -45 -3 133 -3 132
-134 0 -135 0 0 -700 0 -700 135 0 134 0 3 433 3 432 27 57 c51 109 155 187
278 210 45 9 71 8 126 -5 38 -8 70 -14 71 -13 1 1 18 66 36 145 l34 142 -21 9
c-36 13 -148 19 -200 10z"/>
<path d="M6644 2319 c-169 -15 -321 -105 -389 -231 -25 -45 -30 -67 -33 -145
-11 -246 100 -351 497 -468 198 -58 250 -95 259 -183 6 -63 -17 -111 -67 -146
-50 -35 -92 -46 -176 -46 -123 0 -224 40 -323 126 l-50 44 -91 -77 -91 -78 58
-58 c63 -64 174 -125 277 -153 92 -24 276 -29 358 -10 143 34 271 127 324 235
26 51 28 66 28 171 0 107 -2 119 -30 174 -52 104 -145 166 -342 227 -190 59
-278 91 -306 111 -45 32 -63 80 -59 162 3 39 65 98 122 115 131 39 276 -2 419
-117 l44 -36 73 80 c40 43 73 84 74 91 0 6 -21 30 -47 52 -132 117 -333 177
-529 160z"/>
<path d="M7965 2315 c-152 -35 -252 -91 -360 -199 -44 -45 -93 -105 -108 -133
-97 -182 -121 -451 -57 -637 74 -215 256 -384 475 -442 53 -14 107 -19 220
-19 129 0 160 3 225 23 89 28 230 100 284 146 l39 32 -63 95 c-35 52 -64 95
-66 97 -1 2 -31 -18 -66 -43 -137 -102 -226 -126 -388 -107 -233 27 -374 155
-424 385 l-6 27 535 0 535 0 2 43 c8 192 -26 335 -110 467 -72 111 -201 209
-332 251 -83 27 -250 34 -335 14z m298 -268 c108 -49 190 -151 204 -252 l6
-45 -396 0 -396 0 15 53 c36 120 110 199 227 241 94 33 107 35 204 31 61 -2
95 -9 136 -28z"/>
<path d="M9610 2317 c-30 -7 -76 -23 -101 -35 -64 -31 -174 -134 -210 -196
l-29 -51 0 133 0 132 -140 0 -140 0 0 -700 0 -700 140 0 140 0 0 425 c0 410 1
426 22 482 29 80 121 172 201 201 80 30 151 36 217 18 30 -8 58 -12 61 -8 7 8
69 255 69 276 0 27 -146 42 -230 23z"/>
<path d="M10495 2319 c-218 -33 -395 -161 -493 -354 -63 -126 -91 -305 -72
-467 43 -368 297 -618 630 -618 156 0 282 51 408 166 l72 66 0 -106 0 -106
135 0 135 0 0 700 0 700 -135 0 -135 0 0 -90 c0 -49 -1 -90 -3 -90 -2 0 -26
22 -54 49 -60 58 -153 114 -222 135 -66 19 -192 27 -266 15z m270 -266 c304
-105 385 -580 139 -813 -76 -72 -148 -103 -253 -108 -46 -3 -107 1 -137 7
-116 26 -235 139 -284 269 -28 73 -38 226 -20 314 34 178 170 319 332 347 63
11 168 4 223 -16z"/>
<path d="M3690 1833 c1 -524 5 -576 63 -697 56 -119 163 -208 291 -242 68 -18
208 -18 279 1 106 27 205 92 280 182 l37 45 0 -111 0 -111 135 0 135 0 0 700
0 700 -135 0 -135 0 0 -460 c0 -440 -1 -462 -21 -515 -26 -69 -59 -109 -126
-152 -95 -60 -213 -76 -324 -43 -50 14 -125 83 -155 141 -50 100 -54 140 -54
602 l0 427 -135 0 -135 0 0 -467z"/>
</g>
</svg>
