<?xml version="1.0" encoding="UTF-8" standalone="no"?>
<!DOCTYPE svg PUBLIC "-//W3C//DTD SVG 1.1//EN" "http://www.w3.org/Graphics/SVG/1.1/DTD/svg11.dtd">
<svg version="1.1" xmlns="http://www.w3.org/2000/svg" xmlns:xlink="http://www.w3.org/1999/xlink" preserveAspectRatio="xMidYMid meet" viewBox="0 0 1640 1640" width="1640" height="1640"><defs><path d="M217.71 1004.35L217.71 1004.35L217.71 1007.38L217.71 1007.38L217.71 1004.35Z" id="a1PD4JkB1X"></path><path d="M46.02 51.25L443 51.25L443 1052.36L46.02 1052.36L46.02 51.25Z" id="a1nzNZYckL"></path><path d="M647.11 52.59L1049.78 52.59L1049.78 1061.06L647.11 1061.06L647.11 52.59Z" id="bv3lSEJuS"></path><path d="M320.83 46.81L857.72 46.81L857.72 1039.87L320.83 1039.87L320.83 46.81Z" id="b4qp2oM5yI"></path><path d="M43.96 1058.49L43.96 42.8L1050.63 42.8L1050.63 1058.49L43.96 1058.49ZM859.11 954.07L890.21 988.77L882.87 1037.77L921.31 1014.63L959.75 1037.77L947.51 987.59L983.51 954.07L940.53 946.92L921.31 902.34L902.09 946.92L859.11 954.07ZM612.19 907.57L643.86 942.59L636.39 992.05L675.53 968.7L714.68 992.05L702.21 941.41L738.88 907.57L695.11 900.35L675.53 855.35L655.96 900.35L612.19 907.57ZM111.07 907.08L142.17 941.78L134.83 990.77L173.27 967.64L211.71 990.77L199.47 940.6L235.47 907.08L192.49 899.93L173.27 855.35L154.05 899.93L111.07 907.08ZM676.25 732.74L676.31 735.01L676.24 735.1L676.31 735.16L677.43 779.54L831.19 783.74L831.57 892.27L876.89 894.56L876.51 784.97L952.1 787.03L950.92 740.23L876.35 738.2L876.05 649.77L830.73 647.48L831.03 736.96L734.19 734.32L846.86 574.08L809.71 545.29L677.87 732.78L676.25 732.74ZM352.54 784.75L384.21 819.78L376.73 869.24L415.88 845.88L455.03 869.24L442.56 818.59L479.22 784.75L435.46 777.53L415.88 732.54L396.31 777.53L352.54 784.75ZM623.8 435.43L603.25 463.17L600.89 462.3L595.95 460.7L590.92 459.29L585.81 458.08L580.63 457.06L575.38 456.26L570.06 455.65L564.68 455.27L559.24 455.1L553.79 455.15L548.41 455.42L543.07 455.9L537.81 456.6L532.6 457.5L527.47 458.6L522.42 459.9L517.44 461.4L512.55 463.08L507.74 464.95L503.03 466.99L498.41 469.22L493.9 471.62L489.49 474.18L485.19 476.91L481 479.8L476.93 482.84L472.99 486.04L469.17 489.38L465.48 492.87L461.92 496.49L458.51 500.25L455.24 504.14L452.12 508.15L449.15 512.29L446.34 516.54L443.68 520.91L441.2 525.38L438.88 529.97L436.74 534.65L434.77 539.43L432.99 544.3L431.39 549.25L429.99 554.3L428.78 559.42L427.77 564.62L426.96 569.89L426.37 575.22L425.98 580.62L425.81 586.08L425.86 591.54L426.13 596.94L426.62 602.29L427.31 607.57L428.21 612.79L429.31 617.94L430.61 623.01L432.1 628L433.77 632.91L435.64 637.73L437.68 642.46L439.9 647.09L442.29 651.62L444.85 656.04L447.57 660.35L450.45 664.55L453.48 668.64L456.67 672.59L460 676.43L463.48 680.13L467.09 683.69L470.84 687.12L474.71 690.4L478.72 693.53L482.84 696.51L487.08 699.33L491.44 701.99L495.9 704.49L500.47 706.81L505.13 708.96L509.9 710.93L514.75 712.72L519.7 714.32L524.73 715.73L529.83 716.94L535.01 717.96L540.27 718.77L545.59 719.37L550.97 719.75L556.41 719.92L561.85 719.87L567.24 719.6L572.57 719.12L577.84 718.42L583.04 717.52L588.17 716.42L593.23 715.12L598.21 713.63L603.1 711.95L607.9 710.08L612.62 708.03L617.23 705.8L621.75 703.41L626.16 700.84L630.46 698.11L634.64 695.22L638.71 692.18L642.66 688.98L646.48 685.64L650.17 682.16L653.72 678.53L657.13 674.77L660.4 670.89L663.53 666.87L666.5 662.74L669.31 658.48L671.96 654.11L674.45 649.64L676.76 645.06L678.91 640.38L680.87 635.6L682.66 630.73L684.25 625.77L685.66 620.73L686.87 615.6L687.87 610.41L688.68 605.14L689.28 599.8L689.66 594.4L689.83 588.95L689.78 583.49L689.51 578.08L689.03 572.73L688.33 567.45L687.44 562.23L686.34 557.08L685.04 552.01L683.55 547.02L681.87 542.11L680.01 537.29L677.97 532.57L675.75 527.94L673.36 523.41L670.8 518.98L668.08 514.67L665.2 510.47L662.16 506.39L660.93 504.86L680.86 477.95L659.89 462.32L686.46 425.63L679.11 420.28L652.59 456.89L623.8 435.43ZM118.6 567.73L150.28 602.75L142.8 652.21L181.95 628.86L221.09 652.21L208.63 601.57L245.29 567.73L201.52 560.51L181.95 515.51L162.37 560.51L118.6 567.73ZM909.45 500.01L941.13 535.04L933.65 584.5L972.8 561.15L1011.95 584.5L999.48 533.85L1036.14 500.01L992.37 492.79L972.8 447.8L953.23 492.79L909.45 500.01ZM490.11 494.93L490.94 495.11L491.74 495.37L492.51 495.69L493.25 496.08L493.95 496.54L494.6 497.07L495.21 497.65L495.77 498.29L496.28 498.98L496.75 499.74L497.17 500.54L497.55 501.4L497.89 502.31L498.17 503.26L498.42 504.27L498.62 505.32L498.77 506.41L498.88 507.55L498.95 508.72L498.98 509.94L498.96 511.19L498.89 512.48L498.79 513.8L498.64 515.15L498.45 516.54L498.22 517.95L497.94 519.39L497.63 520.86L497.27 522.35L496.87 523.87L496.42 525.4L495.94 526.96L495.42 528.53L494.85 530.12L494.25 531.73L493.6 533.34L492.92 534.97L492.19 536.61L491.42 538.26L490.62 539.91L489.78 541.57L488.89 543.23L487.97 544.89L487.01 546.55L486.02 548.2L485.01 549.81L483.98 551.38L482.94 552.93L481.88 554.43L480.81 555.89L479.73 557.32L478.64 558.71L477.54 560.05L476.43 561.36L475.31 562.62L474.19 563.84L473.06 565.01L471.93 566.14L470.8 567.22L469.67 568.25L468.54 569.24L467.41 570.17L466.28 571.06L465.17 571.89L464.05 572.67L462.95 573.4L461.85 574.08L460.77 574.7L459.7 575.26L458.64 575.77L457.59 576.22L456.56 576.6L455.55 576.93L454.55 577.2L453.58 577.41L452.62 577.55L451.69 577.63L450.79 577.65L449.9 577.6L449.05 577.48L448.22 577.3L447.42 577.04L446.65 576.72L445.91 576.33L445.21 575.87L444.56 575.35L443.95 574.76L443.39 574.12L442.88 573.43L442.41 572.68L441.99 571.87L441.61 571.01L441.27 570.1L440.99 569.15L440.74 568.14L440.54 567.09L440.39 566L440.27 564.87L440.21 563.69L440.18 562.48L440.2 561.22L440.26 559.94L440.37 558.61L440.52 557.26L440.71 555.87L440.94 554.46L441.22 553.02L441.53 551.55L441.89 550.06L442.29 548.54L442.74 547.01L443.22 545.45L443.74 543.88L444.31 542.29L444.91 540.69L445.56 539.07L446.24 537.44L446.97 535.8L447.73 534.16L448.54 532.5L449.38 530.84L450.27 529.18L451.19 527.52L452.15 525.86L453.14 524.21L454.15 522.6L455.18 521.03L456.22 519.49L457.28 517.98L458.35 516.52L459.43 515.09L460.52 513.7L461.62 512.36L462.73 511.05L463.85 509.79L464.97 508.58L466.1 507.4L467.23 506.27L468.36 505.19L469.49 504.16L470.62 503.17L471.75 502.24L472.87 501.35L473.99 500.52L475.11 499.74L476.21 499.01L477.31 498.33L478.39 497.71L479.46 497.15L480.52 496.64L481.57 496.2L482.6 495.81L483.61 495.48L484.61 495.21L485.58 495L486.53 494.86L487.47 494.78L488.37 494.76L489.26 494.81L490.11 494.93ZM154.75 373.28L154.73 375.59L154.66 375.68L154.73 375.74L154.43 420.78L307.34 419.67L304.27 529.9L349.31 530.64L352.4 419.35L427.56 418.8L427.87 371.3L353.73 371.84L356.22 282.03L311.19 281.29L308.66 372.17L212.36 372.86L329.57 206.17L293.51 178.23L156.36 373.27L154.75 373.28ZM680.17 369.63L697.98 388.33L693.45 414.42L715.83 402.32L737.95 414.9L733.98 388.73L752.18 370.42L727.34 366.33L716.47 342.44L705.09 366.09L680.17 369.63ZM430.33 161.45L462 196.48L454.53 245.94L493.67 222.58L532.82 245.94L520.35 195.29L557.02 161.45L513.25 154.23L493.67 109.23L474.1 154.23L430.33 161.45ZM65.53 121.66L96.64 156.35L89.29 205.35L127.73 182.22L166.18 205.35L153.93 155.18L189.93 121.66L146.96 114.5L127.73 69.93L108.51 114.5L65.53 121.66ZM887.29 118L918.39 152.7L911.05 201.7L949.49 178.56L987.93 201.7L975.68 151.53L1011.69 118L968.71 110.85L949.49 66.27L930.27 110.85L887.29 118Z" id="ccgBYC14W"></path></defs><g><g><g><g><use xlink:href="#a1PD4JkB1X" opacity="1" fill="#669353" fill-opacity="1"></use></g><g><use xlink:href="#a1nzNZYckL" opacity="1" fill="#dae764" fill-opacity="1"></use></g><g><use xlink:href="#bv3lSEJuS" opacity="1" fill="#dae764" fill-opacity="1"></use></g><g><use xlink:href="#b4qp2oM5yI" opacity="1" fill="#442289" fill-opacity="1"></use></g><g><use xlink:href="#ccgBYC14W" opacity="1" fill="#669353" fill-opacity="1"></use></g></g></g></g></svg>