<?xml version="1.0" encoding="UTF-8" standalone="no"?>
<!DOCTYPE svg PUBLIC "-//W3C//DTD SVG 1.1//EN" "http://www.w3.org/Graphics/SVG/1.1/DTD/svg11.dtd">
<svg version="1.1" xmlns="http://www.w3.org/2000/svg" xmlns:xlink="http://www.w3.org/1999/xlink" preserveAspectRatio="xMidYMid meet" viewBox="0 0 3640 1937.03" width="3640" height="1937.03"><defs><path d="M487.58 325.9L420.46 464.78L395.95 515.47L400.31 517.34L405.34 519.75L410.31 522.37L415.21 525.2L420.04 528.24L424.78 531.5L429.39 534.95L433.83 538.54L438.09 542.27L442.17 546.13L446.06 550.13L449.78 554.24L453.31 558.47L456.66 562.81L459.83 567.26L462.81 571.8L465.6 576.43L468.2 581.15L470.61 585.94L472.83 590.81L474.86 595.75L476.7 600.74L478.34 605.79L479.79 610.89L481.04 616.03L482.09 621.2L482.95 626.41L483.6 631.63L484.06 636.88L484.31 642.13L484.36 647.39L484.2 652.65L483.84 657.9L483.27 663.14L482.49 668.36L481.51 673.55L480.31 678.71L478.91 683.83L477.29 688.9L475.45 693.93L473.41 698.89L471.14 703.8L468.67 708.63L465.97 713.39L463.05 718.07L461.8 719.91L547.68 792.16L373.95 998.68L160.09 818.77L239.54 724.33L239.35 724.11L236 719.77L232.84 715.32L229.86 710.78L227.07 706.15L224.47 701.43L222.05 696.64L219.83 691.77L217.8 686.84L215.97 681.84L214.32 676.79L212.88 671.69L211.63 666.55L210.57 661.38L209.72 656.18L209.07 650.95L208.61 645.71L208.36 640.45L208.31 635.19L208.47 629.93L208.83 624.68L209.4 619.44L210.18 614.23L211.16 609.04L212.36 603.88L213.76 598.76L215.38 593.68L217.22 588.66L219.26 583.69L221.52 578.79L224 573.95L226.7 569.19L229.62 564.51L232.76 559.92L236.08 555.47L239.56 551.19L243.19 547.1L246.96 543.19L250.87 539.46L254.9 535.92L259.06 532.56L263.33 529.39L267.72 526.4L272.21 523.6L276.8 520.99L281.48 518.57L286.25 516.34L291.09 514.31L296.01 512.46L301 510.81L306.05 509.35L306.89 509.14L284.89 464.37L216.48 325.07L352.03 325.48L487.58 325.9ZM242.88 728.34L246.6 732.45L250.49 736.45L254.57 740.31L258.83 744.04L263.27 747.63L267.88 751.07L272.62 754.34L277.45 757.38L282.35 760.21L287.32 762.83L292.35 765.23L297.44 767.43L302.58 769.41L307.77 771.18L312.99 772.75L318.24 774.1L323.52 775.25L328.82 776.2L334.13 776.94L339.45 777.47L344.77 777.8L350.09 777.93L355.39 777.85L360.68 777.58L365.94 777.11L371.17 776.43L376.36 775.56L381.52 774.5L386.62 773.23L391.67 771.78L396.66 770.12L401.58 768.28L406.42 766.24L411.19 764.01L415.87 761.59L420.46 758.98L424.95 756.18L429.33 753.2L433.61 750.03L437.77 746.67L441.8 743.12L445.71 739.4L449.48 735.49L453.11 731.39L456.59 727.12L459.91 722.66L461.8 719.91L333.83 612.25L239.54 724.33L242.88 728.34ZM331.99 505L326.73 505.48L321.5 506.15L316.3 507.02L311.15 508.09L306.89 509.14L353.32 603.67L395.95 515.47L395.22 515.15L390.08 513.17L384.9 511.4L379.67 509.83L374.42 508.48L369.14 507.33L363.84 506.38L358.53 505.65L353.21 505.11L347.89 504.78L342.58 504.66L337.28 504.73L331.99 505Z" id="b2mPrkxCBt"></path><path d="M677.49 622.88L682.25 627.7L687.22 632.37L692.4 636.89L697.78 641.26L703.36 645.46L709.1 649.45L714.92 653.19L720.83 656.69L726.81 659.93L732.85 662.93L738.96 665.69L745.12 668.2L751.32 670.46L757.56 672.48L763.83 674.26L770.12 675.8L776.43 677.1L782.74 678.15L789.06 678.97L795.37 679.55L801.67 679.89L807.94 680L814.19 679.87L820.4 679.51L826.57 678.91L832.69 678.08L838.75 677.01L844.75 675.72L850.67 674.19L856.51 672.44L862.27 670.45L867.94 668.24L873.5 665.8L878.95 663.14L884.29 660.25L889.51 657.13L894.59 653.8L899.54 650.24L904.34 646.45L908.99 642.45L913.48 638.22L917.8 633.78L921.95 629.12L925.91 624.24L929.69 619.14L931.82 615.98L1036.11 703.73L837.91 939.32L578.21 720.85L668.84 613.11L672.95 617.92L677.49 622.88Z" id="ho7XDYTzW"></path><path d="M2269.95 1185.63L1975.55 937.96L2216.6 651.43L2511 899.1L2269.95 1185.63Z" id="c9ANkp5uY"></path><path d="M2250.82 917.78L2110.89 919.17L1970.95 920.53L1958.22 583.71L2103.6 249.09L2264.24 503.78L2250.82 917.78Z" id="f5zx5Jp9gV"></path><path d="M2077.29 579.6C2137.41 495.57 2256.32 477.5 2342.65 539.27C2429 601.05 2450.28 719.42 2390.16 803.45C2330.03 887.48 2098.08 1018.6 2011.74 956.81C1925.41 895.04 2017.17 663.63 2077.29 579.6Z" id="a3Z052j4OE"></path><path d="M2879 1185.63L2584.6 937.96L2825.65 651.43L3120.05 899.1L2879 1185.63Z" id="cCnFX9rkb"></path><path d="M3039.54 254.59L2852.33 254.73L2665.12 254.89L2758.86 447.17L2852.62 639.45L2946.09 447.01L3039.54 254.59Z" id="a3mXRT9bq"></path><path d="M2686.34 579.6C2746.46 495.57 2865.37 477.5 2951.7 539.27C3038.05 601.05 3059.33 719.42 2999.21 803.45C2939.08 887.48 2820.18 905.55 2733.83 843.77C2647.5 782 2626.22 663.63 2686.34 579.6Z" id="b6zyirVeTw"></path><path d="M458.11 1377.78L459.41 1379.7L462.44 1384.59L465.23 1389.57L467.8 1394.63L470.13 1399.76L472.23 1404.97L474.11 1410.24L475.75 1415.56L477.18 1420.94L478.38 1426.35L479.36 1431.81L480.11 1437.29L480.65 1442.8L480.97 1448.32L481.07 1453.86L480.95 1459.4L480.62 1464.93L480.08 1470.46L479.32 1475.97L478.35 1481.46L477.18 1486.93L475.79 1492.35L474.2 1497.74L472.4 1503.08L470.39 1508.36L468.19 1513.58L465.78 1518.73L463.17 1523.81L460.36 1528.81L457.35 1533.73L454.15 1538.54L450.75 1543.26L447.15 1547.87L443.36 1552.37L439.38 1556.75L435.21 1561.01L430.85 1565.13L426.31 1569.11L421.57 1572.94L416.65 1576.63L411.59 1580.12L406.45 1583.38L401.24 1586.42L395.95 1589.24L390.6 1591.83L385.98 1593.86L411.26 1646.94L480.51 1792.35L337.19 1794.46L193.88 1796.56L267.93 1649.04L291.73 1601.62L290.85 1601.42L285.53 1599.94L280.27 1598.26L275.1 1596.38L270 1594.3L264.98 1592.01L260.07 1589.52L255.25 1586.83L250.53 1583.93L245.93 1580.84L241.45 1577.56L237.1 1574.07L232.88 1570.39L228.79 1566.51L224.85 1562.44L221.07 1558.18L217.44 1553.72L213.98 1549.07L210.72 1544.27L207.69 1539.38L204.9 1534.41L202.34 1529.34L200.01 1524.21L197.9 1519L196.03 1513.73L194.38 1508.41L192.96 1503.04L191.76 1497.62L190.78 1492.16L190.02 1486.68L189.48 1481.17L189.17 1475.65L189.07 1470.11L189.18 1464.57L189.51 1459.04L190.06 1453.51L190.81 1448L191.78 1442.51L192.96 1437.05L194.34 1431.62L195.93 1426.23L197.73 1420.9L199.74 1415.62L201.94 1410.39L204.35 1405.24L206.96 1400.16L209.77 1395.16L212.78 1390.25L215.98 1385.43L219.38 1380.71L222.98 1376.1L223.18 1375.86L140.35 1277.41L368.67 1085.33L549.8 1300.64L458.11 1377.78ZM924.37 1370.55L925.68 1372.46L928.7 1377.36L931.5 1382.33L934.06 1387.39L936.39 1392.53L938.49 1397.74L940.37 1403.01L942.02 1408.33L943.44 1413.7L944.64 1419.12L945.62 1424.58L946.38 1430.06L946.91 1435.57L947.23 1441.09L947.33 1446.63L947.21 1452.17L946.88 1457.7L946.34 1463.23L945.58 1468.74L944.62 1474.23L943.44 1479.69L942.05 1485.12L940.46 1490.51L938.66 1495.84L936.66 1501.13L934.45 1506.35L932.04 1511.5L929.43 1516.58L926.62 1521.58L923.61 1526.49L920.41 1531.31L917.01 1536.03L913.41 1540.64L909.63 1545.14L905.65 1549.52L901.48 1553.77L897.12 1557.89L892.57 1561.87L887.83 1565.71L882.91 1569.39L877.86 1572.88L872.72 1576.15L867.5 1579.19L862.21 1582.01L856.86 1584.6L852.24 1586.63L877.52 1639.71L946.77 1785.11L803.46 1787.23L660.14 1789.33L734.19 1641.81L757.99 1594.39L757.11 1594.18L751.79 1592.71L746.54 1591.03L741.36 1589.15L736.26 1587.06L731.25 1584.77L726.33 1582.28L721.51 1579.59L716.8 1576.7L712.2 1573.61L707.71 1570.32L703.36 1566.84L699.14 1563.16L695.05 1559.28L691.12 1555.21L687.33 1550.94L683.7 1546.49L680.24 1541.84L676.98 1537.04L673.96 1532.15L671.16 1527.17L668.6 1522.11L666.27 1516.98L664.17 1511.77L662.29 1506.5L660.64 1501.18L659.22 1495.8L658.02 1490.39L657.04 1484.93L656.28 1479.45L655.75 1473.94L655.43 1468.42L655.33 1462.88L655.44 1457.34L655.77 1451.81L656.32 1446.28L657.07 1440.77L658.04 1435.28L659.22 1429.81L660.6 1424.39L662.2 1419L664 1413.67L666 1408.38L668.21 1403.16L670.61 1398.01L673.22 1392.93L676.03 1387.93L679.04 1383.02L682.24 1378.2L685.64 1373.48L689.24 1368.87L689.44 1368.63L606.61 1270.17L834.93 1078.09L1016.07 1293.4L924.37 1370.55Z" id="aXOerCBVm"></path><path d="M1317.94 1054.86L1097.65 860.73L1278.02 636.13L1498.31 830.27L1317.94 1054.86Z" id="c49B3Brxs"></path><path d="M1438.06 325.07L1297.98 325.18L1157.89 325.31L1228.04 476.03L1298.2 626.74L1368.14 475.9L1438.06 325.07Z" id="b3wsts7707"></path><path d="M1173.77 579.83C1218.76 513.96 1307.74 499.8 1372.34 548.21C1436.95 596.64 1452.88 689.43 1407.89 755.29C1362.9 821.16 1273.92 835.32 1209.31 786.9C1144.71 738.48 1128.78 645.69 1173.77 579.83Z" id="aeOUyJeHW"></path><path d="M1335.68 1102.99L1115.39 1297.13L1295.76 1521.72L1516.06 1327.59L1335.68 1102.99Z" id="bwn1a24Du"></path><path d="M1455.81 1832.78L1315.72 1832.67L1175.64 1832.55L1245.78 1681.83L1315.94 1531.11L1385.88 1681.95L1455.81 1832.78Z" id="bCsdZ6l5Q"></path><path d="M1191.52 1578.03C1236.51 1643.9 1325.48 1658.06 1390.08 1609.64C1454.69 1561.21 1470.62 1468.43 1425.63 1402.56C1380.64 1336.7 1291.67 1322.53 1227.05 1370.96C1162.45 1419.38 1146.53 1512.16 1191.52 1578.03Z" id="a1xX1wpXnO"></path><path d="M931.82 510.03L929.69 506.87L925.91 501.78L921.95 496.9L917.8 492.23L913.48 487.79L908.99 483.56L904.34 479.56L899.54 475.78L894.59 472.22L889.51 468.88L884.29 465.76L878.95 462.87L873.5 460.21L867.94 457.77L862.27 455.56L856.51 453.57L850.67 451.82L844.75 450.29L838.75 449L832.69 447.94L826.57 447.1L820.4 446.51L814.19 446.14L807.94 446.01L801.67 446.12L795.37 446.46L789.06 447.04L782.74 447.86L776.43 448.92L770.12 450.21L763.83 451.75L757.56 453.53L751.32 455.55L745.12 457.82L738.96 460.32L732.85 463.08L726.81 466.08L720.83 469.32L714.92 472.82L709.1 476.56L703.36 480.55L697.78 484.75L692.4 489.12L687.22 493.64L682.25 498.32L677.49 503.13L672.95 508.09L668.84 512.9L578.21 405.17L837.91 186.69L1036.11 422.29L931.82 510.03Z" id="a8cuL2Eqg1"></path><path d="M1920.85 1439.55C1980.97 1355.52 2099.88 1337.45 2186.21 1399.23C2272.56 1461.01 2293.84 1579.38 2233.71 1663.41C2173.59 1747.44 1941.64 1878.55 1855.29 1816.77C1768.96 1755 1860.72 1523.58 1920.85 1439.55Z" id="c2So9b73ys"></path><path d="M2663.05 1421.82C2602.92 1337.79 2484.02 1319.73 2397.69 1381.5C2311.34 1443.28 2290.06 1561.65 2350.18 1645.68C2410.31 1729.71 2642.26 1860.82 2728.6 1799.04C2814.93 1737.27 2723.17 1505.86 2663.05 1421.82Z" id="hazaCRgWOo"></path><path d="M2943.62 1719.54C3003.74 1803.58 3122.65 1821.64 3208.98 1759.87C3295.33 1698.09 3316.61 1579.72 3256.49 1495.69C3196.36 1411.66 2964.41 1280.55 2878.07 1342.33C2791.73 1404.1 2883.5 1635.51 2943.62 1719.54Z" id="e4usEEZ8kF"></path><path d="M3518.22 1738.04C3458.1 1822.07 3339.19 1840.13 3252.86 1778.36C3166.51 1716.58 3145.23 1598.21 3205.35 1514.18C3265.48 1430.15 3497.43 1299.04 3583.77 1360.82C3670.11 1422.59 3578.35 1654.01 3518.22 1738.04Z" id="cnlq1egqi"></path></defs><g><g><g><g><filter id="shadow8699783" x="143.09" y="308.07" width="421.59" height="713.6" filterUnits="userSpaceOnUse" primitiveUnits="userSpaceOnUse"><feFlood></feFlood><feComposite in2="SourceAlpha" operator="in"></feComposite><feGaussianBlur stdDeviation="1"></feGaussianBlur><feOffset dx="0" dy="6" result="afterOffset"></feOffset><feFlood flood-color="#b74f4f" flood-opacity="0.5"></feFlood><feComposite in2="afterOffset" operator="in"></feComposite><feMorphology operator="dilate" radius="4"></feMorphology><feComposite in2="SourceAlpha" operator="out"></feComposite></filter><path d="M487.58 325.9L420.46 464.78L395.95 515.47L400.31 517.34L405.34 519.75L410.31 522.37L415.21 525.2L420.04 528.24L424.78 531.5L429.39 534.95L433.83 538.54L438.09 542.27L442.17 546.13L446.06 550.13L449.78 554.24L453.31 558.47L456.66 562.81L459.83 567.26L462.81 571.8L465.6 576.43L468.2 581.15L470.61 585.94L472.83 590.81L474.86 595.75L476.7 600.74L478.34 605.79L479.79 610.89L481.04 616.03L482.09 621.2L482.95 626.41L483.6 631.63L484.06 636.88L484.31 642.13L484.36 647.39L484.2 652.65L483.84 657.9L483.27 663.14L482.49 668.36L481.51 673.55L480.31 678.71L478.91 683.83L477.29 688.9L475.45 693.93L473.41 698.89L471.14 703.8L468.67 708.63L465.97 713.39L463.05 718.07L461.8 719.91L547.68 792.16L373.95 998.68L160.09 818.77L239.54 724.33L239.35 724.11L236 719.77L232.84 715.32L229.86 710.78L227.07 706.15L224.47 701.43L222.05 696.64L219.83 691.77L217.8 686.84L215.97 681.84L214.32 676.79L212.88 671.69L211.63 666.55L210.57 661.38L209.72 656.18L209.07 650.95L208.61 645.71L208.36 640.45L208.31 635.19L208.47 629.93L208.83 624.68L209.4 619.44L210.18 614.23L211.16 609.04L212.36 603.88L213.76 598.76L215.38 593.68L217.22 588.66L219.26 583.69L221.52 578.79L224 573.95L226.7 569.19L229.62 564.51L232.76 559.92L236.08 555.47L239.56 551.19L243.19 547.1L246.96 543.19L250.87 539.46L254.9 535.92L259.06 532.56L263.33 529.39L267.72 526.4L272.21 523.6L276.8 520.99L281.48 518.57L286.25 516.34L291.09 514.31L296.01 512.46L301 510.81L306.05 509.35L306.89 509.14L284.89 464.37L216.48 325.07L352.03 325.48L487.58 325.9ZM242.88 728.34L246.6 732.45L250.49 736.45L254.57 740.31L258.83 744.04L263.27 747.63L267.88 751.07L272.62 754.34L277.45 757.38L282.35 760.21L287.32 762.83L292.35 765.23L297.44 767.43L302.58 769.41L307.77 771.18L312.99 772.75L318.24 774.1L323.52 775.25L328.82 776.2L334.13 776.94L339.45 777.47L344.77 777.8L350.09 777.93L355.39 777.85L360.68 777.58L365.94 777.11L371.17 776.43L376.36 775.56L381.52 774.5L386.62 773.23L391.67 771.78L396.66 770.12L401.58 768.28L406.42 766.24L411.19 764.01L415.87 761.59L420.46 758.98L424.95 756.18L429.33 753.2L433.61 750.03L437.77 746.67L441.8 743.12L445.71 739.4L449.48 735.49L453.11 731.39L456.59 727.12L459.91 722.66L461.8 719.91L333.83 612.25L239.54 724.33L242.88 728.34ZM331.99 505L326.73 505.48L321.5 506.15L316.3 507.02L311.15 508.09L306.89 509.14L353.32 603.67L395.95 515.47L395.22 515.15L390.08 513.17L384.9 511.4L379.67 509.83L374.42 508.48L369.14 507.33L363.84 506.38L358.53 505.65L353.21 505.11L347.89 504.78L342.58 504.66L337.28 504.73L331.99 505Z" id="a3IRq6Ydv" fill="white" fill-opacity="1" filter="url(#shadow8699783)"></path></g><use xlink:href="#b2mPrkxCBt" opacity="1" fill="#ecb3b3" fill-opacity="1"></use><g><use xlink:href="#b2mPrkxCBt" opacity="1" fill-opacity="0" stroke="#902121" stroke-width="20" stroke-opacity="0"></use></g><g><filter id="shadow6938554" x="140.09" y="305.07" width="439.59" height="717.6" filterUnits="userSpaceOnUse" primitiveUnits="userSpaceOnUse"><feFlood></feFlood><feComposite in2="SourceAlpha" operator="out"></feComposite><feGaussianBlur stdDeviation="1"></feGaussianBlur><feOffset dx="12" dy="4" result="afterOffset"></feOffset><feFlood flood-color="#110e40" flood-opacity="0.5"></feFlood><feComposite in2="afterOffset" operator="in"></feComposite><feMorphology operator="dilate" radius="1"></feMorphology><feComposite in2="SourceAlpha" operator="in"></feComposite></filter><path d="M487.58 325.9L420.46 464.78L395.95 515.47L400.31 517.34L405.34 519.75L410.31 522.37L415.21 525.2L420.04 528.24L424.78 531.5L429.39 534.95L433.83 538.54L438.09 542.27L442.17 546.13L446.06 550.13L449.78 554.24L453.31 558.47L456.66 562.81L459.83 567.26L462.81 571.8L465.6 576.43L468.2 581.15L470.61 585.94L472.83 590.81L474.86 595.75L476.7 600.74L478.34 605.79L479.79 610.89L481.04 616.03L482.09 621.2L482.95 626.41L483.6 631.63L484.06 636.88L484.31 642.13L484.36 647.39L484.2 652.65L483.84 657.9L483.27 663.14L482.49 668.36L481.51 673.55L480.31 678.71L478.91 683.83L477.29 688.9L475.45 693.93L473.41 698.89L471.14 703.8L468.67 708.63L465.97 713.39L463.05 718.07L461.8 719.91L547.68 792.16L373.95 998.68L160.09 818.77L239.54 724.33L239.35 724.11L236 719.77L232.84 715.32L229.86 710.78L227.07 706.15L224.47 701.43L222.05 696.64L219.83 691.77L217.8 686.84L215.97 681.84L214.32 676.79L212.88 671.69L211.63 666.55L210.57 661.38L209.72 656.18L209.07 650.95L208.61 645.71L208.36 640.45L208.31 635.19L208.47 629.93L208.83 624.68L209.4 619.44L210.18 614.23L211.16 609.04L212.36 603.88L213.76 598.76L215.38 593.68L217.22 588.66L219.26 583.69L221.52 578.79L224 573.95L226.7 569.19L229.62 564.51L232.76 559.92L236.08 555.47L239.56 551.19L243.19 547.1L246.96 543.19L250.87 539.46L254.9 535.92L259.06 532.56L263.33 529.39L267.72 526.4L272.21 523.6L276.8 520.99L281.48 518.57L286.25 516.34L291.09 514.31L296.01 512.46L301 510.81L306.05 509.35L306.89 509.14L284.89 464.37L216.48 325.07L352.03 325.48L487.58 325.9ZM242.88 728.34L246.6 732.45L250.49 736.45L254.57 740.31L258.83 744.04L263.27 747.63L267.88 751.07L272.62 754.34L277.45 757.38L282.35 760.21L287.32 762.83L292.35 765.23L297.44 767.43L302.58 769.41L307.77 771.18L312.99 772.75L318.24 774.1L323.52 775.25L328.82 776.2L334.13 776.94L339.45 777.47L344.77 777.8L350.09 777.93L355.39 777.85L360.68 777.58L365.94 777.11L371.17 776.43L376.36 775.56L381.52 774.5L386.62 773.23L391.67 771.78L396.66 770.12L401.58 768.28L406.42 766.24L411.19 764.01L415.87 761.59L420.46 758.98L424.95 756.18L429.33 753.2L433.61 750.03L437.77 746.67L441.8 743.12L445.71 739.4L449.48 735.49L453.11 731.39L456.59 727.12L459.91 722.66L461.8 719.91L333.83 612.25L239.54 724.33L242.88 728.34ZM331.99 505L326.73 505.48L321.5 506.15L316.3 507.02L311.15 508.09L306.89 509.14L353.32 603.67L395.95 515.47L395.22 515.15L390.08 513.17L384.9 511.4L379.67 509.83L374.42 508.48L369.14 507.33L363.84 506.38L358.53 505.65L353.21 505.11L347.89 504.78L342.58 504.66L337.28 504.73L331.99 505Z" id="a5X9gPRwj" fill="white" fill-opacity="1" filter="url(#shadow6938554)"></path></g></g><g><g><filter id="shadow2548584" x="561.21" y="596.11" width="491.9" height="366.21" filterUnits="userSpaceOnUse" primitiveUnits="userSpaceOnUse"><feFlood></feFlood><feComposite in2="SourceAlpha" operator="in"></feComposite><feGaussianBlur stdDeviation="1"></feGaussianBlur><feOffset dx="0" dy="6" result="afterOffset"></feOffset><feFlood flood-color="#b74f4f" flood-opacity="0.5"></feFlood><feComposite in2="afterOffset" operator="in"></feComposite><feMorphology operator="dilate" radius="4"></feMorphology><feComposite in2="SourceAlpha" operator="out"></feComposite></filter><path d="M677.49 622.88L682.25 627.7L687.22 632.37L692.4 636.89L697.78 641.26L703.36 645.46L709.1 649.45L714.92 653.19L720.83 656.69L726.81 659.93L732.85 662.93L738.96 665.69L745.12 668.2L751.32 670.46L757.56 672.48L763.83 674.26L770.12 675.8L776.43 677.1L782.74 678.15L789.06 678.97L795.37 679.55L801.67 679.89L807.94 680L814.19 679.87L820.4 679.51L826.57 678.91L832.69 678.08L838.75 677.01L844.75 675.72L850.67 674.19L856.51 672.44L862.27 670.45L867.94 668.24L873.5 665.8L878.95 663.14L884.29 660.25L889.51 657.13L894.59 653.8L899.54 650.24L904.34 646.45L908.99 642.45L913.48 638.22L917.8 633.78L921.95 629.12L925.91 624.24L929.69 619.14L931.82 615.98L1036.11 703.73L837.91 939.32L578.21 720.85L668.84 613.11L672.95 617.92L677.49 622.88Z" id="afIDYPFrj" fill="white" fill-opacity="1" filter="url(#shadow2548584)"></path></g><use xlink:href="#ho7XDYTzW" opacity="1" fill="#ecb3b3" fill-opacity="1"></use><g><use xlink:href="#ho7XDYTzW" opacity="1" fill-opacity="0" stroke="#902121" stroke-width="20" stroke-opacity="0"></use></g><g><filter id="shadow6383362" x="558.21" y="593.11" width="509.9" height="370.21" filterUnits="userSpaceOnUse" primitiveUnits="userSpaceOnUse"><feFlood></feFlood><feComposite in2="SourceAlpha" operator="out"></feComposite><feGaussianBlur stdDeviation="1"></feGaussianBlur><feOffset dx="12" dy="4" result="afterOffset"></feOffset><feFlood flood-color="#110e40" flood-opacity="0.5"></feFlood><feComposite in2="afterOffset" operator="in"></feComposite><feMorphology operator="dilate" radius="1"></feMorphology><feComposite in2="SourceAlpha" operator="in"></feComposite></filter><path d="M677.49 622.88L682.25 627.7L687.22 632.37L692.4 636.89L697.78 641.26L703.36 645.46L709.1 649.45L714.92 653.19L720.83 656.69L726.81 659.93L732.85 662.93L738.96 665.69L745.12 668.2L751.32 670.46L757.56 672.48L763.83 674.26L770.12 675.8L776.43 677.1L782.74 678.15L789.06 678.97L795.37 679.55L801.67 679.89L807.94 680L814.19 679.87L820.4 679.51L826.57 678.91L832.69 678.08L838.75 677.01L844.75 675.72L850.67 674.19L856.51 672.44L862.27 670.45L867.94 668.24L873.5 665.8L878.95 663.14L884.29 660.25L889.51 657.13L894.59 653.8L899.54 650.24L904.34 646.45L908.99 642.45L913.48 638.22L917.8 633.78L921.95 629.12L925.91 624.24L929.69 619.14L931.82 615.98L1036.11 703.73L837.91 939.32L578.21 720.85L668.84 613.11L672.95 617.92L677.49 622.88Z" id="a3du6MvPnn" fill="white" fill-opacity="1" filter="url(#shadow6383362)"></path></g></g><g><use xlink:href="#c9ANkp5uY" opacity="1" fill="#ecb3b3" fill-opacity="1"></use><g><use xlink:href="#c9ANkp5uY" opacity="1" fill-opacity="0" stroke="#431111" stroke-width="20" stroke-opacity="1"></use></g></g><g><g><filter id="shadow8749757" x="1945.22" y="236.09" width="337.02" height="702.44" filterUnits="userSpaceOnUse" primitiveUnits="userSpaceOnUse"><feFlood></feFlood><feComposite in2="SourceAlpha" operator="in"></feComposite><feGaussianBlur stdDeviation="1"></feGaussianBlur><feOffset dx="5" dy="5" result="afterOffset"></feOffset><feFlood flood-color="#fc3939" flood-opacity="0.92"></feFlood><feComposite in2="afterOffset" operator="in"></feComposite><feMorphology operator="dilate" radius="1"></feMorphology><feComposite in2="SourceAlpha" operator="out"></feComposite></filter><path d="M2250.82 917.78L2110.89 919.17L1970.95 920.53L1958.22 583.71L2103.6 249.09L2264.24 503.78L2250.82 917.78Z" id="j6J7WpvoPO" fill="white" fill-opacity="1" filter="url(#shadow8749757)"></path></g><use xlink:href="#f5zx5Jp9gV" opacity="1" fill="#ecb3b3" fill-opacity="1"></use><g><use xlink:href="#f5zx5Jp9gV" opacity="1" fill-opacity="0" stroke="#431111" stroke-width="20" stroke-opacity="1"></use></g><g><filter id="shadow15211360" x="1945.22" y="236.09" width="337.02" height="702.44" filterUnits="userSpaceOnUse" primitiveUnits="userSpaceOnUse"><feFlood></feFlood><feComposite in2="SourceAlpha" operator="out"></feComposite><feGaussianBlur stdDeviation="1"></feGaussianBlur><feOffset dx="5" dy="5" result="afterOffset"></feOffset><feFlood flood-color="#b15d5d" flood-opacity="0.92"></feFlood><feComposite in2="afterOffset" operator="in"></feComposite><feMorphology operator="dilate" radius="1"></feMorphology><feComposite in2="SourceAlpha" operator="in"></feComposite></filter><path d="M2250.82 917.78L2110.89 919.17L1970.95 920.53L1958.22 583.71L2103.6 249.09L2264.24 503.78L2250.82 917.78Z" id="b48brqpBWs" fill="white" fill-opacity="1" filter="url(#shadow15211360)"></path></g></g><g><use xlink:href="#a3Z052j4OE" opacity="1" fill="#ecb3b3" fill-opacity="1"></use><g><use xlink:href="#a3Z052j4OE" opacity="1" fill-opacity="0" stroke="#431111" stroke-width="20" stroke-opacity="1"></use></g></g><g><use xlink:href="#cCnFX9rkb" opacity="1" fill="#ecb3b3" fill-opacity="1"></use><g><use xlink:href="#cCnFX9rkb" opacity="1" fill-opacity="0" stroke="#541919" stroke-width="20" stroke-opacity="0"></use></g></g><g><use xlink:href="#a3mXRT9bq" opacity="1" fill="#ecb3b3" fill-opacity="1"></use><g><use xlink:href="#a3mXRT9bq" opacity="1" fill-opacity="0" stroke="#541919" stroke-width="20" stroke-opacity="0"></use></g></g><g><use xlink:href="#b6zyirVeTw" opacity="1" fill="#ecb3b3" fill-opacity="1"></use><g><use xlink:href="#b6zyirVeTw" opacity="1" fill-opacity="0" stroke="#541919" stroke-width="20" stroke-opacity="0"></use></g></g><g><g><filter id="shadow2252749" x="123.35" y="1061.09" width="909.72" height="758.47" filterUnits="userSpaceOnUse" primitiveUnits="userSpaceOnUse"><feFlood></feFlood><feComposite in2="SourceAlpha" operator="in"></feComposite><feGaussianBlur stdDeviation="1"></feGaussianBlur><feOffset dx="0" dy="6" result="afterOffset"></feOffset><feFlood flood-color="#b74f4f" flood-opacity="0.5"></feFlood><feComposite in2="afterOffset" operator="in"></feComposite><feMorphology operator="dilate" radius="4"></feMorphology><feComposite in2="SourceAlpha" operator="out"></feComposite></filter><path d="M458.11 1377.78L459.41 1379.7L462.44 1384.59L465.23 1389.57L467.8 1394.63L470.13 1399.76L472.23 1404.97L474.11 1410.24L475.75 1415.56L477.18 1420.94L478.38 1426.35L479.36 1431.81L480.11 1437.29L480.65 1442.8L480.97 1448.32L481.07 1453.86L480.95 1459.4L480.62 1464.93L480.08 1470.46L479.32 1475.97L478.35 1481.46L477.18 1486.93L475.79 1492.35L474.2 1497.74L472.4 1503.08L470.39 1508.36L468.19 1513.58L465.78 1518.73L463.17 1523.81L460.36 1528.81L457.35 1533.73L454.15 1538.54L450.75 1543.26L447.15 1547.87L443.36 1552.37L439.38 1556.75L435.21 1561.01L430.85 1565.13L426.31 1569.11L421.57 1572.94L416.65 1576.63L411.59 1580.12L406.45 1583.38L401.24 1586.42L395.95 1589.24L390.6 1591.83L385.98 1593.86L411.26 1646.94L480.51 1792.35L337.19 1794.46L193.88 1796.56L267.93 1649.04L291.73 1601.62L290.85 1601.42L285.53 1599.94L280.27 1598.26L275.1 1596.38L270 1594.3L264.98 1592.01L260.07 1589.52L255.25 1586.83L250.53 1583.93L245.93 1580.84L241.45 1577.56L237.1 1574.07L232.88 1570.39L228.79 1566.51L224.85 1562.44L221.07 1558.18L217.44 1553.72L213.98 1549.07L210.72 1544.27L207.69 1539.38L204.9 1534.41L202.34 1529.34L200.01 1524.21L197.9 1519L196.03 1513.73L194.38 1508.41L192.96 1503.04L191.76 1497.62L190.78 1492.16L190.02 1486.68L189.48 1481.17L189.17 1475.65L189.07 1470.11L189.18 1464.57L189.51 1459.04L190.06 1453.51L190.81 1448L191.78 1442.51L192.96 1437.05L194.34 1431.62L195.93 1426.23L197.73 1420.9L199.74 1415.62L201.94 1410.39L204.35 1405.24L206.96 1400.16L209.77 1395.16L212.78 1390.25L215.98 1385.43L219.38 1380.71L222.98 1376.1L223.18 1375.86L140.35 1277.41L368.67 1085.33L549.8 1300.64L458.11 1377.78ZM924.37 1370.55L925.68 1372.46L928.7 1377.36L931.5 1382.33L934.06 1387.39L936.39 1392.53L938.49 1397.74L940.37 1403.01L942.02 1408.33L943.44 1413.7L944.64 1419.12L945.62 1424.58L946.38 1430.06L946.91 1435.57L947.23 1441.09L947.33 1446.63L947.21 1452.17L946.88 1457.7L946.34 1463.23L945.58 1468.74L944.62 1474.23L943.44 1479.69L942.05 1485.12L940.46 1490.51L938.66 1495.84L936.66 1501.13L934.45 1506.35L932.04 1511.5L929.43 1516.58L926.62 1521.58L923.61 1526.49L920.41 1531.31L917.01 1536.03L913.41 1540.64L909.63 1545.14L905.65 1549.52L901.48 1553.77L897.12 1557.89L892.57 1561.87L887.83 1565.71L882.91 1569.39L877.86 1572.88L872.72 1576.15L867.5 1579.19L862.21 1582.01L856.86 1584.6L852.24 1586.63L877.52 1639.71L946.77 1785.11L803.46 1787.23L660.14 1789.33L734.19 1641.81L757.99 1594.39L757.11 1594.18L751.79 1592.71L746.54 1591.03L741.36 1589.15L736.26 1587.06L731.25 1584.77L726.33 1582.28L721.51 1579.59L716.8 1576.7L712.2 1573.61L707.71 1570.32L703.36 1566.84L699.14 1563.16L695.05 1559.28L691.12 1555.21L687.33 1550.94L683.7 1546.49L680.24 1541.84L676.98 1537.04L673.96 1532.15L671.16 1527.17L668.6 1522.11L666.27 1516.98L664.17 1511.77L662.29 1506.5L660.64 1501.18L659.22 1495.8L658.02 1490.39L657.04 1484.93L656.28 1479.45L655.75 1473.94L655.43 1468.42L655.33 1462.88L655.44 1457.34L655.77 1451.81L656.32 1446.28L657.07 1440.77L658.04 1435.28L659.22 1429.81L660.6 1424.39L662.2 1419L664 1413.67L666 1408.38L668.21 1403.16L670.61 1398.01L673.22 1392.93L676.03 1387.93L679.04 1383.02L682.24 1378.2L685.64 1373.48L689.24 1368.87L689.44 1368.63L606.61 1270.17L834.93 1078.09L1016.07 1293.4L924.37 1370.55Z" id="a1MDts7DI" fill="white" fill-opacity="1" filter="url(#shadow2252749)"></path></g><use xlink:href="#aXOerCBVm" opacity="1" fill="#c94e4e" fill-opacity="1"></use><g><use xlink:href="#aXOerCBVm" opacity="1" fill-opacity="0" stroke="#360606" stroke-width="20" stroke-opacity="0.95"></use></g><g><filter id="shadow1123752" x="120.35" y="1058.09" width="927.72" height="762.47" filterUnits="userSpaceOnUse" primitiveUnits="userSpaceOnUse"><feFlood></feFlood><feComposite in2="SourceAlpha" operator="out"></feComposite><feGaussianBlur stdDeviation="1"></feGaussianBlur><feOffset dx="12" dy="4" result="afterOffset"></feOffset><feFlood flood-color="#110e40" flood-opacity="0.5"></feFlood><feComposite in2="afterOffset" operator="in"></feComposite><feMorphology operator="dilate" radius="1"></feMorphology><feComposite in2="SourceAlpha" operator="in"></feComposite></filter><path d="M458.11 1377.78L459.41 1379.7L462.44 1384.59L465.23 1389.57L467.8 1394.63L470.13 1399.76L472.23 1404.97L474.11 1410.24L475.75 1415.56L477.18 1420.94L478.38 1426.35L479.36 1431.81L480.11 1437.29L480.65 1442.8L480.97 1448.32L481.07 1453.86L480.95 1459.4L480.62 1464.93L480.08 1470.46L479.32 1475.97L478.35 1481.46L477.18 1486.93L475.79 1492.35L474.2 1497.74L472.4 1503.08L470.39 1508.36L468.19 1513.58L465.78 1518.73L463.17 1523.81L460.36 1528.81L457.35 1533.73L454.15 1538.54L450.75 1543.26L447.15 1547.87L443.36 1552.37L439.38 1556.75L435.21 1561.01L430.85 1565.13L426.31 1569.11L421.57 1572.94L416.65 1576.63L411.59 1580.12L406.45 1583.38L401.24 1586.42L395.95 1589.24L390.6 1591.83L385.98 1593.86L411.26 1646.94L480.51 1792.35L337.19 1794.46L193.88 1796.56L267.93 1649.04L291.73 1601.62L290.85 1601.42L285.53 1599.94L280.27 1598.26L275.1 1596.38L270 1594.3L264.98 1592.01L260.07 1589.52L255.25 1586.83L250.53 1583.93L245.93 1580.84L241.45 1577.56L237.1 1574.07L232.88 1570.39L228.79 1566.51L224.85 1562.44L221.07 1558.18L217.44 1553.72L213.98 1549.07L210.72 1544.27L207.69 1539.38L204.9 1534.41L202.34 1529.34L200.01 1524.21L197.9 1519L196.03 1513.73L194.38 1508.41L192.96 1503.04L191.76 1497.62L190.78 1492.16L190.02 1486.68L189.48 1481.17L189.17 1475.65L189.07 1470.11L189.18 1464.57L189.51 1459.04L190.06 1453.51L190.81 1448L191.78 1442.51L192.96 1437.05L194.34 1431.62L195.93 1426.23L197.73 1420.9L199.74 1415.62L201.94 1410.39L204.35 1405.24L206.96 1400.16L209.77 1395.16L212.78 1390.25L215.98 1385.43L219.38 1380.71L222.98 1376.1L223.18 1375.86L140.35 1277.41L368.67 1085.33L549.8 1300.64L458.11 1377.78ZM924.37 1370.55L925.68 1372.46L928.7 1377.36L931.5 1382.33L934.06 1387.39L936.39 1392.53L938.49 1397.74L940.37 1403.01L942.02 1408.33L943.44 1413.7L944.64 1419.12L945.62 1424.58L946.38 1430.06L946.91 1435.57L947.23 1441.09L947.33 1446.63L947.21 1452.17L946.88 1457.7L946.34 1463.23L945.58 1468.74L944.62 1474.23L943.44 1479.69L942.05 1485.12L940.46 1490.51L938.66 1495.84L936.66 1501.13L934.45 1506.35L932.04 1511.5L929.43 1516.58L926.62 1521.58L923.61 1526.49L920.41 1531.31L917.01 1536.03L913.41 1540.64L909.63 1545.14L905.65 1549.52L901.48 1553.77L897.12 1557.89L892.57 1561.87L887.83 1565.71L882.91 1569.39L877.86 1572.88L872.72 1576.15L867.5 1579.19L862.21 1582.01L856.86 1584.6L852.24 1586.63L877.52 1639.71L946.77 1785.11L803.46 1787.23L660.14 1789.33L734.19 1641.81L757.99 1594.39L757.11 1594.18L751.79 1592.71L746.54 1591.03L741.36 1589.15L736.26 1587.06L731.25 1584.77L726.33 1582.28L721.51 1579.59L716.8 1576.7L712.2 1573.61L707.71 1570.32L703.36 1566.84L699.14 1563.16L695.05 1559.28L691.12 1555.21L687.33 1550.94L683.7 1546.49L680.24 1541.84L676.98 1537.04L673.96 1532.15L671.16 1527.17L668.6 1522.11L666.27 1516.98L664.17 1511.77L662.29 1506.5L660.64 1501.18L659.22 1495.8L658.02 1490.39L657.04 1484.93L656.28 1479.45L655.75 1473.94L655.43 1468.42L655.33 1462.88L655.44 1457.34L655.77 1451.81L656.32 1446.28L657.07 1440.77L658.04 1435.28L659.22 1429.81L660.6 1424.39L662.2 1419L664 1413.67L666 1408.38L668.21 1403.16L670.61 1398.01L673.22 1392.93L676.03 1387.93L679.04 1383.02L682.24 1378.2L685.64 1373.48L689.24 1368.87L689.44 1368.63L606.61 1270.17L834.93 1078.09L1016.07 1293.4L924.37 1370.55Z" id="b4qLdIzhm" fill="white" fill-opacity="1" filter="url(#shadow1123752)"></path></g></g><g><g><use xlink:href="#c49B3Brxs" opacity="1" fill="#ecb3b3" fill-opacity="1"></use><g><use xlink:href="#c49B3Brxs" opacity="1" fill-opacity="0" stroke="#431111" stroke-width="20" stroke-opacity="1"></use></g></g><g><use xlink:href="#b3wsts7707" opacity="1" fill="#ecb3b3" fill-opacity="1"></use><g><use xlink:href="#b3wsts7707" opacity="1" fill-opacity="0" stroke="#431111" stroke-width="20" stroke-opacity="1"></use></g></g><g><use xlink:href="#aeOUyJeHW" opacity="1" fill="#ecb3b3" fill-opacity="1"></use><g><use xlink:href="#aeOUyJeHW" opacity="1" fill-opacity="0" stroke="#431111" stroke-width="20" stroke-opacity="1"></use></g></g></g><g><g><use xlink:href="#bwn1a24Du" opacity="1" fill="#ecb3b3" fill-opacity="1"></use><g><use xlink:href="#bwn1a24Du" opacity="1" fill-opacity="0" stroke="#431111" stroke-width="20" stroke-opacity="1"></use></g></g><g><use xlink:href="#bCsdZ6l5Q" opacity="1" fill="#ecb3b3" fill-opacity="1"></use><g><use xlink:href="#bCsdZ6l5Q" opacity="1" fill-opacity="0" stroke="#431111" stroke-width="20" stroke-opacity="1"></use></g></g><g><use xlink:href="#a1xX1wpXnO" opacity="1" fill="#ecb3b3" fill-opacity="1"></use><g><use xlink:href="#a1xX1wpXnO" opacity="1" fill-opacity="0" stroke="#431111" stroke-width="20" stroke-opacity="1"></use></g></g></g><g><g><filter id="shadow12945638" x="561.21" y="169.69" width="491.9" height="366.21" filterUnits="userSpaceOnUse" primitiveUnits="userSpaceOnUse"><feFlood></feFlood><feComposite in2="SourceAlpha" operator="in"></feComposite><feGaussianBlur stdDeviation="1"></feGaussianBlur><feOffset dx="0" dy="6" result="afterOffset"></feOffset><feFlood flood-color="#b74f4f" flood-opacity="0.5"></feFlood><feComposite in2="afterOffset" operator="in"></feComposite><feMorphology operator="dilate" radius="4"></feMorphology><feComposite in2="SourceAlpha" operator="out"></feComposite></filter><path d="M931.82 510.03L929.69 506.87L925.91 501.78L921.95 496.9L917.8 492.23L913.48 487.79L908.99 483.56L904.34 479.56L899.54 475.78L894.59 472.22L889.51 468.88L884.29 465.76L878.95 462.87L873.5 460.21L867.94 457.77L862.27 455.56L856.51 453.57L850.67 451.82L844.75 450.29L838.75 449L832.69 447.94L826.57 447.1L820.4 446.51L814.19 446.14L807.94 446.01L801.67 446.12L795.37 446.46L789.06 447.04L782.74 447.86L776.43 448.92L770.12 450.21L763.83 451.75L757.56 453.53L751.32 455.55L745.12 457.82L738.96 460.32L732.85 463.08L726.81 466.08L720.83 469.32L714.92 472.82L709.1 476.56L703.36 480.55L697.78 484.75L692.4 489.12L687.22 493.64L682.25 498.32L677.49 503.13L672.95 508.09L668.84 512.9L578.21 405.17L837.91 186.69L1036.11 422.29L931.82 510.03Z" id="bFJ7vUyRg" fill="white" fill-opacity="1" filter="url(#shadow12945638)"></path></g><use xlink:href="#a8cuL2Eqg1" opacity="1" fill="#ecb3b3" fill-opacity="1"></use><g><use xlink:href="#a8cuL2Eqg1" opacity="1" fill-opacity="0" stroke="#ce4242" stroke-width="20" stroke-opacity="0"></use></g><g><filter id="shadow12648631" x="558.21" y="166.69" width="509.9" height="370.21" filterUnits="userSpaceOnUse" primitiveUnits="userSpaceOnUse"><feFlood></feFlood><feComposite in2="SourceAlpha" operator="out"></feComposite><feGaussianBlur stdDeviation="1"></feGaussianBlur><feOffset dx="12" dy="4" result="afterOffset"></feOffset><feFlood flood-color="#110e40" flood-opacity="0.5"></feFlood><feComposite in2="afterOffset" operator="in"></feComposite><feMorphology operator="dilate" radius="1"></feMorphology><feComposite in2="SourceAlpha" operator="in"></feComposite></filter><path d="M931.82 510.03L929.69 506.87L925.91 501.78L921.95 496.9L917.8 492.23L913.48 487.79L908.99 483.56L904.34 479.56L899.54 475.78L894.59 472.22L889.51 468.88L884.29 465.76L878.95 462.87L873.5 460.21L867.94 457.77L862.27 455.56L856.51 453.57L850.67 451.82L844.75 450.29L838.75 449L832.69 447.94L826.57 447.1L820.4 446.51L814.19 446.14L807.94 446.01L801.67 446.12L795.37 446.46L789.06 447.04L782.74 447.86L776.43 448.92L770.12 450.21L763.83 451.75L757.56 453.53L751.32 455.55L745.12 457.82L738.96 460.32L732.85 463.08L726.81 466.08L720.83 469.32L714.92 472.82L709.1 476.56L703.36 480.55L697.78 484.75L692.4 489.12L687.22 493.64L682.25 498.32L677.49 503.13L672.95 508.09L668.84 512.9L578.21 405.17L837.91 186.69L1036.11 422.29L931.82 510.03Z" id="fDyuR13eO" fill="white" fill-opacity="1" filter="url(#shadow12648631)"></path></g></g><g><use xlink:href="#c2So9b73ys" opacity="1" fill="#ecb3b3" fill-opacity="1"></use><g><use xlink:href="#c2So9b73ys" opacity="1" fill-opacity="0" stroke="#431111" stroke-width="20" stroke-opacity="1"></use></g></g><g><use xlink:href="#hazaCRgWOo" opacity="1" fill="#ecb3b3" fill-opacity="1"></use><g><use xlink:href="#hazaCRgWOo" opacity="1" fill-opacity="0" stroke="#431111" stroke-width="20" stroke-opacity="1"></use></g></g><g><use xlink:href="#e4usEEZ8kF" opacity="1" fill="#ecb3b3" fill-opacity="1"></use><g><use xlink:href="#e4usEEZ8kF" opacity="1" fill-opacity="0" stroke="#431111" stroke-width="20" stroke-opacity="1"></use></g></g><g><use xlink:href="#cnlq1egqi" opacity="1" fill="#ecb3b3" fill-opacity="1"></use><g><use xlink:href="#cnlq1egqi" opacity="1" fill-opacity="0" stroke="#431111" stroke-width="20" stroke-opacity="1"></use></g></g></g></g></svg>