<?xml version="1.0" encoding="UTF-8" standalone="no"?>
<!DOCTYPE svg PUBLIC "-//W3C//DTD SVG 1.1//EN" "http://www.w3.org/Graphics/SVG/1.1/DTD/svg11.dtd">
<svg version="1.1" xmlns="http://www.w3.org/2000/svg" xmlns:xlink="http://www.w3.org/1999/xlink" preserveAspectRatio="xMidYMid meet" viewBox="0 0 2640 1030.24" width="2640" height="1030.24"><defs><path d="M600.63 1030.24L600.63 8.7L1031.25 0L1031.25 1030.24L600.63 1030.24ZM1599.69 1014.63L1599.69 579.42L1599.77 577.89L1600 563.48L1599.77 549.06L1599.69 547.53L1599.69 -6.91L2030.31 -15.61L2030.31 1014.63L1599.69 1014.63ZM1342.95 214.64L1354.24 216.07L1365.39 218.06L1376.4 220.59L1387.25 223.66L1397.94 227.24L1408.46 231.33L1418.8 235.92L1428.94 241L1438.89 246.55L1448.63 252.57L1458.15 259.04L1467.45 265.95L1476.51 273.29L1485.32 281.04L1493.88 289.21L1502.18 297.77L1510.21 306.72L1517.95 316.04L1525.41 325.72L1532.56 335.75L1539.41 346.13L1545.95 356.83L1552.15 367.85L1558.02 379.17L1563.55 390.79L1568.73 402.69L1573.54 414.86L1577.98 427.3L1582.04 439.98L1585.72 452.9L1588.99 466.05L1591.86 479.41L1594.31 492.98L1596.33 506.74L1597.92 520.68L1599.07 534.79L1599.69 547.53L1599.69 579.42L1599.07 592.16L1597.92 606.28L1596.33 620.22L1594.31 633.98L1591.86 647.54L1588.99 660.91L1585.72 674.05L1582.04 686.97L1577.98 699.66L1573.54 712.09L1568.73 724.26L1563.55 736.17L1558.02 747.78L1552.15 759.11L1545.95 770.13L1539.41 780.83L1532.56 791.2L1525.41 801.23L1517.95 810.92L1510.21 820.24L1502.18 829.18L1493.88 837.74L1485.32 845.91L1476.51 853.67L1467.45 861.01L1458.15 867.92L1448.63 874.39L1438.89 880.4L1428.94 885.95L1418.8 891.03L1408.46 895.62L1397.94 899.71L1387.25 903.3L1376.4 906.36L1365.39 908.89L1354.24 910.88L1342.95 912.32L1331.53 913.18L1320 913.48L1308.47 913.18L1297.05 912.32L1285.76 910.88L1274.61 908.89L1263.6 906.36L1252.75 903.3L1242.06 899.71L1231.54 895.62L1221.2 891.03L1211.06 885.95L1201.11 880.4L1191.37 874.39L1181.85 867.92L1172.55 861.01L1163.49 853.67L1154.68 845.91L1146.12 837.74L1137.82 829.18L1129.79 820.24L1122.05 810.92L1114.59 801.23L1107.44 791.2L1100.59 780.83L1094.05 770.13L1087.85 759.11L1081.98 747.78L1076.45 736.17L1071.27 724.26L1066.46 712.09L1062.02 699.66L1057.96 686.97L1054.28 674.05L1051.01 660.91L1048.14 647.54L1045.69 633.98L1043.67 620.22L1042.08 606.28L1040.93 592.16L1040.23 577.89L1040 563.48L1040.23 549.06L1040.93 534.79L1042.08 520.68L1043.67 506.74L1045.69 492.98L1048.14 479.41L1051.01 466.05L1054.28 452.9L1057.96 439.98L1062.02 427.3L1066.46 414.86L1071.27 402.69L1076.45 390.79L1081.98 379.17L1087.85 367.85L1094.05 356.83L1100.59 346.13L1107.44 335.75L1114.59 325.72L1122.05 316.04L1129.79 306.72L1137.82 297.77L1146.12 289.21L1154.68 281.04L1163.49 273.29L1172.55 265.95L1181.85 259.04L1191.37 252.57L1201.11 246.55L1211.06 241L1221.2 235.92L1231.54 231.33L1242.06 227.24L1252.75 223.66L1263.6 220.59L1274.61 218.06L1285.76 216.07L1297.05 214.64L1308.47 213.77L1320 213.48L1331.53 213.77L1342.95 214.64ZM2387.47 901.46L2598.75 643.9L2598.75 901.46L2387.47 901.46ZM41.25 901.46L41.25 643.9L252.53 901.46L41.25 901.46ZM426.48 772.74L428.44 772.99L430.37 773.34L432.28 773.77L434.16 774.29L436 774.89L437.82 775.58L439.61 776.34L441.36 777.19L443.08 778.11L444.76 779.11L446.4 780.17L448 781.32L449.56 782.53L451.08 783.8L452.55 785.15L453.97 786.56L455.35 788.03L456.68 789.56L457.96 791.15L459.18 792.79L460.35 794.49L461.47 796.24L462.53 798.05L463.53 799.9L464.47 801.8L465.34 803.74L466.16 805.73L466.91 807.76L467.59 809.83L468.21 811.94L468.75 814.08L469.23 816.26L469.63 818.47L469.96 820.71L470.21 822.98L470.38 825.28L470.48 827.6L470.5 829.95L470.43 832.29L470.29 834.61L470.06 836.9L469.76 839.17L469.39 841.4L468.94 843.6L468.42 845.77L467.83 847.9L467.17 850L466.44 852.05L465.65 854.07L464.79 856.04L463.87 857.96L462.9 859.84L461.86 861.67L460.76 863.45L459.61 865.18L458.4 866.85L457.14 868.47L455.83 870.03L454.47 871.53L453.06 872.97L451.61 874.35L450.11 875.66L448.57 876.91L446.98 878.08L445.36 879.19L443.69 880.22L441.99 881.18L440.26 882.07L438.49 882.87L436.68 883.6L434.85 884.25L432.99 884.81L431.1 885.29L429.19 885.68L427.25 885.98L425.29 886.19L423.3 886.31L421.3 886.34L419.3 886.27L417.32 886.11L415.36 885.85L413.43 885.51L411.53 885.08L409.65 884.56L407.8 883.95L405.98 883.27L404.19 882.5L402.44 881.66L400.72 880.74L399.04 879.74L397.4 878.67L395.8 877.53L394.24 876.32L392.73 875.04L391.25 873.7L389.83 872.29L388.45 870.82L387.12 869.29L385.84 867.7L384.62 866.06L383.45 864.36L382.33 862.6L381.27 860.8L380.27 858.95L379.34 857.05L378.46 855.1L377.64 853.11L376.89 851.08L376.21 849.01L375.6 846.91L375.05 844.76L374.57 842.58L374.17 840.37L373.84 838.13L373.59 835.86L373.42 833.56L373.32 831.24L373.31 828.9L373.37 826.55L373.52 824.23L373.74 821.94L374.04 819.68L374.41 817.44L374.86 815.24L375.38 813.07L375.97 810.94L376.63 808.85L377.36 806.79L378.15 804.78L379.01 802.81L379.93 800.88L380.91 799L381.94 797.17L383.04 795.39L384.19 793.67L385.4 791.99L386.66 790.37L387.97 788.81L389.33 787.31L390.74 785.87L392.19 784.5L393.69 783.18L395.24 781.94L396.82 780.76L398.45 779.66L400.11 778.62L401.81 777.66L403.55 776.78L405.32 775.97L407.12 775.24L408.95 774.6L410.81 774.04L412.7 773.56L414.61 773.17L416.55 772.86L418.52 772.65L420.5 772.53L422.5 772.51L424.5 772.58L426.48 772.74ZM1727.51 833.39L1751.57 877.99L1774.68 832.88L1797.78 787.76L1703.46 788.78L1727.51 833.39ZM1867.34 838.02L1889.85 877.99L1912.36 838.02L1934.86 798.05L1844.83 798.05L1867.34 838.02ZM1390.25 780.97L1381.75 789.45L1372.94 797.59L1363.84 805.38L1354.44 812.8L1344.77 819.86L1334.83 826.53L1324.63 832.82L1322.16 834.21L1322.51 835L1323.45 836.9L1324.45 838.75L1325.51 840.55L1326.62 842.31L1327.8 844.01L1329.02 845.65L1330.3 847.24L1331.63 848.77L1333 850.24L1334.43 851.65L1335.9 852.99L1337.42 854.27L1338.98 855.48L1340.58 856.62L1342.22 857.69L1343.9 858.69L1345.62 859.61L1347.37 860.45L1349.16 861.22L1350.97 861.91L1352.82 862.51L1354.7 863.03L1356.61 863.46L1358.54 863.8L1360.5 864.06L1362.48 864.22L1364.48 864.29L1366.48 864.26L1368.46 864.14L1370.42 863.93L1372.36 863.63L1374.28 863.24L1376.17 862.76L1378.03 862.2L1379.86 861.55L1381.66 860.83L1383.43 860.02L1385.17 859.13L1386.87 858.17L1388.53 857.14L1390.16 856.03L1391.74 854.86L1393.29 853.61L1394.79 852.3L1396.24 850.92L1397.65 849.48L1399.01 847.98L1400.32 846.42L1401.58 844.8L1402.79 843.13L1403.94 841.4L1405.03 839.62L1406.07 837.79L1407.05 835.91L1407.97 833.99L1408.83 832.02L1409.62 830L1410.34 827.95L1411 825.85L1411.59 823.72L1412.12 821.55L1412.56 819.35L1412.94 817.12L1413.24 814.86L1413.46 812.56L1413.61 810.24L1413.67 807.9L1413.66 805.55L1413.56 803.23L1413.39 800.94L1413.13 798.67L1412.81 796.42L1412.4 794.21L1411.93 792.03L1411.38 789.89L1410.77 787.78L1410.08 785.71L1409.34 783.68L1408.52 781.69L1407.64 779.75L1406.7 777.85L1405.7 776L1404.65 774.19L1403.53 772.44L1402.36 770.74L1401.13 769.1L1401.11 769.06L1398.43 772.17L1390.25 780.97ZM1225.36 779.19L1224.63 781.24L1223.98 783.34L1223.38 785.47L1222.86 787.64L1222.42 789.84L1222.04 792.07L1221.74 794.34L1221.52 796.63L1221.37 798.95L1221.31 801.29L1221.32 803.64L1221.42 805.96L1221.59 808.26L1221.85 810.53L1222.17 812.77L1222.58 814.98L1223.05 817.16L1223.6 819.3L1224.21 821.41L1224.89 823.48L1225.64 825.51L1226.46 827.5L1227.34 829.44L1228.28 831.34L1229.28 833.2L1230.33 835L1231.45 836.75L1232.62 838.45L1233.84 840.1L1235.12 841.69L1236.45 843.22L1237.83 844.69L1239.25 846.09L1240.73 847.44L1242.24 848.72L1243.8 849.93L1245.4 851.07L1247.04 852.14L1248.72 853.13L1250.44 854.05L1252.19 854.9L1253.98 855.67L1255.8 856.35L1257.65 856.95L1259.53 857.47L1261.43 857.9L1263.36 858.25L1265.32 858.5L1267.3 858.67L1269.3 858.73L1271.3 858.71L1273.29 858.59L1275.25 858.38L1277.19 858.07L1279.1 857.68L1280.99 857.21L1282.85 856.64L1284.69 856L1286.49 855.27L1288.26 854.46L1289.99 853.58L1291.69 852.62L1293.36 851.59L1294.98 850.48L1296.57 849.3L1298.11 848.06L1299.61 846.75L1301.06 845.37L1301.52 844.91L1295.23 840.69L1285.56 833.63L1276.16 826.2L1267.06 818.42L1258.25 810.28L1249.75 801.8L1241.57 793L1233.71 783.87L1226.94 775.37L1226.15 777.18L1225.36 779.19ZM757.52 854.27L781.57 809.66L805.62 765.06L711.3 764.04L734.41 809.15L757.52 854.27ZM858.56 814.3L881.07 854.27L903.58 814.3L926.08 774.33L836.06 774.33L858.56 814.3ZM215.31 837.07L215.31 634.18L362.2 837.07L215.31 837.07ZM2286.86 837.07L2433.75 634.18L2433.75 837.07L2286.86 837.07ZM2215.39 722.14L2217.35 722.39L2219.28 722.73L2221.18 723.17L2223.06 723.69L2224.91 724.29L2226.73 724.97L2228.52 725.74L2230.27 726.58L2231.99 727.51L2233.67 728.5L2235.31 729.57L2236.91 730.71L2238.47 731.92L2239.98 733.2L2241.46 734.55L2242.88 735.95L2244.26 737.42L2245.59 738.95L2246.87 740.54L2248.09 742.19L2249.26 743.89L2250.38 745.64L2251.44 747.44L2252.43 749.3L2253.37 751.19L2254.25 753.14L2255.07 755.13L2255.82 757.16L2256.5 759.23L2257.11 761.34L2257.66 763.48L2258.13 765.66L2258.54 767.87L2258.86 770.11L2259.12 772.38L2259.29 774.68L2259.39 777L2259.4 779.35L2259.34 781.69L2259.19 784.01L2258.97 786.3L2258.67 788.57L2258.3 790.8L2257.85 793L2257.33 795.17L2256.74 797.3L2256.08 799.39L2255.35 801.45L2254.56 803.46L2253.7 805.43L2252.78 807.36L2251.8 809.24L2250.76 811.07L2249.67 812.85L2248.52 814.58L2247.31 816.25L2246.05 817.87L2244.74 819.43L2243.38 820.93L2241.97 822.37L2240.52 823.75L2239.02 825.06L2237.47 826.3L2235.89 827.48L2234.26 828.59L2232.6 829.62L2230.9 830.58L2229.16 831.47L2227.39 832.27L2225.59 833L2223.76 833.64L2221.9 834.21L2220.01 834.69L2218.09 835.08L2216.16 835.38L2214.19 835.59L2212.21 835.71L2210.21 835.74L2208.21 835.67L2206.23 835.5L2204.27 835.25L2202.34 834.91L2200.43 834.47L2198.55 833.95L2196.71 833.35L2194.89 832.67L2193.1 831.9L2191.35 831.06L2189.63 830.13L2187.95 829.14L2186.31 828.07L2184.71 826.93L2183.15 825.72L2181.63 824.44L2180.16 823.09L2178.74 821.69L2177.36 820.22L2176.03 818.69L2174.75 817.1L2173.53 815.45L2172.36 813.75L2171.24 812L2170.18 810.2L2169.18 808.35L2168.24 806.45L2167.37 804.5L2166.55 802.51L2165.8 800.48L2165.12 798.41L2164.5 796.3L2163.96 794.16L2163.48 791.98L2163.08 789.77L2162.75 787.53L2162.5 785.26L2162.33 782.96L2162.23 780.64L2162.21 778.29L2162.28 775.95L2162.42 773.63L2162.65 771.34L2162.95 769.07L2163.32 766.84L2163.77 764.64L2164.29 762.47L2164.88 760.34L2165.54 758.25L2166.27 756.19L2167.06 754.18L2167.92 752.21L2168.83 750.28L2169.81 748.4L2170.85 746.57L2171.95 744.79L2173.1 743.06L2174.31 741.39L2175.57 739.77L2176.88 738.21L2178.24 736.71L2179.65 735.27L2181.1 733.89L2182.6 732.58L2184.14 731.34L2185.73 730.16L2187.35 729.05L2189.02 728.02L2190.72 727.06L2192.45 726.18L2194.22 725.37L2196.02 724.64L2197.86 724L2199.72 723.43L2201.61 722.96L2203.52 722.56L2205.46 722.26L2207.42 722.05L2209.41 721.93L2211.41 721.9L2213.41 721.97L2215.39 722.14ZM1884.89 683.19L1883.02 683.39L1881.17 683.68L1879.35 684.05L1877.55 684.49L1875.78 685.01L1874.04 685.61L1872.33 686.27L1870.65 687.01L1869 687.81L1867.38 688.68L1865.81 689.62L1864.27 690.62L1862.77 691.69L1861.31 692.81L1859.89 693.99L1858.51 695.23L1857.18 696.53L1855.9 697.88L1854.67 699.28L1853.48 700.74L1852.35 702.24L1851.26 703.79L1850.24 705.39L1849.26 707.03L1848.35 708.71L1847.49 710.44L1846.69 712.2L1845.96 714L1845.28 715.84L1844.68 717.71L1844.13 719.62L1843.66 721.55L1843.25 723.52L1842.92 725.51L1842.65 727.53L1842.46 729.58L1842.35 731.64L1842.31 733.73L1842.35 735.82L1842.46 737.89L1842.65 739.94L1842.92 741.96L1843.25 743.95L1843.66 745.91L1844.13 747.85L1844.68 749.76L1845.28 751.63L1845.96 753.47L1846.69 755.27L1847.49 757.03L1848.35 758.76L1849.26 760.44L1850.24 762.08L1851.26 763.68L1852.35 765.23L1853.48 766.73L1854.67 768.18L1855.9 769.59L1857.18 770.94L1858.51 772.23L1859.89 773.47L1861.31 774.66L1862.77 775.78L1864.27 776.85L1865.81 777.85L1867.38 778.78L1869 779.66L1870.65 780.46L1872.33 781.2L1874.04 781.86L1875.78 782.45L1877.55 782.97L1879.35 783.42L1881.17 783.78L1883.02 784.07L1884.89 784.28L1886.78 784.41L1888.69 784.45L1890.6 784.41L1892.49 784.28L1894.36 784.07L1896.21 783.78L1898.03 783.42L1899.83 782.97L1901.6 782.45L1903.35 781.86L1905.06 781.2L1906.74 780.46L1908.39 779.66L1910 778.78L1911.58 777.85L1913.12 776.85L1914.62 775.78L1916.08 774.66L1917.5 773.47L1918.87 772.23L1920.2 770.94L1921.48 769.59L1922.72 768.18L1923.9 766.73L1925.04 765.23L1926.12 763.68L1927.15 762.08L1928.12 760.44L1929.04 758.76L1929.89 757.03L1930.69 755.27L1931.43 753.47L1932.1 751.63L1932.71 749.76L1933.25 747.85L1933.73 745.91L1934.13 743.95L1934.47 741.96L1934.73 739.94L1934.92 737.89L1935.04 735.82L1935.07 733.73L1935.04 731.64L1934.92 729.58L1934.73 727.53L1934.47 725.51L1934.13 723.52L1933.73 721.55L1933.25 719.62L1932.71 717.71L1932.1 715.84L1931.43 714L1930.69 712.2L1929.89 710.44L1929.04 708.71L1928.12 707.03L1927.15 705.39L1926.12 703.79L1925.04 702.24L1923.9 700.74L1922.72 699.28L1921.48 697.88L1920.2 696.53L1918.87 695.23L1917.5 693.99L1916.08 692.81L1914.62 691.69L1913.12 690.62L1911.58 689.62L1910 688.68L1908.39 687.81L1906.74 687.01L1905.06 686.27L1903.35 685.61L1901.6 685.01L1899.83 684.49L1898.03 684.05L1896.21 683.68L1894.36 683.39L1892.49 683.19L1890.6 683.06L1888.69 683.02L1886.78 683.06L1884.89 683.19ZM485.33 700.61L490.21 711.92L495.49 722.99L501.17 733.82L507.24 744.38L513.68 754.68L520.49 764.7L527.66 774.44L534.88 783.5L464.72 782.74L465.67 693.02L482.47 693.2L485.33 700.61ZM1758.58 677.33L1754.55 689.08L1750.1 700.61L1745.22 711.92L1739.94 722.99L1734.26 733.82L1728.2 744.38L1721.75 754.68L1718.03 760.17L1718.94 761.03L1720.44 762.35L1721.98 763.59L1723.57 764.77L1725.19 765.87L1726.86 766.91L1728.56 767.87L1730.29 768.75L1732.06 769.56L1733.87 770.29L1735.7 770.93L1737.56 771.49L1739.45 771.97L1741.36 772.36L1743.3 772.67L1745.26 772.88L1747.25 773L1749.25 773.02L1751.25 772.95L1753.23 772.79L1755.19 772.54L1757.12 772.19L1759.03 771.76L1760.9 771.24L1762.75 770.64L1764.57 769.95L1766.36 769.19L1768.11 768.34L1769.83 767.42L1771.51 766.42L1773.15 765.36L1774.75 764.21L1776.31 763L1777.83 761.73L1779.3 760.38L1780.72 758.97L1782.1 757.5L1783.43 755.97L1784.71 754.39L1785.93 752.74L1787.1 751.04L1788.22 749.29L1789.28 747.48L1790.28 745.63L1791.21 743.73L1792.09 741.79L1792.91 739.8L1793.66 737.77L1794.34 735.7L1794.95 733.59L1795.5 731.45L1795.98 729.27L1796.38 727.06L1796.71 724.82L1796.96 722.55L1797.13 720.25L1797.23 717.93L1797.24 715.58L1797.18 713.24L1797.03 710.92L1796.81 708.63L1796.51 706.36L1796.14 704.13L1795.69 701.93L1795.17 699.76L1794.58 697.63L1793.92 695.53L1793.19 693.48L1792.4 691.46L1791.54 689.49L1790.62 687.57L1789.64 685.69L1788.61 683.86L1787.51 682.08L1786.36 680.35L1785.15 678.68L1783.89 677.06L1782.58 675.5L1781.22 674L1779.81 672.56L1778.36 671.18L1776.86 669.87L1775.31 668.62L1773.73 667.45L1772.1 666.34L1770.44 665.31L1768.74 664.35L1767 663.46L1765.23 662.66L1763.43 661.93L1763.1 661.81L1762.18 665.37L1758.58 677.33ZM1127.93 770.85L1180.57 770.85L1180.57 692.07L1180.12 690.91L1127.93 690.91L1127.93 770.85ZM878.43 659.47L876.56 659.67L874.71 659.96L872.88 660.33L871.09 660.77L869.32 661.29L867.57 661.88L865.86 662.55L864.18 663.29L862.53 664.09L860.92 664.96L859.34 665.9L857.8 666.9L856.3 667.96L854.84 669.09L853.42 670.27L852.05 671.51L850.72 672.81L849.44 674.16L848.2 675.56L847.02 677.01L845.88 678.52L844.8 680.07L843.77 681.66L842.8 683.31L841.88 684.99L841.03 686.71L840.23 688.48L839.49 690.28L838.82 692.12L838.21 693.99L837.67 695.89L837.19 697.83L836.79 699.8L836.45 701.79L836.19 703.81L836 705.85L835.88 707.92L835.84 710.01L835.88 712.1L836 714.17L836.19 716.21L836.45 718.23L836.79 720.23L837.19 722.19L837.67 724.13L838.21 726.03L838.82 727.91L839.49 729.74L840.23 731.55L841.03 733.31L841.88 735.03L842.8 736.72L843.77 738.36L844.8 739.96L845.88 741.51L847.02 743.01L848.2 744.46L849.44 745.87L850.72 747.22L852.05 748.51L853.42 749.75L854.84 750.94L856.3 752.06L857.8 753.12L859.34 754.13L860.92 755.06L862.53 755.93L864.18 756.74L865.86 757.47L867.57 758.14L869.32 758.73L871.09 759.25L872.88 759.7L874.71 760.06L876.56 760.35L878.43 760.56L880.32 760.68L882.23 760.73L884.14 760.68L886.03 760.56L887.9 760.35L889.75 760.06L891.57 759.7L893.37 759.25L895.14 758.73L896.88 758.14L898.59 757.47L900.27 756.74L901.92 755.93L903.53 755.06L905.11 754.13L906.65 753.12L908.15 752.06L909.61 750.94L911.03 749.75L912.4 748.51L913.73 747.22L915.02 745.87L916.25 744.46L917.44 743.01L918.57 741.51L919.66 739.96L920.68 738.36L920.98 737.87L918.25 733.86L911.8 723.56L905.74 712.99L900.06 702.16L894.78 691.09L889.9 679.78L885.45 668.25L882.38 659.3L882.23 659.3L880.32 659.34L878.43 659.47ZM757.05 635.61L755.08 635.83L753.15 636.13L751.23 636.52L749.34 637L747.48 637.56L745.65 638.21L743.85 638.93L742.08 639.74L740.34 640.62L738.64 641.58L736.98 642.62L735.35 643.72L733.77 644.9L732.22 646.15L730.72 647.46L729.27 648.84L727.86 650.27L726.5 651.78L725.19 653.34L723.93 654.95L722.72 656.63L721.57 658.36L720.48 660.14L719.44 661.97L718.46 663.85L717.54 665.77L716.68 667.74L715.89 669.76L715.16 671.81L714.51 673.9L713.91 676.04L713.39 678.2L712.95 680.41L712.57 682.64L712.27 684.9L712.05 687.2L711.9 689.52L711.84 691.86L711.85 694.2L711.95 696.53L712.12 698.82L712.38 701.09L712.7 703.34L713.11 705.55L713.58 707.72L714.13 709.87L714.74 711.98L715.42 714.05L716.17 716.08L716.99 718.07L717.87 720.01L718.81 721.91L719.81 723.76L720.86 725.57L721.98 727.32L723.15 729.02L724.37 730.66L725.65 732.25L726.98 733.78L728.36 735.25L729.78 736.66L731.26 738L732.77 739.28L734.33 740.49L735.93 741.63L737.57 742.7L739.25 743.7L740.97 744.62L742.72 745.47L744.51 746.23L746.33 746.92L748.18 747.52L750.06 748.04L751.96 748.47L753.89 748.82L755.85 749.07L757.83 749.23L759.83 749.3L761.83 749.28L763.82 749.16L765.78 748.94L767.72 748.64L769.63 748.25L771.52 747.77L773.38 747.21L775.22 746.56L777.02 745.84L778.79 745.03L780.52 744.15L782.22 743.19L783.89 742.15L785.51 741.05L787.1 739.87L788.64 738.62L790.14 737.31L791.59 735.94L793 734.5L794.36 732.99L795.67 731.43L796.93 729.82L798.14 728.14L799.29 726.41L800.39 724.63L801.43 722.8L802.41 720.92L803.32 719L804.18 717.03L804.97 715.01L805.7 712.96L806.36 710.87L806.95 708.73L807.47 706.57L807.92 704.36L808.29 702.13L808.59 699.87L808.82 697.57L808.96 695.25L809.03 692.91L809.01 690.57L808.91 688.24L808.74 685.95L808.49 683.68L808.16 681.44L807.76 679.22L807.28 677.05L806.74 674.9L806.12 672.79L805.44 670.72L804.69 668.69L803.87 666.7L803 664.76L802.06 662.86L801.06 661.01L800 659.2L798.88 657.45L797.71 655.75L796.49 654.11L795.21 652.52L793.88 650.99L792.5 649.52L791.08 648.11L789.61 646.77L788.09 645.49L786.53 644.28L784.93 643.14L783.29 642.07L781.61 641.07L779.89 640.15L778.14 639.3L776.35 638.54L774.54 637.85L772.69 637.25L770.81 636.73L768.9 636.3L766.97 635.96L765.01 635.7L763.03 635.54L761.03 635.47L759.03 635.5L757.05 635.61ZM2168.98 731.22L2128.24 730.78L2132.76 723.56L2138.83 712.99L2144.51 702.16L2149.79 691.09L2154.67 679.78L2159.12 668.25L2163.15 656.5L2166.75 644.54L2167.54 641.48L2169.93 641.5L2168.98 731.22ZM1471.36 632.39L1468.21 644.54L1464.62 656.5L1460.59 668.25L1456.13 679.78L1451.26 691.09L1445.97 702.16L1442.92 707.98L1512.07 707.98L1512.07 628.04L1472.3 628.04L1471.36 632.39ZM1329.45 429.12L1325.19 429.65L1320.98 430.38L1316.83 431.31L1312.74 432.44L1308.7 433.76L1304.73 435.27L1300.83 436.96L1297.01 438.82L1293.25 440.87L1289.58 443.08L1285.99 445.46L1282.48 448L1279.06 450.7L1275.74 453.56L1272.51 456.56L1269.38 459.71L1266.35 463L1263.43 466.43L1260.61 470L1257.91 473.69L1255.33 477.5L1252.86 481.44L1250.52 485.5L1248.31 489.66L1246.22 493.94L1244.27 498.32L1242.45 502.79L1240.78 507.37L1239.24 512.04L1237.86 516.79L1236.62 521.63L1235.54 526.54L1234.62 531.54L1233.85 536.6L1233.25 541.73L1232.82 546.92L1232.56 552.17L1232.47 557.48L1232.56 562.78L1232.82 568.03L1233.25 573.22L1233.85 578.35L1234.62 583.42L1235.54 588.41L1236.62 593.33L1237.86 598.16L1239.24 602.92L1240.78 607.58L1242.45 612.16L1244.27 616.64L1246.22 621.02L1248.31 625.29L1250.52 629.46L1252.86 633.51L1255.33 637.45L1257.91 641.27L1260.61 644.96L1263.43 648.52L1266.35 651.95L1269.38 655.24L1272.51 658.39L1275.74 661.4L1279.06 664.25L1282.48 666.95L1285.99 669.49L1289.58 671.87L1293.25 674.09L1297.01 676.13L1300.83 678L1304.73 679.69L1308.7 681.19L1312.74 682.51L1316.83 683.64L1320.98 684.57L1325.19 685.3L1329.45 685.83L1333.76 686.15L1338.11 686.26L1342.46 686.15L1346.77 685.83L1351.03 685.3L1355.24 684.57L1359.39 683.64L1363.48 682.51L1367.52 681.19L1371.49 679.69L1375.39 678L1379.21 676.13L1382.97 674.09L1386.64 671.87L1390.23 669.49L1393.74 666.95L1397.16 664.25L1400.48 661.4L1403.71 658.39L1406.84 655.24L1409.87 651.95L1412.79 648.52L1415.61 644.96L1416.38 643.9L1424 643.9L1424 632.4L1425.7 629.46L1427.91 625.29L1430 621.02L1431.95 616.64L1433.77 612.16L1435.44 607.58L1436.98 602.92L1438.36 598.16L1439.6 593.33L1440.68 588.41L1441.6 583.42L1442.37 578.35L1442.97 573.22L1443.4 568.03L1443.66 562.78L1443.75 557.48L1443.66 552.17L1443.4 546.92L1442.97 541.73L1442.37 536.6L1441.6 531.54L1440.68 526.54L1439.6 521.63L1438.36 516.79L1436.98 512.04L1435.44 507.37L1433.77 502.79L1431.95 498.32L1430 493.94L1427.91 489.66L1425.7 485.5L1423.36 481.44L1420.89 477.5L1418.31 473.69L1415.61 470L1412.79 466.43L1409.87 463L1406.84 459.71L1403.71 456.56L1400.48 453.56L1397.16 450.7L1393.74 448L1390.23 445.46L1386.64 443.08L1382.97 440.87L1379.21 438.82L1375.39 436.96L1371.49 435.27L1367.52 433.76L1363.48 432.44L1359.39 431.31L1355.24 430.38L1351.03 429.65L1346.77 429.12L1342.46 428.8L1338.11 428.7L1333.76 428.8L1329.45 429.12ZM438.93 573.27L440.77 573.48L442.6 573.76L444.42 574.1L446.23 574.53L448.04 575.02L449.83 575.58L451.61 576.21L453.36 576.91L455.1 577.68L456.82 578.51L458.51 579.42L460.18 580.39L461.26 581.08L461.43 589.87L462.19 602.85L463.45 615.68L465.2 628.36L467.42 640.87L470.11 653.21L471.85 659.92L471.61 660.15L470.19 661.41L468.7 662.63L467.16 663.77L465.59 664.84L463.98 665.83L462.34 666.74L460.68 667.58L458.98 668.34L457.27 669.02L455.53 669.62L453.77 670.15L452 670.61L450.21 670.99L448.4 671.29L446.59 671.52L444.76 671.68L442.93 671.76L441.1 671.77L439.26 671.71L437.43 671.58L435.59 671.37L433.76 671.09L431.94 670.74L430.13 670.32L428.32 669.83L426.53 669.27L424.76 668.64L423 667.94L421.26 667.17L419.54 666.33L417.85 665.43L416.18 664.45L414.54 663.41L412.93 662.3L411.35 661.13L409.81 659.88L408.31 658.58L406.84 657.2L405.42 655.76L404.04 654.26L402.7 652.69L401.41 651.06L400.19 649.38L399.03 647.67L397.95 645.93L396.95 644.17L396.01 642.38L395.15 640.57L394.36 638.74L393.64 636.9L393 635.04L392.43 633.17L391.93 631.28L391.5 629.39L391.14 627.5L390.85 625.6L390.63 623.7L390.49 621.8L390.41 619.9L390.41 618.01L390.47 616.12L390.61 614.25L390.81 612.38L391.09 610.54L391.43 608.7L391.84 606.89L392.32 605.1L392.87 603.33L393.49 601.58L394.18 599.87L394.93 598.18L395.75 596.52L396.64 594.9L397.6 593.32L398.62 591.77L399.71 590.27L400.87 588.81L402.1 587.39L403.39 586.02L404.75 584.7L406.17 583.43L407.66 582.22L409.2 581.07L410.77 580.01L412.38 579.02L414.02 578.1L415.69 577.27L417.38 576.51L419.09 575.83L420.83 575.22L422.59 574.69L424.36 574.24L426.16 573.86L427.96 573.55L429.77 573.32L431.6 573.17L433.43 573.08L435.26 573.07L437.1 573.14L438.93 573.27ZM1806.22 564.17L1804.38 564.38L1802.55 564.66L1800.73 565.01L1798.92 565.43L1797.11 565.92L1795.32 566.48L1793.55 567.11L1791.79 567.81L1790.05 568.58L1788.33 569.42L1786.64 570.32L1784.97 571.3L1783.33 572.34L1781.72 573.45L1780.14 574.62L1778.6 575.87L1777.1 577.17L1775.63 578.55L1774.21 579.99L1774.2 580L1774 589.87L1773.24 602.85L1771.98 615.68L1770.24 628.36L1768.01 640.87L1767.36 643.89L1767.41 643.98L1768.5 645.48L1769.66 646.94L1770.89 648.36L1772.18 649.73L1773.54 651.05L1774.96 652.32L1776.45 653.53L1777.99 654.68L1779.56 655.74L1781.17 656.73L1782.81 657.65L1784.48 658.48L1786.17 659.24L1787.88 659.92L1789.62 660.53L1791.38 661.06L1793.15 661.51L1794.95 661.89L1796.75 662.2L1798.56 662.43L1800.39 662.58L1802.22 662.67L1804.05 662.68L1805.89 662.61L1807.72 662.48L1809.56 662.27L1811.39 661.99L1813.21 661.65L1815.02 661.22L1816.83 660.73L1818.62 660.17L1820.4 659.54L1822.15 658.84L1823.89 658.07L1825.61 657.23L1827.3 656.33L1828.97 655.35L1830.61 654.31L1832.22 653.2L1833.8 652.03L1835.34 650.79L1836.84 649.48L1838.31 648.11L1839.73 646.67L1841.11 645.16L1842.45 643.6L1843.74 641.96L1844.97 640.28L1846.12 638.57L1847.2 636.84L1848.2 635.07L1849.14 633.28L1850 631.47L1850.79 629.65L1851.51 627.8L1852.15 625.94L1852.72 624.07L1853.22 622.19L1853.65 620.3L1854.01 618.4L1854.3 616.5L1854.52 614.6L1854.66 612.7L1854.74 610.8L1854.74 608.91L1854.68 607.03L1854.54 605.15L1854.34 603.29L1854.06 601.44L1853.72 599.61L1853.31 597.79L1852.83 596L1852.28 594.23L1851.66 592.49L1850.97 590.77L1850.22 589.08L1849.4 587.43L1848.51 585.81L1847.55 584.22L1846.53 582.68L1845.44 581.17L1844.28 579.71L1843.05 578.29L1841.76 576.92L1840.4 575.6L1838.98 574.34L1837.49 573.12L1835.95 571.98L1834.38 570.91L1832.77 569.92L1831.13 569.01L1829.47 568.17L1827.77 567.41L1826.06 566.73L1824.32 566.13L1822.56 565.6L1820.79 565.14L1819 564.76L1817.19 564.46L1815.38 564.23L1813.55 564.07L1811.72 563.99L1809.89 563.98L1808.05 564.04L1806.22 564.17ZM1423.36 633.51L1420.89 637.45L1418.31 641.27L1416.38 643.9L1336.47 643.9L1336.47 610.26L1362.17 610.26L1362.97 610.24L1363.77 610.19L1364.55 610.11L1365.33 610L1366.09 609.86L1366.85 609.69L1367.59 609.49L1368.32 609.26L1369.04 609.01L1369.75 608.73L1370.44 608.42L1371.12 608.08L1371.78 607.72L1372.43 607.34L1373.06 606.93L1373.67 606.5L1374.26 606.05L1374.84 605.57L1375.4 605.07L1375.94 604.55L1376.46 604.02L1376.95 603.46L1377.43 602.88L1377.88 602.29L1378.32 601.67L1378.72 601.04L1379.11 600.4L1379.47 599.73L1379.8 599.06L1380.11 598.37L1380.39 597.66L1380.65 596.94L1380.87 596.21L1381.07 595.47L1381.24 594.71L1381.39 593.95L1381.5 593.17L1381.58 592.38L1381.62 591.59L1381.64 590.79L1381.64 529.15L1424 529.15L1424 632.4L1423.36 633.51ZM747.13 634.42L789.03 616.63L830.92 598.84L759.56 543.26L753.34 588.84L747.13 634.42ZM2287.72 625.33L2245.82 607.54L2203.93 589.75L2275.29 534.16L2281.51 579.74L2287.72 625.33ZM1363.77 488.76L1364.55 488.84L1365.33 488.95L1366.09 489.09L1366.85 489.26L1367.59 489.46L1368.32 489.69L1369.04 489.94L1369.75 490.23L1370.44 490.54L1371.12 490.87L1371.78 491.23L1372.43 491.61L1373.06 492.02L1373.67 492.45L1374.26 492.91L1374.84 493.38L1375.4 493.88L1375.94 494.4L1376.46 494.94L1376.95 495.5L1377.43 496.07L1377.88 496.67L1378.32 497.28L1378.72 497.91L1379.11 498.56L1379.47 499.22L1379.8 499.9L1380.11 500.59L1380.39 501.29L1380.65 502.01L1380.87 502.74L1381.07 503.49L1381.24 504.24L1381.39 505.01L1381.5 505.78L1381.58 506.57L1381.62 507.36L1381.64 508.17L1381.64 529.15L1336.47 529.15L1336.47 610.26L1277.83 610.26L1277.03 610.24L1276.23 610.19L1275.45 610.11L1274.67 610L1273.91 609.86L1273.15 609.69L1272.41 609.49L1271.68 609.26L1270.96 609.01L1270.25 608.73L1269.56 608.42L1268.88 608.08L1268.22 607.72L1267.57 607.34L1266.94 606.93L1266.33 606.5L1265.74 606.05L1265.16 605.57L1264.6 605.07L1264.06 604.55L1263.54 604.02L1263.05 603.46L1262.57 602.88L1262.12 602.29L1261.68 601.67L1261.28 601.04L1260.89 600.4L1260.53 599.73L1260.2 599.06L1259.89 598.37L1259.61 597.66L1259.35 596.94L1259.13 596.21L1258.93 595.47L1258.76 594.71L1258.61 593.95L1258.5 593.17L1258.42 592.38L1258.38 591.59L1258.36 590.79L1258.36 508.17L1258.38 507.36L1258.42 506.57L1258.5 505.78L1258.61 505.01L1258.76 504.24L1258.93 503.49L1259.13 502.74L1259.35 502.01L1259.61 501.29L1259.89 500.59L1260.2 499.9L1260.53 499.22L1260.89 498.56L1261.28 497.91L1261.68 497.28L1262.12 496.67L1262.57 496.07L1263.05 495.5L1263.54 494.94L1264.06 494.4L1264.6 493.88L1265.16 493.38L1265.74 492.91L1266.33 492.45L1266.94 492.02L1267.57 491.61L1268.22 491.23L1268.88 490.87L1269.56 490.54L1270.25 490.23L1270.96 489.94L1271.68 489.69L1272.41 489.46L1273.15 489.26L1273.91 489.09L1274.67 488.95L1275.45 488.84L1276.23 488.76L1277.03 488.71L1277.83 488.7L1362.17 488.7L1362.97 488.71L1363.77 488.76ZM436.07 542.93L364.71 598.52L358.49 552.94L352.28 507.35L394.18 525.14L436.07 542.93ZM1809.08 533.84L1880.44 589.42L1886.66 543.84L1892.87 498.26L1850.97 516.05L1809.08 533.84ZM832.28 470.2L830.44 470.41L828.61 470.69L826.79 471.03L824.98 471.46L823.17 471.95L821.38 472.51L819.6 473.14L817.85 473.84L816.11 474.61L814.39 475.45L812.7 476.35L811.03 477.33L809.39 478.37L807.78 479.48L806.2 480.65L804.66 481.89L803.16 483.2L801.69 484.57L800.27 486.01L798.89 487.52L797.55 489.08L796.26 490.72L795.03 492.4L793.88 494.11L792.8 495.84L791.8 497.61L790.86 499.4L790 501.21L789.21 503.03L788.49 504.88L787.85 506.74L787.28 508.61L786.78 510.49L786.35 512.38L785.99 514.28L785.7 516.18L785.48 518.08L785.34 519.98L785.26 521.88L785.26 523.77L785.32 525.65L785.46 527.53L785.66 529.39L785.94 531.24L786.28 533.07L786.69 534.89L787.17 536.68L787.72 538.45L788.34 540.19L789.03 541.91L789.78 543.6L790.6 545.25L791.49 546.87L792.45 548.46L793.47 550L794.56 551.51L795.72 552.97L796.95 554.39L798.24 555.76L799.6 557.08L801.02 558.34L802.51 559.56L804.05 560.7L805.62 561.77L807.23 562.76L808.87 563.67L810.53 564.51L812.23 565.27L813.94 565.95L815.68 566.55L817.44 567.08L819.21 567.54L821 567.92L822.81 568.22L824.62 568.45L826.45 568.61L828.28 568.69L830.11 568.7L831.95 568.64L833.78 568.51L835.62 568.3L837.45 568.02L839.27 567.67L841.08 567.25L842.89 566.76L844.68 566.2L846.45 565.57L848.21 564.87L849.95 564.1L851.67 563.26L853.36 562.36L855.03 561.38L856.67 560.34L858.28 559.23L859.86 558.06L861.4 556.81L862.9 555.51L864.37 554.13L865.79 552.69L865.8 552.68L866 542.81L866.76 529.83L868.02 517L869.76 504.32L871.99 491.81L872.64 488.79L872.59 488.7L871.5 487.2L870.34 485.74L869.11 484.32L867.82 482.95L866.46 481.63L865.04 480.36L863.55 479.15L862.01 478L860.44 476.94L858.83 475.95L857.19 475.03L855.52 474.2L853.83 473.44L852.12 472.76L850.38 472.15L848.62 471.62L846.85 471.17L845.05 470.79L843.25 470.48L841.44 470.25L839.61 470.1L837.78 470.01L835.95 470L834.11 470.07L832.28 470.2ZM2202.57 461.1L2204.41 461.31L2206.24 461.59L2208.06 461.94L2209.87 462.36L2211.68 462.85L2213.47 463.41L2215.24 464.04L2217 464.74L2218.74 465.51L2220.46 466.35L2222.15 467.25L2223.82 468.23L2225.46 469.27L2227.07 470.38L2228.65 471.55L2230.19 472.8L2231.69 474.1L2233.16 475.48L2234.58 476.92L2235.96 478.42L2237.3 479.99L2238.59 481.62L2239.81 483.3L2240.97 485.01L2242.05 486.75L2243.05 488.51L2243.99 490.3L2244.85 492.11L2245.64 493.94L2246.36 495.78L2247 497.64L2247.57 499.51L2248.07 501.4L2248.5 503.29L2248.86 505.18L2249.15 507.08L2249.37 508.98L2249.51 510.88L2249.59 512.78L2249.59 514.67L2249.53 516.56L2249.39 518.43L2249.19 520.3L2248.91 522.14L2248.57 523.98L2248.16 525.79L2247.68 527.58L2247.13 529.35L2246.51 531.1L2245.82 532.81L2245.07 534.5L2244.25 536.16L2243.36 537.78L2242.4 539.36L2241.38 540.91L2240.29 542.41L2239.13 543.87L2237.9 545.29L2236.61 546.66L2235.25 547.98L2233.83 549.25L2232.34 550.46L2230.8 551.61L2229.23 552.67L2227.62 553.66L2225.98 554.58L2224.31 555.41L2222.62 556.17L2220.91 556.85L2219.17 557.46L2217.41 557.99L2215.64 558.44L2213.84 558.82L2212.04 559.13L2210.23 559.36L2208.4 559.51L2206.57 559.6L2204.74 559.61L2202.9 559.54L2201.07 559.41L2199.23 559.2L2197.4 558.92L2195.58 558.58L2193.77 558.15L2191.96 557.66L2190.17 557.1L2188.39 556.47L2186.64 555.77L2184.9 555L2183.18 554.17L2181.49 553.26L2179.82 552.29L2178.74 551.6L2178.57 542.81L2177.81 529.83L2176.55 517L2174.8 504.32L2172.58 491.81L2169.89 479.47L2168.16 472.76L2168.39 472.53L2169.81 471.27L2171.3 470.05L2172.84 468.91L2174.41 467.84L2176.02 466.85L2177.66 465.94L2179.32 465.1L2181.02 464.34L2182.73 463.66L2184.47 463.06L2186.23 462.53L2188 462.07L2189.79 461.69L2191.6 461.39L2193.41 461.16L2195.24 461L2197.07 460.92L2198.9 460.91L2200.74 460.97L2202.57 461.1ZM1127.93 504.64L1167.7 504.64L1168.64 500.29L1171.79 488.14L1175.38 476.18L1179.41 464.43L1183.87 452.9L1188.74 441.59L1194.03 430.52L1197.08 424.7L1127.93 424.7L1127.93 504.64ZM1876.18 383.52L1874.22 383.74L1872.28 384.04L1870.37 384.43L1868.48 384.91L1866.62 385.47L1864.78 386.12L1862.98 386.84L1861.21 387.65L1859.48 388.53L1857.78 389.49L1856.11 390.53L1854.49 391.63L1852.9 392.81L1851.36 394.06L1849.86 395.37L1848.41 396.74L1847 398.18L1845.64 399.69L1844.33 401.25L1843.07 402.86L1841.86 404.54L1840.71 406.27L1839.61 408.05L1838.57 409.88L1837.59 411.76L1836.68 413.68L1835.82 415.65L1835.03 417.67L1834.3 419.72L1833.64 421.81L1833.05 423.95L1832.53 426.11L1832.08 428.32L1831.71 430.55L1831.41 432.81L1831.18 435.11L1831.04 437.43L1830.97 439.77L1830.99 442.11L1831.09 444.44L1831.26 446.73L1831.51 449L1831.84 451.24L1832.24 453.46L1832.72 455.63L1833.26 457.78L1833.88 459.89L1834.56 461.96L1835.31 463.99L1836.13 465.98L1837 467.92L1837.94 469.82L1838.94 471.67L1840 473.48L1841.12 475.23L1842.29 476.93L1843.51 478.57L1844.79 480.16L1846.12 481.69L1847.5 483.16L1848.92 484.57L1850.39 485.91L1851.91 487.19L1853.47 488.4L1855.07 489.54L1856.71 490.61L1858.39 491.61L1860.11 492.53L1861.86 493.38L1863.65 494.14L1865.46 494.83L1867.31 495.43L1869.19 495.95L1871.1 496.38L1873.03 496.72L1874.99 496.98L1876.97 497.14L1878.97 497.21L1880.97 497.18L1882.95 497.07L1884.92 496.85L1886.85 496.55L1888.77 496.16L1890.66 495.68L1892.52 495.12L1894.35 494.47L1896.15 493.75L1897.92 492.94L1899.66 492.06L1901.36 491.1L1903.02 490.06L1904.65 488.96L1906.23 487.78L1907.78 486.53L1909.28 485.22L1910.73 483.84L1912.14 482.41L1913.5 480.9L1914.81 479.34L1916.07 477.73L1917.28 476.05L1918.43 474.32L1919.52 472.54L1920.56 470.71L1921.54 468.83L1922.46 466.91L1923.32 464.94L1924.11 462.92L1924.84 460.87L1925.49 458.78L1926.09 456.64L1926.61 454.48L1927.05 452.27L1927.43 450.04L1927.73 447.78L1927.95 445.48L1928.1 443.16L1928.16 440.82L1928.15 438.48L1928.05 436.15L1927.88 433.86L1927.62 431.59L1927.3 429.34L1926.89 427.13L1926.42 424.96L1925.87 422.81L1925.26 420.7L1924.58 418.63L1923.83 416.6L1923.01 414.61L1922.13 412.67L1921.19 410.77L1920.19 408.92L1919.14 407.11L1918.02 405.36L1916.85 403.66L1915.63 402.02L1914.35 400.43L1913.02 398.9L1911.64 397.43L1910.22 396.02L1908.74 394.68L1907.23 393.4L1905.67 392.19L1904.07 391.05L1902.43 389.98L1900.75 388.98L1899.03 388.06L1897.28 387.21L1895.49 386.45L1893.67 385.76L1891.82 385.16L1889.94 384.64L1888.04 384.21L1886.11 383.86L1884.15 383.61L1882.17 383.45L1880.17 383.38L1878.17 383.4L1876.18 383.52ZM507.24 409.12L501.17 419.69L495.49 430.52L490.21 441.59L485.33 452.9L480.88 464.43L476.85 476.18L473.25 488.14L472.46 491.2L470.07 491.18L471.02 401.46L511.76 401.9L507.24 409.12ZM1753.97 372.12L1752.1 372.33L1750.25 372.62L1748.43 372.98L1746.63 373.43L1744.86 373.95L1743.12 374.54L1741.41 375.21L1739.73 375.94L1738.08 376.75L1736.47 377.62L1734.89 378.55L1733.35 379.56L1731.85 380.62L1730.39 381.74L1728.97 382.93L1727.6 384.17L1726.27 385.46L1724.98 386.81L1723.75 388.22L1722.56 389.67L1721.43 391.17L1720.34 392.72L1719.32 394.32L1719.03 394.81L1721.75 398.82L1728.2 409.12L1734.26 419.69L1739.94 430.52L1745.22 441.59L1750.1 452.9L1754.55 464.43L1757.62 473.38L1757.77 473.38L1759.68 473.34L1761.57 473.21L1763.44 473.01L1765.29 472.72L1767.12 472.35L1768.91 471.91L1770.68 471.39L1772.43 470.8L1774.14 470.13L1775.82 469.39L1777.47 468.59L1779.08 467.72L1780.66 466.78L1782.2 465.78L1783.7 464.72L1785.16 463.59L1786.58 462.41L1787.95 461.17L1789.28 459.87L1790.56 458.52L1791.8 457.12L1792.98 455.67L1794.12 454.16L1795.2 452.61L1796.23 451.02L1797.2 449.37L1798.12 447.69L1798.97 445.97L1799.77 444.2L1800.51 442.4L1801.18 440.56L1801.79 438.69L1802.33 436.79L1802.81 434.85L1803.21 432.88L1803.55 430.89L1803.81 428.87L1804 426.83L1804.12 424.76L1804.16 422.67L1804.12 420.58L1804 418.51L1803.81 416.47L1803.55 414.45L1803.21 412.45L1802.81 410.49L1802.33 408.55L1801.79 406.65L1801.18 404.77L1800.51 402.94L1799.77 401.13L1798.97 399.37L1798.12 397.65L1797.2 395.96L1796.23 394.32L1795.2 392.72L1794.12 391.17L1792.98 389.67L1791.8 388.22L1790.56 386.81L1789.28 385.46L1787.95 384.17L1786.58 382.93L1785.16 381.74L1783.7 380.62L1782.2 379.56L1780.66 378.55L1779.08 377.62L1777.47 376.75L1775.82 375.94L1774.14 375.21L1772.43 374.54L1770.68 373.95L1768.91 373.43L1767.12 372.98L1765.29 372.62L1763.44 372.33L1761.57 372.12L1759.68 372L1757.77 371.95L1755.86 372L1753.97 372.12ZM886.77 359.89L884.81 360.14L882.88 360.49L880.97 360.92L879.1 361.44L877.25 362.04L875.43 362.73L873.64 363.49L871.89 364.34L870.17 365.26L868.49 366.26L866.85 367.32L865.25 368.47L863.69 369.68L862.17 370.95L860.7 372.3L859.28 373.71L857.9 375.18L856.57 376.71L855.29 378.29L854.07 379.94L852.9 381.64L851.78 383.39L850.72 385.2L849.72 387.05L848.79 388.95L847.91 390.89L847.09 392.88L846.34 394.91L845.66 396.98L845.05 399.09L844.5 401.23L844.02 403.41L843.62 405.62L843.29 407.86L843.04 410.13L842.87 412.43L842.77 414.75L842.76 417.1L842.82 419.44L842.97 421.76L843.19 424.05L843.49 426.32L843.86 428.55L844.31 430.75L844.83 432.92L845.42 435.05L846.08 437.15L846.81 439.2L847.6 441.22L848.46 443.19L849.38 445.11L850.36 446.99L851.39 448.82L852.49 450.6L853.64 452.33L854.85 454L856.11 455.62L857.42 457.18L858.78 458.68L860.19 460.12L861.64 461.5L863.14 462.81L864.69 464.06L866.27 465.23L867.9 466.34L869.56 467.37L871.26 468.33L873 469.22L874.77 470.02L876.57 470.75L876.9 470.87L877.82 467.31L881.42 455.35L885.45 443.6L889.9 432.07L894.78 420.76L900.06 409.69L905.74 398.86L911.8 388.3L918.25 378L921.98 372.51L921.06 371.65L919.56 370.33L918.02 369.09L916.43 367.91L914.81 366.81L913.14 365.77L911.44 364.81L909.71 363.93L907.94 363.12L906.13 362.39L904.3 361.75L902.44 361.19L900.55 360.71L898.64 360.32L896.7 360.01L894.74 359.8L892.75 359.68L890.75 359.66L888.75 359.73L886.77 359.89ZM747.51 348.4L745.64 348.61L743.79 348.9L741.97 349.26L740.17 349.71L738.4 350.23L736.65 350.82L734.94 351.48L733.26 352.22L731.61 353.02L730 353.9L728.42 354.83L726.88 355.83L725.38 356.9L723.92 358.02L722.5 359.21L721.13 360.45L719.8 361.74L718.52 363.09L717.28 364.5L716.1 365.95L714.96 367.45L713.88 369L712.85 370.6L711.88 372.24L710.96 373.92L710.11 375.65L709.31 377.41L708.57 379.21L707.9 381.05L707.29 382.92L706.75 384.83L706.27 386.77L705.87 388.73L705.53 390.72L705.27 392.74L705.08 394.79L704.96 396.86L704.93 398.95L704.96 401.04L705.08 403.1L705.27 405.15L705.53 407.17L705.87 409.16L706.27 411.13L706.75 413.06L707.29 414.97L707.9 416.84L708.57 418.68L709.31 420.48L710.11 422.24L710.96 423.97L711.88 425.65L712.85 427.29L713.88 428.89L714.96 430.44L716.1 431.94L717.28 433.4L718.52 434.8L719.8 436.15L721.13 437.45L722.5 438.69L723.92 439.87L725.38 440.99L726.88 442.06L728.42 443.06L730 444L731.61 444.87L733.26 445.67L734.94 446.41L736.65 447.07L738.4 447.67L740.17 448.19L741.97 448.63L743.79 449L745.64 449.29L747.51 449.49L749.4 449.62L751.31 449.66L753.22 449.62L755.11 449.49L756.98 449.29L758.83 449L760.65 448.63L762.45 448.19L764.22 447.67L765.96 447.07L767.67 446.41L769.35 445.67L771 444.87L772.62 444L774.19 443.06L775.73 442.06L777.23 440.99L778.69 439.87L780.11 438.69L781.49 437.45L782.82 436.15L784.1 434.8L785.33 433.4L786.52 431.94L787.65 430.44L788.74 428.89L789.76 427.29L790.74 425.65L791.65 423.97L792.51 422.24L793.31 420.48L794.04 418.68L794.72 416.84L795.32 414.97L795.87 413.06L796.34 411.13L796.75 409.16L797.08 407.17L797.35 405.15L797.54 403.1L797.65 401.04L797.69 398.95L797.65 396.86L797.54 394.79L797.35 392.74L797.08 390.72L796.75 388.73L796.34 386.77L795.87 384.83L795.32 382.92L794.72 381.05L794.04 379.21L793.31 377.41L792.51 375.65L791.65 373.92L790.74 372.24L789.76 370.6L788.74 369L787.65 367.45L786.52 365.95L785.33 364.5L784.1 363.09L782.82 361.74L781.49 360.45L780.11 359.21L778.69 358.02L777.23 356.9L775.73 355.83L774.19 354.83L772.62 353.9L771 353.02L769.35 352.22L767.67 351.48L765.96 350.82L764.22 350.23L762.45 349.71L760.65 349.26L758.83 348.9L756.98 348.61L755.11 348.4L753.22 348.27L751.31 348.23L749.4 348.27L747.51 348.4ZM1459.43 440.61L1459.88 441.77L1512.07 441.77L1512.07 361.83L1459.43 361.83L1459.43 440.61ZM2174.33 439.66L2157.53 439.48L2154.67 432.07L2149.79 420.76L2144.51 409.69L2138.83 398.86L2132.76 388.3L2126.32 378L2119.51 367.98L2112.34 358.24L2105.12 349.18L2175.28 349.94L2174.33 439.66ZM2286.86 232.78L2433.75 232.78L2433.75 435.67L2286.86 232.78ZM215.31 228.39L362.2 228.39L215.31 431.28L215.31 228.39ZM433.77 297.18L435.73 297.43L437.66 297.77L439.57 298.21L441.45 298.73L443.29 299.33L445.11 300.01L446.9 300.78L448.65 301.62L450.37 302.55L452.05 303.54L453.69 304.61L455.29 305.75L456.85 306.96L458.37 308.24L459.84 309.59L461.26 310.99L462.64 312.46L463.97 313.99L465.25 315.58L466.47 317.23L467.64 318.93L468.76 320.68L469.82 322.48L470.82 324.33L471.76 326.23L472.63 328.18L473.45 330.17L474.2 332.2L474.88 334.27L475.5 336.38L476.04 338.52L476.52 340.7L476.92 342.91L477.25 345.15L477.5 347.42L477.67 349.72L477.77 352.04L477.79 354.39L477.72 356.73L477.58 359.05L477.35 361.34L477.05 363.61L476.68 365.84L476.23 368.04L475.71 370.21L475.12 372.34L474.46 374.43L473.73 376.49L472.94 378.5L472.08 380.47L471.17 382.4L470.19 384.28L469.15 386.11L468.05 387.89L466.9 389.62L465.69 391.29L464.43 392.91L463.12 394.47L461.76 395.97L460.35 397.41L458.9 398.79L457.4 400.1L455.86 401.34L454.27 402.52L452.65 403.63L450.98 404.66L449.28 405.62L447.55 406.5L445.78 407.31L443.98 408.04L442.14 408.68L440.28 409.25L438.39 409.72L436.48 410.12L434.54 410.42L432.58 410.63L430.59 410.75L428.59 410.78L426.59 410.71L424.61 410.54L422.65 410.29L420.72 409.95L418.82 409.51L416.94 408.99L415.09 408.39L413.27 407.71L411.48 406.94L409.73 406.1L408.01 405.17L406.33 404.18L404.69 403.11L403.09 401.97L401.53 400.76L400.02 399.48L398.54 398.13L397.12 396.73L395.74 395.26L394.41 393.73L393.13 392.14L391.91 390.49L390.74 388.79L389.62 387.04L388.56 385.24L387.57 383.38L386.63 381.49L385.75 379.54L384.93 377.55L384.18 375.52L383.5 373.45L382.89 371.34L382.34 369.2L381.87 367.02L381.46 364.81L381.14 362.57L380.88 360.3L380.71 358L380.61 355.68L380.6 353.33L380.66 350.99L380.81 348.67L381.03 346.38L381.33 344.11L381.7 341.88L382.15 339.68L382.67 337.51L383.26 335.38L383.92 333.29L384.65 331.23L385.44 329.22L386.3 327.25L387.22 325.32L388.2 323.44L389.24 321.61L390.33 319.83L391.48 318.1L392.69 316.43L393.95 314.81L395.26 313.25L396.62 311.75L398.03 310.31L399.48 308.93L400.98 307.62L402.53 306.38L404.11 305.2L405.74 304.09L407.4 303.06L409.1 302.1L410.84 301.21L412.61 300.41L414.41 299.68L416.24 299.04L418.1 298.47L419.99 297.99L421.91 297.6L423.84 297.3L425.81 297.09L427.79 296.97L429.79 296.94L431.79 297.01L433.77 297.18ZM41.25 128.78L252.53 128.78L41.25 386.34L41.25 128.78ZM1834.38 367.62L1928.7 368.64L1905.59 323.53L1882.48 278.41L1858.43 323.02L1834.38 367.62ZM1271.54 268.54L1269.58 268.75L1267.64 269.05L1265.72 269.44L1263.83 269.92L1261.97 270.48L1260.14 271.13L1258.34 271.85L1256.57 272.66L1254.83 273.55L1253.13 274.51L1251.47 275.54L1249.84 276.65L1248.26 277.82L1246.71 279.07L1245.21 280.38L1243.76 281.76L1242.35 283.2L1240.99 284.7L1239.68 286.26L1238.42 287.88L1237.21 289.55L1236.06 291.28L1234.97 293.06L1233.93 294.89L1232.95 296.77L1232.03 298.69L1231.17 300.66L1230.38 302.68L1229.66 304.73L1229 306.83L1228.41 308.96L1227.88 311.13L1227.44 313.33L1227.06 315.56L1226.76 317.82L1226.54 320.12L1226.39 322.44L1226.33 324.78L1226.34 327.13L1226.44 329.45L1226.61 331.74L1226.87 334.01L1227.19 336.26L1227.6 338.47L1228.07 340.65L1228.62 342.79L1229.23 344.9L1229.92 346.97L1230.66 349L1231.48 350.99L1232.36 352.93L1233.3 354.83L1234.3 356.68L1235.35 358.49L1236.47 360.24L1237.64 361.94L1238.87 363.58L1238.89 363.62L1241.57 360.51L1249.75 351.71L1258.25 343.23L1267.06 335.09L1276.16 327.3L1285.56 319.88L1295.23 312.82L1305.17 306.15L1315.37 299.86L1317.85 298.47L1317.49 297.68L1316.55 295.78L1315.55 293.93L1314.49 292.13L1313.38 290.37L1312.2 288.67L1310.98 287.03L1309.7 285.44L1308.37 283.91L1307 282.44L1305.57 281.03L1304.1 279.69L1302.58 278.41L1301.02 277.2L1299.42 276.06L1297.78 274.99L1296.1 273.99L1294.38 273.07L1292.63 272.23L1290.84 271.46L1289.03 270.77L1287.18 270.17L1285.3 269.65L1283.39 269.22L1281.46 268.88L1279.5 268.62L1277.52 268.46L1275.52 268.39L1273.52 268.42L1271.54 268.54ZM2222.68 246.57L2224.64 246.83L2226.57 247.17L2228.47 247.6L2230.35 248.12L2232.2 248.73L2234.02 249.41L2235.81 250.18L2237.56 251.02L2239.28 251.94L2240.96 252.94L2242.6 254.01L2244.2 255.15L2245.76 256.36L2247.27 257.64L2248.75 258.98L2250.17 260.39L2251.55 261.86L2252.88 263.39L2254.16 264.98L2255.38 266.62L2256.55 268.32L2257.67 270.08L2258.73 271.88L2259.73 273.73L2260.66 275.63L2261.54 277.58L2262.36 279.57L2263.11 281.6L2263.79 283.67L2264.4 285.77L2264.95 287.92L2265.43 290.1L2265.83 292.31L2266.16 294.55L2266.41 296.82L2266.58 299.12L2266.68 301.44L2266.69 303.78L2266.63 306.13L2266.48 308.45L2266.26 310.74L2265.96 313L2265.59 315.24L2265.14 317.44L2264.62 319.61L2264.03 321.74L2263.37 323.83L2262.64 325.89L2261.85 327.9L2260.99 329.87L2260.07 331.8L2259.09 333.68L2258.06 335.51L2256.96 337.29L2255.81 339.01L2254.6 340.69L2253.34 342.31L2252.03 343.87L2250.67 345.37L2249.26 346.81L2247.81 348.18L2246.31 349.5L2244.76 350.74L2243.18 351.92L2241.55 353.02L2239.89 354.06L2238.19 355.02L2236.45 355.9L2234.68 356.71L2232.88 357.44L2231.05 358.08L2229.19 358.64L2227.3 359.12L2225.39 359.51L2223.45 359.82L2221.48 360.03L2219.5 360.15L2217.5 360.17L2215.5 360.1L2213.52 359.94L2211.56 359.69L2209.63 359.34L2207.72 358.91L2205.84 358.39L2204 357.79L2202.18 357.1L2200.39 356.34L2198.64 355.49L2196.92 354.57L2195.24 353.57L2193.6 352.51L2192 351.36L2190.44 350.15L2188.92 348.88L2187.45 347.53L2186.03 346.12L2184.65 344.65L2183.32 343.12L2182.04 341.53L2180.82 339.89L2179.65 338.19L2178.53 336.44L2177.47 334.63L2176.47 332.78L2175.53 330.88L2174.66 328.94L2173.84 326.95L2173.09 324.92L2172.41 322.85L2171.79 320.74L2171.25 318.6L2170.77 316.42L2170.37 314.21L2170.04 311.97L2169.79 309.7L2169.62 307.4L2169.52 305.08L2169.5 302.73L2169.57 300.39L2169.71 298.07L2169.94 295.78L2170.24 293.51L2170.61 291.28L2171.06 289.08L2171.58 286.91L2172.17 284.78L2172.83 282.68L2173.56 280.63L2174.35 278.61L2175.21 276.64L2176.13 274.72L2177.1 272.84L2178.14 271.01L2179.24 269.23L2180.39 267.5L2181.6 265.83L2182.86 264.21L2184.17 262.65L2185.53 261.15L2186.94 259.71L2188.39 258.33L2189.89 257.02L2191.43 255.77L2193.02 254.6L2194.64 253.49L2196.31 252.46L2198.01 251.5L2199.74 250.61L2201.51 249.81L2203.32 249.08L2205.15 248.43L2207.01 247.87L2208.9 247.39L2210.81 247L2212.75 246.7L2214.71 246.49L2216.7 246.37L2218.7 246.34L2220.7 246.41L2222.68 246.57ZM1713.92 358.35L1803.94 358.35L1781.44 318.38L1758.93 278.41L1736.42 318.38L1713.92 358.35ZM1366.71 274.09L1364.75 274.3L1362.81 274.61L1360.9 275L1359.01 275.47L1357.15 276.04L1355.31 276.68L1353.51 277.41L1351.74 278.22L1350.01 279.1L1348.31 280.06L1346.64 281.09L1345.02 282.2L1343.43 283.38L1341.89 284.62L1340.39 285.93L1338.94 287.31L1338.48 287.77L1344.77 291.99L1354.44 299.05L1363.84 306.48L1372.94 314.26L1381.75 322.4L1390.25 330.88L1398.43 339.68L1406.29 348.81L1413.06 357.31L1413.85 355.5L1414.64 353.49L1415.37 351.44L1416.02 349.34L1416.62 347.21L1417.14 345.04L1417.58 342.84L1417.96 340.61L1418.26 338.34L1418.48 336.05L1418.63 333.73L1418.69 331.39L1418.68 329.04L1418.58 326.72L1418.41 324.42L1418.15 322.15L1417.83 319.91L1417.42 317.7L1416.95 315.52L1416.4 313.38L1415.79 311.27L1415.11 309.2L1414.36 307.17L1413.54 305.18L1412.66 303.24L1411.72 301.34L1410.72 299.48L1409.67 297.68L1408.55 295.93L1407.38 294.23L1406.16 292.58L1404.88 290.99L1403.55 289.46L1402.17 287.99L1400.75 286.59L1399.27 285.24L1397.76 283.96L1396.2 282.75L1394.6 281.61L1392.96 280.54L1391.28 279.55L1389.56 278.63L1387.81 277.78L1386.02 277.01L1384.2 276.33L1382.35 275.73L1380.47 275.21L1378.57 274.78L1376.64 274.43L1374.68 274.18L1372.7 274.01L1370.7 273.95L1368.7 273.97L1366.71 274.09ZM2387.47 96.29L2598.75 96.29L2598.75 353.85L2387.47 96.29ZM842.22 344.92L936.54 343.9L912.49 299.29L888.43 254.69L865.32 299.8L842.22 344.92ZM705.14 334.63L795.17 334.63L772.66 294.66L750.15 254.69L727.64 294.66L705.14 334.63Z" id="c4lsM2W9cR"></path></defs><g><g><g><use xlink:href="#c4lsM2W9cR" opacity="1" fill="#61adb7" fill-opacity="1"></use></g></g></g></svg>