<?xml version="1.0" encoding="UTF-8" standalone="no"?>
<!DOCTYPE svg PUBLIC "-//W3C//DTD SVG 1.1//EN" "http://www.w3.org/Graphics/SVG/1.1/DTD/svg11.dtd">
<svg version="1.1" xmlns="http://www.w3.org/2000/svg" xmlns:xlink="http://www.w3.org/1999/xlink" preserveAspectRatio="xMidYMid meet" viewBox="0 0 640 640" width="640" height="640"><defs><path d="M172.92 159L257.22 171.67L196.22 233.17L210.62 320L135.21 279L59.81 320L74.21 233.17L13.2 171.67L97.51 159L135.21 80L172.92 159Z" id="a2xNYgrS7M"></path><path d="M348.18 97.85C360.68 107.11 377.95 109.67 400 105.53C379.78 115.39 367.28 127.8 362.5 142.78C357.73 157.75 360.68 175.29 371.35 195.38C355.9 178.82 340.45 170.54 325 170.54C309.55 170.54 294.1 178.82 278.65 195.38C289.33 175.29 292.28 157.75 287.5 142.78C282.73 127.8 270.23 115.39 250 105.53C272.05 109.67 289.33 107.11 301.83 97.85C314.33 88.6 322.05 72.65 325 50C327.95 72.65 335.68 88.6 348.18 97.85Z" id="a2lssq7jGW"></path><path d="M203.18 422.48L255 430.15L217.5 467.4L226.35 520C210.9 503.44 195.45 495.16 180 495.16C164.55 495.16 149.1 503.44 133.65 520L142.5 467.4L105 430.15L156.83 422.48L180 374.62L203.18 422.48Z" id="b26mRU8d5W"></path><path d="M194.01 477.08L230.44 471.8L204.08 446.18L210.3 410C199.44 421.39 188.58 427.08 177.72 427.08C166.86 427.08 156 421.39 145.14 410L151.36 446.18L125 471.8L161.43 477.08L177.72 510L194.01 477.08Z" id="a3NVxlnq2I"></path><path d="M500.86 341.51L500.73 341.53L499.57 341.8L498.41 342.09L497.25 342.42L496.09 342.78L494.93 343.16L493.78 343.58L492.62 344.03L491.46 344.51L490.3 345.03L489.14 345.57L487.98 346.14L486.82 346.75L485.66 347.39L484.51 348.05L483.35 348.75L482.19 349.48L481.03 350.24L479.87 351.03L478.71 351.86L477.55 352.71L476.39 353.6L475.24 354.51L474.08 355.46L472.92 356.44L471.76 357.44L470.6 358.48L469.44 359.56L468.28 360.66L467.12 361.79L465.97 362.96L464.81 364.15L463.65 365.38L471.36 319.55L491.43 322.46L500.86 341.51ZM555.19 364.15L554.03 362.96L552.88 361.79L551.72 360.66L550.56 359.56L549.4 358.48L548.24 357.44L547.08 356.44L545.92 355.46L544.76 354.51L543.6 353.6L542.45 352.71L541.29 351.86L540.13 351.03L538.97 350.24L537.81 349.48L536.65 348.75L535.49 348.05L534.33 347.39L533.17 346.75L532.02 346.14L530.86 345.57L529.7 345.03L528.54 344.51L527.38 344.03L526.22 343.58L525.06 343.16L523.9 342.78L522.75 342.42L521.59 342.09L520.43 341.8L519.27 341.53L518.11 341.3L516.95 341.1L515.79 340.93L514.92 340.82L524.01 322.46L548.53 318.91L556.35 365.38L555.19 364.15ZM551.66 308.65L534.08 291.56L538.04 268.57L585 275.53L551.66 308.65ZM466.09 306.41L435 275.53L477.52 269.23L481.36 291.56L466.09 306.41ZM530.53 264.09L529.71 264.68L528.9 265.24L528.08 265.79L527.27 266.31L526.46 266.81L525.64 267.29L524.83 267.75L524.01 268.19L523.2 268.61L522.38 269L521.57 269.38L520.75 269.73L519.94 270.06L519.12 270.37L518.31 270.66L517.5 270.92L516.68 271.17L515.87 271.39L515.05 271.6L514.24 271.78L513.42 271.94L512.61 272.08L511.79 272.19L510.98 272.29L510.16 272.36L509.35 272.42L508.53 272.45L507.72 272.46L506.91 272.45L506.09 272.42L505.28 272.36L504.46 272.29L503.65 272.19L502.83 272.08L502.02 271.94L501.2 271.78L500.39 271.6L499.57 271.39L498.76 271.17L497.95 270.92L497.13 270.66L496.32 270.37L495.5 270.06L494.69 269.73L493.87 269.38L493.06 269L492.24 268.61L491.43 268.19L490.61 267.75L489.8 267.29L488.99 266.81L488.17 266.31L487.72 266.02L510 220L531.14 263.64L530.53 264.09Z" id="cobjpF0NX"></path><path d="M531.34 90.79L532.16 90.16L532.97 89.51L533.79 88.84L534.6 88.14L535.42 87.43L536.23 86.69L537.05 85.93L537.86 85.16L538.67 84.35L539.49 83.53L540.3 82.69L538.04 95.88L585 102.84L551.66 135.96L560.44 144.49L548.53 146.22L556.35 192.69L555.19 191.46L554.03 190.27L552.88 189.1L551.72 187.97L550.56 186.87L549.4 185.8L548.24 184.76L547.08 183.75L545.92 182.77L544.76 181.82L543.6 180.91L542.45 180.02L541.29 179.17L540.13 178.35L538.97 177.55L537.81 176.79L536.65 176.06L535.49 175.37L534.33 174.7L533.17 174.06L532.02 173.46L530.86 172.88L529.7 172.34L528.54 171.83L527.38 171.34L526.22 170.89L525.06 170.48L523.9 170.09L522.75 169.73L521.59 169.4L520.43 169.11L519.27 168.85L518.11 168.61L516.95 168.41L515.79 168.24L514.92 168.14L507.72 182.69L500.86 168.82L500.73 168.85L499.57 169.11L498.41 169.4L497.25 169.73L496.09 170.09L494.93 170.48L493.78 170.89L492.62 171.34L491.46 171.83L490.3 172.34L489.14 172.88L487.98 173.46L486.82 174.06L485.66 174.7L484.51 175.37L483.35 176.06L482.19 176.79L481.03 177.55L479.87 178.35L478.71 179.17L477.55 180.02L476.39 180.91L475.24 181.82L474.08 182.77L472.92 183.75L471.76 184.76L470.6 185.8L469.44 186.87L468.28 187.97L467.12 189.1L465.97 190.27L464.81 191.46L463.65 192.69L471.36 146.86L455 144.49L466.09 133.72L435 102.84L477.52 96.54L475.14 82.69L475.95 83.53L476.77 84.35L477.58 85.16L478.4 85.93L479.21 86.69L480.03 87.43L480.84 88.14L481.65 88.84L482.47 89.51L483.28 90.16L484.1 90.79L484.91 91.4L485.73 91.99L486.54 92.55L487.36 93.1L487.72 93.33L510 47.31L531.14 90.95L531.34 90.79Z" id="n8lx0RPRhl"></path><path d="M380.96 418.05L381.64 417.5L382.32 416.94L383 416.36L383.68 415.77L384.36 415.15L385.04 414.52L385.72 413.87L386.4 413.2L387.07 412.52L387.75 411.82L385.86 422.81L425 428.61L397.22 456.21L404.54 463.32L394.61 464.76L401.13 503.49L400.16 502.47L399.2 501.47L398.23 500.5L397.26 499.56L396.3 498.64L395.33 497.75L394.37 496.88L393.4 496.04L392.43 495.23L391.47 494.44L390.5 493.67L389.54 492.94L388.57 492.22L387.61 491.54L386.64 490.88L385.68 490.25L384.71 489.64L383.74 489.06L382.78 488.5L381.81 487.97L380.85 487.46L379.88 486.99L378.92 486.53L377.95 486.11L376.98 485.7L376.02 485.33L375.05 484.98L374.09 484.66L373.12 484.36L372.16 484.09L371.19 483.84L370.22 483.62L369.26 483.43L368.29 483.26L367.33 483.12L366.6 483.03L360.6 495.16L354.88 483.6L354.77 483.62L353.81 483.84L352.84 484.09L351.88 484.36L350.91 484.66L349.95 484.98L348.98 485.33L348.01 485.7L347.05 486.11L346.08 486.53L345.12 486.99L344.15 487.46L343.19 487.97L342.22 488.5L341.25 489.06L340.29 489.64L339.32 490.25L338.36 490.88L337.39 491.54L336.43 492.22L335.46 492.94L334.5 493.67L333.53 494.44L332.56 495.23L331.6 496.04L330.63 496.88L329.67 497.75L328.7 498.64L327.74 499.56L326.77 500.5L325.8 501.47L324.84 502.47L323.87 503.49L330.3 465.3L316.67 463.32L325.91 454.35L300 428.61L335.44 423.36L333.45 411.82L334.13 412.52L334.81 413.2L335.48 413.87L336.16 414.52L336.84 415.15L337.52 415.77L338.2 416.36L338.88 416.94L339.56 417.5L340.24 418.05L340.92 418.57L341.59 419.08L342.27 419.57L342.95 420.04L343.63 420.49L343.93 420.69L362.5 382.33L380.11 418.7L380.29 418.57L380.29 418.57L380.96 418.05Z" id="bO3hzZ2s5"></path><path d="M343.18 265.16L395 272.84L357.5 310.09L366.35 362.69C350.9 346.13 335.45 337.85 320 337.85C304.55 337.85 289.1 346.13 273.65 362.69L282.5 310.09L245 272.84L296.83 265.16L320 217.31L343.18 265.16Z" id="a157HlGcD2"></path><path d="M334.01 319.77L370.44 314.49L344.08 288.87L350.3 252.69C339.44 264.08 328.58 269.77 317.72 269.77C306.86 269.77 296 264.08 285.14 252.69L291.36 288.87L265 314.49L301.43 319.77L317.72 352.69L334.01 319.77Z" id="k51rZRZsRl"></path><path d="M523.25 478.31L523.14 478.33L522.22 478.52L521.3 478.74L520.38 478.98L519.47 479.24L518.55 479.52L517.63 479.82L516.71 480.15L515.79 480.5L514.87 480.87L513.95 481.27L513.03 481.68L512.11 482.12L511.19 482.59L510.27 483.07L509.35 483.58L508.43 484.11L507.51 484.66L506.59 485.24L505.68 485.84L504.76 486.46L503.84 487.1L502.92 487.77L502 488.45L501.08 489.16L500.16 489.9L499.24 490.65L498.32 491.43L497.4 492.23L496.48 493.06L495.56 493.9L494.64 494.77L493.72 495.66L499.85 462.36L515.77 464.47L523.25 478.31ZM566.35 494.77L565.43 493.9L564.51 493.06L563.59 492.23L562.67 491.43L561.76 490.65L560.84 489.9L559.92 489.16L559 488.45L558.08 487.77L557.16 487.1L556.24 486.46L555.32 485.84L554.4 485.24L553.48 484.66L552.56 484.11L551.64 483.58L550.72 483.07L549.8 482.59L548.88 482.12L547.96 481.68L547.05 481.27L546.13 480.87L545.21 480.5L544.29 480.15L543.37 479.82L542.45 479.52L541.53 479.24L540.61 478.98L539.69 478.74L538.77 478.52L537.85 478.33L536.93 478.16L536.01 478.02L535.09 477.89L534.41 477.82L541.62 464.47L561.07 461.89L567.27 495.66L566.35 494.77ZM563.55 454.43L549.6 442.01L552.74 425.3L590 430.36L563.55 454.43ZM495.66 452.8L471 430.36L504.73 425.78L507.78 442.01L495.66 452.8ZM546.78 422.05L546.14 422.47L545.49 422.88L544.85 423.28L544.2 423.66L543.55 424.02L542.91 424.37L542.26 424.71L541.61 425.03L540.97 425.33L540.32 425.62L539.68 425.89L539.03 426.14L538.38 426.38L537.74 426.61L537.09 426.82L536.44 427.01L535.8 427.19L535.15 427.35L534.51 427.5L533.86 427.63L533.21 427.75L532.57 427.85L531.92 427.94L531.27 428.01L530.63 428.06L529.98 428.1L529.34 428.12L528.69 428.13L528.04 428.12L527.4 428.1L526.75 428.06L526.1 428.01L525.46 427.94L524.81 427.85L524.17 427.75L523.52 427.63L522.87 427.5L522.23 427.35L521.58 427.19L520.93 427.01L520.29 426.82L519.64 426.61L519 426.38L518.35 426.14L517.7 425.89L517.06 425.62L516.41 425.33L515.76 425.03L515.12 424.71L514.47 424.37L513.83 424.02L513.18 423.66L512.82 423.45L530.5 390L547.27 421.72L546.78 422.05Z" id="an5DuIwT6"></path></defs><g><g><g><use xlink:href="#a2xNYgrS7M" opacity="1" fill="#27732d" fill-opacity="1"></use><g><use xlink:href="#a2xNYgrS7M" opacity="1" fill-opacity="0" stroke="#9cb2dc" stroke-width="12" stroke-opacity="1"></use></g></g><g><g><filter id="shadow10393963" x="206" y="6" width="248" height="234.38" filterUnits="userSpaceOnUse" primitiveUnits="userSpaceOnUse"><feFlood></feFlood><feComposite in2="SourceAlpha" operator="in"></feComposite><feGaussianBlur stdDeviation="3.74"></feGaussianBlur><feOffset dx="10" dy="1" result="afterOffset"></feOffset><feFlood flood-color="#2e033f" flood-opacity="1"></feFlood><feComposite in2="afterOffset" operator="in"></feComposite><feMorphology operator="dilate" radius="1"></feMorphology><feComposite in2="SourceAlpha" operator="out"></feComposite></filter><path d="M348.18 97.85C360.68 107.11 377.95 109.67 400 105.53C379.78 115.39 367.28 127.8 362.5 142.78C357.73 157.75 360.68 175.29 371.35 195.38C355.9 178.82 340.45 170.54 325 170.54C309.55 170.54 294.1 178.82 278.65 195.38C289.33 175.29 292.28 157.75 287.5 142.78C282.73 127.8 270.23 115.39 250 105.53C272.05 109.67 289.33 107.11 301.83 97.85C314.33 88.6 322.05 72.65 325 50C327.95 72.65 335.68 88.6 348.18 97.85Z" id="i2TXZs1SV" fill="white" fill-opacity="1" filter="url(#shadow10393963)"></path></g><use xlink:href="#a2lssq7jGW" opacity="1" fill="#27732d" fill-opacity="1"></use><g><use xlink:href="#a2lssq7jGW" opacity="1" fill-opacity="0" stroke="#9cb2dc" stroke-width="7" stroke-opacity="1"></use></g><g><filter id="shadow9139189" x="230" y="30" width="191" height="195.38" filterUnits="userSpaceOnUse" primitiveUnits="userSpaceOnUse"><feFlood></feFlood><feComposite in2="SourceAlpha" operator="out"></feComposite><feGaussianBlur stdDeviation="1"></feGaussianBlur><feOffset dx="1" dy="10" result="afterOffset"></feOffset><feFlood flood-color="#0d5a13" flood-opacity="1"></feFlood><feComposite in2="afterOffset" operator="in"></feComposite><feMorphology operator="dilate" radius="3"></feMorphology><feComposite in2="SourceAlpha" operator="in"></feComposite></filter><path d="M348.18 97.85C360.68 107.11 377.95 109.67 400 105.53C379.78 115.39 367.28 127.8 362.5 142.78C357.73 157.75 360.68 175.29 371.35 195.38C355.9 178.82 340.45 170.54 325 170.54C309.55 170.54 294.1 178.82 278.65 195.38C289.33 175.29 292.28 157.75 287.5 142.78C282.73 127.8 270.23 115.39 250 105.53C272.05 109.67 289.33 107.11 301.83 97.85C314.33 88.6 322.05 72.65 325 50C327.95 72.65 335.68 88.6 348.18 97.85Z" id="b416cfVyG" fill="white" fill-opacity="1" filter="url(#shadow9139189)"></path></g></g><g><g><use xlink:href="#b26mRU8d5W" opacity="1" fill="#27732d" fill-opacity="1"></use><g><use xlink:href="#b26mRU8d5W" opacity="1" fill-opacity="0" stroke="#9cb2dc" stroke-width="7" stroke-opacity="1"></use></g></g><g><use xlink:href="#a3NVxlnq2I" opacity="1" fill="#27732d" fill-opacity="1"></use><g><use xlink:href="#a3NVxlnq2I" opacity="1" fill-opacity="0" stroke="#9cb2dc" stroke-width="7" stroke-opacity="1"></use></g></g></g><g><g><filter id="shadow7274508" x="391" y="176" width="248" height="234.38" filterUnits="userSpaceOnUse" primitiveUnits="userSpaceOnUse"><feFlood></feFlood><feComposite in2="SourceAlpha" operator="in"></feComposite><feGaussianBlur stdDeviation="3.74"></feGaussianBlur><feOffset dx="10" dy="1" result="afterOffset"></feOffset><feFlood flood-color="#2e033f" flood-opacity="1"></feFlood><feComposite in2="afterOffset" operator="in"></feComposite><feMorphology operator="dilate" radius="1"></feMorphology><feComposite in2="SourceAlpha" operator="out"></feComposite></filter><path d="M500.86 341.51L500.73 341.53L499.57 341.8L498.41 342.09L497.25 342.42L496.09 342.78L494.93 343.16L493.78 343.58L492.62 344.03L491.46 344.51L490.3 345.03L489.14 345.57L487.98 346.14L486.82 346.75L485.66 347.39L484.51 348.05L483.35 348.75L482.19 349.48L481.03 350.24L479.87 351.03L478.71 351.86L477.55 352.71L476.39 353.6L475.24 354.51L474.08 355.46L472.92 356.44L471.76 357.44L470.6 358.48L469.44 359.56L468.28 360.66L467.12 361.79L465.97 362.96L464.81 364.15L463.65 365.38L471.36 319.55L491.43 322.46L500.86 341.51ZM555.19 364.15L554.03 362.96L552.88 361.79L551.72 360.66L550.56 359.56L549.4 358.48L548.24 357.44L547.08 356.44L545.92 355.46L544.76 354.51L543.6 353.6L542.45 352.71L541.29 351.86L540.13 351.03L538.97 350.24L537.81 349.48L536.65 348.75L535.49 348.05L534.33 347.39L533.17 346.75L532.02 346.14L530.86 345.57L529.7 345.03L528.54 344.51L527.38 344.03L526.22 343.58L525.06 343.16L523.9 342.78L522.75 342.42L521.59 342.09L520.43 341.8L519.27 341.53L518.11 341.3L516.95 341.1L515.79 340.93L514.92 340.82L524.01 322.46L548.53 318.91L556.35 365.38L555.19 364.15ZM551.66 308.65L534.08 291.56L538.04 268.57L585 275.53L551.66 308.65ZM466.09 306.41L435 275.53L477.52 269.23L481.36 291.56L466.09 306.41ZM530.53 264.09L529.71 264.68L528.9 265.24L528.08 265.79L527.27 266.31L526.46 266.81L525.64 267.29L524.83 267.75L524.01 268.19L523.2 268.61L522.38 269L521.57 269.38L520.75 269.73L519.94 270.06L519.12 270.37L518.31 270.66L517.5 270.92L516.68 271.17L515.87 271.39L515.05 271.6L514.24 271.78L513.42 271.94L512.61 272.08L511.79 272.19L510.98 272.29L510.16 272.36L509.35 272.42L508.53 272.45L507.72 272.46L506.91 272.45L506.09 272.42L505.28 272.36L504.46 272.29L503.65 272.19L502.83 272.08L502.02 271.94L501.2 271.78L500.39 271.6L499.57 271.39L498.76 271.17L497.95 270.92L497.13 270.66L496.32 270.37L495.5 270.06L494.69 269.73L493.87 269.38L493.06 269L492.24 268.61L491.43 268.19L490.61 267.75L489.8 267.29L488.99 266.81L488.17 266.31L487.72 266.02L510 220L531.14 263.64L530.53 264.09Z" id="a3DX1gYKgn" fill="white" fill-opacity="1" filter="url(#shadow7274508)"></path></g><use xlink:href="#cobjpF0NX" opacity="1" fill="#27732d" fill-opacity="1"></use><g><use xlink:href="#cobjpF0NX" opacity="1" fill-opacity="0" stroke="#9cb2dc" stroke-width="7" stroke-opacity="1"></use></g><g><filter id="shadow13024238" x="415" y="200" width="191" height="195.38" filterUnits="userSpaceOnUse" primitiveUnits="userSpaceOnUse"><feFlood></feFlood><feComposite in2="SourceAlpha" operator="out"></feComposite><feGaussianBlur stdDeviation="1"></feGaussianBlur><feOffset dx="1" dy="10" result="afterOffset"></feOffset><feFlood flood-color="#0d5a13" flood-opacity="1"></feFlood><feComposite in2="afterOffset" operator="in"></feComposite><feMorphology operator="dilate" radius="3"></feMorphology><feComposite in2="SourceAlpha" operator="in"></feComposite></filter><path d="M500.86 341.51L500.73 341.53L499.57 341.8L498.41 342.09L497.25 342.42L496.09 342.78L494.93 343.16L493.78 343.58L492.62 344.03L491.46 344.51L490.3 345.03L489.14 345.57L487.98 346.14L486.82 346.75L485.66 347.39L484.51 348.05L483.35 348.75L482.19 349.48L481.03 350.24L479.87 351.03L478.71 351.86L477.55 352.71L476.39 353.6L475.24 354.51L474.08 355.46L472.92 356.44L471.76 357.44L470.6 358.48L469.44 359.56L468.28 360.66L467.12 361.79L465.97 362.96L464.81 364.15L463.65 365.38L471.36 319.55L491.43 322.46L500.86 341.51ZM555.19 364.15L554.03 362.96L552.88 361.79L551.72 360.66L550.56 359.56L549.4 358.48L548.24 357.44L547.08 356.44L545.92 355.46L544.76 354.51L543.6 353.6L542.45 352.71L541.29 351.86L540.13 351.03L538.97 350.24L537.81 349.48L536.65 348.75L535.49 348.05L534.33 347.39L533.17 346.75L532.02 346.14L530.86 345.57L529.7 345.03L528.54 344.51L527.38 344.03L526.22 343.58L525.06 343.16L523.9 342.78L522.75 342.42L521.59 342.09L520.43 341.8L519.27 341.53L518.11 341.3L516.95 341.1L515.79 340.93L514.92 340.82L524.01 322.46L548.53 318.91L556.35 365.38L555.19 364.15ZM551.66 308.65L534.08 291.56L538.04 268.57L585 275.53L551.66 308.65ZM466.09 306.41L435 275.53L477.52 269.23L481.36 291.56L466.09 306.41ZM530.53 264.09L529.71 264.68L528.9 265.24L528.08 265.79L527.27 266.31L526.46 266.81L525.64 267.29L524.83 267.75L524.01 268.19L523.2 268.61L522.38 269L521.57 269.38L520.75 269.73L519.94 270.06L519.12 270.37L518.31 270.66L517.5 270.92L516.68 271.17L515.87 271.39L515.05 271.6L514.24 271.78L513.42 271.94L512.61 272.08L511.79 272.19L510.98 272.29L510.16 272.36L509.35 272.42L508.53 272.45L507.72 272.46L506.91 272.45L506.09 272.42L505.28 272.36L504.46 272.29L503.65 272.19L502.83 272.08L502.02 271.94L501.2 271.78L500.39 271.6L499.57 271.39L498.76 271.17L497.95 270.92L497.13 270.66L496.32 270.37L495.5 270.06L494.69 269.73L493.87 269.38L493.06 269L492.24 268.61L491.43 268.19L490.61 267.75L489.8 267.29L488.99 266.81L488.17 266.31L487.72 266.02L510 220L531.14 263.64L530.53 264.09Z" id="gT3xBy4Lt" fill="white" fill-opacity="1" filter="url(#shadow13024238)"></path></g></g><g><g><filter id="shadow12455987" x="391" y="3.31" width="248" height="234.38" filterUnits="userSpaceOnUse" primitiveUnits="userSpaceOnUse"><feFlood></feFlood><feComposite in2="SourceAlpha" operator="in"></feComposite><feGaussianBlur stdDeviation="3.74"></feGaussianBlur><feOffset dx="10" dy="1" result="afterOffset"></feOffset><feFlood flood-color="#2e033f" flood-opacity="1"></feFlood><feComposite in2="afterOffset" operator="in"></feComposite><feMorphology operator="dilate" radius="1"></feMorphology><feComposite in2="SourceAlpha" operator="out"></feComposite></filter><path d="M531.34 90.79L532.16 90.16L532.97 89.51L533.79 88.84L534.6 88.14L535.42 87.43L536.23 86.69L537.05 85.93L537.86 85.16L538.67 84.35L539.49 83.53L540.3 82.69L538.04 95.88L585 102.84L551.66 135.96L560.44 144.49L548.53 146.22L556.35 192.69L555.19 191.46L554.03 190.27L552.88 189.1L551.72 187.97L550.56 186.87L549.4 185.8L548.24 184.76L547.08 183.75L545.92 182.77L544.76 181.82L543.6 180.91L542.45 180.02L541.29 179.17L540.13 178.35L538.97 177.55L537.81 176.79L536.65 176.06L535.49 175.37L534.33 174.7L533.17 174.06L532.02 173.46L530.86 172.88L529.7 172.34L528.54 171.83L527.38 171.34L526.22 170.89L525.06 170.48L523.9 170.09L522.75 169.73L521.59 169.4L520.43 169.11L519.27 168.85L518.11 168.61L516.95 168.41L515.79 168.24L514.92 168.14L507.72 182.69L500.86 168.82L500.73 168.85L499.57 169.11L498.41 169.4L497.25 169.73L496.09 170.09L494.93 170.48L493.78 170.89L492.62 171.34L491.46 171.83L490.3 172.34L489.14 172.88L487.98 173.46L486.82 174.06L485.66 174.7L484.51 175.37L483.35 176.06L482.19 176.79L481.03 177.55L479.87 178.35L478.71 179.17L477.55 180.02L476.39 180.91L475.24 181.82L474.08 182.77L472.92 183.75L471.76 184.76L470.6 185.8L469.44 186.87L468.28 187.97L467.12 189.1L465.97 190.27L464.81 191.46L463.65 192.69L471.36 146.86L455 144.49L466.09 133.72L435 102.84L477.52 96.54L475.14 82.69L475.95 83.53L476.77 84.35L477.58 85.16L478.4 85.93L479.21 86.69L480.03 87.43L480.84 88.14L481.65 88.84L482.47 89.51L483.28 90.16L484.1 90.79L484.91 91.4L485.73 91.99L486.54 92.55L487.36 93.1L487.72 93.33L510 47.31L531.14 90.95L531.34 90.79Z" id="b2vOYIpHt5" fill="white" fill-opacity="1" filter="url(#shadow12455987)"></path></g><use xlink:href="#n8lx0RPRhl" opacity="1" fill="#27732d" fill-opacity="1"></use><g><use xlink:href="#n8lx0RPRhl" opacity="1" fill-opacity="0" stroke="#9cb2dc" stroke-width="7" stroke-opacity="1"></use></g><g><filter id="shadow2994635" x="415" y="27.31" width="191" height="195.38" filterUnits="userSpaceOnUse" primitiveUnits="userSpaceOnUse"><feFlood></feFlood><feComposite in2="SourceAlpha" operator="out"></feComposite><feGaussianBlur stdDeviation="1"></feGaussianBlur><feOffset dx="1" dy="10" result="afterOffset"></feOffset><feFlood flood-color="#0d5a13" flood-opacity="1"></feFlood><feComposite in2="afterOffset" operator="in"></feComposite><feMorphology operator="dilate" radius="3"></feMorphology><feComposite in2="SourceAlpha" operator="in"></feComposite></filter><path d="M531.34 90.79L532.16 90.16L532.97 89.51L533.79 88.84L534.6 88.14L535.42 87.43L536.23 86.69L537.05 85.93L537.86 85.16L538.67 84.35L539.49 83.53L540.3 82.69L538.04 95.88L585 102.84L551.66 135.96L560.44 144.49L548.53 146.22L556.35 192.69L555.19 191.46L554.03 190.27L552.88 189.1L551.72 187.97L550.56 186.87L549.4 185.8L548.24 184.76L547.08 183.75L545.92 182.77L544.76 181.82L543.6 180.91L542.45 180.02L541.29 179.17L540.13 178.35L538.97 177.55L537.81 176.79L536.65 176.06L535.49 175.37L534.33 174.7L533.17 174.06L532.02 173.46L530.86 172.88L529.7 172.34L528.54 171.83L527.38 171.34L526.22 170.89L525.06 170.48L523.9 170.09L522.75 169.73L521.59 169.4L520.43 169.11L519.27 168.85L518.11 168.61L516.95 168.41L515.79 168.24L514.92 168.14L507.72 182.69L500.86 168.82L500.73 168.85L499.57 169.11L498.41 169.4L497.25 169.73L496.09 170.09L494.93 170.48L493.78 170.89L492.62 171.34L491.46 171.83L490.3 172.34L489.14 172.88L487.98 173.46L486.82 174.06L485.66 174.7L484.51 175.37L483.35 176.06L482.19 176.79L481.03 177.55L479.87 178.35L478.71 179.17L477.55 180.02L476.39 180.91L475.24 181.82L474.08 182.77L472.92 183.75L471.76 184.76L470.6 185.8L469.44 186.87L468.28 187.97L467.12 189.1L465.97 190.27L464.81 191.46L463.65 192.69L471.36 146.86L455 144.49L466.09 133.72L435 102.84L477.52 96.54L475.14 82.69L475.95 83.53L476.77 84.35L477.58 85.16L478.4 85.93L479.21 86.69L480.03 87.43L480.84 88.14L481.65 88.84L482.47 89.51L483.28 90.16L484.1 90.79L484.91 91.4L485.73 91.99L486.54 92.55L487.36 93.1L487.72 93.33L510 47.31L531.14 90.95L531.34 90.79Z" id="f7c1hAghc3" fill="white" fill-opacity="1" filter="url(#shadow2994635)"></path></g></g><g><use xlink:href="#bO3hzZ2s5" opacity="1" fill="#27732d" fill-opacity="1"></use><g><use xlink:href="#bO3hzZ2s5" opacity="1" fill-opacity="0" stroke="#9cb2dc" stroke-width="7" stroke-opacity="1"></use></g></g><g><g><g><filter id="shadow1233618" x="201" y="173.31" width="248" height="234.38" filterUnits="userSpaceOnUse" primitiveUnits="userSpaceOnUse"><feFlood></feFlood><feComposite in2="SourceAlpha" operator="in"></feComposite><feGaussianBlur stdDeviation="3.74"></feGaussianBlur><feOffset dx="10" dy="1" result="afterOffset"></feOffset><feFlood flood-color="#2e033f" flood-opacity="1"></feFlood><feComposite in2="afterOffset" operator="in"></feComposite><feMorphology operator="dilate" radius="1"></feMorphology><feComposite in2="SourceAlpha" operator="out"></feComposite></filter><path d="M343.18 265.16L395 272.84L357.5 310.09L366.35 362.69C350.9 346.13 335.45 337.85 320 337.85C304.55 337.85 289.1 346.13 273.65 362.69L282.5 310.09L245 272.84L296.83 265.16L320 217.31L343.18 265.16Z" id="bv30aqXA9" fill="white" fill-opacity="1" filter="url(#shadow1233618)"></path></g><use xlink:href="#a157HlGcD2" opacity="1" fill="#27732d" fill-opacity="1"></use><g><use xlink:href="#a157HlGcD2" opacity="1" fill-opacity="0" stroke="#9cb2dc" stroke-width="7" stroke-opacity="1"></use></g><g><filter id="shadow12248115" x="225" y="197.31" width="191" height="195.38" filterUnits="userSpaceOnUse" primitiveUnits="userSpaceOnUse"><feFlood></feFlood><feComposite in2="SourceAlpha" operator="out"></feComposite><feGaussianBlur stdDeviation="1"></feGaussianBlur><feOffset dx="1" dy="10" result="afterOffset"></feOffset><feFlood flood-color="#0d5a13" flood-opacity="1"></feFlood><feComposite in2="afterOffset" operator="in"></feComposite><feMorphology operator="dilate" radius="3"></feMorphology><feComposite in2="SourceAlpha" operator="in"></feComposite></filter><path d="M343.18 265.16L395 272.84L357.5 310.09L366.35 362.69C350.9 346.13 335.45 337.85 320 337.85C304.55 337.85 289.1 346.13 273.65 362.69L282.5 310.09L245 272.84L296.83 265.16L320 217.31L343.18 265.16Z" id="e1awQldnz9" fill="white" fill-opacity="1" filter="url(#shadow12248115)"></path></g></g><g><g><filter id="shadow14294696" x="221" y="208.69" width="203.44" height="189" filterUnits="userSpaceOnUse" primitiveUnits="userSpaceOnUse"><feFlood></feFlood><feComposite in2="SourceAlpha" operator="in"></feComposite><feGaussianBlur stdDeviation="3.74"></feGaussianBlur><feOffset dx="10" dy="1" result="afterOffset"></feOffset><feFlood flood-color="#2e033f" flood-opacity="1"></feFlood><feComposite in2="afterOffset" operator="in"></feComposite><feMorphology operator="dilate" radius="1"></feMorphology><feComposite in2="SourceAlpha" operator="out"></feComposite></filter><path d="M334.01 319.77L370.44 314.49L344.08 288.87L350.3 252.69C339.44 264.08 328.58 269.77 317.72 269.77C306.86 269.77 296 264.08 285.14 252.69L291.36 288.87L265 314.49L301.43 319.77L317.72 352.69L334.01 319.77Z" id="bVB2fhJNq" fill="white" fill-opacity="1" filter="url(#shadow14294696)"></path></g><use xlink:href="#k51rZRZsRl" opacity="1" fill="#27732d" fill-opacity="1"></use><g><use xlink:href="#k51rZRZsRl" opacity="1" fill-opacity="0" stroke="#9cb2dc" stroke-width="7" stroke-opacity="1"></use></g><g><filter id="shadow14123351" x="245" y="232.69" width="146.44" height="150" filterUnits="userSpaceOnUse" primitiveUnits="userSpaceOnUse"><feFlood></feFlood><feComposite in2="SourceAlpha" operator="out"></feComposite><feGaussianBlur stdDeviation="1"></feGaussianBlur><feOffset dx="1" dy="10" result="afterOffset"></feOffset><feFlood flood-color="#0d5a13" flood-opacity="1"></feFlood><feComposite in2="afterOffset" operator="in"></feComposite><feMorphology operator="dilate" radius="3"></feMorphology><feComposite in2="SourceAlpha" operator="in"></feComposite></filter><path d="M334.01 319.77L370.44 314.49L344.08 288.87L350.3 252.69C339.44 264.08 328.58 269.77 317.72 269.77C306.86 269.77 296 264.08 285.14 252.69L291.36 288.87L265 314.49L301.43 319.77L317.72 352.69L334.01 319.77Z" id="b1xYDcjqe7" fill="white" fill-opacity="1" filter="url(#shadow14123351)"></path></g></g></g><g><use xlink:href="#an5DuIwT6" opacity="1" fill="#27732d" fill-opacity="1"></use><g><use xlink:href="#an5DuIwT6" opacity="1" fill-opacity="0" stroke="#9cb2dc" stroke-width="7" stroke-opacity="1"></use></g></g></g></g></svg>