<?xml version="1.0" standalone="no"?>
<!DOCTYPE svg PUBLIC "-//W3C//DTD SVG 20010904//EN"
 "http://www.w3.org/TR/2001/REC-SVG-20010904/DTD/svg10.dtd">
<svg version="1.0" xmlns="http://www.w3.org/2000/svg"
 width="322.000000pt" height="49.000000pt" viewBox="0 0 322.000000 49.000000"
 preserveAspectRatio="xMidYMid meet">
<metadata>
Created by potrace 1.16, written by Peter Selinger 2001-2019
</metadata>
<g transform="translate(0.000000,49.000000) scale(0.100000,-0.100000)"
fill="#000000" stroke="none">
<path d="M206 458 c-60 -16 -130 -91 -145 -156 -25 -102 21 -198 119 -248 48
-24 144 -24 190 0 37 19 90 65 90 77 0 4 -19 19 -42 33 l-42 25 -29 -25 c-80
-67 -202 6 -183 110 14 76 118 114 180 65 l27 -21 45 23 c24 13 44 27 44 31 0
3 -19 23 -42 42 -62 54 -125 67 -212 44z"/>
<path d="M642 456 c-103 -34 -157 -113 -150 -221 5 -79 41 -137 108 -172 64
-35 168 -30 228 9 138 92 125 296 -23 371 -46 23 -114 28 -163 13z m102 -100
c47 -20 76 -61 76 -108 0 -32 -7 -47 -34 -74 -29 -29 -41 -34 -81 -34 -40 0
-52 5 -81 34 -27 27 -34 42 -34 74 0 46 29 88 74 108 39 17 40 17 80 0z"/>
<path d="M1556 445 c-44 -23 -46 -24 -46 -5 0 17 -7 20 -50 20 l-50 0 0 -210
0 -210 49 0 49 0 4 141 c3 140 3 141 31 165 15 13 37 24 47 24 23 0 26 4 35
58 8 51 -1 53 -69 17z"/>
<path d="M1745 455 c-55 -20 -85 -57 -85 -105 0 -78 25 -102 150 -143 57 -19
65 -25 65 -47 0 -23 -4 -25 -46 -28 -38 -2 -52 2 -75 22 l-29 24 -37 -19 c-47
-24 -51 -31 -32 -58 59 -84 283 -82 322 4 7 14 12 44 12 66 0 55 -36 89 -125
119 -81 26 -95 35 -95 61 0 36 71 37 106 2 14 -15 19 -14 60 5 24 12 44 26 44
31 0 17 -60 60 -98 71 -49 13 -89 12 -137 -5z"/>
<path d="M2175 455 c-152 -41 -200 -253 -83 -362 78 -73 243 -70 312 6 16 17
15 20 -17 44 l-35 26 -38 -19 c-61 -32 -121 -24 -163 21 -42 46 -33 49 140 49
l162 0 -7 53 c-19 139 -137 219 -271 182z"/>
<path d="M2646 445 c-44 -23 -46 -24 -46 -5 0 17 -7 20 -50 20 l-50 0 0 -210
0 -210 50 0 50 0 0 136 0 136 29 29 c16 16 39 29 50 29 24 0 27 4 36 58 8 51
-1 53 -69 17z"/>
<path d="M2878 456 c-91 -33 -139 -94 -146 -186 -7 -99 30 -170 111 -211 52
-27 154 -24 187 6 18 16 23 17 30 5 6 -8 10 -18 10 -22 0 -5 20 -8 45 -8 l45
0 0 210 0 210 -45 0 c-40 0 -45 -3 -51 -26 l-6 -25 -23 21 c-20 19 -79 40
-110 39 -5 0 -27 -6 -47 -13z m138 -112 c27 -18 44 -56 44 -100 0 -28 -8 -44
-34 -70 -29 -29 -41 -34 -81 -34 -40 0 -52 5 -81 34 -27 27 -34 42 -34 74 0
93 106 148 186 96z"/>
<path d="M970 308 c0 -131 3 -157 20 -193 42 -86 168 -110 238 -45 l22 21 0
-26 c0 -23 3 -25 50 -25 l50 0 0 210 0 210 -50 0 -50 0 0 -136 0 -136 -29 -29
c-20 -19 -40 -29 -59 -29 -78 0 -92 30 -92 200 l0 130 -50 0 -50 0 0 -152z"/>
</g>
</svg>
