<?xml version="1.0" encoding="UTF-8" standalone="no"?>
<!DOCTYPE svg PUBLIC "-//W3C//DTD SVG 1.1//EN" "http://www.w3.org/Graphics/SVG/1.1/DTD/svg11.dtd">
<svg version="1.1" xmlns="http://www.w3.org/2000/svg" xmlns:xlink="http://www.w3.org/1999/xlink" preserveAspectRatio="xMidYMid meet" viewBox="0 0 640 640" width="640" height="640"><defs><path d="M516.91 256.03L519.37 256.28L521.81 256.63L524.22 257.07L526.59 257.6L528.93 258.23L531.23 258.94L533.48 259.75L535.7 260.63L537.87 261.6L540 262.65L542.08 263.78L544.11 264.99L546.09 266.27L548.02 267.63L549.89 269.05L551.7 270.55L553.45 272.11L555.15 273.74L556.77 275.43L558.34 277.19L559.83 279L561.26 280.87L562.62 282.8L563.9 284.77L565.1 286.81L566.23 288.89L567.29 291.01L568.26 293.19L569.14 295.4L569.94 297.66L570.66 299.96L571.28 302.3L571.82 304.67L572.26 307.08L572.61 309.51L572.86 311.98L573.01 314.48L573.06 317L573.06 486.11L571.98 487.23L569.95 489.19L567.84 491.07L565.65 492.87L563.4 494.59L561.09 496.22L558.7 497.76L556.26 499.22L553.76 500.58L551.2 501.84L548.58 503.01L545.91 504.08L543.19 505.04L540.43 505.9L537.61 506.66L534.76 507.3L531.86 507.83L530.46 508.03L530.46 512.4L529.75 513.13L528.43 514.41L527.05 515.63L525.63 516.81L524.16 517.93L522.65 518.99L521.1 519.99L519.51 520.94L517.87 521.83L516.2 522.65L514.5 523.41L512.76 524.11L510.99 524.74L509.18 525.3L507.35 525.79L505.49 526.21L503.6 526.56L501.69 526.83L499.76 527.03L497.8 527.14L495.82 527.18L399.84 527.18L397.86 527.14L395.91 527.03L393.97 526.83L392.06 526.56L390.17 526.21L388.31 525.79L386.48 525.3L384.67 524.74L382.9 524.11L381.16 523.41L379.46 522.65L377.79 521.83L376.16 520.94L374.56 519.99L373.01 518.99L371.5 517.93L370.98 517.53L370.98 508.76L369.62 508.73L366.62 508.55L363.65 508.25L360.72 507.83L357.82 507.3L354.97 506.66L352.15 505.9L349.39 505.04L346.67 504.08L344 503.01L341.38 501.84L338.82 500.58L336.32 499.22L333.87 497.76L331.49 496.22L329.17 494.59L328.37 493.98L328.37 317L328.42 314.48L328.57 311.98L328.82 309.51L329.17 307.08L329.61 304.67L330.15 302.3L330.77 299.96L331.49 297.66L332.29 295.4L333.18 293.19L334.15 291.01L335.2 288.89L336.33 286.81L337.54 284.77L338.82 282.8L340.17 280.87L341.6 279L343.1 277.19L344.66 275.43L346.29 273.74L347.98 272.11L349.73 270.55L351.54 269.05L353.42 267.63L355.34 266.27L357.32 264.99L359.35 263.78L361.43 262.65L363.56 261.6L365.73 260.63L367.95 259.75L370.21 258.94L372.51 258.23L374.84 257.6L377.21 257.07L379.62 256.63L382.06 256.28L384.53 256.03L387.02 255.88L389.54 255.83L511.89 255.83L514.41 255.88L516.91 256.03Z" id="fauzWUd9x"></path><path d="M507.72 265.81L507.7 266.22L507.66 266.63L507.6 267.04L507.52 267.44L507.44 267.83L507.33 268.22L507.21 268.6L507.08 268.97L506.93 269.34L506.77 269.7L506.6 270.06L506.41 270.4L506.21 270.74L506 271.07L505.77 271.39L505.53 271.7L505.29 272L505.03 272.29L504.76 272.57L504.48 272.84L504.18 273.1L503.88 273.35L503.57 273.59L503.25 273.81L502.92 274.02L502.59 274.22L502.24 274.41L501.89 274.59L501.53 274.75L501.16 274.89L500.79 275.03L500.4 275.15L500.02 275.25L499.62 275.34L499.22 275.41L498.82 275.47L498.41 275.51L497.99 275.54L497.58 275.54L396.72 275.54L396.3 275.54L395.89 275.51L395.48 275.47L395.07 275.41L394.67 275.34L394.28 275.25L393.89 275.15L393.51 275.03L393.14 274.89L392.77 274.75L392.41 274.59L392.05 274.41L391.71 274.22L391.37 274.02L391.04 273.81L390.72 273.59L390.41 273.35L390.11 273.1L389.82 272.84L389.54 272.57L389.27 272.29L389.01 272L388.76 271.7L388.53 271.39L388.3 271.07L388.09 270.74L387.89 270.4L387.7 270.06L387.52 269.7L387.36 269.34L387.22 268.97L387.08 268.6L386.96 268.22L386.86 267.83L386.77 267.44L386.7 267.04L386.64 266.63L386.6 266.22L386.57 265.81L386.57 265.39L386.57 255.83L507.73 255.83L507.73 265.39L507.72 265.81Z" id="a1cyUVdv2V"></path><path d="M460.34 226.78L460.84 226.83L461.32 226.9L461.8 226.99L462.27 227.09L462.74 227.22L463.2 227.36L463.65 227.52L464.09 227.7L464.52 227.89L464.95 228.1L465.36 228.32L465.77 228.57L466.16 228.82L466.55 229.09L466.92 229.38L467.28 229.67L467.63 229.99L467.97 230.31L468.29 230.65L468.6 231L468.9 231.36L469.19 231.73L469.46 232.12L469.71 232.51L469.95 232.91L470.18 233.33L470.39 233.75L470.58 234.19L470.76 234.63L470.92 235.08L471.06 235.54L471.18 236L471.29 236.48L471.38 236.96L471.45 237.44L471.5 237.93L471.53 238.43L471.54 238.93L471.54 265.89L471.32 266.11L470.92 266.5L470.5 266.88L470.06 267.24L469.61 267.58L469.15 267.9L468.68 268.21L468.19 268.5L467.69 268.77L467.18 269.02L466.66 269.26L466.13 269.47L465.58 269.66L465.03 269.83L464.47 269.98L463.9 270.11L463.33 270.22L462.74 270.3L462.15 270.36L461.55 270.4L460.94 270.41L431.59 270.41L430.98 270.4L430.38 270.36L429.79 270.3L429.21 270.22L428.63 270.11L428.06 269.98L427.5 269.83L426.95 269.66L426.41 269.47L425.87 269.26L425.35 269.02L424.84 268.77L424.34 268.5L423.85 268.21L423.38 267.9L422.92 267.58L422.76 267.46L422.76 238.93L422.77 238.43L422.8 237.93L422.85 237.44L422.92 236.96L423 236.48L423.11 236L423.24 235.54L423.38 235.08L423.54 234.63L423.72 234.19L423.91 233.75L424.12 233.33L424.34 232.91L424.58 232.51L424.84 232.12L425.11 231.73L425.39 231.36L425.69 231L426 230.65L426.33 230.31L426.67 229.99L427.02 229.67L427.38 229.38L427.75 229.09L428.13 228.82L428.53 228.57L428.93 228.32L429.35 228.1L429.77 227.89L430.21 227.7L430.65 227.52L431.1 227.36L431.56 227.22L432.02 227.09L432.49 226.99L432.97 226.9L433.46 226.83L433.95 226.78L434.45 226.75L434.95 226.74L459.34 226.74L459.85 226.75L460.34 226.78Z" id="aoqu1NMeW"></path><path d="M71.77 230.73L72.33 230.78L72.88 230.86L73.42 230.96L73.95 231.08L74.48 231.22L74.99 231.38L75.5 231.56L76 231.76L76.49 231.98L76.97 232.22L77.44 232.47L77.89 232.74L78.34 233.03L78.77 233.34L79.19 233.66L79.6 233.99L80 234.34L80.38 234.71L80.74 235.09L81.1 235.49L81.43 235.89L81.75 236.32L82.06 236.75L82.35 237.19L82.62 237.65L82.87 238.12L83.11 238.6L83.33 239.09L83.53 239.59L83.71 240.09L83.87 240.61L84.01 241.14L84.13 241.67L84.23 242.21L84.31 242.76L84.36 243.32L84.4 243.88L84.41 244.44L84.41 271.97L84.4 272.54L84.36 273.1L84.31 273.66L84.23 274.21L84.13 274.75L84.01 275.28L83.87 275.81L83.71 276.32L83.53 276.83L83.33 277.33L83.11 277.82L82.87 278.3L82.62 278.77L82.59 278.81L82.59 306.33L82.58 306.95L82.54 307.56L82.48 308.16L82.4 308.76L82.29 309.34L82.16 309.92L82.01 310.49L81.83 311.06L81.63 311.61L81.42 312.15L81.18 312.68L80.92 313.2L80.65 313.71L80.35 314.21L80.04 314.69L79.71 315.16L79.36 315.62L78.99 316.06L78.61 316.49L78.21 316.9L77.8 317.3L77.37 317.68L76.93 318.05L76.47 318.4L76 318.73L75.52 319.04L75.02 319.34L74.51 319.61L73.99 319.87L73.46 320.11L72.92 320.32L72.37 320.52L71.81 320.69L71.23 320.85L70.65 320.98L70.07 321.09L69.47 321.17L68.87 321.23L68.26 321.27L67.64 321.28L37.74 321.28L37.12 321.27L36.51 321.23L35.91 321.17L35.31 321.09L34.72 320.98L34.14 320.85L33.57 320.69L33.01 320.52L32.46 320.32L31.92 320.11L31.39 319.87L30.87 319.61L30.36 319.34L29.86 319.04L29.38 318.73L28.91 318.4L28.45 318.05L28.01 317.68L27.58 317.3L27.17 316.9L26.77 316.49L26.39 316.06L26.02 315.62L25.67 315.16L25.34 314.69L25.03 314.21L24.73 313.71L24.46 313.2L24.2 312.68L23.96 312.15L23.74 311.61L23.55 311.06L23.37 310.49L23.22 309.92L23.09 309.34L22.98 308.76L22.9 308.16L22.84 307.56L22.8 306.95L22.79 306.33L22.79 281.29L22.47 280.93L22.13 280.52L21.81 280.1L21.51 279.67L21.22 279.22L20.95 278.77L20.69 278.3L20.46 277.82L20.24 277.33L20.04 276.83L19.86 276.32L19.7 275.81L19.56 275.28L19.43 274.75L19.34 274.21L19.26 273.66L19.2 273.1L19.17 272.54L19.16 271.97L19.16 244.44L19.17 243.88L19.2 243.32L19.26 242.76L19.34 242.21L19.43 241.67L19.56 241.14L19.7 240.61L19.86 240.09L20.04 239.59L20.24 239.09L20.46 238.6L20.69 238.12L20.95 237.65L21.22 237.19L21.51 236.75L21.81 236.32L22.13 235.89L22.47 235.49L22.82 235.09L23.19 234.71L23.57 234.34L23.96 233.99L24.37 233.66L24.79 233.34L25.22 233.03L25.67 232.74L26.13 232.47L26.59 232.22L27.07 231.98L27.56 231.76L28.06 231.56L28.57 231.38L29.09 231.22L29.61 231.08L30.15 230.96L30.69 230.86L31.24 230.78L31.79 230.73L32.35 230.69L32.92 230.68L70.64 230.68L71.21 230.69L71.77 230.73Z" id="b1AcQWsg9c"></path><path d="M504.6 260.21L505.4 260.29L506.2 260.4L506.98 260.54L507.74 260.72L508.28 260.86L508.28 281.37L508.26 282.3L508.21 283.22L508.11 284.13L507.99 285.03L507.82 285.91L507.63 286.79L507.4 287.65L507.13 288.49L506.84 289.33L506.51 290.14L506.15 290.94L505.77 291.73L505.35 292.5L504.9 293.24L504.43 293.97L503.93 294.68L503.41 295.37L502.86 296.04L502.28 296.69L501.68 297.31L501.06 297.91L500.41 298.49L499.74 299.04L499.05 299.56L498.34 300.06L497.61 300.53L496.87 300.98L496.1 301.4L495.32 301.78L494.51 302.14L493.7 302.47L492.87 302.76L492.02 303.03L491.16 303.26L490.28 303.45L489.4 303.62L488.5 303.74L487.59 303.84L486.67 303.89L485.74 303.91L409.66 303.91L408.73 303.89L407.81 303.84L406.9 303.74L406 303.62L405.12 303.45L404.24 303.26L403.38 303.03L402.53 302.76L401.7 302.47L400.88 302.14L400.08 301.78L399.3 301.4L398.53 300.98L397.78 300.53L397.05 300.06L396.35 299.56L395.66 299.04L394.99 298.49L394.34 297.91L393.72 297.31L393.12 296.69L392.54 296.04L391.99 295.37L391.47 294.68L390.97 293.97L390.49 293.24L390.05 292.5L389.63 291.73L389.25 290.94L388.89 290.14L388.56 289.33L388.27 288.49L388 287.65L387.77 286.79L387.57 285.91L387.41 285.03L387.28 284.13L387.19 283.22L387.14 282.3L387.12 281.37L387.12 262.67L387.69 262.35L388.38 262.01L389.09 261.7L389.8 261.41L390.54 261.15L391.28 260.92L392.04 260.72L392.81 260.54L393.59 260.4L394.38 260.29L395.18 260.21L395.99 260.16L396.8 260.14L502.98 260.14L503.8 260.16L504.6 260.21Z" id="cW89ddAhb"></path><path d="M482.24 166.34C487.57 166.34 491.9 170.66 491.9 175.99C491.9 181.79 491.9 189.51 491.9 195.31C491.9 200.64 487.57 204.97 482.24 204.97C465.8 204.97 426.14 204.97 409.7 204.97C404.36 204.97 400.04 200.64 400.04 195.31C400.04 189.51 400.04 181.79 400.04 175.99C400.04 170.66 404.36 166.34 409.7 166.34C426.14 166.34 465.8 166.34 482.24 166.34Z" id="c1z5UyEwZN"></path><path d="M471.27 88.57C482.66 88.57 491.9 97.8 491.9 109.2C491.9 121.57 491.9 138.08 491.9 150.46C491.9 161.85 482.66 171.08 471.27 171.08C457.49 171.08 436.8 171.08 423.03 171.08C411.63 171.08 402.4 161.85 402.4 150.46C402.4 138.08 402.4 121.57 402.4 109.2C402.4 97.8 411.63 88.57 423.03 88.57C436.8 88.57 457.49 88.57 471.27 88.57Z" id="d1vJF9vpnS"></path><path d="M465.19 139.59C475.14 139.59 483.21 147.66 483.21 157.62C483.21 173.8 483.21 204.32 483.21 220.51C483.21 230.46 475.14 238.53 465.19 238.53C454.37 238.53 439.95 238.53 429.14 238.53C419.18 238.53 411.11 230.46 411.11 220.51C411.11 204.32 411.11 173.8 411.11 157.62C411.11 147.66 419.18 139.59 429.14 139.59C439.95 139.59 454.37 139.59 465.19 139.59Z" id="dCKjwFTdy"></path><path d="M221.7 232.74L222.24 232.8L222.78 232.87L223.31 232.97L223.84 233.09L224.36 233.23L224.87 233.39L225.37 233.56L225.86 233.76L226.34 233.98L226.81 234.21L227.27 234.46L227.72 234.73L228.16 235.01L228.59 235.31L229 235.63L229.4 235.96L229.79 236.3L230.17 236.67L230.53 237.04L230.87 237.43L231.21 237.83L231.52 238.24L231.82 238.67L232.11 239.11L232.37 239.56L232.62 240.02L232.86 240.49L233.07 240.97L233.27 241.46L233.45 241.96L233.6 242.47L233.74 242.99L233.86 243.52L233.96 244.05L234.04 244.59L234.09 245.14L234.13 245.69L234.14 246.25L234.14 259.52L233.87 259.76L233.46 260.1L233.04 260.42L232.61 260.73L232.16 261.01L231.7 261.29L231.24 261.54L230.76 261.78L230.27 261.99L229.77 262.19L229.26 262.37L228.74 262.54L228.22 262.68L227.69 262.8L227.14 262.9L226.6 262.97L226.04 263.03L225.48 263.06L224.91 263.08L187.19 263.08L186.62 263.06L186.06 263.03L185.5 262.97L184.95 262.9L184.41 262.8L183.88 262.68L183.35 262.54L182.84 262.37L182.33 262.19L181.83 261.99L181.34 261.78L180.86 261.54L180.39 261.29L179.94 261.01L179.92 261.01L179.92 246.25L179.93 245.69L179.97 245.14L180.02 244.59L180.1 244.05L180.2 243.52L180.32 242.99L180.46 242.47L180.61 241.96L180.79 241.46L180.99 240.97L181.2 240.49L181.44 240.02L181.69 239.56L181.95 239.11L182.24 238.67L182.54 238.24L182.85 237.83L183.19 237.43L183.53 237.04L183.89 236.67L184.27 236.3L184.66 235.96L185.06 235.63L185.47 235.31L185.9 235.01L186.34 234.73L186.79 234.46L187.25 234.21L187.72 233.98L188.2 233.76L188.69 233.56L189.19 233.39L189.7 233.23L190.22 233.09L190.75 232.97L191.28 232.87L191.82 232.8L192.36 232.74L192.92 232.71L193.48 232.7L220.58 232.7L221.14 232.71L221.7 232.74Z" id="goD0ebUzb"></path><path d="M153.63 233.43L154.14 233.48L154.64 233.55L155.14 233.64L155.63 233.75L156.11 233.88L156.59 234.03L157.06 234.19L157.51 234.38L157.96 234.58L158.4 234.8L158.83 235.03L159.25 235.28L159.66 235.54L160.06 235.82L160.45 236.12L160.82 236.43L161.18 236.75L161.53 237.09L161.87 237.44L162.19 237.8L162.5 238.17L162.8 238.56L163.08 238.96L163.34 239.37L163.59 239.79L163.83 240.22L164.04 240.66L164.24 241.11L164.43 241.57L164.59 242.03L164.74 242.51L164.87 242.99L164.98 243.48L165.07 243.98L165.14 244.48L165.2 244.99L165.23 245.51L165.24 246.03L165.24 259.93L165.06 260.1L164.67 260.45L164.26 260.79L163.84 261.11L163.4 261.41L162.96 261.7L162.5 261.97L162.03 262.23L161.56 262.46L161.07 262.68L160.57 262.88L160.06 263.06L159.54 263.22L159.02 263.36L158.48 263.48L157.94 263.58L157.39 263.66L156.84 263.72L156.28 263.75L155.71 263.76L122.36 263.76L121.79 263.75L121.23 263.72L120.67 263.66L120.12 263.58L119.58 263.48L119.05 263.36L118.52 263.22L118 263.06L117.5 262.88L117 262.68L116.51 262.46L116.03 262.23L115.56 261.97L115.1 261.7L114.66 261.41L114.66 261.41L114.66 246.03L114.67 245.51L114.7 244.99L114.75 244.48L114.82 243.98L114.91 243.48L115.02 242.99L115.15 242.51L115.3 242.03L115.47 241.57L115.65 241.11L115.85 240.66L116.07 240.22L116.3 239.79L116.55 239.37L116.82 238.96L117.1 238.56L117.39 238.17L117.7 237.8L118.02 237.44L118.36 237.09L118.71 236.75L119.07 236.43L119.45 236.12L119.83 235.82L120.23 235.54L120.64 235.28L121.06 235.03L121.49 234.8L121.93 234.58L122.38 234.38L122.84 234.19L123.3 234.03L123.78 233.88L124.26 233.75L124.75 233.64L125.25 233.55L125.75 233.48L126.26 233.43L126.78 233.39L127.3 233.38L152.59 233.38L153.11 233.39L153.63 233.43Z" id="f3GchWoMON"></path><path d="M151.34 239.29L151.85 239.35L152.35 239.44L152.84 239.55L153.32 239.69L153.79 239.85L154.25 240.03L154.7 240.23L155.14 240.46L155.57 240.7L155.98 240.97L156.38 241.25L156.76 241.55L157.13 241.87L157.48 242.21L157.82 242.56L158.14 242.93L158.44 243.31L158.72 243.71L158.98 244.12L159.23 244.55L159.45 244.98L159.66 245.43L159.84 245.89L160 246.36L160.13 246.85L160.25 247.34L160.34 247.84L160.4 248.35L160.44 248.86L160.45 249.38L160.45 260.65L160.41 260.69L160.03 261.04L159.63 261.37L159.22 261.68L158.79 261.97L158.35 262.25L157.89 262.5L157.42 262.73L156.94 262.94L156.45 263.13L155.95 263.29L155.43 263.44L154.91 263.55L154.38 263.64L153.84 263.71L153.29 263.75L152.74 263.76L126.1 263.76L125.55 263.75L125 263.71L124.46 263.64L123.93 263.55L123.41 263.44L122.89 263.29L122.39 263.13L121.9 262.94L121.42 262.73L120.95 262.5L120.49 262.25L120.05 261.97L119.86 261.84L119.86 249.38L119.87 248.86L119.91 248.35L119.97 247.84L120.06 247.34L120.18 246.85L120.31 246.36L120.47 245.89L120.65 245.43L120.86 244.98L121.08 244.55L121.33 244.12L121.59 243.71L121.87 243.31L122.17 242.93L122.49 242.56L122.83 242.21L123.18 241.87L123.55 241.55L123.93 241.25L124.33 240.97L124.74 240.7L125.17 240.46L125.61 240.23L126.06 240.03L126.52 239.85L126.99 239.69L127.47 239.55L127.96 239.44L128.46 239.35L128.97 239.29L129.48 239.25L130.01 239.23L150.3 239.23L150.83 239.25L151.34 239.29Z" id="b11Y9vDyY1"></path><path d="M147.94 243.47L148.4 243.54L148.86 243.64L149.3 243.77L149.73 243.92L150.15 244.1L150.56 244.3L150.95 244.53L151.33 244.77L151.69 245.04L152.04 245.33L152.36 245.64L152.67 245.96L152.96 246.31L153.23 246.67L153.47 247.05L153.7 247.44L153.9 247.85L154.08 248.27L154.23 248.7L154.36 249.14L154.46 249.6L154.53 250.06L154.57 250.53L154.59 251.01L154.59 260.94L154.45 261.09L154.06 261.46L153.65 261.8L153.21 262.13L152.76 262.42L152.29 262.69L151.8 262.94L151.29 263.15L150.77 263.33L150.24 263.49L149.69 263.61L149.13 263.69L148.56 263.75L147.99 263.76L129.69 263.76L129.11 263.75L128.54 263.69L127.98 263.61L127.44 263.49L126.9 263.33L126.38 263.15L125.88 262.94L125.39 262.69L124.92 262.42L124.46 262.13L124.19 261.92L124.19 251.01L124.2 250.53L124.25 250.06L124.32 249.6L124.42 249.14L124.55 248.7L124.7 248.27L124.88 247.85L125.08 247.44L125.3 247.05L125.55 246.67L125.82 246.31L126.11 245.96L126.41 245.64L126.74 245.33L127.08 245.04L127.45 244.77L127.82 244.53L128.21 244.3L128.62 244.1L129.04 243.92L129.47 243.77L129.92 243.64L130.37 243.54L130.83 243.47L131.31 243.43L131.79 243.41L146.99 243.41L147.47 243.43L147.94 243.47Z" id="f44pUfCqZ"></path><path d="M145.35 248.66L145.83 248.77L146.29 248.92L146.73 249.11L147.16 249.33L147.56 249.59L147.93 249.88L148.28 250.2L148.6 250.55L148.89 250.93L149.15 251.33L149.37 251.75L149.56 252.19L149.71 252.65L149.82 253.13L149.89 253.63L149.91 254.13L149.91 261.08L149.85 261.15L149.43 261.53L148.99 261.87L148.52 262.18L148.02 262.44L147.49 262.67L146.95 262.84L146.38 262.97L145.8 263.05L145.2 263.08L131.58 263.08L130.98 263.05L130.4 262.97L129.84 262.84L129.29 262.67L128.77 262.44L128.27 262.18L127.79 261.87L127.68 261.79L127.68 254.13L127.7 253.63L127.77 253.13L127.88 252.65L128.03 252.19L128.21 251.75L128.44 251.33L128.69 250.93L128.99 250.55L129.31 250.2L129.65 249.88L130.03 249.59L130.43 249.33L130.85 249.11L131.3 248.92L131.76 248.77L132.24 248.66L132.73 248.6L133.24 248.57L144.35 248.57L144.86 248.6L145.35 248.66Z" id="a1nbsBzx8V"></path><path d="M271.06 129.88L271.77 129.95L272.47 130.05L273.16 130.18L273.84 130.33L274.5 130.51L275.16 130.72L275.81 130.95L276.44 131.2L277.07 131.48L277.67 131.78L278.27 132.1L278.85 132.45L279.42 132.82L279.97 133.2L280.5 133.61L281.02 134.04L281.52 134.49L282.01 134.95L282.47 135.44L282.92 135.94L283.35 136.46L283.76 136.99L284.15 137.55L284.51 138.11L284.86 138.69L285.18 139.29L285.48 139.9L285.76 140.52L286.02 141.15L286.24 141.8L286.45 142.46L286.63 143.13L286.78 143.81L286.91 144.5L287.01 145.19L287.08 145.9L287.12 146.61L287.14 147.34L287.14 166.9L286.83 167.2L286.28 167.69L285.71 168.16L285.12 168.61L284.51 169.04L283.89 169.44L283.25 169.82L282.59 170.18L281.92 170.51L281.24 170.82L280.54 171.1L279.83 171.35L279.11 171.57L278.37 171.77L277.62 171.94L276.87 172.08L276.1 172.19L275.32 172.27L274.54 172.31L273.74 172.33L227.96 172.33L227.16 172.31L226.38 172.27L225.6 172.19L224.83 172.08L224.07 171.94L223.33 171.77L222.59 171.57L221.87 171.35L221.16 171.1L220.46 170.82L219.78 170.51L219.11 170.18L218.45 169.82L217.81 169.44L217.19 169.04L217.1 168.98L217.1 147.34L217.11 146.61L217.15 145.9L217.23 145.19L217.33 144.5L217.45 143.81L217.61 143.13L217.78 142.46L217.99 141.8L218.22 141.15L218.47 140.52L218.75 139.9L219.05 139.29L219.37 138.69L219.72 138.11L220.09 137.55L220.47 136.99L220.88 136.46L221.31 135.94L221.76 135.44L222.22 134.95L222.71 134.49L223.21 134.04L223.73 133.61L224.27 133.2L224.82 132.82L225.38 132.45L225.96 132.1L226.56 131.78L227.17 131.48L227.79 131.2L228.43 130.95L229.07 130.72L229.73 130.51L230.4 130.33L231.08 130.18L231.77 130.05L232.46 129.95L233.17 129.88L233.88 129.84L234.61 129.83L269.63 129.83L270.35 129.84L271.06 129.88ZM237.77 138.02L237.2 138.06L236.63 138.11L236.07 138.19L235.52 138.3L234.97 138.42L234.44 138.56L233.91 138.73L233.39 138.91L232.88 139.11L232.38 139.34L231.89 139.58L231.41 139.84L230.95 140.12L230.49 140.41L230.05 140.72L229.62 141.05L229.21 141.39L228.8 141.75L228.41 142.13L228.04 142.51L227.68 142.92L227.34 143.33L227.01 143.76L226.7 144.21L226.4 144.66L226.13 145.13L225.87 145.6L225.62 146.09L225.4 146.59L225.2 147.1L225.01 147.62L224.85 148.15L224.71 148.69L224.58 149.23L224.48 149.78L224.4 150.34L224.34 150.91L224.31 151.48L224.3 152.06L224.3 169.59L224.41 169.67L224.92 170L225.43 170.31L225.96 170.59L226.5 170.86L227.05 171.11L227.62 171.33L228.19 171.54L228.78 171.72L229.37 171.88L229.97 172.01L230.58 172.13L231.2 172.21L231.83 172.28L232.47 172.32L233.11 172.33L269.67 172.33L270.31 172.32L270.94 172.28L271.57 172.21L272.19 172.13L272.8 172.01L273.41 171.88L274 171.72L274.58 171.54L275.16 171.33L275.72 171.11L276.27 170.86L276.81 170.59L277.34 170.31L277.86 170L278.36 169.67L278.85 169.33L279.33 168.97L279.79 168.59L280.23 168.19L280.51 167.92L280.51 152.06L280.5 151.48L280.47 150.91L280.41 150.34L280.33 149.78L280.23 149.23L280.1 148.69L279.96 148.15L279.8 147.62L279.61 147.1L279.41 146.59L279.18 146.09L278.94 145.6L278.68 145.13L278.41 144.66L278.11 144.21L277.8 143.76L277.47 143.33L277.13 142.92L276.77 142.51L276.4 142.13L276.01 141.75L275.6 141.39L275.19 141.05L274.76 140.72L274.32 140.41L273.86 140.12L273.39 139.84L272.92 139.58L272.43 139.34L271.93 139.11L271.42 138.91L270.9 138.73L270.37 138.56L269.84 138.42L269.29 138.3L268.74 138.19L268.18 138.11L267.61 138.06L267.04 138.02L266.46 138.01L238.35 138.01L237.77 138.02Z" id="bKh5PvbeO"></path><path d="M220.71 276.02L221.22 276.07L221.73 276.15L222.22 276.24L222.71 276.35L223.2 276.48L223.67 276.63L224.14 276.79L224.6 276.97L225.05 277.17L225.49 277.39L225.92 277.63L226.34 277.88L226.75 278.14L227.14 278.42L227.53 278.72L227.91 279.02L228.27 279.35L228.62 279.68L228.95 280.03L229.28 280.4L229.59 280.77L229.88 281.16L230.16 281.56L230.43 281.97L230.68 282.38L230.91 282.82L231.13 283.25L231.33 283.7L231.51 284.16L231.68 284.63L231.82 285.1L231.95 285.59L232.06 286.08L232.16 286.58L232.23 287.08L232.28 287.59L232.31 288.11L232.32 288.63L232.32 302.53L232.14 302.7L231.75 303.05L231.34 303.38L230.92 303.71L230.49 304.01L230.04 304.3L229.59 304.57L229.12 304.83L228.64 305.06L228.15 305.28L227.65 305.48L227.14 305.66L226.62 305.82L226.1 305.96L225.57 306.08L225.02 306.18L224.48 306.26L223.92 306.32L223.36 306.35L222.79 306.36L219.82 306.36L220.38 306.35L220.92 306.31L221.46 306.24L222 306.15L222.52 306.03L223.03 305.89L223.53 305.73L224.03 305.54L224.51 305.33L224.97 305.1L225.43 304.84L225.87 304.57L226.3 304.28L226.71 303.97L227.11 303.64L227.5 303.29L227.54 303.25L227.54 291.98L227.52 291.46L227.48 290.94L227.42 290.43L227.33 289.93L227.22 289.44L227.08 288.96L226.92 288.49L226.74 288.03L226.54 287.58L226.31 287.14L226.07 286.72L225.8 286.31L225.52 285.91L225.22 285.52L224.9 285.16L224.56 284.8L224.21 284.47L223.84 284.15L223.46 283.85L223.06 283.56L222.65 283.3L222.22 283.06L221.79 282.83L221.34 282.63L220.88 282.45L220.41 282.29L219.92 282.15L219.43 282.04L218.93 281.95L218.42 281.88L217.91 281.84L217.39 281.83L197.09 281.83L196.57 281.84L196.05 281.88L195.54 281.95L195.04 282.04L194.55 282.15L194.07 282.29L193.6 282.45L193.14 282.63L192.69 282.83L192.25 283.06L191.83 283.3L191.41 283.56L191.02 283.85L190.63 284.15L190.26 284.47L189.91 284.8L189.58 285.16L189.26 285.52L188.96 285.91L188.67 286.31L188.41 286.72L188.16 287.14L187.94 287.58L187.74 288.03L187.56 288.49L187.4 288.96L187.26 289.44L187.15 289.93L187.06 290.43L186.99 290.94L186.95 291.46L186.94 291.98L186.94 304.44L187.13 304.57L187.58 304.84L188.03 305.1L188.5 305.33L188.98 305.54L189.47 305.73L189.98 305.89L190.49 306.03L191.01 306.15L191.54 306.24L192.08 306.31L192.63 306.35L193.19 306.36L189.44 306.36L188.87 306.35L188.31 306.32L187.75 306.26L187.21 306.18L186.66 306.08L186.13 305.96L185.6 305.82L185.09 305.66L184.58 305.48L184.08 305.28L183.59 305.06L183.11 304.83L182.64 304.57L182.19 304.3L181.74 304.01L181.74 304.01L181.74 288.63L181.75 288.11L181.78 287.59L181.83 287.08L181.9 286.58L182 286.08L182.11 285.59L182.24 285.1L182.38 284.63L182.55 284.16L182.73 283.7L182.93 283.25L183.15 282.82L183.38 282.38L183.63 281.97L183.9 281.56L184.18 281.16L184.47 280.77L184.78 280.4L185.11 280.03L185.44 279.68L185.79 279.35L186.15 279.02L186.53 278.72L186.92 278.42L187.31 278.14L187.72 277.88L188.14 277.63L188.57 277.39L189.01 277.17L189.46 276.97L189.92 276.79L190.39 276.63L190.86 276.48L191.35 276.35L191.84 276.24L192.33 276.15L192.84 276.07L193.35 276.02L193.86 275.99L194.38 275.98L219.68 275.98L220.2 275.99L220.71 276.02ZM215.02 286.07L215.49 286.14L215.94 286.24L216.39 286.37L216.82 286.52L217.24 286.7L217.64 286.9L218.04 287.12L218.41 287.37L218.77 287.64L219.12 287.93L219.44 288.24L219.75 288.56L220.04 288.91L220.31 289.27L220.56 289.64L220.78 290.04L220.98 290.44L221.16 290.86L221.31 291.29L221.44 291.74L221.54 292.19L221.61 292.66L221.66 293.13L221.67 293.61L221.67 303.54L221.54 303.68L221.14 304.05L220.73 304.4L220.29 304.72L219.84 305.02L219.37 305.29L218.88 305.53L218.37 305.75L217.85 305.93L217.32 306.08L216.77 306.2L216.22 306.29L215.65 306.34L215.07 306.36L196.77 306.36L196.19 306.34L195.63 306.29L195.07 306.2L194.52 306.08L193.99 305.93L193.47 305.75L192.96 305.53L192.47 305.29L192 305.02L191.55 304.72L191.27 304.52L191.27 293.61L191.29 293.13L191.33 292.66L191.4 292.19L191.5 291.74L191.63 291.29L191.78 290.86L191.96 290.44L192.16 290.04L192.39 289.64L192.63 289.27L192.9 288.91L193.19 288.56L193.5 288.24L193.82 287.93L194.17 287.64L194.53 287.37L194.91 287.12L195.3 286.9L195.7 286.7L196.12 286.52L196.56 286.37L197 286.24L197.45 286.14L197.92 286.07L198.39 286.02L198.87 286.01L214.07 286.01L214.55 286.02L215.02 286.07ZM199.81 291.19L199.32 291.26L198.84 291.37L198.38 291.52L197.94 291.71L197.51 291.93L197.11 292.19L196.74 292.48L196.39 292.8L196.07 293.15L195.78 293.52L195.52 293.92L195.3 294.35L195.11 294.79L194.96 295.25L194.85 295.73L194.78 296.22L194.76 296.73L194.76 304.38L194.88 304.47L195.35 304.78L195.85 305.04L196.37 305.26L196.92 305.44L197.48 305.57L198.07 305.65L198.67 305.67L212.28 305.67L212.88 305.65L213.46 305.57L214.03 305.44L214.57 305.26L215.1 305.04L215.6 304.78L216.07 304.47L216.52 304.13L216.93 303.75L216.99 303.68L216.99 296.73L216.97 296.22L216.9 295.73L216.79 295.25L216.64 294.79L216.46 294.35L216.23 293.92L215.97 293.52L215.68 293.15L215.36 292.8L215.01 292.48L214.64 292.19L214.24 291.93L213.82 291.71L213.37 291.52L212.91 291.37L212.43 291.26L211.94 291.19L211.43 291.17L200.32 291.17L199.81 291.19Z" id="e2jhu5qq5S"></path><path d="M407.99 255.91L407.53 255.98L407.38 256.01L407.38 268.25L407.39 268.8L407.42 269.34L407.47 269.87L407.55 270.39L407.64 270.91L407.76 271.42L407.89 271.93L408.05 272.42L408.22 272.91L408.41 273.39L408.62 273.86L408.85 274.32L409.09 274.77L409.35 275.2L409.63 275.63L409.92 276.05L410.23 276.45L410.55 276.84L410.89 277.22L411.24 277.58L411.61 277.94L411.98 278.27L412.37 278.59L412.78 278.9L413.19 279.19L413.62 279.47L414.06 279.73L414.51 279.98L414.97 280.2L415.43 280.41L415.91 280.6L416.4 280.78L416.9 280.93L417.4 281.07L417.91 281.18L418.43 281.28L418.96 281.35L419.49 281.4L420.03 281.44L420.57 281.45L473.99 281.45L474.54 281.44L475.08 281.4L475.61 281.35L476.14 281.28L476.65 281.18L477.17 281.07L477.67 280.93L478.17 280.78L478.65 280.6L479.13 280.41L479.6 280.2L480.06 279.98L480.51 279.73L480.95 279.47L481.37 279.19L481.79 278.9L482.19 278.59L482.58 278.27L482.96 277.94L483.33 277.58L483.68 277.22L484.01 276.84L484.34 276.45L484.64 276.05L484.94 275.63L485.21 275.2L485.47 274.77L485.72 274.32L485.94 273.86L486.15 273.39L486.34 272.91L486.52 272.42L486.67 271.93L486.81 271.42L486.92 270.91L487.02 270.39L487.09 269.87L487.15 269.34L487.18 268.8L487.19 268.25L487.19 256.92L486.78 256.74L486.36 256.57L485.93 256.42L485.5 256.28L485.05 256.16L484.6 256.06L484.15 255.98L483.68 255.91L483.22 255.86L482.74 255.83L482.26 255.83L514.53 255.83L516.95 255.87L519.33 256.02L521.7 256.26L524.03 256.59L526.33 257.01L528.6 257.53L530.83 258.13L533.03 258.81L535.19 259.58L537.32 260.42L539.4 261.35L541.43 262.36L543.42 263.44L545.36 264.59L547.26 265.82L549.1 267.12L550.89 268.48L552.62 269.91L554.3 271.41L555.92 272.97L557.48 274.59L558.97 276.26L560.41 278L561.77 279.79L563.07 281.63L564.29 283.52L565.45 285.47L566.53 287.46L567.54 289.49L568.46 291.57L569.31 293.69L570.08 295.85L570.76 298.05L571.36 300.29L571.87 302.56L572.3 304.86L572.63 307.19L572.87 309.55L573.01 311.94L573.06 314.35L573.06 359.25L572.68 359.55L571.06 360.69L569.39 361.77L567.68 362.78L565.93 363.73L564.14 364.62L562.31 365.43L560.45 366.18L558.54 366.86L556.61 367.46L554.64 367.98L552.65 368.43L550.62 368.81L548.57 369.1L546.49 369.31L544.39 369.44L542.27 369.48L531.6 369.48L531.66 370.1L531.76 371.75L531.8 373.41L531.8 510.21L531.09 510.94L529.75 512.24L528.36 513.47L526.92 514.66L525.44 515.79L523.91 516.87L522.34 517.88L520.73 518.84L519.08 519.73L517.4 520.57L515.67 521.34L513.92 522.04L512.13 522.68L510.3 523.24L508.45 523.74L506.57 524.16L504.66 524.51L502.73 524.79L500.78 524.99L498.8 525.11L496.8 525.15L399.82 525.15L397.82 525.11L395.84 524.99L393.89 524.79L391.96 524.51L390.05 524.16L388.17 523.74L386.32 523.24L384.49 522.68L382.7 522.04L380.95 521.34L379.22 520.57L377.54 519.73L375.89 518.84L374.28 517.88L372.71 516.87L371.18 515.79L370.65 515.39L370.65 373.41L370.69 371.75L370.79 370.1L370.85 369.48L347.67 369.48L345.54 369.44L343.44 369.31L341.37 369.1L339.31 368.81L337.29 368.43L335.29 367.98L333.33 367.46L331.39 366.86L329.49 366.18L327.62 365.43L325.82 364.63L325.82 314.35L325.87 311.94L326.01 309.55L326.25 307.19L326.58 304.86L327.01 302.56L327.52 300.29L328.12 298.05L328.8 295.85L329.57 293.69L330.42 291.57L331.35 289.49L332.35 287.46L333.43 285.47L334.59 283.52L335.81 281.63L337.11 279.79L338.48 278L339.91 276.26L341.4 274.59L342.96 272.97L344.58 271.41L346.26 269.91L347.99 268.48L349.78 267.12L351.62 265.82L353.52 264.59L355.46 263.44L357.45 262.36L359.49 261.35L361.57 260.42L363.69 259.58L365.85 258.81L368.05 258.13L370.28 257.53L372.55 257.01L374.85 256.59L377.19 256.26L379.55 256.02L381.93 255.87L384.35 255.83L409.42 255.83L408.94 255.83L408.46 255.86L408.46 255.86L407.99 255.91Z" id="b3xk71WEG"></path><path d="M210.71 295.36L211.2 295.55L211.66 295.8L212.08 296.12L212.45 296.49L212.76 296.9L213.01 297.36L213.2 297.86L213.32 298.38L213.36 298.93L213.36 302.84L213.08 303.09L212.66 303.37L212.2 303.6L211.71 303.77L211.2 303.88L210.66 303.91L200.59 303.91L200.06 303.88L199.54 303.77L199.06 303.6L198.6 303.37L198.44 303.26L198.44 298.93L198.48 298.38L198.59 297.86L198.78 297.36L199.04 296.9L199.35 296.49L199.72 296.12L200.13 295.8L200.59 295.55L201.09 295.36L201.62 295.24L202.17 295.2L209.63 295.2L210.18 295.24L210.71 295.36Z" id="a5vXvTNaSM"></path><path d="M430.99 166.51L431.31 166.71L431.57 166.97L431.78 167.29L431.9 167.65L431.95 168.04L431.95 171.69L431.92 171.73L431.5 172.05L431.01 172.26L430.47 172.33L426.37 172.33L425.82 172.26L425.33 172.05L425.13 171.9L425.13 168.04L425.18 167.65L425.31 167.29L425.51 166.97L425.77 166.71L426.09 166.51L426.45 166.38L426.84 166.34L430.25 166.34L430.64 166.38L430.99 166.51Z" id="i9wObqymy"></path><path d="M448.08 181.78L448.24 181.82L448.4 181.88L448.55 181.95L448.69 182.03L448.82 182.13L448.94 182.24L449.05 182.36L449.15 182.49L449.23 182.63L449.31 182.78L449.36 182.94L449.41 183.1L449.43 183.27L449.44 183.44L449.44 198.26L449.33 198.36L449.17 198.5L449 198.61L448.81 198.71L448.61 198.79L448.4 198.84L448.18 198.88L447.96 198.89L443.86 198.89L443.64 198.88L443.42 198.84L443.21 198.79L443.01 198.71L442.82 198.61L442.65 198.5L442.63 198.48L442.63 183.44L442.63 183.27L442.66 183.1L442.7 182.94L442.76 182.78L442.83 182.63L442.92 182.49L443.01 182.36L443.12 182.24L443.25 182.13L443.38 182.03L443.52 181.95L443.67 181.88L443.82 181.82L443.99 181.78L444.16 181.75L444.33 181.74L447.74 181.74L447.91 181.75L448.08 181.78Z" id="b5w4M2m4bf"></path><path d="M433.73 162.2L434.12 162.29L434.5 162.43L434.87 162.59L435.21 162.78L435.54 163.01L435.84 163.26L436.12 163.54L436.37 163.84L436.59 164.17L436.79 164.51L436.95 164.87L437.08 165.25L437.18 165.65L437.24 166.06L437.26 166.48L437.26 174.51L437.18 174.59L436.81 174.93L436.4 175.23L435.97 175.5L435.51 175.72L435.03 175.89L434.53 176.02L434.01 176.1L433.47 176.13L422.98 176.13L422.45 176.1L421.92 176.02L421.42 175.89L420.94 175.72L420.48 175.5L420.05 175.23L419.83 175.07L419.83 166.48L419.85 166.06L419.91 165.65L420 165.25L420.13 164.87L420.3 164.51L420.49 164.17L420.71 163.84L420.97 163.54L421.25 163.26L421.55 163.01L421.87 162.78L422.22 162.59L422.58 162.43L422.96 162.29L423.36 162.2L423.76 162.14L424.18 162.12L432.9 162.12L433.32 162.14L433.73 162.2ZM424.88 164.34L424.44 164.44L424.01 164.6L423.62 164.82L423.27 165.09L422.95 165.4L422.68 165.75L422.47 166.15L422.3 166.57L422.2 167.02L422.17 167.49L422.17 173.16L422.39 173.33L422.86 173.59L423.37 173.78L423.91 173.9L424.48 173.95L432.15 173.95L432.71 173.9L433.25 173.78L433.76 173.59L434.23 173.33L434.66 173.01L434.91 172.75L434.91 167.49L434.88 167.02L434.78 166.57L434.62 166.15L434.4 165.75L434.13 165.4L433.82 165.09L433.46 164.82L433.07 164.6L432.65 164.44L432.2 164.34L431.73 164.3L425.36 164.3L424.88 164.34Z" id="ffDpxFfNt"></path><path d="M156.84 289.27L157.2 289.35L157.54 289.46L157.87 289.59L158.19 289.75L158.5 289.93L158.78 290.14L159.05 290.37L159.3 290.62L159.53 290.88L159.73 291.17L159.92 291.47L160.08 291.79L160.21 292.12L160.31 292.47L160.39 292.83L160.44 293.19L160.45 293.57L160.45 304.74L160.22 304.97L159.9 305.25L159.56 305.5L159.19 305.72L158.81 305.91L158.41 306.07L157.99 306.19L157.56 306.29L157.12 306.34L156.67 306.36L146.18 306.36L145.73 306.34L145.29 306.29L144.86 306.19L144.44 306.07L144.04 305.91L143.66 305.72L143.29 305.5L143.02 305.3L143.02 293.57L143.04 293.19L143.09 292.83L143.16 292.47L143.27 292.12L143.4 291.79L143.56 291.47L143.74 291.17L143.95 290.88L144.18 290.62L144.43 290.37L144.7 290.14L144.98 289.93L145.29 289.75L145.6 289.59L145.94 289.46L146.28 289.35L146.64 289.27L147.01 289.23L147.38 289.21L156.1 289.21L156.47 289.23L156.84 289.27Z" id="a56istpQv2"></path><path d="M467.41 162.2L467.8 162.29L468.18 162.43L468.55 162.59L468.89 162.78L469.22 163.01L469.52 163.26L469.8 163.54L470.05 163.84L470.27 164.17L470.47 164.51L470.63 164.87L470.76 165.25L470.86 165.65L470.92 166.06L470.94 166.48L470.94 174.51L470.86 174.59L470.49 174.93L470.08 175.23L469.65 175.5L469.19 175.72L468.71 175.89L468.21 176.02L467.69 176.1L467.15 176.13L456.66 176.13L456.13 176.1L455.61 176.02L455.1 175.89L454.62 175.72L454.16 175.5L453.73 175.23L453.51 175.07L453.51 166.48L453.53 166.06L453.59 165.65L453.68 165.25L453.81 164.87L453.98 164.51L454.17 164.17L454.4 163.84L454.65 163.54L454.93 163.26L455.23 163.01L455.55 162.78L455.9 162.59L456.26 162.43L456.64 162.29L457.04 162.2L457.45 162.14L457.87 162.12L466.58 162.12L467 162.14L467.41 162.2ZM458.57 164.34L458.12 164.44L457.69 164.6L457.3 164.82L456.95 165.09L456.63 165.4L456.36 165.75L456.15 166.15L455.99 166.57L455.89 167.02L455.85 167.49L455.85 173.16L456.07 173.33L456.54 173.59L457.05 173.78L457.59 173.9L458.16 173.95L465.83 173.95L466.39 173.9L466.93 173.78L467.44 173.59L467.91 173.33L468.34 173.01L468.59 172.75L468.59 167.49L468.56 167.02L468.46 166.57L468.3 166.15L468.08 165.75L467.81 165.4L467.5 165.09L467.14 164.82L466.75 164.6L466.33 164.44L465.88 164.34L465.41 164.3L459.04 164.3L458.57 164.34Z" id="aMhr7qzdR"></path><path d="M464.68 166.51L464.99 166.71L465.26 166.97L465.46 167.29L465.58 167.65L465.63 168.04L465.63 171.69L465.6 171.73L465.18 172.05L464.7 172.26L464.15 172.33L460.05 172.33L459.5 172.26L459.01 172.05L458.82 171.9L458.82 168.04L458.86 167.65L458.99 167.29L459.19 166.97L459.45 166.71L459.77 166.51L460.13 166.38L460.52 166.34L463.93 166.34L464.32 166.38L464.68 166.51Z" id="e15qZ46Oyi"></path><path d="M459.47 208.76L459.47 212.77L459.44 213.22L459.38 213.64L459.27 214.06L459.13 214.45L458.95 214.83L458.73 215.19L458.48 215.52L458.2 215.83L457.9 216.11L457.56 216.35L457.21 216.57L456.83 216.75L456.43 216.9L456.02 217L455.59 217.07L455.15 217.09L436.92 217.09L436.48 217.07L436.05 217L435.63 216.9L435.24 216.75L434.86 216.57L434.5 216.35L434.17 216.11L433.86 215.83L433.59 215.52L433.34 215.19L433.12 214.83L432.94 214.45L432.79 214.06L432.69 213.64L432.62 213.22L432.6 212.77L432.6 209.04L432.75 208.97L433.08 208.86L433.43 208.78L433.78 208.73L434.15 208.71L458.89 208.71L459.26 208.73L459.47 208.76Z" id="a7ZZRYzQkH"></path><path d="M467.21 113.92L467.79 113.97L468.37 114.06L468.94 114.16L469.5 114.29L470.05 114.44L470.59 114.6L471.13 114.79L471.65 115L472.17 115.23L472.67 115.48L473.16 115.75L473.64 116.03L474.11 116.34L474.56 116.66L475.01 116.99L475.43 117.35L475.54 117.45L475.54 131.03L475.53 131.64L475.49 132.24L475.43 132.83L475.35 133.42L475.24 134L475.11 134.57L474.96 135.14L474.79 135.69L474.6 136.24L474.38 136.77L474.15 137.3L473.9 137.81L473.62 138.31L473.33 138.8L473.02 139.28L472.7 139.74L472.35 140.19L471.99 140.63L471.61 141.05L471.22 141.46L470.81 141.85L470.39 142.23L469.95 142.59L469.5 142.94L469.04 143.26L468.56 143.57L468.07 143.86L467.57 144.14L467.06 144.39L466.53 144.62L466 144.84L465.45 145.03L464.9 145.2L464.33 145.35L463.76 145.48L463.18 145.59L462.59 145.67L462 145.73L461.4 145.77L460.79 145.78L431.28 145.78L430.67 145.77L430.07 145.73L429.47 145.67L428.88 145.59L428.3 145.48L427.73 145.35L427.17 145.2L426.61 145.03L426.07 144.84L425.53 144.62L425.01 144.39L424.5 144.14L424 143.86L423.51 143.57L423.03 143.26L422.56 142.94L422.11 142.59L421.68 142.23L421.25 141.85L420.84 141.46L420.45 141.05L420.07 140.63L419.71 140.19L419.37 139.74L419.04 139.28L418.73 138.8L418.44 138.31L418.17 137.81L417.92 137.3L417.68 136.77L417.47 136.24L417.28 135.69L417.1 135.14L416.95 134.57L416.82 134L416.72 133.42L416.63 132.83L416.57 132.24L416.54 131.64L416.52 131.03L416.52 115.9L416.77 115.75L417.26 115.48L417.76 115.23L418.28 115L418.8 114.79L419.34 114.6L419.88 114.44L420.43 114.29L420.99 114.16L421.56 114.06L422.14 113.97L422.72 113.92L423.31 113.88L423.91 113.87L466.02 113.87L466.62 113.88L467.21 113.92ZM428.07 113.88L427.55 113.91L427.04 113.97L426.54 114.05L426.05 114.14L425.56 114.26L425.09 114.4L424.62 114.56L424.16 114.74L423.71 114.93L423.26 115.15L422.84 115.38L422.59 115.53L422.59 127.8L422.6 128.34L422.64 128.87L422.7 129.4L422.78 129.92L422.89 130.44L423.01 130.94L423.16 131.44L423.33 131.93L423.52 132.4L423.73 132.87L423.96 133.33L424.21 133.77L424.47 134.2L424.76 134.62L425.06 135.03L425.38 135.43L425.71 135.8L426.06 136.17L426.42 136.52L426.8 136.85L427.2 137.17L427.6 137.47L428.02 137.75L428.46 138.02L428.9 138.27L429.36 138.5L429.82 138.71L430.3 138.9L430.79 139.07L431.29 139.21L431.79 139.34L432.3 139.45L432.83 139.53L433.36 139.59L433.89 139.63L434.43 139.64L458.12 139.64L458.66 139.63L459.2 139.59L459.72 139.53L460.25 139.45L460.76 139.34L461.27 139.21L461.76 139.07L462.25 138.9L462.73 138.71L463.19 138.5L463.65 138.27L464.09 138.02L464.53 137.75L464.95 137.47L465.35 137.17L465.75 136.85L466.13 136.52L466.49 136.17L466.84 135.8L467.17 135.43L467.49 135.03L467.79 134.62L468.08 134.2L468.34 133.77L468.59 133.33L468.82 132.87L469.03 132.4L469.22 131.93L469.39 131.44L469.54 130.94L469.66 130.44L469.77 129.92L469.85 129.4L469.91 128.87L469.95 128.34L469.96 127.8L469.96 116.78L469.61 116.48L469.22 116.18L468.83 115.9L468.42 115.63L468 115.38L467.57 115.15L467.13 114.93L466.68 114.74L466.22 114.56L465.75 114.4L465.27 114.26L464.79 114.14L464.29 114.05L463.79 113.97L463.28 113.91L462.77 113.88L462.25 113.87L428.59 113.87L428.07 113.88Z" id="abIDdDU54"></path><path d="M451.86 226.81L452.29 226.91L452.7 227.03L453.1 227.19L453.49 227.38L453.85 227.6L454.19 227.85L454.52 228.13L454.75 228.36L454.75 239.53L454.73 239.91L454.68 240.27L454.61 240.63L454.5 240.98L454.37 241.31L454.21 241.63L454.03 241.93L453.82 242.22L453.59 242.48L453.34 242.73L453.08 242.96L452.79 243.17L452.49 243.35L452.17 243.51L451.84 243.64L451.49 243.75L451.13 243.83L450.77 243.87L450.39 243.89L441.68 243.89L441.3 243.87L440.93 243.83L440.58 243.75L440.23 243.64L439.9 243.51L439.58 243.35L439.28 243.17L438.99 242.96L438.72 242.73L438.47 242.48L438.24 242.22L438.04 241.93L437.86 241.63L437.7 241.31L437.56 240.98L437.46 240.63L437.38 240.27L437.33 239.91L437.32 239.53L437.32 227.8L437.59 227.6L437.95 227.38L438.33 227.19L438.73 227.03L439.15 226.91L439.58 226.81L440.02 226.76L440.47 226.74L450.96 226.74L451.41 226.76L451.86 226.81Z" id="aPm4jeddl"></path><path d="M177.79 336.83L179.85 337.04L181.88 337.33L183.89 337.7L185.87 338.15L187.82 338.67L189.74 339.27L191.63 339.94L193.48 340.68L195.29 341.49L197.07 342.37L198.8 343.31L200.5 344.32L202.15 345.39L203.76 346.52L205.32 347.71L206.83 348.96L208.3 350.26L209.71 351.62L211.07 353.03L212.37 354.5L213.62 356.01L214.81 357.57L215.94 359.18L217.01 360.83L218.02 362.53L218.96 364.26L219.84 366.04L220.65 367.85L221.39 369.7L222.06 371.59L222.66 373.51L223.18 375.46L223.63 377.44L224 379.45L224.29 381.48L224.5 383.54L224.62 385.63L224.66 387.73L224.66 527.19L223.76 528.12L222.06 529.76L220.3 531.33L218.48 532.83L216.6 534.26L214.67 535.63L212.68 536.92L210.64 538.13L208.55 539.26L206.41 540.32L204.23 541.29L202 542.18L199.73 542.99L197.42 543.71L195.07 544.34L192.69 544.88L190.27 545.32L189.1 545.49L189.1 549.01L188.51 549.62L187.4 550.68L186.25 551.71L185.07 552.69L183.84 553.62L182.58 554.51L181.29 555.35L179.96 556.14L178.59 556.88L177.2 557.57L175.78 558.2L174.33 558.78L172.85 559.31L171.34 559.78L169.81 560.19L168.26 560.54L166.68 560.83L165.09 561.05L163.47 561.22L161.84 561.32L160.18 561.35L80.07 561.35L78.41 561.32L76.78 561.22L75.16 561.05L73.57 560.83L71.99 560.54L70.44 560.19L68.91 559.78L67.4 559.31L65.92 558.78L64.47 558.2L63.05 557.57L61.66 556.88L60.29 556.14L58.96 555.35L57.67 554.51L56.41 553.62L55.97 553.29L55.97 546.1L54.84 546.07L52.33 545.92L49.85 545.67L47.4 545.32L44.99 544.88L42.6 544.34L40.26 543.71L37.95 542.99L35.68 542.18L33.45 541.29L31.27 540.32L29.13 539.26L27.04 538.13L25 536.92L23.01 535.63L21.07 534.26L20.4 533.75L20.4 387.73L20.44 385.63L20.57 383.54L20.78 381.48L21.07 379.45L21.44 377.44L21.89 375.46L22.41 373.51L23.01 371.59L23.67 369.7L24.42 367.85L25.22 366.04L26.1 364.26L27.05 362.53L28.05 360.83L29.12 359.18L30.25 357.57L31.45 356.01L32.69 354.5L34 353.03L35.36 351.62L36.77 350.26L38.23 348.96L39.75 347.71L41.31 346.52L42.92 345.39L44.57 344.32L46.26 343.31L48 342.37L49.78 341.49L51.59 340.68L53.44 339.94L55.33 339.27L57.25 338.67L59.2 338.15L61.18 337.7L63.18 337.33L65.22 337.04L67.28 336.83L69.36 336.71L71.47 336.67L173.6 336.67L175.7 336.71L177.79 336.83Z" id="a3BUMlCYTz"></path><path d="M146.28 19.81L147.75 19.96L149.2 20.17L150.64 20.43L152.05 20.75L153.44 21.12L154.81 21.55L156.16 22.02L157.48 22.55L158.78 23.13L160.05 23.76L161.29 24.43L162.5 25.15L163.68 25.92L164.82 26.72L165.94 27.57L167.02 28.47L168.06 29.4L169.07 30.37L170.04 31.38L170.97 32.42L171.87 33.5L172.72 34.62L173.52 35.76L174.29 36.94L175.01 38.15L175.68 39.39L176.31 40.66L176.89 41.96L177.42 43.28L177.89 44.63L178.32 46L178.69 47.39L179.01 48.8L179.27 50.24L179.48 51.69L179.63 53.16L179.72 54.65L179.75 56.15L179.75 173.22L179.11 173.89L177.89 175.06L176.64 176.18L175.34 177.26L173.99 178.28L172.61 179.25L171.19 180.17L169.74 181.04L168.24 181.85L166.72 182.6L165.16 183.3L163.57 183.93L161.95 184.51L160.3 185.02L158.62 185.47L156.92 185.86L155.19 186.17L154.36 186.29L154.36 190.08L153.94 190.51L153.15 191.27L152.33 192.01L151.48 192.7L150.6 193.37L149.7 194.01L148.78 194.61L147.83 195.17L146.86 195.7L145.86 196.19L144.84 196.64L143.81 197.06L142.75 197.43L141.68 197.77L140.58 198.06L139.48 198.31L138.35 198.52L137.21 198.68L136.06 198.8L134.89 198.87L133.71 198.89L76.5 198.89L75.32 198.87L74.16 198.8L73 198.68L71.86 198.52L70.74 198.31L69.63 198.06L68.54 197.77L67.46 197.43L66.41 197.06L65.37 196.64L64.35 196.19L63.36 195.7L62.39 195.17L61.44 194.61L60.51 194.01L59.61 193.37L59.3 193.13L59.3 186.73L58.49 186.71L56.7 186.6L54.93 186.42L53.18 186.17L51.46 185.86L49.75 185.47L48.08 185.02L46.43 184.51L44.81 183.93L43.22 183.3L41.66 182.6L40.13 181.85L38.64 181.04L37.18 180.17L35.76 179.25L34.38 178.28L33.9 177.91L33.9 56.15L33.93 54.65L34.02 53.16L34.17 51.69L34.38 50.24L34.64 48.8L34.96 47.39L35.33 46L35.76 44.63L36.24 43.28L36.77 41.96L37.34 40.66L37.97 39.39L38.64 38.15L39.36 36.94L40.13 35.76L40.94 34.62L41.79 33.5L42.68 32.42L43.61 31.38L44.58 30.37L45.59 29.4L46.63 28.47L47.71 27.57L48.83 26.72L49.98 25.92L51.16 25.15L52.37 24.43L53.61 23.76L54.88 23.13L56.17 22.55L57.49 22.02L58.84 21.55L60.21 21.12L61.6 20.75L63.02 20.43L64.45 20.17L65.9 19.96L67.37 19.81L68.86 19.72L70.36 19.69L143.29 19.69L144.79 19.72L146.28 19.81ZM82.08 71.14L81.11 71.2L80.15 71.3L79.21 71.43L78.27 71.6L77.35 71.81L76.44 72.05L75.55 72.33L74.67 72.64L73.81 72.99L72.97 73.36L72.14 73.77L71.33 74.21L70.54 74.68L69.77 75.18L69.03 75.71L68.3 76.26L67.6 76.84L66.92 77.45L66.26 78.08L65.63 78.74L65.02 79.42L64.44 80.12L63.88 80.85L63.36 81.6L62.86 82.37L62.39 83.16L61.95 83.96L61.54 84.79L61.16 85.63L60.82 86.5L60.51 87.37L60.23 88.27L59.99 89.17L59.78 90.1L59.61 91.03L59.47 91.98L59.38 92.94L59.32 93.91L59.3 94.88L59.3 186.73L60.3 186.75L148.08 186.75L149.88 186.71L151.67 186.6L153.45 186.42L154.36 186.29L154.36 94.88L154.34 93.91L154.28 92.94L154.18 91.98L154.05 91.03L153.87 90.1L153.67 89.17L153.42 88.27L153.14 87.37L152.83 86.5L152.49 85.63L152.11 84.79L151.7 83.96L151.26 83.16L150.8 82.37L150.3 81.6L149.77 80.85L149.22 80.12L148.64 79.42L148.03 78.74L147.4 78.08L146.74 77.45L146.06 76.84L145.35 76.26L144.63 75.71L143.88 75.18L143.11 74.68L142.32 74.21L141.51 73.77L140.69 73.36L139.84 72.99L138.98 72.64L138.1 72.33L137.21 72.05L136.3 71.81L135.38 71.6L134.45 71.43L133.5 71.3L132.54 71.2L131.57 71.14L130.59 71.12L83.06 71.12L82.08 71.14Z" id="aakWMmSw5z"></path><path d="M171.99 369.88L173.77 370.06L175.53 370.31L177.27 370.63L178.98 371.01L180.67 371.46L182.33 371.98L183.96 372.56L185.56 373.2L187.13 373.9L188.67 374.66L190.17 375.48L191.64 376.35L193.06 377.27L194.46 378.25L195.81 379.28L197.11 380.36L198.38 381.49L199.6 382.67L200.78 383.89L201.91 385.16L202.99 386.47L204.02 387.82L205 389.21L205.92 390.64L206.8 392.1L207.61 393.6L208.37 395.14L209.07 396.71L209.71 398.31L210.29 399.94L210.81 401.6L211.26 403.29L211.64 405L211.96 406.74L212.21 408.5L212.4 410.28L212.51 412.09L212.54 413.91L212.54 451.38L211.66 452.11L210.4 453.07L209.09 453.99L207.75 454.86L206.38 455.67L204.97 456.44L203.53 457.15L202.06 457.81L200.56 458.41L199.04 458.95L197.48 459.43L195.9 459.86L194.3 460.22L192.67 460.52L191.02 460.75L189.35 460.92L187.66 461.02L185.96 461.06L56.02 461.06L54.32 461.02L52.63 460.92L50.96 460.75L49.31 460.52L47.68 460.22L46.08 459.86L44.5 459.43L42.94 458.95L41.42 458.41L39.92 457.81L38.45 457.15L37.01 456.44L35.83 455.8L35.83 413.91L35.87 412.09L35.98 410.28L36.16 408.5L36.41 406.74L36.73 405L37.12 403.29L37.57 401.6L38.08 399.94L38.66 398.31L39.3 396.71L40 395.14L40.76 393.6L41.58 392.1L42.45 390.64L43.38 389.21L44.36 387.82L45.39 386.47L46.47 385.16L47.6 383.89L48.77 382.67L49.99 381.49L51.26 380.36L52.57 379.28L53.92 378.25L55.31 377.27L56.74 376.35L58.21 375.48L59.71 374.66L61.24 373.9L62.81 373.2L64.42 372.56L66.05 371.98L67.71 371.46L69.39 371.01L71.11 370.63L72.84 370.31L74.6 370.06L76.39 369.88L78.19 369.77L80.01 369.73L168.36 369.73L170.19 369.77L171.99 369.88Z" id="fnci9Xtfp"></path><path d="M147.4 369.76L147.78 369.8L148.17 369.86L148.54 369.93L148.91 370.01L149.28 370.11L149.63 370.23L149.99 370.36L150.33 370.5L150.67 370.65L151 370.82L151.17 370.92L151.17 379.72L151.16 380.2L151.12 380.68L151.07 381.15L151 381.62L150.9 382.08L150.79 382.53L150.66 382.98L150.5 383.42L150.33 383.84L150.15 384.26L149.94 384.67L149.72 385.07L149.48 385.45L149.23 385.83L148.96 386.19L148.67 386.55L148.37 386.89L148.06 387.21L147.74 387.53L147.4 387.82L147.04 388.11L146.68 388.38L146.3 388.63L145.92 388.87L145.52 389.09L145.11 389.3L144.69 389.49L144.26 389.66L143.83 389.81L143.38 389.94L142.93 390.05L142.47 390.15L142 390.22L141.53 390.28L141.05 390.31L140.56 390.32L104.73 390.32L104.24 390.31L103.76 390.28L103.29 390.22L102.82 390.15L102.36 390.05L101.91 389.94L101.46 389.81L101.03 389.66L100.6 389.49L100.18 389.3L99.77 389.09L99.37 388.87L98.99 388.63L98.61 388.38L98.25 388.11L97.89 387.82L97.55 387.53L97.23 387.21L96.92 386.89L96.62 386.55L96.33 386.19L96.06 385.83L95.81 385.45L95.57 385.07L95.35 384.67L95.14 384.26L94.96 383.84L94.79 383.42L94.63 382.98L94.5 382.53L94.39 382.08L94.29 381.62L94.22 381.15L94.17 380.68L94.13 380.2L94.12 379.72L94.12 370.07L94.31 370.01L94.68 369.93L95.06 369.86L95.44 369.8L95.83 369.76L96.22 369.74L96.61 369.73L146.61 369.73L147.01 369.74L147.4 369.76Z" id="a3FtjLsBt6"></path><path d="M241.42 479.04L243.84 479.28L246.24 479.62L248.6 480.06L250.93 480.58L253.22 481.2L255.48 481.9L257.7 482.69L259.88 483.56L262.01 484.51L264.1 485.54L266.15 486.65L268.14 487.84L270.08 489.1L271.98 490.43L273.81 491.83L275.59 493.3L277.32 494.84L278.98 496.44L280.58 498.1L282.11 499.82L283.58 501.6L284.98 503.44L286.31 505.33L287.57 507.27L288.76 509.27L289.87 511.31L290.9 513.4L291.85 515.53L292.72 517.71L293.51 519.93L294.21 522.19L294.83 524.48L295.35 526.81L295.79 529.18L296.13 531.57L296.38 533.99L296.53 536.45L296.58 538.92L296.58 585.56L295.26 586.49L293.55 587.59L291.79 588.64L290 589.61L288.16 590.52L286.28 591.36L284.36 592.13L282.41 592.82L280.43 593.44L278.41 593.98L276.36 594.44L274.28 594.82L272.17 595.12L270.04 595.34L267.88 595.47L265.7 595.51L55.27 595.51L53.09 595.47L50.93 595.34L48.8 595.12L46.69 594.82L44.61 594.44L42.56 593.98L40.55 593.44L38.56 592.82L36.61 592.13L34.69 591.36L33.9 591.01L33.9 538.92L33.95 536.45L34.1 533.99L34.35 531.57L34.69 529.18L35.12 526.81L35.65 524.48L36.26 522.19L36.96 519.93L37.75 517.71L38.62 515.53L39.58 513.4L40.61 511.31L41.72 509.27L42.9 507.27L44.16 505.33L45.49 503.44L46.9 501.6L48.36 499.82L49.9 498.1L51.5 496.44L53.16 494.84L54.88 493.3L56.66 491.83L58.5 490.43L60.39 489.1L62.34 487.84L64.33 486.65L66.37 485.54L68.46 484.51L70.6 483.56L72.78 482.69L74.99 481.9L77.25 481.2L79.55 480.58L81.88 480.06L84.24 479.62L86.63 479.28L89.06 479.04L91.51 478.89L93.99 478.84L236.49 478.84L238.97 478.89L241.42 479.04Z" id="a40bjMCsCu"></path><path d="M203.6 500.92L204.08 500.97L204.56 501.04L205.02 501.12L205.49 501.23L205.94 501.35L206.39 501.49L206.83 501.64L207.26 501.82L207.44 501.9L207.44 513.64L207.43 514.2L207.4 514.75L207.34 515.3L207.26 515.84L207.17 516.37L207.05 516.89L206.91 517.41L206.75 517.92L206.57 518.42L206.38 518.91L206.16 519.39L205.93 519.86L205.68 520.32L205.41 520.77L205.13 521.21L204.83 521.64L204.51 522.05L204.18 522.45L203.83 522.84L203.47 523.22L203.1 523.58L202.71 523.92L202.31 524.25L201.89 524.57L201.47 524.87L201.03 525.15L200.58 525.42L200.12 525.67L199.65 525.9L199.17 526.12L198.68 526.32L198.18 526.49L197.67 526.65L197.15 526.79L196.62 526.91L196.09 527.01L195.55 527.08L195.01 527.14L194.45 527.17L193.89 527.18L136.19 527.18L135.63 527.17L135.08 527.14L134.53 527.08L133.99 527.01L133.46 526.91L132.94 526.79L132.42 526.65L131.91 526.49L131.41 526.32L130.92 526.12L130.44 525.9L129.97 525.67L129.51 525.42L129.06 525.15L128.62 524.87L128.19 524.57L127.78 524.25L127.38 523.92L126.99 523.58L126.61 523.22L126.25 522.84L125.91 522.45L125.57 522.05L125.26 521.64L124.96 521.21L124.67 520.77L124.41 520.32L124.16 519.86L123.92 519.39L123.71 518.91L123.51 518.42L123.34 517.92L123.18 517.41L123.04 516.89L122.92 516.37L122.82 515.84L122.75 515.3L122.69 514.75L122.66 514.2L122.65 513.64L122.65 501.01L122.94 500.97L123.42 500.92L123.9 500.89L124.4 500.88L202.62 500.88L203.11 500.89L203.6 500.92Z" id="cVLMc3lK0"></path></defs><g><g><g><use xlink:href="#fauzWUd9x" opacity="1" fill="#f3e1e1" fill-opacity="1"></use><g><use xlink:href="#fauzWUd9x" opacity="1" fill-opacity="0" stroke="#020000" stroke-width="1" stroke-opacity="1"></use></g></g><g><use xlink:href="#a1cyUVdv2V" opacity="1" fill="#060811" fill-opacity="1"></use><g><use xlink:href="#a1cyUVdv2V" opacity="1" fill-opacity="0" stroke="#020000" stroke-width="0" stroke-opacity="1"></use></g></g><g><use xlink:href="#aoqu1NMeW" opacity="1" fill="#f3e1e1" fill-opacity="1"></use><g><use xlink:href="#aoqu1NMeW" opacity="1" fill-opacity="0" stroke="#020000" stroke-width="2" stroke-opacity="1"></use></g></g><g><use xlink:href="#b1AcQWsg9c" opacity="1" fill="#fffcfc" fill-opacity="1"></use><g><use xlink:href="#b1AcQWsg9c" opacity="1" fill-opacity="0" stroke="#020000" stroke-width="2" stroke-opacity="1"></use></g></g><g><use xlink:href="#cW89ddAhb" opacity="1" fill="#eccbcb" fill-opacity="1"></use><g><use xlink:href="#cW89ddAhb" opacity="1" fill-opacity="0" stroke="#020000" stroke-width="0" stroke-opacity="1"></use></g></g><g><use xlink:href="#c1z5UyEwZN" opacity="1" fill="#f3e1e1" fill-opacity="1"></use><g><use xlink:href="#c1z5UyEwZN" opacity="1" fill-opacity="0" stroke="#020000" stroke-width="2" stroke-opacity="1"></use></g></g><g><use xlink:href="#d1vJF9vpnS" opacity="1" fill="#2a0d0d" fill-opacity="1"></use><g><use xlink:href="#d1vJF9vpnS" opacity="1" fill-opacity="0" stroke="#020000" stroke-width="2" stroke-opacity="1"></use></g></g><g><use xlink:href="#dCKjwFTdy" opacity="1" fill="#f3e1e1" fill-opacity="1"></use><g><use xlink:href="#dCKjwFTdy" opacity="1" fill-opacity="0" stroke="#020000" stroke-width="2" stroke-opacity="1"></use></g></g><g><use xlink:href="#goD0ebUzb" opacity="1" fill="#fffcfc" fill-opacity="1"></use><g><use xlink:href="#goD0ebUzb" opacity="1" fill-opacity="0" stroke="#020000" stroke-width="2" stroke-opacity="1"></use></g></g><g><use xlink:href="#f3GchWoMON" opacity="1" fill="#fffcfc" fill-opacity="1"></use><g><use xlink:href="#f3GchWoMON" opacity="1" fill-opacity="0" stroke="#020000" stroke-width="2" stroke-opacity="1"></use></g></g><g><use xlink:href="#b11Y9vDyY1" opacity="1" fill="#fffcfc" fill-opacity="1"></use><g><use xlink:href="#b11Y9vDyY1" opacity="1" fill-opacity="0" stroke="#020000" stroke-width="2" stroke-opacity="1"></use></g></g><g><use xlink:href="#f44pUfCqZ" opacity="1" fill="#fffcfc" fill-opacity="1"></use><g><use xlink:href="#f44pUfCqZ" opacity="1" fill-opacity="0" stroke="#020000" stroke-width="2" stroke-opacity="1"></use></g></g><g><use xlink:href="#a1nbsBzx8V" opacity="1" fill="#fffcfc" fill-opacity="1"></use><g><use xlink:href="#a1nbsBzx8V" opacity="1" fill-opacity="0" stroke="#020000" stroke-width="2" stroke-opacity="1"></use></g></g><g><use xlink:href="#bKh5PvbeO" opacity="1" fill="#fffcfc" fill-opacity="1"></use><g><use xlink:href="#bKh5PvbeO" opacity="1" fill-opacity="0" stroke="#020000" stroke-width="2" stroke-opacity="1"></use></g></g><g><use xlink:href="#e2jhu5qq5S" opacity="1" fill="#020000" fill-opacity="1"></use><g><use xlink:href="#e2jhu5qq5S" opacity="1" fill-opacity="0" stroke="#ffffff" stroke-width="2" stroke-opacity="1"></use></g></g><g><use xlink:href="#b3xk71WEG" opacity="1" fill="#060811" fill-opacity="1"></use><g><use xlink:href="#b3xk71WEG" opacity="1" fill-opacity="0" stroke="#020000" stroke-width="1" stroke-opacity="1"></use></g></g><g><use xlink:href="#a5vXvTNaSM" opacity="1" fill="#020000" fill-opacity="1"></use><g><use xlink:href="#a5vXvTNaSM" opacity="1" fill-opacity="0" stroke="#020000" stroke-width="2" stroke-opacity="1"></use></g></g><g><use xlink:href="#i9wObqymy" opacity="1" fill="#0e0000" fill-opacity="1"></use><g><use xlink:href="#i9wObqymy" opacity="1" fill-opacity="0" stroke="#020000" stroke-width="2" stroke-opacity="1"></use></g></g><g><use xlink:href="#b5w4M2m4bf" opacity="1" fill="#f3e1e1" fill-opacity="1"></use><g><use xlink:href="#b5w4M2m4bf" opacity="1" fill-opacity="0" stroke="#020000" stroke-width="2" stroke-opacity="1"></use></g></g><g><use xlink:href="#ffDpxFfNt" opacity="1" fill="#020000" fill-opacity="1"></use><g><use xlink:href="#ffDpxFfNt" opacity="1" fill-opacity="0" stroke="#020000" stroke-width="2" stroke-opacity="1"></use></g></g><g><use xlink:href="#a56istpQv2" opacity="1" fill="#020000" fill-opacity="1"></use><g><use xlink:href="#a56istpQv2" opacity="1" fill-opacity="0" stroke="#020000" stroke-width="2" stroke-opacity="1"></use></g></g><g><use xlink:href="#aMhr7qzdR" opacity="1" fill="#020000" fill-opacity="1"></use><g><use xlink:href="#aMhr7qzdR" opacity="1" fill-opacity="0" stroke="#020000" stroke-width="2" stroke-opacity="1"></use></g></g><g><use xlink:href="#e15qZ46Oyi" opacity="1" fill="#0e0000" fill-opacity="1"></use><g><use xlink:href="#e15qZ46Oyi" opacity="1" fill-opacity="0" stroke="#020000" stroke-width="2" stroke-opacity="1"></use></g></g><g><use xlink:href="#a7ZZRYzQkH" opacity="1" fill="#f6f1f1" fill-opacity="1"></use><g><use xlink:href="#a7ZZRYzQkH" opacity="1" fill-opacity="0" stroke="#020000" stroke-width="2" stroke-opacity="1"></use></g></g><g><use xlink:href="#abIDdDU54" opacity="1" fill="#080707" fill-opacity="1"></use><g><use xlink:href="#abIDdDU54" opacity="1" fill-opacity="0" stroke="#2a0d0d" stroke-width="5" stroke-opacity="1"></use></g></g><g><use xlink:href="#aPm4jeddl" opacity="1" fill="#020000" fill-opacity="1"></use><g><use xlink:href="#aPm4jeddl" opacity="1" fill-opacity="0" stroke="#020000" stroke-width="2" stroke-opacity="1"></use></g></g><g><use xlink:href="#a3BUMlCYTz" opacity="1" fill="#f3e1e1" fill-opacity="1"></use><g><use xlink:href="#a3BUMlCYTz" opacity="1" fill-opacity="0" stroke="#020000" stroke-width="1" stroke-opacity="1"></use></g></g><g><use xlink:href="#aakWMmSw5z" opacity="1" fill="#f3e1e1" fill-opacity="1"></use><g><use xlink:href="#aakWMmSw5z" opacity="1" fill-opacity="0" stroke="#020000" stroke-width="1" stroke-opacity="1"></use></g></g><g><use xlink:href="#fnci9Xtfp" opacity="1" fill="#f3e1e1" fill-opacity="1"></use><g><use xlink:href="#fnci9Xtfp" opacity="1" fill-opacity="0" stroke="#020000" stroke-width="1" stroke-opacity="1"></use></g></g><g><use xlink:href="#a3FtjLsBt6" opacity="1" fill="#f3e1e1" fill-opacity="1"></use><g><use xlink:href="#a3FtjLsBt6" opacity="1" fill-opacity="0" stroke="#020000" stroke-width="1" stroke-opacity="1"></use></g></g><g><use xlink:href="#a40bjMCsCu" opacity="1" fill="#f3e1e1" fill-opacity="1"></use><g><use xlink:href="#a40bjMCsCu" opacity="1" fill-opacity="0" stroke="#020000" stroke-width="1" stroke-opacity="1"></use></g></g><g><use xlink:href="#cVLMc3lK0" opacity="1" fill="#f3e1e1" fill-opacity="1"></use><g><use xlink:href="#cVLMc3lK0" opacity="1" fill-opacity="0" stroke="#020000" stroke-width="1" stroke-opacity="1"></use></g></g></g></g></svg>