<?xml version="1.0" encoding="UTF-8" standalone="no"?>
<!DOCTYPE svg PUBLIC "-//W3C//DTD SVG 1.1//EN" "http://www.w3.org/Graphics/SVG/1.1/DTD/svg11.dtd">
<svg version="1.1" xmlns="http://www.w3.org/2000/svg" xmlns:xlink="http://www.w3.org/1999/xlink" preserveAspectRatio="xMidYMid meet" viewBox="0 0 1640 1640" width="1640" height="1640"><defs><path d="M217.71 1004.35L217.71 1004.35L217.71 1007.38L217.71 1007.38L217.71 1004.35Z" id="b1m7s5QioK"></path><path d="M20.39 20.82L417.38 20.82L417.38 1030.82L20.39 1030.82L20.39 20.82Z" id="h2zCQRWiqw"></path><path d="M621.49 31.05L1024.16 31.05L1024.16 1039.53L621.49 1039.53L621.49 31.05Z" id="bJ88X13T6"></path><path d="M295.21 25.27L832.1 25.27L832.1 1018.33L295.21 1018.33L295.21 25.27Z" id="anPZdrZR"></path><path d="M18.33 1036.95L18.33 21.26L1025 21.26L1025 1036.95L18.33 1036.95ZM833.49 932.53L864.59 967.23L857.25 1016.23L895.69 993.09L934.13 1016.23L921.89 966.06L957.89 932.53L914.91 925.38L895.69 880.8L876.47 925.38L833.49 932.53ZM586.57 886.03L618.24 921.05L610.76 970.51L649.91 947.16L689.06 970.51L676.59 919.87L713.25 886.03L669.48 878.81L649.91 833.81L630.34 878.81L586.57 886.03ZM85.44 885.54L116.54 920.24L109.2 969.24L147.64 946.1L186.08 969.24L173.84 919.06L209.84 885.54L166.86 878.39L147.64 833.81L128.42 878.39L85.44 885.54ZM650.62 711.2L650.68 713.47L650.62 713.57L650.69 713.62L651.8 758L805.57 762.2L805.94 870.73L851.26 873.02L850.89 763.43L926.47 765.49L925.29 718.69L850.73 716.66L850.42 628.23L805.1 625.94L805.41 715.42L708.56 712.78L821.24 552.55L784.09 523.75L652.25 711.25L650.62 711.2ZM326.91 763.22L358.59 798.24L351.11 847.7L390.25 824.35L429.4 847.7L416.93 797.06L453.6 763.22L409.83 755.99L390.25 711L370.68 755.99L326.91 763.22ZM598.17 413.89L577.62 441.63L575.26 440.76L570.32 439.16L565.29 437.75L560.19 436.54L555.01 435.53L549.75 434.72L544.43 434.12L539.05 433.73L533.61 433.56L528.17 433.61L522.78 433.88L517.45 434.37L512.18 435.06L506.98 435.96L501.85 437.06L496.79 438.36L491.81 439.86L486.92 441.54L482.12 443.41L477.4 445.46L472.79 447.68L468.27 450.08L463.86 452.64L459.56 455.37L455.38 458.26L451.31 461.3L447.36 464.5L443.54 467.84L439.85 471.33L436.3 474.95L432.88 478.71L429.61 482.6L426.49 486.61L423.52 490.75L420.71 495L418.06 499.37L415.57 503.85L413.26 508.43L411.11 513.11L409.15 517.89L407.36 522.76L405.77 527.72L404.36 532.76L403.15 537.88L402.14 543.08L401.34 548.35L400.74 553.68L400.36 559.08L400.19 564.54L400.24 570L400.51 575.4L400.99 580.75L401.69 586.03L402.58 591.25L403.68 596.4L404.98 601.47L406.47 606.46L408.15 611.37L410.01 616.19L412.05 620.92L414.27 625.55L416.66 630.08L419.22 634.5L421.94 638.82L424.82 643.02L427.86 647.1L431.04 651.06L434.38 654.89L437.85 658.59L441.47 662.15L445.21 665.58L449.09 668.86L453.09 671.99L457.22 674.97L461.46 677.79L465.81 680.45L470.27 682.95L474.84 685.27L479.51 687.42L484.27 689.39L489.13 691.18L494.07 692.78L499.1 694.19L504.21 695.41L509.39 696.42L514.64 697.23L519.96 697.83L525.34 698.22L530.78 698.39L536.23 698.34L541.61 698.07L546.95 697.58L552.21 696.89L557.42 695.99L562.55 694.88L567.6 693.58L572.58 692.09L577.47 690.41L582.28 688.54L586.99 686.49L591.61 684.27L596.12 681.87L600.53 679.3L604.83 676.57L609.02 673.69L613.09 670.64L617.03 667.45L620.85 664.1L624.54 660.62L628.1 656.99L631.51 653.24L634.78 649.35L637.9 645.33L640.87 641.2L643.68 636.94L646.34 632.58L648.82 628.1L651.14 623.52L653.28 618.84L655.25 614.06L657.03 609.19L658.63 604.23L660.03 599.19L661.24 594.07L662.25 588.87L663.06 583.6L663.65 578.26L664.04 572.87L664.21 567.41L664.16 561.95L663.89 556.54L663.4 551.2L662.71 545.91L661.81 540.69L660.71 535.55L659.41 530.47L657.92 525.48L656.25 520.57L654.38 515.75L652.34 511.03L650.12 506.4L647.73 501.87L645.17 497.44L642.45 493.13L639.57 488.93L636.54 484.85L635.31 483.33L655.24 456.41L634.26 440.78L660.83 404.1L653.48 398.74L626.97 435.35L598.17 413.89ZM92.98 546.19L124.65 581.21L117.17 630.67L156.32 607.32L195.47 630.67L183 580.03L219.66 546.19L175.9 538.97L156.32 493.97L136.75 538.97L92.98 546.19ZM883.83 478.48L915.5 513.5L908.03 562.96L947.17 539.61L986.32 562.96L973.85 512.32L1010.52 478.48L966.75 471.26L947.17 426.26L927.6 471.26L883.83 478.48ZM464.49 473.39L465.32 473.58L466.12 473.83L466.89 474.15L467.63 474.55L468.32 475.01L468.98 475.53L469.58 476.11L470.14 476.75L470.66 477.45L471.13 478.2L471.55 479L471.93 479.86L472.26 480.77L472.55 481.73L472.79 482.73L472.99 483.78L473.15 484.87L473.26 486.01L473.33 487.18L473.35 488.4L473.33 489.65L473.27 490.94L473.16 492.26L473.02 493.61L472.83 495L472.59 496.41L472.32 497.85L472 499.32L471.64 500.81L471.24 502.33L470.8 503.87L470.32 505.42L469.79 506.99L469.23 508.58L468.62 510.19L467.98 511.81L467.29 513.43L466.57 515.07L465.8 516.72L464.99 518.37L464.15 520.03L463.27 521.69L462.34 523.35L461.38 525.01L460.39 526.66L459.38 528.27L458.36 529.85L457.32 531.39L456.26 532.89L455.19 534.36L454.11 535.78L453.01 537.17L451.91 538.51L450.8 539.82L449.68 541.08L448.56 542.3L447.43 543.47L446.3 544.6L445.17 545.68L444.04 546.71L442.91 547.7L441.78 548.63L440.66 549.52L439.54 550.35L438.43 551.14L437.32 551.87L436.23 552.54L435.14 553.16L434.07 553.72L433.01 554.23L431.97 554.68L430.94 555.07L429.92 555.4L428.93 555.66L427.95 555.87L427 556.01L426.07 556.09L425.16 556.11L424.28 556.06L423.42 555.94L422.59 555.76L421.79 555.51L421.02 555.18L420.28 554.79L419.59 554.33L418.93 553.81L418.33 553.23L417.77 552.59L417.25 551.89L416.78 551.14L416.36 550.33L415.98 549.47L415.65 548.57L415.36 547.61L415.12 546.61L414.92 545.56L414.76 544.46L414.65 543.33L414.58 542.15L414.56 540.94L414.58 539.69L414.64 538.4L414.74 537.08L414.89 535.72L415.08 534.34L415.32 532.92L415.59 531.48L415.91 530.01L416.27 528.52L416.67 527.01L417.11 525.47L417.59 523.91L418.12 522.34L418.68 520.75L419.29 519.15L419.93 517.53L420.62 515.9L421.34 514.26L422.11 512.62L422.91 510.96L423.76 509.31L424.64 507.65L425.56 505.98L426.53 504.32L427.52 502.68L428.53 501.06L429.55 499.49L430.59 497.95L431.65 496.45L432.72 494.98L433.8 493.55L434.9 492.17L436 490.82L437.11 489.52L438.23 488.26L439.35 487.04L440.48 485.86L441.61 484.74L442.74 483.66L443.87 482.62L445 481.64L446.13 480.7L447.25 479.82L448.37 478.98L449.48 478.2L450.59 477.47L451.68 476.8L452.77 476.18L453.84 475.61L454.9 475.11L455.94 474.66L456.97 474.27L457.99 473.94L458.98 473.67L459.96 473.46L460.91 473.32L461.84 473.24L462.75 473.23L463.63 473.28L464.49 473.39ZM129.12 351.74L129.1 354.05L129.04 354.14L129.1 354.2L128.81 399.24L281.71 398.13L278.65 508.37L323.68 509.1L326.78 397.81L401.94 397.26L402.25 349.76L328.1 350.3L330.6 260.49L285.56 259.75L283.04 350.63L186.73 351.33L303.95 184.64L267.88 156.69L130.73 351.73L129.12 351.74ZM654.55 348.09L672.35 366.8L667.82 392.88L690.2 380.78L712.32 393.36L708.35 367.19L726.55 348.88L701.72 344.79L690.84 320.9L679.47 344.55L654.55 348.09ZM404.7 139.91L436.38 174.94L428.9 224.4L468.05 201.05L507.2 224.4L494.73 173.75L531.39 139.91L487.62 132.69L468.05 87.7L448.48 132.69L404.7 139.91ZM39.91 100.12L71.01 134.82L63.67 183.81L102.11 160.68L140.55 183.81L128.31 133.64L164.31 100.12L121.33 92.96L102.11 48.39L82.89 92.96L39.91 100.12ZM861.66 96.46L892.76 131.16L885.42 180.16L923.86 157.02L962.3 180.16L950.06 129.99L986.06 96.46L943.08 89.31L923.86 44.74L904.64 89.31L861.66 96.46Z" id="bTtz8lMtz"></path></defs><g><g><g><use xlink:href="#b1m7s5QioK" opacity="1" fill="#669353" fill-opacity="1"></use></g><g><g><use xlink:href="#h2zCQRWiqw" opacity="1" fill="#dae764" fill-opacity="1"></use></g><g><use xlink:href="#bJ88X13T6" opacity="1" fill="#dae764" fill-opacity="1"></use></g><g><use xlink:href="#anPZdrZR" opacity="1" fill="#442289" fill-opacity="1"></use></g><g><use xlink:href="#bTtz8lMtz" opacity="1" fill="#669353" fill-opacity="1"></use></g></g></g></g></svg>