<?xml version="1.0" encoding="UTF-8" standalone="no"?>
<!DOCTYPE svg PUBLIC "-//W3C//DTD SVG 1.1//EN" "http://www.w3.org/Graphics/SVG/1.1/DTD/svg11.dtd">
<svg version="1.1" xmlns="http://www.w3.org/2000/svg" xmlns:xlink="http://www.w3.org/1999/xlink" preserveAspectRatio="xMidYMid meet" viewBox="0 0 1640 1640" width="1640" height="1640"><defs><path d="M25.63 1127.5L25.63 12.85L1121.21 12.85L1121.21 1127.5L25.63 1127.5ZM963.62 981.14L973.06 1015.46L950.91 1042.83L985.57 1044.3L1004.11 1074.47L1016.09 1041.05L1049.7 1032.32L1022.45 1010.2L1024.68 974.64L995.85 994.39L963.62 981.14ZM124.14 959.15L148.98 984.03L143.11 1019.17L173.8 1002.58L204.5 1019.17L198.64 984.03L223.47 959.15L189.15 954.02L173.8 922.06L158.46 954.02L124.14 959.15ZM613.99 952.27L638.83 977.15L632.96 1012.29L663.66 995.7L694.35 1012.29L688.49 977.15L713.32 952.27L679 947.14L663.66 915.18L648.31 947.14L613.99 952.27ZM746.49 837.17L746.49 840.84L752.74 840.84L758.08 843.96L759.85 840.84L864.17 840.84L864.17 952.64L921.76 952.64L921.76 840.84L998.13 840.84L998.13 790.19L921.76 790.19L921.76 710.88L864.17 710.88L864.17 790.19L788.48 790.19L885.33 618.85L842.19 593.6L714.95 818.71L746.49 837.17ZM357.78 779.85L382.61 804.73L376.75 839.86L407.44 823.27L438.14 839.86L432.28 804.73L457.11 779.85L422.79 774.72L407.44 742.75L392.1 774.72L357.78 779.85ZM606.82 423.68L585.97 451.77L583.53 450.93L578.43 449.37L573.23 448.01L567.96 446.85L562.62 445.88L557.2 445.13L551.72 444.58L546.17 444.25L540.57 444.14L534.96 444.25L529.42 444.58L523.93 445.13L518.52 445.88L513.17 446.85L507.9 448.01L502.71 449.37L497.6 450.93L492.58 452.67L487.65 454.6L482.82 456.71L478.09 458.99L473.47 461.45L468.96 464.07L464.56 466.86L460.28 469.81L456.12 472.91L452.1 476.16L448.2 479.56L444.44 483.1L440.82 486.78L437.35 490.6L434.02 494.54L430.85 498.6L427.84 502.79L424.99 507.09L422.31 511.51L419.8 516.03L417.46 520.66L415.31 525.39L413.34 530.21L411.55 535.12L409.97 540.12L408.57 545.2L407.39 550.35L406.4 555.59L405.63 560.89L405.07 566.25L404.74 571.68L404.62 577.16L404.74 582.65L405.07 588.07L405.63 593.44L406.4 598.74L407.39 603.97L408.57 609.13L409.97 614.21L411.55 619.21L413.34 624.12L415.31 628.94L417.46 633.67L419.8 638.29L422.31 642.82L424.99 647.23L427.84 651.54L430.85 655.72L434.02 659.79L437.35 663.73L440.82 667.54L444.44 671.22L448.2 674.76L452.1 678.16L456.12 681.41L460.28 684.52L464.56 687.46L468.96 690.25L473.47 692.88L478.09 695.33L482.82 697.62L487.65 699.73L492.58 701.66L497.6 703.4L502.71 704.96L507.9 706.32L513.17 707.48L518.52 708.44L523.93 709.2L529.42 709.74L534.96 710.07L540.57 710.18L546.17 710.07L551.72 709.74L557.2 709.2L562.62 708.44L567.96 707.48L573.23 706.32L578.43 704.96L583.53 703.4L588.55 701.66L593.48 699.73L598.31 697.62L603.04 695.33L607.66 692.88L612.17 690.25L616.57 687.46L620.85 684.52L625.01 681.41L629.04 678.16L632.93 674.76L636.69 671.22L640.31 667.54L643.78 663.73L647.11 659.79L650.28 655.72L653.29 651.54L656.14 647.23L658.82 642.82L661.33 638.29L663.67 633.67L665.82 628.94L667.8 624.12L669.58 619.21L671.17 614.21L672.56 609.13L673.75 603.97L674.73 598.74L675.5 593.44L676.06 588.07L676.39 582.65L676.51 577.16L676.39 571.68L676.06 566.25L675.5 560.89L674.73 555.59L673.75 550.35L672.56 545.2L671.17 540.12L669.58 535.12L667.8 530.21L665.82 525.39L663.67 520.66L661.33 516.03L658.82 511.51L656.14 507.09L653.29 502.79L650.28 498.6L647.11 494.54L645.82 493.02L666.05 465.77L644.28 450.3L671.24 413.16L663.61 407.86L636.71 444.92L606.82 423.68ZM124.14 606.66L148.98 631.54L143.11 666.67L173.8 650.08L204.5 666.67L198.64 631.54L223.47 606.66L189.15 601.53L173.8 569.56L158.46 601.53L124.14 606.66ZM469.83 484.91L470.69 485.08L471.51 485.33L472.31 485.65L473.07 486.03L473.8 486.49L474.47 487L475.11 487.58L475.69 488.22L476.23 488.91L476.72 489.66L477.16 490.47L477.56 491.33L477.91 492.23L478.22 493.19L478.48 494.2L478.7 495.25L478.87 496.34L479 497.48L479.08 498.66L479.12 499.88L479.12 501.14L479.07 502.44L478.97 503.76L478.83 505.13L478.65 506.52L478.43 507.94L478.16 509.39L477.85 510.87L477.5 512.38L477.1 513.9L476.66 515.45L476.18 517.02L475.66 518.6L475.1 520.21L474.49 521.82L473.84 523.45L473.16 525.1L472.43 526.75L471.66 528.41L470.85 530.08L470 531.76L469.1 533.43L468.17 535.11L467.2 536.79L466.2 538.46L465.18 540.09L464.14 541.68L463.08 543.24L462.01 544.76L460.93 546.25L459.83 547.69L458.72 549.09L457.6 550.46L456.47 551.78L455.33 553.06L454.19 554.3L453.04 555.49L451.89 556.63L450.74 557.73L449.58 558.78L448.43 559.78L447.28 560.73L446.13 561.64L444.99 562.49L443.85 563.28L442.72 564.03L441.6 564.72L440.49 565.35L439.39 565.93L438.31 566.45L437.24 566.91L436.18 567.31L435.14 567.66L434.12 567.94L433.12 568.15L432.14 568.31L431.18 568.4L430.25 568.42L429.34 568.38L428.45 568.28L427.6 568.1L426.77 567.85L425.97 567.54L425.21 567.15L424.49 566.7L423.81 566.18L423.18 565.6L422.59 564.97L422.06 564.27L421.57 563.52L421.12 562.72L420.72 561.86L420.37 560.95L420.06 559.99L419.8 558.99L419.58 557.94L419.41 556.84L419.28 555.7L419.2 554.52L419.16 553.3L419.17 552.04L419.22 550.75L419.31 549.42L419.45 548.06L419.63 546.66L419.85 545.24L420.12 543.79L420.43 542.31L420.79 540.81L421.18 539.28L421.62 537.74L422.1 536.17L422.62 534.58L423.19 532.98L423.79 531.36L424.44 529.73L425.13 528.09L425.86 526.43L426.63 524.77L427.44 523.1L428.29 521.43L429.18 519.75L430.11 518.07L431.08 516.39L432.08 514.73L433.1 513.1L434.14 511.5L435.2 509.94L436.27 508.42L437.36 506.94L438.46 505.49L439.57 504.09L440.69 502.73L441.82 501.4L442.95 500.12L444.1 498.89L445.24 497.7L446.39 496.55L447.55 495.45L448.7 494.4L449.85 493.4L451 492.45L452.15 491.55L453.29 490.7L454.43 489.9L455.56 489.16L456.68 488.47L457.79 487.83L458.89 487.26L459.97 486.74L461.05 486.27L462.1 485.87L463.14 485.53L464.16 485.25L465.16 485.03L466.14 484.88L467.1 484.79L468.04 484.76L468.95 484.8L469.83 484.91ZM135.4 404.26L135.4 407.92L141.65 407.92L147 411.05L148.76 407.92L253.08 407.92L253.08 519.72L310.67 519.72L310.67 407.92L387.04 407.92L387.04 357.27L310.67 357.27L310.67 277.96L253.08 277.96L253.08 357.27L177.39 357.27L274.24 185.93L231.11 160.68L103.86 385.79L135.4 404.26ZM968.83 396.12L978.26 430.45L956.11 457.82L990.77 459.29L1009.31 489.45L1021.29 456.04L1054.9 447.3L1027.65 425.19L1029.88 389.62L1001.05 409.37L968.83 396.12ZM664.15 356.98L682.69 375.57L678.31 401.82L701.22 389.42L724.14 401.82L719.76 375.57L738.3 356.98L712.68 353.14L701.22 329.26L689.77 353.14L664.15 356.98ZM446.2 41.18L455.63 75.5L433.49 102.88L468.14 104.34L486.68 134.51L498.67 101.09L532.27 92.36L505.02 70.24L507.25 34.68L478.43 54.43L446.2 41.18ZM957.13 37.9L966.57 72.22L944.42 99.6L979.08 101.07L997.62 131.23L1009.6 97.82L1043.21 89.08L1015.96 66.97L1018.18 31.4L989.36 51.15L957.13 37.9ZM60.3 32.61L69.73 66.93L47.58 94.31L82.24 95.77L100.78 125.94L112.76 92.52L146.37 83.79L119.12 61.67L121.35 26.11L92.52 45.86L60.3 32.61Z" id="b2g6Kt0xgf"></path></defs><g><g><g><use xlink:href="#b2g6Kt0xgf" opacity="1" fill="#dae764" fill-opacity="1"></use></g></g></g></svg>