<?xml version="1.0" encoding="UTF-8" standalone="no"?>
<!DOCTYPE svg PUBLIC "-//W3C//DTD SVG 1.1//EN" "http://www.w3.org/Graphics/SVG/1.1/DTD/svg11.dtd">
<svg version="1.1" xmlns="http://www.w3.org/2000/svg" xmlns:xlink="http://www.w3.org/1999/xlink" preserveAspectRatio="xMidYMid meet" viewBox="0 0 640 640" width="640" height="640"><defs><path d="M63.62 504.15L65.19 504.32L66.75 504.54L68.29 504.83L69.8 505.18L71.3 505.58L72.77 506.05L74.21 506.57L75.63 507.14L77.02 507.77L78.38 508.46L79.71 509.19L81 509.97L82.27 510.81L83.5 511.69L84.7 512.61L85.85 513.58L86.98 514.6L88.06 515.66L89.1 516.75L90.1 517.89L91.06 519.07L91.97 520.28L92.83 521.53L93.65 522.82L94.43 524.14L95.15 525.49L95.82 526.87L96.44 528.28L97.01 529.71L97.52 531.18L97.98 532.67L98.38 534.19L98.72 535.73L99 537.29L99.23 538.87L99.39 540.47L99.48 542.09L99.52 543.72L99.48 545.36L99.39 546.98L99.23 548.58L99 550.16L98.72 551.72L98.38 553.26L98.23 553.82L98.67 555.35L99.14 557.23L99.55 559.14L99.91 561.08L100.2 563.04L100.43 565.04L100.59 567.05L100.69 569.09L100.73 571.15L100.69 573.21L100.59 575.25L100.43 577.27L100.2 579.26L99.91 581.23L99.55 583.16L99.14 585.07L98.67 586.95L98.14 588.8L97.56 590.61L96.92 592.39L96.22 594.13L95.48 595.83L94.68 597.49L93.84 599.1L92.94 600.68L92 602.21L91.02 603.69L89.99 605.12L88.91 606.51L87.8 607.84L86.64 609.12L85.45 610.34L84.21 611.51L82.94 612.62L81.64 613.66L80.3 614.65L78.93 615.58L77.53 616.44L76.1 617.23L74.64 617.95L73.15 618.61L71.63 619.19L70.09 619.71L68.53 620.14L66.95 620.51L65.34 620.79L63.71 621L62.07 621.12L60.41 621.16L58.75 621.12L57.11 621L55.48 620.79L53.87 620.51L52.29 620.14L50.73 619.71L49.19 619.19L47.67 618.61L46.18 617.95L44.72 617.23L43.29 616.44L41.89 615.58L40.52 614.65L39.18 613.66L37.87 612.62L36.61 611.51L35.37 610.34L34.18 609.12L33.02 607.84L31.91 606.51L30.83 605.12L29.8 603.69L28.82 602.21L27.88 600.68L26.98 599.1L26.14 597.49L25.34 595.83L24.6 594.13L23.9 592.39L23.26 590.61L22.68 588.8L22.15 586.95L21.68 585.07L21.27 583.16L20.91 581.23L20.62 579.26L20.39 577.27L20.23 575.25L20.13 573.21L20.09 571.15L20.13 569.09L20.23 567.05L20.39 565.04L20.62 563.04L20.91 561.08L21.27 559.14L21.68 557.23L22.15 555.35L22.59 553.82L22.44 553.26L22.1 551.72L21.81 550.16L21.59 548.58L21.43 546.98L21.33 545.36L21.3 543.72L21.33 542.09L21.43 540.47L21.59 538.87L21.81 537.29L22.1 535.73L22.44 534.19L22.84 532.67L23.3 531.18L23.81 529.71L24.38 528.28L25 526.87L25.67 525.49L26.39 524.14L27.16 522.82L27.99 521.53L28.85 520.28L29.76 519.07L30.72 517.89L31.72 516.75L32.76 515.66L33.84 514.6L34.96 513.58L36.12 512.61L37.32 511.69L38.55 510.81L39.82 509.97L41.11 509.19L42.44 508.46L43.8 507.77L45.19 507.14L46.61 506.57L48.05 506.05L49.52 505.58L51.02 505.18L52.53 504.83L54.07 504.54L55.63 504.32L57.2 504.15L58.8 504.06L60.41 504.02L62.02 504.06L63.62 504.15Z" id="c1ukvUUxhr"></path><path d="M109.24 176.39L109.24 242.21L18.24 242.21L18.24 176.39L16.38 176.39L16.38 90.89L111.09 90.89L111.09 176.39L109.24 176.39Z" id="c93cXpV9"></path><path d="M264.72 504.16L266.13 504.32L267.51 504.55L268.88 504.85L270.24 505.2L271.57 505.62L272.88 506.09L274.16 506.63L275.43 507.22L276.67 507.86L277.88 508.56L279.06 509.31L280.22 510.11L281.35 510.96L282.45 511.86L283.51 512.81L284.54 513.8L285.54 514.84L286.51 515.92L287.44 517.05L288.33 518.21L289.18 519.41L289.99 520.66L290.77 521.93L291.5 523.25L292.19 524.6L292.83 525.98L293.43 527.39L293.98 528.83L294.49 530.3L294.95 531.8L295.35 533.33L295.71 534.88L296.01 536.45L296.27 538.05L296.46 539.67L296.61 541.3L296.69 542.96L296.72 544.63L296.69 546.31L296.61 547.96L296.57 548.34L227.65 548.34L227.65 536.83L227.71 536.45L228.02 534.88L228.37 533.33L228.78 531.8L229.24 530.3L229.74 528.83L230.3 527.39L230.9 525.98L231.54 524.6L232.23 523.25L232.96 521.93L233.73 520.66L234.55 519.41L235.4 518.21L236.29 517.05L237.22 515.92L238.18 514.84L239.18 513.8L240.21 512.81L241.28 511.86L242.38 510.96L243.51 510.11L244.66 509.31L245.85 508.56L247.06 507.86L248.3 507.22L249.56 506.63L250.85 506.09L252.16 505.62L253.49 505.2L254.84 504.85L256.21 504.55L257.6 504.32L259.01 504.16L260.43 504.06L261.86 504.02L263.3 504.06L264.72 504.16Z" id="b10Wa5aayZ"></path><path d="M265.51 598.6L266.85 598.96L268.11 599.44L269.3 600.05L270.41 600.77L271.42 601.59L272.32 602.51L273.11 603.52L273.78 604.6L274.32 605.75L274.71 606.96L274.95 608.23L275.04 609.54L275.04 609.54L274.97 610.56L250.55 610.56L250.55 607.46L250.65 606.96L251.04 605.75L251.58 604.6L252.25 603.52L253.04 602.51L253.94 601.59L254.95 600.77L256.06 600.05L257.25 599.44L258.51 598.96L259.85 598.6L261.24 598.38L262.68 598.3L264.12 598.38L265.51 598.6ZM264.72 566.38L266.13 566.54L267.51 566.78L268.88 567.07L270.24 567.42L271.57 567.84L272.88 568.32L274.16 568.85L275.43 569.44L276.67 570.08L277.88 570.78L279.06 571.53L280.22 572.33L281.35 573.18L282.45 574.08L283.51 575.03L284.54 576.02L285.54 577.06L286.51 578.14L287.44 579.27L288.33 580.43L289.18 581.64L289.99 582.88L290.77 584.16L291.5 585.47L292.19 586.82L292.83 588.2L293.43 589.61L293.98 591.05L294.49 592.52L294.95 594.02L295.35 595.55L295.71 597.1L296.01 598.67L296.27 600.27L296.46 601.89L296.61 603.53L296.69 605.18L296.72 606.85L296.69 608.53L296.61 610.18L296.57 610.56L290.53 610.56L290.54 610.48L290.62 609.1L290.65 607.7L290.62 606.31L290.54 604.93L290.4 603.57L290.21 602.22L289.97 600.9L289.68 599.59L289.34 598.31L288.95 597.05L288.51 595.81L288.03 594.61L287.5 593.42L286.93 592.27L286.31 591.15L285.66 590.05L284.96 588.99L284.23 587.96L283.46 586.97L282.65 586.01L281.81 585.09L280.93 584.21L280.02 583.37L279.08 582.57L278.1 581.81L277.1 581.1L276.07 580.43L275.01 579.81L273.93 579.23L272.82 578.7L271.69 578.23L270.53 577.8L269.36 577.43L268.16 577.11L266.95 576.85L265.71 576.64L264.46 576.49L263.2 576.4L261.92 576.37L260.64 576.4L259.38 576.49L258.13 576.64L256.89 576.85L255.68 577.11L254.48 577.43L253.31 577.8L252.15 578.23L251.02 578.7L249.91 579.23L248.83 579.81L247.77 580.43L246.74 581.1L245.74 581.81L244.76 582.57L243.82 583.37L242.91 584.21L242.03 585.09L241.19 586.01L240.38 586.97L239.61 587.96L238.88 588.99L238.18 590.05L237.53 591.15L236.91 592.27L236.34 593.42L235.81 594.61L235.33 595.81L234.89 597.05L234.5 598.31L234.16 599.59L233.87 600.9L233.72 601.69L233.72 610.56L227.65 610.56L227.65 599.05L227.71 598.67L228.02 597.1L228.37 595.55L228.78 594.02L229.24 592.52L229.74 591.05L230.3 589.61L230.9 588.2L231.54 586.82L232.23 585.47L232.96 584.16L233.73 582.88L234.55 581.64L235.4 580.43L236.29 579.27L237.22 578.14L238.18 577.06L239.18 576.02L240.21 575.03L241.28 574.08L242.38 573.18L243.51 572.33L244.66 571.53L245.85 570.78L247.06 570.08L248.3 569.44L249.56 568.85L250.85 568.32L252.16 567.84L253.49 567.42L254.84 567.07L256.21 566.78L257.6 566.54L259.01 566.38L260.43 566.28L261.86 566.24L263.3 566.28L264.72 566.38ZM264.56 583.92L265.83 584.1L267.08 584.34L268.3 584.65L269.49 585.03L270.66 585.47L271.8 585.96L272.91 586.52L273.99 587.13L275.03 587.8L276.04 588.51L277 589.28L277.93 590.1L278.81 590.97L279.65 591.88L280.45 592.83L281.19 593.83L281.89 594.86L282.54 595.94L283.13 597.05L283.67 598.19L284.16 599.36L284.58 600.57L284.94 601.8L285.24 603.06L285.48 604.34L285.65 605.65L285.76 606.98L285.79 608.32L285.76 609.67L285.69 610.56L281.74 610.56L281.79 610.2L281.83 608.89L281.79 607.58L281.64 606.3L281.41 605.04L281.09 603.82L280.68 602.63L280.19 601.47L279.62 600.36L278.98 599.29L278.27 598.27L277.49 597.29L276.64 596.37L275.73 595.51L274.76 594.7L273.74 593.96L272.67 593.28L271.54 592.67L270.37 592.13L269.16 591.66L267.91 591.27L266.62 590.97L265.31 590.74L263.96 590.61L262.58 590.56L261.21 590.61L259.86 590.74L258.54 590.97L257.26 591.27L256.01 591.66L254.79 592.13L253.62 592.67L252.5 593.28L251.43 593.96L250.4 594.7L249.44 595.51L248.53 596.37L247.68 597.29L246.9 598.27L246.18 599.29L245.54 600.36L244.98 601.47L244.49 602.63L244.08 603.82L243.76 605.04L243.69 605.4L243.69 610.56L238.58 610.56L238.58 603.63L238.69 603.06L238.99 601.8L239.35 600.57L239.78 599.36L240.26 598.19L240.8 597.05L241.39 595.94L242.04 594.86L242.74 593.83L243.48 592.83L244.28 591.88L245.12 590.97L246 590.1L246.93 589.28L247.9 588.51L248.9 587.8L249.94 587.13L251.02 586.52L252.13 585.96L253.27 585.47L254.44 585.03L255.63 584.65L256.86 584.34L258.1 584.1L259.37 583.92L260.66 583.81L261.97 583.78L263.27 583.81L264.56 583.92Z" id="a2g4dlAear"></path><path d="M195.62 608.89L195.57 607.58L195.43 606.3L195.19 605.04L194.87 603.82L194.47 602.63L193.98 601.47L193.41 600.36L192.77 599.29L192.05 598.27L191.27 597.29L190.43 596.37L189.52 595.51L188.55 594.7L187.53 593.96L186.45 593.28L185.33 592.67L184.16 592.13L182.95 591.66L181.7 591.27L180.41 590.97L179.09 590.74L177.74 590.61L176.37 590.56L175 590.61L173.65 590.74L172.33 590.97L171.04 591.27L169.79 591.66L168.58 592.13L167.41 592.67L166.29 593.28L165.21 593.96L164.19 594.7L163.22 595.51L162.31 596.37L161.47 597.29L160.68 598.27L159.97 599.29L159.33 600.36L158.76 601.47L158.27 602.63L157.87 603.82L157.54 605.04L157.48 605.4L157.48 610.56L164.34 610.56L164.34 607.46L164.43 606.96L164.83 605.75L165.37 604.6L166.03 603.52L166.82 602.51L167.73 601.59L168.74 600.77L169.84 600.05L171.03 599.44L172.3 598.96L173.63 598.6L175.03 598.38L176.47 598.3L177.91 598.38L179.3 598.6L180.63 598.96L181.9 599.44L183.09 600.05L184.19 600.77L185.2 601.59L186.11 602.51L186.9 603.52L187.57 604.6L188.1 605.75L188.5 606.96L188.74 608.23L188.82 609.54L188.82 609.54L188.76 610.56L141.44 610.56L141.44 599.05L141.5 598.67L141.8 597.1L142.16 595.55L142.57 594.02L143.02 592.52L143.53 591.05L144.08 589.61L144.68 588.2L145.33 586.82L146.01 585.47L146.75 584.16L147.52 582.88L148.33 581.64L149.18 580.43L150.08 579.27L151 578.14L151.97 577.06L152.97 576.02L154 575.03L155.07 574.08L156.16 573.18L157.29 572.33L158.45 571.53L159.63 570.78L160.85 570.08L162.08 569.44L163.35 568.85L164.63 568.32L165.94 567.84L167.28 567.42L168.63 567.07L170 566.78L171.39 566.54L172.79 566.38L174.21 566.28L175.65 566.24L177.08 566.28L178.51 566.38L179.91 566.54L181.3 566.78L182.67 567.07L184.02 567.42L185.35 567.84L186.66 568.32L187.95 568.85L189.21 569.44L190.45 570.08L191.66 570.78L192.85 571.53L194.01 572.33L195.13 573.18L196.23 574.08L197.3 575.03L198.33 576.02L199.33 577.06L200.29 578.14L201.22 579.27L202.11 580.43L202.97 581.64L203.78 582.88L204.55 584.16L205.28 585.47L205.97 586.82L206.62 588.2L207.21 589.61L207.77 591.05L208.27 592.52L208.73 594.02L209.14 595.55L209.5 597.1L209.8 598.67L210.05 600.27L210.25 601.89L210.39 603.53L210.48 605.18L210.51 606.85L210.48 608.53L210.39 610.18L210.36 610.56L195.53 610.56L195.57 610.2L195.62 608.89ZM173.16 576.49L171.91 576.64L170.68 576.85L169.46 577.11L168.27 577.43L167.09 577.8L165.94 578.23L164.81 578.7L163.7 579.23L162.61 579.81L161.56 580.43L160.52 581.1L159.52 581.81L158.55 582.57L157.61 583.37L156.7 584.21L155.82 585.09L154.98 586.01L154.17 586.97L153.4 587.96L152.66 588.99L151.97 590.05L151.31 591.15L150.7 592.27L150.13 593.42L149.6 594.61L149.12 595.81L148.68 597.05L148.29 598.31L147.95 599.59L147.65 600.9L147.51 601.69L147.51 610.56L152.37 610.56L152.37 603.63L152.47 603.06L152.77 601.8L153.14 600.57L153.56 599.36L154.04 598.19L154.58 597.05L155.18 595.94L155.82 594.86L156.52 593.83L157.27 592.83L158.06 591.88L158.9 590.97L159.79 590.1L160.72 589.28L161.68 588.51L162.69 587.8L163.73 587.13L164.8 586.52L165.91 585.96L167.05 585.47L168.22 585.03L169.42 584.65L170.64 584.34L171.89 584.1L173.16 583.92L174.44 583.81L175.75 583.78L177.06 583.81L178.35 583.92L179.61 584.1L180.86 584.34L182.08 584.65L183.28 585.03L184.45 585.47L185.59 585.96L186.7 586.52L187.77 587.13L188.82 587.8L189.82 588.51L190.79 589.28L191.71 590.1L192.6 590.97L193.44 591.88L194.23 592.83L194.98 593.83L195.68 594.86L196.33 595.94L196.92 597.05L197.46 598.19L197.94 599.36L198.36 600.57L198.73 601.8L199.03 603.06L199.27 604.34L199.44 605.65L199.55 606.98L199.58 608.32L199.55 609.67L199.47 610.56L204.32 610.56L204.33 610.48L204.41 609.1L204.44 607.7L204.41 606.31L204.33 604.93L204.19 603.57L204 602.22L203.76 600.9L203.46 599.59L203.12 598.31L202.73 597.05L202.29 595.81L201.81 594.61L201.28 593.42L200.71 592.27L200.1 591.15L199.44 590.05L198.75 588.99L198.02 587.96L197.24 586.97L196.44 586.01L195.59 585.09L194.71 584.21L193.8 583.37L192.86 582.57L191.89 581.81L190.89 581.1L189.86 580.43L188.8 579.81L187.71 579.23L186.61 578.7L185.47 578.23L184.32 577.8L183.14 577.43L181.95 577.11L180.73 576.85L179.5 576.64L178.25 576.49L176.98 576.4L175.71 576.37L174.43 576.4L173.16 576.49Z" id="c1cpOVpJ2f"></path><path d="M89.83 294.15L90.62 294.26L91.41 294.41L92.18 294.58L92.95 294.79L93.7 295.02L94.44 295.28L95.16 295.57L95.87 295.89L96.57 296.23L97.25 296.6L97.91 297L98.56 297.42L99.19 297.86L99.8 298.33L100.39 298.81L100.97 299.33L101.52 299.86L102.05 300.41L102.56 300.98L103.05 301.58L103.52 302.19L103.96 302.82L104.38 303.46L104.78 304.13L105.15 304.81L105.49 305.5L105.81 306.22L106.1 306.94L106.36 307.68L106.59 308.43L106.8 309.19L106.97 309.97L107.12 310.76L107.23 311.55L107.31 312.36L107.36 313.18L107.38 314L107.38 354L107.36 354.82L107.31 355.64L107.23 356.45L107.12 357.24L106.97 358.03L106.8 358.81L106.59 359.57L106.36 360.32L106.1 361.06L105.81 361.78L105.49 362.5L105.15 363.19L104.95 363.55L104.95 405.64L104.93 406.47L104.88 407.28L104.8 408.09L104.69 408.89L104.54 409.67L104.37 410.45L104.16 411.21L103.93 411.96L103.67 412.7L103.38 413.43L103.06 414.14L102.72 414.83L102.35 415.51L101.95 416.18L101.53 416.83L101.09 417.45L100.62 418.07L100.14 418.66L99.62 419.23L99.09 419.78L98.54 420.32L97.97 420.83L97.37 421.32L96.76 421.78L96.13 422.23L95.49 422.65L94.82 423.04L94.14 423.41L93.45 423.75L92.73 424.07L92.01 424.36L91.27 424.62L90.52 424.86L89.76 425.06L88.98 425.24L88.19 425.38L87.4 425.49L86.59 425.58L85.77 425.63L84.95 425.64L44.95 425.64L44.13 425.63L43.31 425.58L42.5 425.49L41.71 425.38L40.92 425.24L40.14 425.06L39.38 424.86L38.63 424.62L37.89 424.36L37.17 424.07L36.45 423.75L35.76 423.41L35.08 423.04L34.41 422.65L33.77 422.23L33.14 421.78L32.53 421.32L31.93 420.83L31.36 420.32L30.81 419.78L30.28 419.23L29.76 418.66L29.28 418.07L28.81 417.45L28.37 416.83L27.95 416.18L27.55 415.51L27.18 414.83L26.84 414.14L26.52 413.43L26.23 412.7L25.97 411.96L25.74 411.21L25.53 410.45L25.36 409.67L25.21 408.89L25.1 408.09L25.02 407.28L24.97 406.47L24.95 405.64L24.95 367.06L24.91 367.02L24.42 366.42L23.95 365.81L23.51 365.18L23.09 364.54L22.69 363.87L22.33 363.19L21.98 362.5L21.66 361.78L21.37 361.06L21.11 360.32L20.88 359.57L20.67 358.81L20.5 358.03L20.35 357.24L20.24 356.45L20.16 355.64L20.11 354.82L20.09 354L20.09 314L20.11 313.18L20.16 312.36L20.24 311.55L20.35 310.76L20.5 309.97L20.67 309.19L20.88 308.43L21.11 307.68L21.37 306.94L21.66 306.22L21.98 305.5L22.33 304.81L22.69 304.13L23.09 303.46L23.51 302.82L23.95 302.19L24.42 301.58L24.91 300.98L25.42 300.41L25.95 299.86L26.5 299.33L27.08 298.81L27.67 298.33L28.28 297.86L28.91 297.42L29.56 297L30.22 296.6L30.9 296.23L31.6 295.89L32.31 295.57L33.03 295.28L33.77 295.02L34.52 294.79L35.29 294.58L36.06 294.41L36.85 294.26L37.65 294.15L38.45 294.07L39.27 294.02L40.09 294L87.38 294L88.2 294.02L89.02 294.07L89.02 294.07L89.83 294.15Z" id="bn2libbKp"></path><path d="M401.31 321.91C412.36 321.91 421.31 330.87 421.31 341.91C421.31 358.04 421.31 386.43 421.31 402.56C421.31 413.6 412.36 422.56 401.31 422.56C389.31 422.56 373.31 422.56 361.31 422.56C350.27 422.56 341.31 413.6 341.31 402.56C341.31 386.43 341.31 358.04 341.31 341.91C341.31 330.87 350.27 321.91 361.31 321.91C373.31 321.91 389.31 321.91 401.31 321.91Z" id="daP7b0pDf"></path><path d="M403.74 290.91C414.79 290.91 423.74 299.87 423.74 310.91C423.74 322.91 423.74 338.91 423.74 350.91C423.74 361.96 414.79 370.91 403.74 370.91C390.28 370.91 369.91 370.91 356.45 370.91C345.41 370.91 336.45 361.96 336.45 350.91C336.45 338.91 336.45 322.91 336.45 310.91C336.45 299.87 345.41 290.91 356.45 290.91C369.91 290.91 390.28 290.91 403.74 290.91Z" id="ah9GMJrCb"></path><path d="M399.54 326.77C409.55 326.77 417.67 334.89 417.67 344.9C417.67 359.46 417.67 385.01 417.67 399.57C417.67 409.58 409.55 417.7 399.54 417.7C388.66 417.7 374.16 417.7 363.28 417.7C353.27 417.7 345.15 409.58 345.15 399.57C345.15 385.01 345.15 359.46 345.15 344.9C345.15 334.89 353.27 326.77 363.28 326.77C374.16 326.77 388.66 326.77 399.54 326.77Z" id="b2Iro8TfS6"></path><path d="M291.02 296.99L291.75 297.06L292.47 297.17L293.19 297.3L293.89 297.46L294.58 297.64L295.26 297.85L295.93 298.09L296.59 298.35L297.23 298.64L297.86 298.95L298.48 299.29L299.08 299.64L299.67 300.02L300.24 300.43L300.79 300.85L301.33 301.29L301.85 301.76L302.35 302.24L302.83 302.74L303.3 303.26L303.74 303.8L304.16 304.35L304.57 304.92L304.95 305.51L305.3 306.11L305.64 306.73L305.95 307.36L306.24 308L306.5 308.66L306.74 309.33L306.95 310.01L307.13 310.7L307.29 311.4L307.42 312.12L307.53 312.84L307.6 313.57L307.65 314.31L307.66 315.06L307.66 335.42L307.32 335.75L306.75 336.26L306.16 336.75L305.54 337.21L304.92 337.66L304.27 338.07L303.6 338.47L302.92 338.84L302.23 339.18L301.52 339.5L300.79 339.79L300.05 340.05L299.3 340.29L298.54 340.49L297.76 340.67L296.98 340.81L296.18 340.92L295.37 341.01L294.56 341.05L293.73 341.07L246.45 341.07L245.62 341.05L244.81 341.01L244 340.92L243.2 340.81L242.42 340.67L241.64 340.49L240.88 340.29L240.13 340.05L239.39 339.79L238.66 339.5L237.95 339.18L237.26 338.84L236.58 338.47L235.91 338.07L235.27 337.66L235.14 337.57L235.14 315.06L235.16 314.31L235.2 313.57L235.28 312.84L235.38 312.12L235.51 311.4L235.67 310.7L235.86 310.01L236.07 309.33L236.3 308.66L236.57 308L236.86 307.36L237.17 306.73L237.5 306.11L237.86 305.51L238.24 304.92L238.64 304.35L239.06 303.8L239.51 303.26L239.97 302.74L240.45 302.24L240.95 301.76L241.47 301.29L242.01 300.85L242.57 300.43L243.14 300.02L243.72 299.64L244.32 299.29L244.94 298.95L245.57 298.64L246.22 298.35L246.87 298.09L247.54 297.85L248.22 297.64L248.92 297.46L249.62 297.3L250.33 297.17L251.05 297.06L251.79 296.99L252.53 296.94L253.27 296.93L289.53 296.93L290.28 296.94L291.02 296.99Z" id="c9vwgULZJY"></path><path d="M199.97 297.98L200.65 298.05L201.33 298.15L201.99 298.27L202.65 298.42L203.3 298.59L203.93 298.79L204.56 299.01L205.17 299.26L205.77 299.53L206.36 299.82L206.93 300.13L207.49 300.46L208.04 300.82L208.57 301.19L209.09 301.59L209.59 302L210.08 302.43L210.55 302.88L211 303.35L211.43 303.84L211.84 304.34L212.24 304.85L212.61 305.39L212.97 305.93L213.3 306.5L213.61 307.07L213.9 307.66L214.17 308.26L214.42 308.87L214.64 309.5L214.84 310.13L215.01 310.78L215.16 311.43L215.28 312.1L215.37 312.77L215.44 313.46L215.49 314.15L215.5 314.84L215.5 336.01L215.31 336.21L214.75 336.75L214.18 337.26L213.59 337.75L212.98 338.21L212.35 338.66L211.7 339.07L211.04 339.47L210.36 339.84L209.66 340.18L208.95 340.5L208.22 340.79L207.49 341.05L206.73 341.29L205.97 341.49L205.2 341.67L204.41 341.81L203.61 341.92L202.81 342.01L201.99 342.05L201.16 342.07L159.73 342.07L158.9 342.05L158.08 342.01L157.28 341.92L156.48 341.81L155.69 341.67L154.92 341.49L154.16 341.29L153.4 341.05L152.67 340.79L151.94 340.5L151.23 340.18L150.53 339.84L149.85 339.47L149.19 339.07L148.54 338.66L147.91 338.21L147.84 338.16L147.84 314.84L147.85 314.15L147.89 313.46L147.96 312.77L148.06 312.1L148.18 311.43L148.33 310.78L148.5 310.13L148.7 309.5L148.92 308.87L149.17 308.26L149.44 307.66L149.73 307.07L150.04 306.5L150.37 305.93L150.73 305.39L151.1 304.85L151.5 304.34L151.91 303.84L152.34 303.35L152.79 302.88L153.26 302.43L153.75 302L154.25 301.59L154.76 301.19L155.3 300.82L155.84 300.46L156.4 300.13L156.98 299.82L157.57 299.53L158.17 299.26L158.78 299.01L159.41 298.79L160.04 298.59L160.69 298.42L161.34 298.27L162.01 298.15L162.68 298.05L163.37 297.98L164.06 297.94L164.75 297.93L198.58 297.93L199.28 297.94L199.97 297.98Z" id="djh6oxpV"></path><path d="M196.64 306.47L197.18 306.53L197.73 306.61L198.26 306.7L198.79 306.82L199.3 306.96L199.81 307.12L200.32 307.3L200.81 307.5L201.29 307.71L201.76 307.94L202.22 308.19L202.67 308.46L203.11 308.75L203.54 309.05L203.96 309.36L204.36 309.7L204.75 310.04L205.12 310.4L205.48 310.78L205.83 311.17L206.16 311.57L206.48 311.99L206.78 312.41L207.07 312.85L207.33 313.3L207.58 313.77L207.82 314.24L208.03 314.72L208.23 315.21L208.41 315.71L208.57 316.22L208.7 316.74L208.82 317.27L208.92 317.8L209 318.34L209.05 318.89L209.09 319.45L209.1 320L209.1 337.15L208.92 337.34L208.47 337.77L208.01 338.18L207.53 338.58L207.03 338.96L206.53 339.31L206 339.65L205.47 339.97L204.92 340.27L204.36 340.55L203.78 340.8L203.2 341.04L202.6 341.25L201.99 341.44L201.38 341.6L200.75 341.74L200.12 341.86L199.47 341.95L198.82 342.02L198.16 342.06L197.5 342.07L164.43 342.07L163.77 342.06L163.11 342.02L162.46 341.95L161.81 341.86L161.18 341.74L160.55 341.6L159.93 341.44L159.33 341.25L158.73 341.04L158.15 340.8L157.57 340.55L157.01 340.27L156.46 339.97L155.93 339.65L155.4 339.31L154.9 338.96L154.79 338.88L154.79 320L154.81 319.45L154.84 318.89L154.9 318.34L154.97 317.8L155.07 317.27L155.19 316.74L155.33 316.22L155.49 315.71L155.66 315.21L155.86 314.72L156.08 314.24L156.31 313.77L156.56 313.3L156.83 312.85L157.11 312.41L157.41 311.99L157.73 311.57L158.06 311.17L158.41 310.78L158.77 310.4L159.15 310.04L159.54 309.7L159.94 309.36L160.35 309.05L160.78 308.75L161.22 308.46L161.67 308.19L162.13 307.94L162.6 307.71L163.09 307.5L163.58 307.3L164.08 307.12L164.59 306.96L165.11 306.82L165.63 306.7L166.17 306.61L166.71 306.53L167.26 306.47L167.81 306.44L168.37 306.43L195.52 306.43L196.08 306.44L196.64 306.47Z" id="c3hIT2qDBg"></path><path d="M191.99 312.54L192.43 312.59L192.87 312.66L193.3 312.74L193.72 312.84L194.14 312.97L194.54 313.1L194.95 313.26L195.34 313.43L195.72 313.62L196.1 313.82L196.46 314.03L196.81 314.27L197.16 314.51L197.49 314.77L197.81 315.04L198.13 315.33L198.42 315.63L198.71 315.94L198.98 316.26L199.24 316.59L199.49 316.94L199.72 317.29L199.94 317.66L200.14 318.03L200.32 318.42L200.5 318.81L200.65 319.21L200.79 319.62L200.91 320.03L201.01 320.46L201.1 320.89L201.17 321.32L201.21 321.77L201.24 322.21L201.25 322.67L201.25 338.3L201.07 338.49L200.7 338.85L200.31 339.19L199.9 339.52L199.48 339.83L199.04 340.13L198.6 340.4L198.14 340.66L197.67 340.89L197.18 341.11L196.69 341.31L196.19 341.48L195.67 341.63L195.15 341.77L194.62 341.87L194.08 341.96L193.54 342.02L192.98 342.06L192.42 342.07L167.95 342.07L167.39 342.06L166.83 342.02L166.29 341.96L165.75 341.87L165.22 341.77L164.7 341.63L164.18 341.48L163.68 341.31L163.19 341.11L162.7 340.89L162.23 340.66L161.77 340.4L161.33 340.13L160.89 339.83L160.59 339.61L160.59 322.67L160.6 322.21L160.63 321.77L160.68 321.32L160.74 320.89L160.83 320.46L160.93 320.03L161.05 319.62L161.19 319.21L161.35 318.81L161.52 318.42L161.7 318.03L161.91 317.66L162.12 317.29L162.35 316.94L162.6 316.59L162.86 316.26L163.13 315.94L163.42 315.63L163.72 315.33L164.03 315.04L164.35 314.77L164.68 314.51L165.03 314.27L165.38 314.03L165.75 313.82L166.12 313.62L166.5 313.43L166.9 313.26L167.3 313.1L167.71 312.97L168.12 312.84L168.55 312.74L168.98 312.66L169.41 312.59L169.85 312.54L170.3 312.51L170.75 312.5L191.09 312.5L191.54 312.51L191.99 312.54Z" id="dVD3bkiFY"></path><path d="M188.49 320.06L188.95 320.13L189.39 320.23L189.82 320.35L190.25 320.5L190.66 320.67L191.05 320.87L191.44 321.09L191.81 321.33L192.16 321.59L192.5 321.88L192.82 322.18L193.12 322.5L193.4 322.83L193.66 323.19L193.9 323.56L194.12 323.94L194.32 324.34L194.49 324.75L194.64 325.17L194.77 325.6L194.86 326.05L194.94 326.5L194.98 326.96L194.99 327.43L194.99 338.31L194.86 338.45L194.48 338.81L194.07 339.15L193.65 339.47L193.2 339.76L192.74 340.02L192.26 340.26L191.77 340.47L191.26 340.65L190.74 340.8L190.2 340.92L189.66 341L189.1 341.05L188.54 341.07L170.64 341.07L170.07 341.05L169.52 341L168.97 340.92L168.44 340.8L167.91 340.65L167.41 340.47L166.91 340.26L166.43 340.02L165.97 339.76L165.53 339.47L165.26 339.27L165.26 327.43L165.27 326.96L165.32 326.5L165.39 326.05L165.48 325.6L165.61 325.17L165.76 324.75L165.93 324.34L166.13 323.94L166.35 323.56L166.59 323.19L166.85 322.83L167.13 322.5L167.43 322.18L167.75 321.88L168.09 321.59L168.44 321.33L168.81 321.09L169.2 320.87L169.59 320.67L170 320.5L170.43 320.35L170.86 320.23L171.31 320.13L171.76 320.06L172.22 320.01L172.69 320L187.56 320L188.03 320.01L188.49 320.06Z" id="e1lvNodlZy"></path><path d="M193.57 359.88L194.25 359.95L194.93 360.04L195.59 360.17L196.25 360.31L196.9 360.49L197.53 360.68L198.16 360.91L198.77 361.15L199.37 361.42L199.96 361.71L200.53 362.02L201.09 362.36L201.64 362.71L202.17 363.09L202.69 363.48L203.19 363.89L203.68 364.33L204.15 364.78L204.6 365.24L205.03 365.73L205.44 366.23L205.84 366.75L206.21 367.28L206.57 367.83L206.9 368.39L207.21 368.96L207.5 369.55L207.77 370.15L208.02 370.77L208.24 371.39L208.43 372.03L208.61 372.67L208.76 373.33L208.88 373.99L208.97 374.67L209.04 375.35L209.09 376.04L209.1 376.74L209.1 397.91L208.91 398.11L208.35 398.64L207.78 399.15L207.19 399.64L206.58 400.11L205.95 400.55L205.3 400.97L204.64 401.36L203.96 401.73L203.26 402.08L202.55 402.39L201.82 402.68L201.09 402.94L200.33 403.18L199.57 403.38L198.79 403.56L198.01 403.7L197.21 403.82L196.4 403.9L195.59 403.95L194.76 403.96L191.1 403.96L191.76 403.95L192.42 403.91L193.07 403.84L193.72 403.75L194.35 403.64L194.98 403.49L195.59 403.33L196.2 403.14L196.8 402.93L197.38 402.7L197.96 402.44L198.52 402.16L199.07 401.86L199.6 401.54L200.13 401.21L200.63 400.85L201.13 400.47L201.61 400.08L202.07 399.66L202.52 399.23L202.7 399.04L202.7 381.9L202.69 381.34L202.65 380.78L202.6 380.24L202.52 379.7L202.42 379.16L202.3 378.64L202.17 378.12L202.01 377.61L201.83 377.11L201.63 376.61L201.42 376.13L201.18 375.66L200.93 375.2L200.66 374.75L200.38 374.31L200.08 373.88L199.76 373.46L199.43 373.06L199.08 372.67L198.72 372.3L198.35 371.94L197.96 371.59L197.56 371.26L197.14 370.94L196.71 370.64L196.27 370.36L195.82 370.09L195.36 369.84L194.89 369.6L194.41 369.39L193.92 369.19L193.41 369.01L192.9 368.85L192.39 368.72L191.86 368.6L191.32 368.5L190.78 368.42L190.24 368.37L189.68 368.33L189.12 368.32L161.97 368.32L161.41 368.33L160.86 368.37L160.31 368.42L159.77 368.5L159.23 368.6L158.71 368.72L158.19 368.85L157.68 369.01L157.18 369.19L156.69 369.39L156.2 369.6L155.73 369.84L155.27 370.09L154.82 370.36L154.38 370.64L153.95 370.94L153.54 371.26L153.14 371.59L152.75 371.94L152.37 372.3L152.01 372.67L151.66 373.06L151.33 373.46L151.01 373.88L150.71 374.31L150.43 374.75L150.16 375.2L149.91 375.66L149.68 376.13L149.46 376.61L149.26 377.11L149.09 377.61L148.93 378.12L148.79 378.64L148.67 379.16L148.57 379.7L148.49 380.24L148.44 380.78L148.41 381.34L148.39 381.9L148.39 400.77L148.49 400.85L149 401.21L149.53 401.54L150.06 401.86L150.61 402.16L151.17 402.44L151.75 402.7L152.33 402.93L152.93 403.14L153.53 403.33L154.15 403.49L154.78 403.64L155.41 403.75L156.06 403.84L156.71 403.91L157.37 403.95L158.03 403.96L153.32 403.96L152.5 403.95L151.68 403.9L150.88 403.82L150.08 403.7L149.29 403.56L148.52 403.38L147.75 403.18L147 402.94L146.26 402.68L145.54 402.39L144.83 402.08L144.13 401.73L143.45 401.36L142.79 400.97L142.14 400.55L141.51 400.11L141.44 400.05L141.44 376.74L141.45 376.04L141.49 375.35L141.56 374.67L141.66 373.99L141.78 373.33L141.93 372.67L142.1 372.03L142.3 371.39L142.52 370.77L142.77 370.15L143.04 369.55L143.33 368.96L143.64 368.39L143.97 367.83L144.33 367.28L144.7 366.75L145.1 366.23L145.51 365.73L145.94 365.24L146.39 364.78L146.86 364.33L147.34 363.89L147.85 363.48L148.36 363.09L148.9 362.71L149.44 362.36L150 362.02L150.58 361.71L151.17 361.42L151.77 361.15L152.38 360.91L153.01 360.68L153.64 360.49L154.29 360.31L154.94 360.17L155.61 360.04L156.28 359.95L156.97 359.88L157.66 359.84L158.35 359.82L192.18 359.82L192.88 359.84L193.57 359.88Z" id="i3QkIH70nB"></path><path d="M289.71 359.88L290.39 359.95L291.06 360.04L291.73 360.17L292.38 360.31L293.03 360.49L293.66 360.68L294.29 360.91L294.9 361.15L295.5 361.42L296.09 361.71L296.67 362.02L297.23 362.36L297.78 362.71L298.31 363.09L298.82 363.48L299.33 363.89L299.81 364.33L300.28 364.78L300.73 365.24L301.16 365.73L301.57 366.23L301.97 366.75L302.34 367.28L302.7 367.83L303.03 368.39L303.35 368.96L303.64 369.55L303.9 370.15L304.15 370.77L304.37 371.39L304.57 372.03L304.74 372.67L304.89 373.33L305.01 373.99L305.11 374.67L305.18 375.35L305.22 376.04L305.23 376.74L305.23 397.91L305.04 398.11L304.49 398.64L303.91 399.15L303.32 399.64L302.71 400.11L302.08 400.55L301.43 400.97L300.77 401.36L300.09 401.73L299.39 402.08L298.68 402.39L297.96 402.68L297.22 402.94L296.47 403.18L295.7 403.38L294.93 403.56L294.14 403.7L293.34 403.82L292.54 403.9L291.72 403.95L290.9 403.96L287.23 403.96L287.9 403.95L288.55 403.91L289.21 403.84L289.85 403.75L290.48 403.64L291.11 403.49L291.73 403.33L292.33 403.14L292.93 402.93L293.52 402.7L294.09 402.44L294.65 402.16L295.2 401.86L295.74 401.54L296.26 401.21L296.77 400.85L297.26 400.47L297.74 400.08L298.2 399.66L298.65 399.23L298.83 399.04L298.83 381.9L298.82 381.34L298.79 380.78L298.73 380.24L298.65 379.7L298.56 379.16L298.44 378.64L298.3 378.12L298.14 377.61L297.96 377.11L297.77 376.61L297.55 376.13L297.32 375.66L297.07 375.2L296.8 374.75L296.51 374.31L296.21 373.88L295.9 373.46L295.56 373.06L295.22 372.67L294.86 372.3L294.48 371.94L294.09 371.59L293.69 371.26L293.27 370.94L292.85 370.64L292.41 370.36L291.96 370.09L291.5 369.84L291.02 369.6L290.54 369.39L290.05 369.19L289.55 369.01L289.04 368.85L288.52 368.72L287.99 368.6L287.46 368.5L286.92 368.42L286.37 368.37L285.82 368.33L285.26 368.32L258.1 368.32L257.54 368.33L256.99 368.37L256.44 368.42L255.9 368.5L255.37 368.6L254.84 368.72L254.32 368.85L253.81 369.01L253.31 369.19L252.82 369.39L252.34 369.6L251.87 369.84L251.4 370.09L250.95 370.36L250.51 370.64L250.09 370.94L249.67 371.26L249.27 371.59L248.88 371.94L248.5 372.3L248.14 372.67L247.8 373.06L247.46 373.46L247.15 373.88L246.85 374.31L246.56 374.75L246.29 375.2L246.04 375.66L245.81 376.13L245.59 376.61L245.4 377.11L245.22 377.61L245.06 378.12L244.92 378.64L244.8 379.16L244.71 379.7L244.63 380.24L244.57 380.78L244.54 381.34L244.53 381.9L244.53 400.77L244.63 400.85L245.14 401.21L245.66 401.54L246.19 401.86L246.74 402.16L247.31 402.44L247.88 402.7L248.46 402.93L249.06 403.14L249.67 403.33L250.28 403.49L250.91 403.64L251.55 403.75L252.19 403.84L252.84 403.91L253.5 403.95L254.17 403.96L249.46 403.96L248.63 403.95L247.82 403.9L247.01 403.82L246.21 403.7L245.43 403.56L244.65 403.38L243.89 403.18L243.14 402.94L242.4 402.68L241.67 402.39L240.96 402.08L240.27 401.73L239.59 401.36L238.92 400.97L238.28 400.55L237.65 400.11L237.57 400.05L237.57 376.74L237.59 376.04L237.63 375.35L237.7 374.67L237.79 373.99L237.92 373.33L238.06 372.67L238.24 372.03L238.43 371.39L238.66 370.77L238.9 370.15L239.17 369.55L239.46 368.96L239.77 368.39L240.11 367.83L240.46 367.28L240.84 366.75L241.23 366.23L241.64 365.73L242.08 365.24L242.53 364.78L242.99 364.33L243.48 363.89L243.98 363.48L244.5 363.09L245.03 362.71L245.58 362.36L246.14 362.02L246.71 361.71L247.3 361.42L247.9 361.15L248.52 360.91L249.14 360.68L249.78 360.49L250.42 360.31L251.08 360.17L251.74 360.04L252.42 359.95L253.1 359.88L253.79 359.84L254.49 359.82L288.32 359.82L289.01 359.84L289.71 359.88ZM281.72 374.43L282.16 374.48L282.6 374.55L283.03 374.63L283.45 374.74L283.87 374.86L284.28 375L284.68 375.15L285.07 375.32L285.45 375.51L285.83 375.71L286.19 375.93L286.55 376.16L286.89 376.4L287.23 376.66L287.55 376.94L287.86 377.22L288.16 377.52L288.44 377.83L288.72 378.15L288.97 378.49L289.22 378.83L289.45 379.19L289.67 379.55L289.87 379.92L290.06 380.31L290.23 380.7L290.38 381.1L290.52 381.51L290.64 381.93L290.75 382.35L290.83 382.78L290.9 383.22L290.95 383.66L290.98 384.11L290.99 384.56L290.99 400.19L290.81 400.38L290.43 400.74L290.04 401.09L289.63 401.41L289.21 401.73L288.78 402.02L288.33 402.29L287.87 402.55L287.4 402.79L286.92 403L286.42 403.2L285.92 403.37L285.41 403.53L284.89 403.66L284.35 403.77L283.82 403.85L283.27 403.91L282.71 403.95L282.15 403.96L257.68 403.96L257.12 403.95L256.57 403.91L256.02 403.85L255.48 403.77L254.95 403.66L254.43 403.53L253.92 403.37L253.41 403.2L252.92 403L252.44 402.79L251.97 402.55L251.51 402.29L251.06 402.02L250.63 401.73L250.32 401.5L250.32 384.56L250.33 384.11L250.36 383.66L250.41 383.22L250.48 382.78L250.56 382.35L250.67 381.93L250.79 381.51L250.92 381.1L251.08 380.7L251.25 380.31L251.44 379.92L251.64 379.55L251.86 379.19L252.09 378.83L252.33 378.49L252.59 378.15L252.87 377.83L253.15 377.52L253.45 377.22L253.76 376.94L254.08 376.66L254.42 376.4L254.76 376.16L255.11 375.93L255.48 375.71L255.85 375.51L256.24 375.32L256.63 375.15L257.03 375L257.44 374.86L257.85 374.74L258.28 374.63L258.71 374.55L259.14 374.48L259.59 374.43L260.03 374.4L260.49 374.39L280.82 374.39L281.27 374.4L281.72 374.43ZM261.95 381.91L261.49 381.95L261.04 382.02L260.59 382.12L260.16 382.24L259.74 382.39L259.33 382.57L258.93 382.76L258.55 382.98L258.18 383.22L257.82 383.49L257.49 383.77L257.17 384.07L256.87 384.39L256.58 384.73L256.32 385.08L256.08 385.45L255.86 385.83L255.66 386.23L255.49 386.64L255.34 387.06L255.22 387.5L255.12 387.94L255.05 388.39L255.01 388.86L254.99 389.33L254.99 401.16L255.26 401.36L255.7 401.65L256.17 401.92L256.64 402.15L257.14 402.36L257.65 402.54L258.17 402.69L258.7 402.81L259.25 402.89L259.81 402.95L260.37 402.96L278.27 402.96L278.83 402.95L279.39 402.89L279.94 402.81L280.47 402.69L280.99 402.54L281.5 402.36L282 402.15L282.48 401.92L282.94 401.65L283.38 401.36L283.81 401.05L284.21 400.71L284.6 400.34L284.73 400.2L284.73 389.33L284.71 388.86L284.67 388.39L284.6 387.94L284.5 387.5L284.38 387.06L284.23 386.64L284.05 386.23L283.86 385.83L283.64 385.45L283.4 385.08L283.13 384.73L282.85 384.39L282.55 384.07L282.23 383.77L281.89 383.49L281.54 383.22L281.17 382.98L280.79 382.76L280.39 382.57L279.98 382.39L279.56 382.24L279.12 382.12L278.68 382.02L278.23 381.95L277.76 381.91L277.29 381.89L262.42 381.89L261.95 381.91Z" id="bHKJO616D"></path><path d="M275.88 387.85L276.36 387.97L276.82 388.14L277.26 388.35L277.67 388.6L278.05 388.89L278.41 389.21L278.73 389.57L279.02 389.95L279.27 390.36L279.48 390.8L279.65 391.26L279.77 391.74L279.84 392.23L279.87 392.74L279.87 398.72L279.86 398.72L279.46 399.09L279.01 399.42L278.54 399.71L278.04 399.95L277.51 400.15L276.96 400.29L276.39 400.37L275.81 400.4L263.24 400.4L262.66 400.37L262.09 400.29L261.54 400.15L261.01 399.95L260.51 399.71L260.04 399.42L259.91 399.33L259.91 392.74L259.93 392.23L260.01 391.74L260.13 391.26L260.3 390.8L260.51 390.36L260.76 389.95L261.05 389.57L261.37 389.21L261.72 388.89L262.11 388.6L262.52 388.35L262.95 388.14L263.41 387.97L263.89 387.85L264.39 387.78L264.9 387.75L274.88 387.75L275.39 387.78L275.88 387.85Z" id="a1MQShi3Wq"></path><path d="M424.88 570.84C424.88 598.61 405.87 621.16 382.45 621.16C359.04 621.16 340.03 598.61 340.03 570.84C340.03 543.07 359.04 520.52 382.45 520.52C405.87 520.52 424.88 543.07 424.88 570.84Z" id="g1sk9Tkdeb"></path><path d="M178.51 504.16L179.91 504.32L181.3 504.55L182.67 504.85L184.02 505.2L185.35 505.62L186.66 506.09L187.95 506.63L189.21 507.22L190.45 507.86L191.66 508.56L192.85 509.31L194.01 510.11L195.13 510.96L196.23 511.86L197.3 512.81L198.33 513.8L199.33 514.84L200.29 515.92L201.22 517.05L202.11 518.21L202.97 519.41L203.78 520.66L204.55 521.93L205.28 523.25L205.97 524.6L206.62 525.98L207.21 527.39L207.77 528.83L208.27 530.3L208.73 531.8L209.14 533.33L209.5 534.88L209.8 536.45L210.05 538.05L210.25 539.67L210.39 541.3L210.48 542.96L210.51 544.63L210.48 546.31L210.39 547.96L210.36 548.34L206.06 548.34L206.05 547.55L205.97 546.17L205.83 544.8L205.65 543.44L205.42 542.11L205.14 540.79L204.82 539.49L204.44 538.22L204.03 536.97L203.56 535.74L203.06 534.54L202.51 533.36L201.92 532.22L201.29 531.1L200.63 530.01L199.92 528.95L199.18 527.92L198.4 526.93L197.59 525.97L196.74 525.04L195.86 524.16L194.95 523.31L194.01 522.5L193.04 521.73L192.04 521L191.02 520.31L189.97 519.67L188.89 519.07L187.79 518.52L186.67 518.01L185.52 517.56L184.35 517.15L183.17 516.79L181.96 516.49L180.74 516.24L179.5 516.04L178.24 515.89L176.97 515.81L175.69 515.78L174.41 515.81L173.14 515.89L171.88 516.04L170.64 516.24L169.42 516.49L168.21 516.79L167.03 517.15L165.86 517.56L164.71 518.01L163.59 518.52L162.49 519.07L161.41 519.67L160.36 520.31L159.34 521L158.34 521.73L157.37 522.5L156.43 523.31L155.52 524.16L154.64 525.04L153.79 525.97L152.98 526.93L152.2 527.92L151.46 528.95L150.76 530.01L150.09 531.1L149.46 532.22L148.87 533.36L148.32 534.54L147.82 535.74L147.36 536.97L146.94 538.22L146.56 539.49L146.24 540.79L145.96 542.11L145.88 542.59L145.88 548.34L141.44 548.34L141.44 536.83L141.5 536.45L141.8 534.88L142.16 533.33L142.57 531.8L143.02 530.3L143.53 528.83L144.08 527.39L144.68 525.98L145.33 524.6L146.01 523.25L146.75 521.93L147.52 520.66L148.33 519.41L149.18 518.21L150.08 517.05L151 515.92L151.97 514.84L152.97 513.8L154 512.81L155.07 511.86L156.16 510.96L157.29 510.11L158.45 509.31L159.63 508.56L160.85 507.86L162.08 507.22L163.35 506.63L164.63 506.09L165.94 505.62L167.28 505.2L168.63 504.85L170 504.55L171.39 504.32L172.79 504.16L174.21 504.06L175.65 504.02L177.08 504.06L178.51 504.16Z" id="d25xl9813"></path><path d="M427.45 536.94C427.45 564.71 406.23 587.26 380.1 587.26C353.96 587.26 332.74 564.71 332.74 536.94C332.74 509.17 353.96 486.62 380.1 486.62C406.23 486.62 427.45 509.17 427.45 536.94Z" id="a4ycOCKit"></path><path d="M418.69 567.4C418.69 593.27 402.44 614.28 382.43 614.28C362.42 614.28 346.17 593.27 346.17 567.4C346.17 541.52 362.42 520.52 382.43 520.52C402.44 520.52 418.69 541.52 418.69 567.4Z" id="f2zBUcmV"></path><path d="M338.31 156.72L429.31 156.72L429.31 242.21L338.31 242.21L338.31 156.72Z" id="fniGPJ1Gj"></path><path d="M336.45 90.89L431.17 90.89L431.17 176.39L336.45 176.39L336.45 90.89Z" id="b1othoFOoP"></path><path d="M343.81 136.71L423.81 136.71L423.81 233.71L343.81 233.71L343.81 136.71Z" id="f2EcJNjmDZ"></path><path d="M224.44 242.21L224.44 196.52L149.84 196.52L149.84 242.21L144.71 242.21L144.71 189.75L229.57 189.75L229.57 242.21L224.44 242.21Z" id="gmI5BA3gp"></path><path d="M213.02 242.21L213.02 210.98L161.27 210.98L161.27 242.21L157.71 242.21L157.71 206.35L216.58 206.35L216.58 242.21L213.02 242.21Z" id="awHikvmit"></path><path d="M203.78 242.21L203.78 224.92L170.44 224.92L170.44 242.21L168.15 242.21L168.15 222.35L206.07 222.35L206.07 242.21L203.78 242.21Z" id="j1N5RvLUhy"></path><path d="M217.43 156.72L217.43 111.03L142.83 111.03L142.83 156.72L137.7 156.72L137.7 104.25L222.55 104.25L222.55 156.72L217.43 156.72Z" id="a4WRAUEOif"></path><path d="M317.3 156.72L317.3 111.03L242.7 111.03L242.7 156.72L237.57 156.72L237.57 104.25L322.43 104.25L322.43 156.72L317.3 156.72Z" id="eKS45WZbq"></path><path d="M242.43 189.75L324.86 189.75L324.86 242.21L242.43 242.21L242.43 189.75Z" id="b1n4xlTMTq"></path><path d="M305.88 156.72L305.88 125.48L254.12 125.48L254.12 156.72L250.57 156.72L250.57 120.85L309.43 120.85L309.43 156.72L305.88 156.72Z" id="d2JOujHxpH"></path><path d="M296.63 156.72L296.63 139.42L263.3 139.42L263.3 156.72L261 156.72L261 136.85L298.92 136.85L298.92 156.72L296.63 156.72Z" id="a2TJS4vHG"></path></defs><g><g><g><use xlink:href="#c1ukvUUxhr" opacity="1" fill="#fffcfc" fill-opacity="1"></use><g><use xlink:href="#c1ukvUUxhr" opacity="1" fill-opacity="0" stroke="#180218" stroke-width="2" stroke-opacity="1"></use></g></g><g><use xlink:href="#c93cXpV9" opacity="1" fill="#ffffff" fill-opacity="1"></use><g><use xlink:href="#c93cXpV9" opacity="1" fill-opacity="0" stroke="#050000" stroke-width="2" stroke-opacity="1"></use></g></g><g><use xlink:href="#b10Wa5aayZ" opacity="1" fill="#fffcfc" fill-opacity="1"></use><g><use xlink:href="#b10Wa5aayZ" opacity="1" fill-opacity="0" stroke="#180218" stroke-width="2" stroke-opacity="1"></use></g></g><g><use xlink:href="#a2g4dlAear" opacity="1" fill="#020000" fill-opacity="1"></use><g><use xlink:href="#a2g4dlAear" opacity="1" fill-opacity="0" stroke="#f9f4f4" stroke-width="2" stroke-opacity="1"></use></g></g><g><use xlink:href="#c1cpOVpJ2f" opacity="1" fill="#fffcfc" fill-opacity="1"></use><g><use xlink:href="#c1cpOVpJ2f" opacity="1" fill-opacity="0" stroke="#180218" stroke-width="2" stroke-opacity="1"></use></g></g><g><use xlink:href="#bn2libbKp" opacity="1" fill="#fffcfc" fill-opacity="1"></use><g><use xlink:href="#bn2libbKp" opacity="1" fill-opacity="0" stroke="#020000" stroke-width="2" stroke-opacity="1"></use></g></g><g><use xlink:href="#daP7b0pDf" opacity="1" fill="#fffcfc" fill-opacity="1"></use><g><use xlink:href="#daP7b0pDf" opacity="1" fill-opacity="0" stroke="#020000" stroke-width="2" stroke-opacity="1"></use></g></g><g><use xlink:href="#ah9GMJrCb" opacity="1" fill="#fffcfc" fill-opacity="1"></use><g><use xlink:href="#ah9GMJrCb" opacity="1" fill-opacity="0" stroke="#020000" stroke-width="2" stroke-opacity="1"></use></g></g><g><use xlink:href="#b2Iro8TfS6" opacity="1" fill="#fffcfc" fill-opacity="1"></use><g><use xlink:href="#b2Iro8TfS6" opacity="1" fill-opacity="0" stroke="#020000" stroke-width="2" stroke-opacity="1"></use></g></g><g><use xlink:href="#c9vwgULZJY" opacity="1" fill="#fffcfc" fill-opacity="1"></use><g><use xlink:href="#c9vwgULZJY" opacity="1" fill-opacity="0" stroke="#020000" stroke-width="2" stroke-opacity="1"></use></g></g><g><use xlink:href="#djh6oxpV" opacity="1" fill="#fffcfc" fill-opacity="1"></use><g><use xlink:href="#djh6oxpV" opacity="1" fill-opacity="0" stroke="#020000" stroke-width="2" stroke-opacity="1"></use></g></g><g><use xlink:href="#c3hIT2qDBg" opacity="1" fill="#fffcfc" fill-opacity="1"></use><g><use xlink:href="#c3hIT2qDBg" opacity="1" fill-opacity="0" stroke="#020000" stroke-width="2" stroke-opacity="1"></use></g></g><g><use xlink:href="#dVD3bkiFY" opacity="1" fill="#fffcfc" fill-opacity="1"></use><g><use xlink:href="#dVD3bkiFY" opacity="1" fill-opacity="0" stroke="#020000" stroke-width="2" stroke-opacity="1"></use></g></g><g><use xlink:href="#e1lvNodlZy" opacity="1" fill="#fffcfc" fill-opacity="1"></use><g><use xlink:href="#e1lvNodlZy" opacity="1" fill-opacity="0" stroke="#020000" stroke-width="2" stroke-opacity="1"></use></g></g><g><use xlink:href="#i3QkIH70nB" opacity="1" fill="#fffcfc" fill-opacity="1"></use><g><use xlink:href="#i3QkIH70nB" opacity="1" fill-opacity="0" stroke="#020000" stroke-width="2" stroke-opacity="1"></use></g></g><g><use xlink:href="#bHKJO616D" opacity="1" fill="#020000" fill-opacity="1"></use><g><use xlink:href="#bHKJO616D" opacity="1" fill-opacity="0" stroke="#ffffff" stroke-width="2" stroke-opacity="1"></use></g></g><g><use xlink:href="#a1MQShi3Wq" opacity="1" fill="#020000" fill-opacity="1"></use><g><use xlink:href="#a1MQShi3Wq" opacity="1" fill-opacity="0" stroke="#020000" stroke-width="2" stroke-opacity="1"></use></g></g><g><use xlink:href="#g1sk9Tkdeb" opacity="1" fill="#ffffff" fill-opacity="1"></use><g><use xlink:href="#g1sk9Tkdeb" opacity="1" fill-opacity="0" stroke="#020000" stroke-width="2" stroke-opacity="1"></use></g></g><g><use xlink:href="#d25xl9813" opacity="1" fill="#fffcfc" fill-opacity="1"></use><g><use xlink:href="#d25xl9813" opacity="1" fill-opacity="0" stroke="#180218" stroke-width="2" stroke-opacity="1"></use></g></g><g><use xlink:href="#a4ycOCKit" opacity="1" fill="#ffffff" fill-opacity="1"></use><g><use xlink:href="#a4ycOCKit" opacity="1" fill-opacity="0" stroke="#020000" stroke-width="2" stroke-opacity="1"></use></g></g><g><use xlink:href="#f2zBUcmV" opacity="1" fill="#ffffff" fill-opacity="1"></use><g><use xlink:href="#f2zBUcmV" opacity="1" fill-opacity="0" stroke="#020000" stroke-width="2" stroke-opacity="1"></use></g></g><g><use xlink:href="#fniGPJ1Gj" opacity="1" fill="#ffffff" fill-opacity="1"></use><g><use xlink:href="#fniGPJ1Gj" opacity="1" fill-opacity="0" stroke="#050000" stroke-width="2" stroke-opacity="1"></use></g></g><g><use xlink:href="#b1othoFOoP" opacity="1" fill="#ffffff" fill-opacity="1"></use><g><use xlink:href="#b1othoFOoP" opacity="1" fill-opacity="0" stroke="#050000" stroke-width="2" stroke-opacity="1"></use></g></g><g><use xlink:href="#f2EcJNjmDZ" opacity="1" fill="#ffffff" fill-opacity="1"></use><g><use xlink:href="#f2EcJNjmDZ" opacity="1" fill-opacity="0" stroke="#050000" stroke-width="2" stroke-opacity="1"></use></g></g><g><use xlink:href="#gmI5BA3gp" opacity="1" fill="#ffffff" fill-opacity="1"></use><g><use xlink:href="#gmI5BA3gp" opacity="1" fill-opacity="0" stroke="#050000" stroke-width="2" stroke-opacity="1"></use></g></g><g><use xlink:href="#awHikvmit" opacity="1" fill="#ffffff" fill-opacity="1"></use><g><use xlink:href="#awHikvmit" opacity="1" fill-opacity="0" stroke="#050000" stroke-width="2" stroke-opacity="1"></use></g></g><g><use xlink:href="#j1N5RvLUhy" opacity="1" fill="#ffffff" fill-opacity="1"></use><g><use xlink:href="#j1N5RvLUhy" opacity="1" fill-opacity="0" stroke="#050000" stroke-width="2" stroke-opacity="1"></use></g></g><g><use xlink:href="#a4WRAUEOif" opacity="1" fill="#ffffff" fill-opacity="1"></use><g><use xlink:href="#a4WRAUEOif" opacity="1" fill-opacity="0" stroke="#050000" stroke-width="2" stroke-opacity="1"></use></g></g><g><use xlink:href="#eKS45WZbq" opacity="1" fill="#020000" fill-opacity="1"></use><g><use xlink:href="#eKS45WZbq" opacity="1" fill-opacity="0" stroke="#ffffff" stroke-width="1" stroke-opacity="1"></use></g></g><g><use xlink:href="#b1n4xlTMTq" opacity="1" fill="#ffffff" fill-opacity="1"></use><g><use xlink:href="#b1n4xlTMTq" opacity="1" fill-opacity="0" stroke="#050000" stroke-width="2" stroke-opacity="1"></use></g></g><g><use xlink:href="#d2JOujHxpH" opacity="1" fill="#020000" fill-opacity="1"></use><g><use xlink:href="#d2JOujHxpH" opacity="1" fill-opacity="0" stroke="#ffffff" stroke-width="1" stroke-opacity="1"></use></g></g><g><use xlink:href="#a2TJS4vHG" opacity="1" fill="#020000" fill-opacity="1"></use><g><use xlink:href="#a2TJS4vHG" opacity="1" fill-opacity="0" stroke="#ffffff" stroke-width="1" stroke-opacity="1"></use></g></g></g></g></svg>